<?xml version="1.0" encoding="UTF-8" standalone="no"?>
<!DOCTYPE svg PUBLIC "-//W3C//DTD SVG 1.1//EN"
 "http://www.w3.org/Graphics/SVG/1.1/DTD/svg11.dtd">
<!-- Generated by graphviz version 2.26.0 (20091210.2329)
 -->
<!-- Title: G Pages: 1 -->
<svg width="796pt" height="2950pt"
 viewBox="0.00 0.00 796.00 2950.00" xmlns="http://www.w3.org/2000/svg" xmlns:xlink="http://www.w3.org/1999/xlink">
<g id="graph1" class="graph" transform="scale(1 1) rotate(0) translate(4 2946)">
<title>G</title>
<polygon fill="white" stroke="white" points="-4,5 -4,-2946 793,-2946 793,5 -4,5"/>
<g id="graph2" class="cluster"><title>cluster_Global</title>
<polyline fill="none" stroke="gray" points="151,-102 768,-102 "/>
<path fill="none" stroke="gray" d="M768,-102C774,-102 780,-108 780,-114"/>
<polyline fill="none" stroke="gray" points="780,-114 780,-2922 "/>
<path fill="none" stroke="gray" d="M780,-2922C780,-2928 774,-2934 768,-2934"/>
<polyline fill="none" stroke="gray" points="768,-2934 151,-2934 "/>
<path fill="none" stroke="gray" d="M151,-2934C145,-2934 139,-2928 139,-2922"/>
<polyline fill="none" stroke="gray" points="139,-2922 139,-114 "/>
<path fill="none" stroke="gray" d="M139,-114C139,-108 145,-102 151,-102"/>
<text text-anchor="middle" x="459.5" y="-2920.1" font-family="Times Roman,serif" font-size="11.00" fill="gray">Global</text>
</g>
<g id="graph3" class="cluster"><title>cluster_\JCORE</title>
<polyline fill="none" stroke="gray" points="159,-110 760,-110 "/>
<path fill="none" stroke="gray" d="M760,-110C766,-110 772,-116 772,-122"/>
<polyline fill="none" stroke="gray" points="772,-122 772,-2891 "/>
<path fill="none" stroke="gray" d="M772,-2891C772,-2897 766,-2903 760,-2903"/>
<polyline fill="none" stroke="gray" points="760,-2903 159,-2903 "/>
<path fill="none" stroke="gray" d="M159,-2903C153,-2903 147,-2897 147,-2891"/>
<polyline fill="none" stroke="gray" points="147,-2891 147,-122 "/>
<path fill="none" stroke="gray" d="M147,-122C147,-116 153,-110 159,-110"/>
<text text-anchor="middle" x="459.5" y="-2889.1" font-family="Times Roman,serif" font-size="11.00" fill="gray">JCORE</text>
</g>
<g id="graph4" class="cluster"><title>cluster_\JCORE\EXAMPLE</title>
<polyline fill="none" stroke="gray" points="640,-2758 706,-2758 "/>
<path fill="none" stroke="gray" d="M706,-2758C712,-2758 718,-2764 718,-2770"/>
<polyline fill="none" stroke="gray" points="718,-2770 718,-2860 "/>
<path fill="none" stroke="gray" d="M718,-2860C718,-2866 712,-2872 706,-2872"/>
<polyline fill="none" stroke="gray" points="706,-2872 640,-2872 "/>
<path fill="none" stroke="gray" d="M640,-2872C634,-2872 628,-2866 628,-2860"/>
<polyline fill="none" stroke="gray" points="628,-2860 628,-2770 "/>
<path fill="none" stroke="gray" d="M628,-2770C628,-2764 634,-2758 640,-2758"/>
<text text-anchor="middle" x="673" y="-2858.1" font-family="Times Roman,serif" font-size="11.00" fill="gray">EXAMPLE</text>
</g>
<g id="graph5" class="cluster"><title>cluster_\JCORE\EXAMPLE\EXT_REF</title>
<polyline fill="none" stroke="gray" points="648,-2766 698,-2766 "/>
<path fill="none" stroke="gray" d="M698,-2766C704,-2766 710,-2772 710,-2778"/>
<polyline fill="none" stroke="gray" points="710,-2778 710,-2829 "/>
<path fill="none" stroke="gray" d="M710,-2829C710,-2835 704,-2841 698,-2841"/>
<polyline fill="none" stroke="gray" points="698,-2841 648,-2841 "/>
<path fill="none" stroke="gray" d="M648,-2841C642,-2841 636,-2835 636,-2829"/>
<polyline fill="none" stroke="gray" points="636,-2829 636,-2778 "/>
<path fill="none" stroke="gray" d="M636,-2778C636,-2772 642,-2766 648,-2766"/>
<text text-anchor="middle" x="673" y="-2827.1" font-family="Times Roman,serif" font-size="11.00" fill="gray">EXT_REF</text>
</g>
<g id="graph6" class="cluster"><title>cluster_\JCORE\DAO</title>
<polyline fill="none" stroke="gray" points="633,-2536 713,-2536 "/>
<path fill="none" stroke="gray" d="M713,-2536C719,-2536 725,-2542 725,-2548"/>
<polyline fill="none" stroke="gray" points="725,-2548 725,-2738 "/>
<path fill="none" stroke="gray" d="M725,-2738C725,-2744 719,-2750 713,-2750"/>
<polyline fill="none" stroke="gray" points="713,-2750 633,-2750 "/>
<path fill="none" stroke="gray" d="M633,-2750C627,-2750 621,-2744 621,-2738"/>
<polyline fill="none" stroke="gray" points="621,-2738 621,-2548 "/>
<path fill="none" stroke="gray" d="M621,-2548C621,-2542 627,-2536 633,-2536"/>
<text text-anchor="middle" x="673" y="-2736.1" font-family="Times Roman,serif" font-size="11.00" fill="gray">DAO</text>
</g>
<g id="graph7" class="cluster"><title>cluster_\JCORE\DAO\TREE</title>
<polyline fill="none" stroke="gray" points="641,-2644 705,-2644 "/>
<path fill="none" stroke="gray" d="M705,-2644C711,-2644 717,-2650 717,-2656"/>
<polyline fill="none" stroke="gray" points="717,-2656 717,-2707 "/>
<path fill="none" stroke="gray" d="M717,-2707C717,-2713 711,-2719 705,-2719"/>
<polyline fill="none" stroke="gray" points="705,-2719 641,-2719 "/>
<path fill="none" stroke="gray" d="M641,-2719C635,-2719 629,-2713 629,-2707"/>
<polyline fill="none" stroke="gray" points="629,-2707 629,-2656 "/>
<path fill="none" stroke="gray" d="M629,-2656C629,-2650 635,-2644 641,-2644"/>
<text text-anchor="middle" x="673" y="-2705.1" font-family="Times Roman,serif" font-size="11.00" fill="gray">TREE</text>
</g>
<g id="graph8" class="cluster"><title>cluster_\JCORE\CACHE</title>
<polyline fill="none" stroke="gray" points="167,-2129 745,-2129 "/>
<path fill="none" stroke="gray" d="M745,-2129C751,-2129 757,-2135 757,-2141"/>
<polyline fill="none" stroke="gray" points="757,-2141 757,-2516 "/>
<path fill="none" stroke="gray" d="M757,-2516C757,-2522 751,-2528 745,-2528"/>
<polyline fill="none" stroke="gray" points="745,-2528 167,-2528 "/>
<path fill="none" stroke="gray" d="M167,-2528C161,-2528 155,-2522 155,-2516"/>
<polyline fill="none" stroke="gray" points="155,-2516 155,-2141 "/>
<path fill="none" stroke="gray" d="M155,-2141C155,-2135 161,-2129 167,-2129"/>
<text text-anchor="middle" x="456" y="-2514.1" font-family="Times Roman,serif" font-size="11.00" fill="gray">CACHE</text>
</g>
<g id="graph9" class="cluster"><title>cluster_\JCORE\TRANSPORT</title>
<polyline fill="none" stroke="gray" points="190,-1413 745,-1413 "/>
<path fill="none" stroke="gray" d="M745,-1413C751,-1413 757,-1419 757,-1425"/>
<polyline fill="none" stroke="gray" points="757,-1425 757,-2109 "/>
<path fill="none" stroke="gray" d="M757,-2109C757,-2115 751,-2121 745,-2121"/>
<polyline fill="none" stroke="gray" points="745,-2121 190,-2121 "/>
<path fill="none" stroke="gray" d="M190,-2121C184,-2121 178,-2115 178,-2109"/>
<polyline fill="none" stroke="gray" points="178,-2109 178,-1425 "/>
<path fill="none" stroke="gray" d="M178,-1425C178,-1419 184,-1413 190,-1413"/>
<text text-anchor="middle" x="467.5" y="-2107.1" font-family="Times Roman,serif" font-size="11.00" fill="gray">TRANSPORT</text>
</g>
<g id="graph10" class="cluster"><title>cluster_\JCORE\TRANSPORT\XML</title>
<polyline fill="none" stroke="gray" points="650,-2015 696,-2015 "/>
<path fill="none" stroke="gray" d="M696,-2015C702,-2015 708,-2021 708,-2027"/>
<polyline fill="none" stroke="gray" points="708,-2027 708,-2078 "/>
<path fill="none" stroke="gray" d="M708,-2078C708,-2084 702,-2090 696,-2090"/>
<polyline fill="none" stroke="gray" points="696,-2090 650,-2090 "/>
<path fill="none" stroke="gray" d="M650,-2090C644,-2090 638,-2084 638,-2078"/>
<polyline fill="none" stroke="gray" points="638,-2078 638,-2027 "/>
<path fill="none" stroke="gray" d="M638,-2027C638,-2021 644,-2015 650,-2015"/>
<text text-anchor="middle" x="673" y="-2076.1" font-family="Times Roman,serif" font-size="11.00" fill="gray">XML</text>
</g>
<g id="graph11" class="cluster"><title>cluster_\JCORE\TRANSPORT\REST</title>
<polyline fill="none" stroke="gray" points="634,-1932 712,-1932 "/>
<path fill="none" stroke="gray" d="M712,-1932C718,-1932 724,-1938 724,-1944"/>
<polyline fill="none" stroke="gray" points="724,-1944 724,-1995 "/>
<path fill="none" stroke="gray" d="M724,-1995C724,-2001 718,-2007 712,-2007"/>
<polyline fill="none" stroke="gray" points="712,-2007 634,-2007 "/>
<path fill="none" stroke="gray" d="M634,-2007C628,-2007 622,-2001 622,-1995"/>
<polyline fill="none" stroke="gray" points="622,-1995 622,-1944 "/>
<path fill="none" stroke="gray" d="M622,-1944C622,-1938 628,-1932 634,-1932"/>
<text text-anchor="middle" x="673" y="-1993.1" font-family="Times Roman,serif" font-size="11.00" fill="gray">REST</text>
</g>
<g id="graph12" class="cluster"><title>cluster_\JCORE\TRANSPORT\SOA</title>
<polyline fill="none" stroke="gray" points="611,-1795 735,-1795 "/>
<path fill="none" stroke="gray" d="M735,-1795C741,-1795 747,-1801 747,-1807"/>
<polyline fill="none" stroke="gray" points="747,-1807 747,-1912 "/>
<path fill="none" stroke="gray" d="M747,-1912C747,-1918 741,-1924 735,-1924"/>
<polyline fill="none" stroke="gray" points="735,-1924 611,-1924 "/>
<path fill="none" stroke="gray" d="M611,-1924C605,-1924 599,-1918 599,-1912"/>
<polyline fill="none" stroke="gray" points="599,-1912 599,-1807 "/>
<path fill="none" stroke="gray" d="M599,-1807C599,-1801 605,-1795 611,-1795"/>
<text text-anchor="middle" x="673" y="-1910.1" font-family="Times Roman,serif" font-size="11.00" fill="gray">SOA</text>
</g>
<g id="graph13" class="cluster"><title>cluster_\JCORE\TRANSPORT\HTTP</title>
<polyline fill="none" stroke="gray" points="638,-1658 708,-1658 "/>
<path fill="none" stroke="gray" d="M708,-1658C714,-1658 720,-1664 720,-1670"/>
<polyline fill="none" stroke="gray" points="720,-1670 720,-1775 "/>
<path fill="none" stroke="gray" d="M720,-1775C720,-1781 714,-1787 708,-1787"/>
<polyline fill="none" stroke="gray" points="708,-1787 638,-1787 "/>
<path fill="none" stroke="gray" d="M638,-1787C632,-1787 626,-1781 626,-1775"/>
<polyline fill="none" stroke="gray" points="626,-1775 626,-1670 "/>
<path fill="none" stroke="gray" d="M626,-1670C626,-1664 632,-1658 638,-1658"/>
<text text-anchor="middle" x="673" y="-1773.1" font-family="Times Roman,serif" font-size="11.00" fill="gray">HTTP</text>
</g>
<g id="graph14" class="cluster"><title>cluster_\JCORE\TRANSPORT\JSON</title>
<polyline fill="none" stroke="gray" points="618,-1521 728,-1521 "/>
<path fill="none" stroke="gray" d="M728,-1521C734,-1521 740,-1527 740,-1533"/>
<polyline fill="none" stroke="gray" points="740,-1533 740,-1638 "/>
<path fill="none" stroke="gray" d="M740,-1638C740,-1644 734,-1650 728,-1650"/>
<polyline fill="none" stroke="gray" points="728,-1650 618,-1650 "/>
<path fill="none" stroke="gray" d="M618,-1650C612,-1650 606,-1644 606,-1638"/>
<polyline fill="none" stroke="gray" points="606,-1638 606,-1533 "/>
<path fill="none" stroke="gray" d="M606,-1533C606,-1527 612,-1521 618,-1521"/>
<text text-anchor="middle" x="673" y="-1636.1" font-family="Times Roman,serif" font-size="11.00" fill="gray">JSON</text>
</g>
<g id="graph15" class="cluster"><title>cluster_\JCORE\DATA</title>
<polyline fill="none" stroke="gray" points="186,-932 748,-932 "/>
<path fill="none" stroke="gray" d="M748,-932C754,-932 760,-938 760,-944"/>
<polyline fill="none" stroke="gray" points="760,-944 760,-1393 "/>
<path fill="none" stroke="gray" d="M760,-1393C760,-1399 754,-1405 748,-1405"/>
<polyline fill="none" stroke="gray" points="748,-1405 186,-1405 "/>
<path fill="none" stroke="gray" d="M186,-1405C180,-1405 174,-1399 174,-1393"/>
<polyline fill="none" stroke="gray" points="174,-1393 174,-944 "/>
<path fill="none" stroke="gray" d="M174,-944C174,-938 180,-932 186,-932"/>
<text text-anchor="middle" x="467" y="-1391.1" font-family="Times Roman,serif" font-size="11.00" fill="gray">DATA</text>
</g>
<g id="graph16" class="cluster"><title>cluster_\JCORE\DATA\API</title>
<polyline fill="none" stroke="gray" points="194,-940 740,-940 "/>
<path fill="none" stroke="gray" d="M740,-940C746,-940 752,-946 752,-952"/>
<polyline fill="none" stroke="gray" points="752,-952 752,-1362 "/>
<path fill="none" stroke="gray" d="M752,-1362C752,-1368 746,-1374 740,-1374"/>
<polyline fill="none" stroke="gray" points="740,-1374 194,-1374 "/>
<path fill="none" stroke="gray" d="M194,-1374C188,-1374 182,-1368 182,-1362"/>
<polyline fill="none" stroke="gray" points="182,-1362 182,-952 "/>
<path fill="none" stroke="gray" d="M182,-952C182,-946 188,-940 194,-940"/>
<text text-anchor="middle" x="467" y="-1360.1" font-family="Times Roman,serif" font-size="11.00" fill="gray">API</text>
</g>
<g id="graph17" class="cluster"><title>cluster_\JCORE\DATA\API\REDIS</title>
<polyline fill="none" stroke="gray" points="618,-1185 728,-1185 "/>
<path fill="none" stroke="gray" d="M728,-1185C734,-1185 740,-1191 740,-1197"/>
<polyline fill="none" stroke="gray" points="740,-1197 740,-1248 "/>
<path fill="none" stroke="gray" d="M740,-1248C740,-1254 734,-1260 728,-1260"/>
<polyline fill="none" stroke="gray" points="728,-1260 618,-1260 "/>
<path fill="none" stroke="gray" d="M618,-1260C612,-1260 606,-1254 606,-1248"/>
<polyline fill="none" stroke="gray" points="606,-1248 606,-1197 "/>
<path fill="none" stroke="gray" d="M606,-1197C606,-1191 612,-1185 618,-1185"/>
<text text-anchor="middle" x="673" y="-1246.1" font-family="Times Roman,serif" font-size="11.00" fill="gray">REDIS</text>
</g>
<g id="graph18" class="cluster"><title>cluster_\JCORE\DATA\API\MySQL</title>
<polyline fill="none" stroke="gray" points="614,-1048 732,-1048 "/>
<path fill="none" stroke="gray" d="M732,-1048C738,-1048 744,-1054 744,-1060"/>
<polyline fill="none" stroke="gray" points="744,-1060 744,-1165 "/>
<path fill="none" stroke="gray" d="M744,-1165C744,-1171 738,-1177 732,-1177"/>
<polyline fill="none" stroke="gray" points="732,-1177 614,-1177 "/>
<path fill="none" stroke="gray" d="M614,-1177C608,-1177 602,-1171 602,-1165"/>
<polyline fill="none" stroke="gray" points="602,-1165 602,-1060 "/>
<path fill="none" stroke="gray" d="M602,-1060C602,-1054 608,-1048 614,-1048"/>
<text text-anchor="middle" x="673" y="-1163.1" font-family="Times Roman,serif" font-size="11.00" fill="gray">MySQL</text>
</g>
<g id="graph19" class="cluster"><title>cluster_\JCORE\DATA\API\FILE</title>
<polyline fill="none" stroke="gray" points="625,-1268 721,-1268 "/>
<path fill="none" stroke="gray" d="M721,-1268C727,-1268 733,-1274 733,-1280"/>
<polyline fill="none" stroke="gray" points="733,-1280 733,-1331 "/>
<path fill="none" stroke="gray" d="M733,-1331C733,-1337 727,-1343 721,-1343"/>
<polyline fill="none" stroke="gray" points="721,-1343 625,-1343 "/>
<path fill="none" stroke="gray" d="M625,-1343C619,-1343 613,-1337 613,-1331"/>
<polyline fill="none" stroke="gray" points="613,-1331 613,-1280 "/>
<path fill="none" stroke="gray" d="M613,-1280C613,-1274 619,-1268 625,-1268"/>
<text text-anchor="middle" x="673" y="-1329.1" font-family="Times Roman,serif" font-size="11.00" fill="gray">FILE</text>
</g>
<g id="graph20" class="cluster"><title>cluster_\JCORE\EXCEPTION</title>
<polyline fill="none" stroke="gray" points="614,-741 732,-741 "/>
<path fill="none" stroke="gray" d="M732,-741C738,-741 744,-747 744,-753"/>
<polyline fill="none" stroke="gray" points="744,-753 744,-912 "/>
<path fill="none" stroke="gray" d="M744,-912C744,-918 738,-924 732,-924"/>
<polyline fill="none" stroke="gray" points="732,-924 614,-924 "/>
<path fill="none" stroke="gray" d="M614,-924C608,-924 602,-918 602,-912"/>
<polyline fill="none" stroke="gray" points="602,-912 602,-753 "/>
<path fill="none" stroke="gray" d="M602,-753C602,-747 608,-741 614,-741"/>
<text text-anchor="middle" x="673" y="-910.1" font-family="Times Roman,serif" font-size="11.00" fill="gray">EXCEPTION</text>
</g>
<g id="graph21" class="cluster"><title>cluster_\JCORE\TEMPLATER</title>
<polyline fill="none" stroke="gray" points="638,-658 708,-658 "/>
<path fill="none" stroke="gray" d="M708,-658C714,-658 720,-664 720,-670"/>
<polyline fill="none" stroke="gray" points="720,-670 720,-721 "/>
<path fill="none" stroke="gray" d="M720,-721C720,-727 714,-733 708,-733"/>
<polyline fill="none" stroke="gray" points="708,-733 638,-733 "/>
<path fill="none" stroke="gray" d="M638,-733C632,-733 626,-727 626,-721"/>
<polyline fill="none" stroke="gray" points="626,-721 626,-670 "/>
<path fill="none" stroke="gray" d="M626,-670C626,-664 632,-658 638,-658"/>
<text text-anchor="middle" x="673" y="-719.1" font-family="Times Roman,serif" font-size="11.00" fill="gray">TEMPLATER</text>
</g>
<g id="graph22" class="cluster"><title>cluster_\JCORE\LOAD</title>
<polyline fill="none" stroke="gray" points="594,-467 752,-467 "/>
<path fill="none" stroke="gray" d="M752,-467C758,-467 764,-473 764,-479"/>
<polyline fill="none" stroke="gray" points="764,-479 764,-638 "/>
<path fill="none" stroke="gray" d="M764,-638C764,-644 758,-650 752,-650"/>
<polyline fill="none" stroke="gray" points="752,-650 594,-650 "/>
<path fill="none" stroke="gray" d="M594,-650C588,-650 582,-644 582,-638"/>
<polyline fill="none" stroke="gray" points="582,-638 582,-479 "/>
<path fill="none" stroke="gray" d="M582,-479C582,-473 588,-467 594,-467"/>
<text text-anchor="middle" x="673" y="-636.1" font-family="Times Roman,serif" font-size="11.00" fill="gray">LOAD</text>
</g>
<g id="graph23" class="cluster"><title>cluster_\JCORE\L10N</title>
<polyline fill="none" stroke="gray" points="621,-384 725,-384 "/>
<path fill="none" stroke="gray" d="M725,-384C731,-384 737,-390 737,-396"/>
<polyline fill="none" stroke="gray" points="737,-396 737,-447 "/>
<path fill="none" stroke="gray" d="M737,-447C737,-453 731,-459 725,-459"/>
<polyline fill="none" stroke="gray" points="725,-459 621,-459 "/>
<path fill="none" stroke="gray" d="M621,-459C615,-459 609,-453 609,-447"/>
<polyline fill="none" stroke="gray" points="609,-447 609,-396 "/>
<path fill="none" stroke="gray" d="M609,-396C609,-390 615,-384 621,-384"/>
<text text-anchor="middle" x="673" y="-445.1" font-family="Times Roman,serif" font-size="11.00" fill="gray">L10N</text>
</g>
<g id="graph24" class="cluster"><title>cluster_\JCORE\AUTH</title>
<polyline fill="none" stroke="gray" points="207,-247 718,-247 "/>
<path fill="none" stroke="gray" d="M718,-247C724,-247 730,-253 730,-259"/>
<polyline fill="none" stroke="gray" points="730,-259 730,-364 "/>
<path fill="none" stroke="gray" d="M730,-364C730,-370 724,-376 718,-376"/>
<polyline fill="none" stroke="gray" points="718,-376 207,-376 "/>
<path fill="none" stroke="gray" d="M207,-376C201,-376 195,-370 195,-364"/>
<polyline fill="none" stroke="gray" points="195,-364 195,-259 "/>
<path fill="none" stroke="gray" d="M195,-259C195,-253 201,-247 207,-247"/>
<text text-anchor="middle" x="462.5" y="-362.1" font-family="Times Roman,serif" font-size="11.00" fill="gray">AUTH</text>
</g>
<g id="graph25" class="cluster"><title>cluster_\JCORE\LOG</title>
<polyline fill="none" stroke="gray" points="648,-164 698,-164 "/>
<path fill="none" stroke="gray" d="M698,-164C704,-164 710,-170 710,-176"/>
<polyline fill="none" stroke="gray" points="710,-176 710,-227 "/>
<path fill="none" stroke="gray" d="M710,-227C710,-233 704,-239 698,-239"/>
<polyline fill="none" stroke="gray" points="698,-239 648,-239 "/>
<path fill="none" stroke="gray" d="M648,-239C642,-239 636,-233 636,-227"/>
<polyline fill="none" stroke="gray" points="636,-227 636,-176 "/>
<path fill="none" stroke="gray" d="M636,-176C636,-170 642,-164 648,-164"/>
<text text-anchor="middle" x="673" y="-225.1" font-family="Times Roman,serif" font-size="11.00" fill="gray">LOG</text>
</g>
<!-- \\JCORE\\EXAMPLE\\EXT_REF\\XCache -->
<g id="node5" class="node"><title>\\JCORE\\EXAMPLE\\EXT_REF\\XCache</title>
<polygon fill="none" stroke="black" points="701,-2810 645,-2810 645,-2774 701,-2774 701,-2810"/>
<text text-anchor="middle" x="673" y="-2789.1" font-family="Courier,monospace" font-size="11.00">XCache</text>
</g>
<!-- \\JCORE\\DAO\\TREE\\DAO_TREE -->
<g id="node8" class="node"><title>\\JCORE\\DAO\\TREE\\DAO_TREE</title>
<polygon fill="none" stroke="black" points="708,-2688 638,-2688 638,-2652 708,-2652 708,-2688"/>
<text text-anchor="middle" x="673" y="-2667.1" font-family="Courier,monospace" font-size="11.00">DAO_TREE</text>
</g>
<!-- \\JCORE\\DAO\\DAO -->
<g id="node9" class="node"><title>\\JCORE\\DAO\\DAO</title>
<polygon fill="none" stroke="black" points="700,-2634 646,-2634 646,-2598 700,-2598 700,-2634"/>
<text text-anchor="middle" x="673" y="-2613.1" font-family="Courier,monospace" font-size="11.00">DAO</text>
</g>
<!-- \\JCORE\\DAO\\SESSION -->
<g id="node10" class="node"><title>\\JCORE\\DAO\\SESSION</title>
<polygon fill="none" stroke="black" points="705,-2580 641,-2580 641,-2544 705,-2544 705,-2580"/>
<text text-anchor="middle" x="673" y="-2559.1" font-family="Courier,monospace" font-size="11.00">SESSION</text>
</g>
<!-- \\JCORE\\CACHE\\MEMCACHED -->
<g id="node12" class="node"><title>\\JCORE\\CACHE\\MEMCACHED</title>
<polygon fill="none" stroke="black" points="711,-2335 635,-2335 635,-2299 711,-2299 711,-2335"/>
<text text-anchor="middle" x="673" y="-2314.1" font-family="Courier,monospace" font-size="11.00">MEMCACHED</text>
</g>
<!-- \\JCORE\\CACHE\\CACHE_COMMON_API_INTERFACE -->
<g id="node20" class="node"><title>\\JCORE\\CACHE\\CACHE_COMMON_API_INTERFACE</title>
<polygon fill="none" stroke="black" points="355,-2389 163,-2389 163,-2353 355,-2353 355,-2389"/>
<text text-anchor="middle" x="259" y="-2368.1" font-family="Courier,monospace" font-size="11.00">CACHE_COMMON_API_INTERFACE</text>
</g>
<!-- \\JCORE\\CACHE\\MEMCACHED&#45;&gt;\\JCORE\\CACHE\\CACHE_COMMON_API_INTERFACE -->
<g id="edge26" class="edge"><title>\\JCORE\\CACHE\\MEMCACHED&#45;&gt;\\JCORE\\CACHE\\CACHE_COMMON_API_INTERFACE</title>
<path fill="none" stroke="black" stroke-dasharray="1,5" d="M634.424,-2322.03C573.636,-2329.96 453.421,-2345.64 365.343,-2357.13"/>
<polygon fill="none" stroke="black" points="364.771,-2353.67 355.308,-2358.44 365.677,-2360.62 364.771,-2353.67"/>
</g>
<!-- \\JCORE\\CACHE\\CACHE_API2 -->
<g id="node13" class="node"><title>\\JCORE\\CACHE\\CACHE_API2</title>
<polygon fill="none" stroke="black" points="715,-2443 631,-2443 631,-2407 715,-2407 715,-2443"/>
<text text-anchor="middle" x="673" y="-2422.1" font-family="Courier,monospace" font-size="11.00">CACHE_API2</text>
</g>
<!-- \\JCORE\\CACHE\\CACHE_API2&#45;&gt;\\JCORE\\CACHE\\CACHE_COMMON_API_INTERFACE -->
<g id="edge30" class="edge"><title>\\JCORE\\CACHE\\CACHE_API2&#45;&gt;\\JCORE\\CACHE\\CACHE_COMMON_API_INTERFACE</title>
<path fill="none" stroke="black" stroke-dasharray="1,5" d="M630.807,-2414.87C599.774,-2407.77 556.477,-2398.59 518,-2393 468.073,-2385.75 412.358,-2380.64 365.432,-2377.18"/>
<polygon fill="none" stroke="black" points="365.477,-2373.67 355.251,-2376.44 364.972,-2380.65 365.477,-2373.67"/>
</g>
<!-- \\JCORE\\CACHE\\URL_API -->
<g id="node14" class="node"><title>\\JCORE\\CACHE\\URL_API</title>
<polygon fill="none" stroke="black" points="705,-2227 641,-2227 641,-2191 705,-2191 705,-2227"/>
<text text-anchor="middle" x="673" y="-2206.1" font-family="Courier,monospace" font-size="11.00">URL_API</text>
</g>
<!-- \\JCORE\\TRANSPORT\\TRANSPORT_INTERFACE -->
<g id="node37" class="node"><title>\\JCORE\\TRANSPORT\\TRANSPORT_INTERFACE</title>
<polygon fill="none" stroke="black" points="331,-1976 187,-1976 187,-1940 331,-1940 331,-1976"/>
<text text-anchor="middle" x="259" y="-1955.1" font-family="Courier,monospace" font-size="11.00">TRANSPORT_INTERFACE</text>
</g>
<!-- \\JCORE\\CACHE\\URL_API&#45;&gt;\\JCORE\\TRANSPORT\\TRANSPORT_INTERFACE -->
<g id="edge38" class="edge"><title>\\JCORE\\CACHE\\URL_API&#45;&gt;\\JCORE\\TRANSPORT\\TRANSPORT_INTERFACE</title>
<path fill="none" stroke="black" stroke-dasharray="1,5" d="M640.896,-2203.1C622.824,-2198.91 600.286,-2192.18 582,-2182 548.72,-2163.47 548.319,-2148.06 518,-2125 444.078,-2068.79 351.328,-2012.03 299.267,-1981.3"/>
<polygon fill="none" stroke="black" points="300.737,-1978.11 290.343,-1976.06 297.19,-1984.14 300.737,-1978.11"/>
</g>
<!-- \\JCORE\\CACHE\\SESSION -->
<g id="node15" class="node"><title>\\JCORE\\CACHE\\SESSION</title>
<polygon fill="none" stroke="black" points="705,-2281 641,-2281 641,-2245 705,-2245 705,-2281"/>
<text text-anchor="middle" x="673" y="-2260.1" font-family="Courier,monospace" font-size="11.00">SESSION</text>
</g>
<!-- \\JCORE\\CACHE\\PHP_SESSION -->
<g id="node19" class="node"><title>\\JCORE\\CACHE\\PHP_SESSION</title>
<polygon fill="none" stroke="black" points="304,-2281 214,-2281 214,-2245 304,-2245 304,-2281"/>
<text text-anchor="middle" x="259" y="-2260.1" font-family="Courier,monospace" font-size="11.00">PHP_SESSION</text>
</g>
<!-- \\JCORE\\CACHE\\SESSION&#45;&gt;\\JCORE\\CACHE\\PHP_SESSION -->
<g id="edge40" class="edge"><title>\\JCORE\\CACHE\\SESSION&#45;&gt;\\JCORE\\CACHE\\PHP_SESSION</title>
<path fill="none" stroke="black" stroke-dasharray="1,5" d="M640.859,-2263C570.592,-2263 402.58,-2263 314.706,-2263"/>
<polygon fill="none" stroke="black" points="314.657,-2259.5 304.657,-2263 314.657,-2266.5 314.657,-2259.5"/>
</g>
<!-- \\JCORE\\CACHE\\REDIS -->
<g id="node16" class="node"><title>\\JCORE\\CACHE\\REDIS</title>
<polygon fill="none" stroke="black" points="700,-2173 646,-2173 646,-2137 700,-2137 700,-2173"/>
<text text-anchor="middle" x="673" y="-2152.1" font-family="Courier,monospace" font-size="11.00">REDIS</text>
</g>
<!-- \\JCORE\\CACHE\\JCORE\\CACHE\\STATIC_API_INTERFACE -->
<g id="node81" class="node"><title>\\JCORE\\CACHE\\JCORE\\CACHE\\STATIC_API_INTERFACE</title>
<ellipse fill="none" stroke="black" cx="259" cy="-75" rx="258.801" ry="19.0919"/>
<text text-anchor="middle" x="259" y="-71.9" font-family="Times Roman,serif" font-size="14.00" fill="gray">\JCORE\CACHE\JCORE\CACHE\STATIC_API_INTERFACE</text>
</g>
<!-- \\JCORE\\CACHE\\REDIS&#45;&gt;\\JCORE\\CACHE\\JCORE\\CACHE\\STATIC_API_INTERFACE -->
<g id="edge44" class="edge"><title>\\JCORE\\CACHE\\REDIS&#45;&gt;\\JCORE\\CACHE\\JCORE\\CACHE\\STATIC_API_INTERFACE</title>
<path fill="none" stroke="black" stroke-dasharray="1,5" d="M645.814,-2144.92C624.339,-2135.37 595.771,-2118.77 582,-2094 482.003,-1914.14 619.353,-422.101 518,-243 476.07,-168.906 386.457,-122.08 324.478,-97.2093"/>
<polygon fill="none" stroke="black" points="325.749,-93.9483 315.162,-93.552 323.191,-100.464 325.749,-93.9483"/>
</g>
<!-- \\JCORE\\CACHE\\FILECACHE_API -->
<g id="node17" class="node"><title>\\JCORE\\CACHE\\FILECACHE_API</title>
<polygon fill="none" stroke="black" points="725,-2389 621,-2389 621,-2353 725,-2353 725,-2389"/>
<text text-anchor="middle" x="673" y="-2368.1" font-family="Courier,monospace" font-size="11.00">FILECACHE_API</text>
</g>
<!-- \\JCORE\\CACHE\\FILECACHE_API&#45;&gt;\\JCORE\\CACHE\\CACHE_COMMON_API_INTERFACE -->
<g id="edge50" class="edge"><title>\\JCORE\\CACHE\\FILECACHE_API&#45;&gt;\\JCORE\\CACHE\\CACHE_COMMON_API_INTERFACE</title>
<path fill="none" stroke="black" stroke-dasharray="1,5" d="M620.986,-2371C557.192,-2371 447.447,-2371 365.475,-2371"/>
<polygon fill="none" stroke="black" points="365.369,-2367.5 355.369,-2371 365.369,-2374.5 365.369,-2367.5"/>
</g>
<!-- \\JCORE\\CACHE\\STATIC_API_INTERFACE -->
<g id="node18" class="node"><title>\\JCORE\\CACHE\\STATIC_API_INTERFACE</title>
<polygon fill="none" stroke="black" points="749,-2497 597,-2497 597,-2461 749,-2461 749,-2497"/>
<text text-anchor="middle" x="673" y="-2476.1" font-family="Courier,monospace" font-size="11.00">STATIC_API_INTERFACE</text>
</g>
<!-- \\JCORE\\JCORE_SINGLETON_INTERFACE -->
<g id="node69" class="node"><title>\\JCORE\\JCORE_SINGLETON_INTERFACE</title>
<polygon fill="none" stroke="black" points="351,-2572 167,-2572 167,-2536 351,-2536 351,-2572"/>
<text text-anchor="middle" x="259" y="-2551.1" font-family="Courier,monospace" font-size="11.00">JCORE_SINGLETON_INTERFACE</text>
</g>
<!-- \\JCORE\\CACHE\\STATIC_API_INTERFACE&#45;&gt;\\JCORE\\JCORE_SINGLETON_INTERFACE -->
<g id="edge58" class="edge"><title>\\JCORE\\CACHE\\STATIC_API_INTERFACE&#45;&gt;\\JCORE\\JCORE_SINGLETON_INTERFACE</title>
<path fill="none" stroke="black" d="M629.376,-2497.13C598.753,-2509.05 556.547,-2523.9 518,-2532 467.184,-2542.68 409.724,-2548.2 361.859,-2551.05"/>
<polygon fill="none" stroke="black" points="361.583,-2547.56 351.796,-2551.61 361.977,-2554.55 361.583,-2547.56"/>
</g>
<!-- \\JCORE\\TRANSPORT\\XML\\SOAP -->
<g id="node23" class="node"><title>\\JCORE\\TRANSPORT\\XML\\SOAP</title>
<polygon fill="none" stroke="black" points="700,-2059 646,-2059 646,-2023 700,-2023 700,-2059"/>
<text text-anchor="middle" x="673" y="-2038.1" font-family="Courier,monospace" font-size="11.00">SOAP</text>
</g>
<!-- \\JCORE\\TRANSPORT\\XML\\SOAP&#45;&gt;\\JCORE\\TRANSPORT\\TRANSPORT_INTERFACE -->
<g id="edge28" class="edge"><title>\\JCORE\\TRANSPORT\\XML\\SOAP&#45;&gt;\\JCORE\\TRANSPORT\\TRANSPORT_INTERFACE</title>
<path fill="none" stroke="black" stroke-dasharray="1,5" d="M645.836,-2035.55C585.088,-2023.38 436.192,-1993.52 341.853,-1974.61"/>
<polygon fill="none" stroke="black" points="342.258,-1971.12 331.765,-1972.59 340.882,-1977.99 342.258,-1971.12"/>
</g>
<!-- \\JCORE\\TRANSPORT\\REST\\REST_API -->
<g id="node25" class="node"><title>\\JCORE\\TRANSPORT\\REST\\REST_API</title>
<polygon fill="none" stroke="black" points="715,-1976 631,-1976 631,-1940 715,-1940 715,-1976"/>
<text text-anchor="start" x="639" y="-1963.43" font-family="Courier,monospace" font-size="11.00">«abstract»</text>
<text text-anchor="start" x="645.5" y="-1950.23" font-family="Courier,monospace" font-size="11.00">REST_API</text>
</g>
<!-- \\JCORE\\TRANSPORT\\REST\\REST_API&#45;&gt;\\JCORE\\TRANSPORT\\TRANSPORT_INTERFACE -->
<g id="edge42" class="edge"><title>\\JCORE\\TRANSPORT\\REST\\REST_API&#45;&gt;\\JCORE\\TRANSPORT\\TRANSPORT_INTERFACE</title>
<path fill="none" stroke="black" stroke-dasharray="1,5" d="M630.254,-1958C562.389,-1958 428.785,-1958 341.733,-1958"/>
<polygon fill="none" stroke="black" points="341.619,-1954.5 331.619,-1958 341.619,-1961.5 341.619,-1954.5"/>
</g>
<!-- \\JCORE\\TRANSPORT\\SOA\\SERVICE_VALIDATOR -->
<g id="node27" class="node"><title>\\JCORE\\TRANSPORT\\SOA\\SERVICE_VALIDATOR</title>
<polygon fill="none" stroke="black" points="738,-1893 608,-1893 608,-1857 738,-1857 738,-1893"/>
<text text-anchor="middle" x="673" y="-1872.1" font-family="Courier,monospace" font-size="11.00">SERVICE_VALIDATOR</text>
</g>
<!-- \\JCORE\\TRANSPORT\\SOA\\SOA_BASE -->
<g id="node28" class="node"><title>\\JCORE\\TRANSPORT\\SOA\\SOA_BASE</title>
<polygon fill="none" stroke="black" points="715,-1839 631,-1839 631,-1803 715,-1803 715,-1839"/>
<text text-anchor="start" x="639" y="-1826.43" font-family="Courier,monospace" font-size="11.00">«abstract»</text>
<text text-anchor="start" x="645.5" y="-1813.23" font-family="Courier,monospace" font-size="11.00">SOA_BASE</text>
</g>
<!-- \\JCORE\\TRANSPORT\\HTTP\\HTTP_UTIL -->
<g id="node30" class="node"><title>\\JCORE\\TRANSPORT\\HTTP\\HTTP_UTIL</title>
<polygon fill="none" stroke="black" points="711,-1756 635,-1756 635,-1720 711,-1720 711,-1756"/>
<text text-anchor="middle" x="673" y="-1735.1" font-family="Courier,monospace" font-size="11.00">HTTP_UTIL</text>
</g>
<!-- \\JCORE\\TRANSPORT\\HTTP\\HTTP_API -->
<g id="node31" class="node"><title>\\JCORE\\TRANSPORT\\HTTP\\HTTP_API</title>
<polygon fill="none" stroke="black" points="708,-1702 638,-1702 638,-1666 708,-1666 708,-1702"/>
<text text-anchor="middle" x="673" y="-1681.1" font-family="Courier,monospace" font-size="11.00">HTTP_API</text>
</g>
<!-- \\JCORE\\TRANSPORT\\HTTP\\HTTP_API&#45;&gt;\\JCORE\\TRANSPORT\\TRANSPORT_INTERFACE -->
<g id="edge56" class="edge"><title>\\JCORE\\TRANSPORT\\HTTP\\HTTP_API&#45;&gt;\\JCORE\\TRANSPORT\\TRANSPORT_INTERFACE</title>
<path fill="none" stroke="black" stroke-dasharray="1,5" d="M637.288,-1691.39C620.02,-1695.76 599.331,-1702.18 582,-1711 459.615,-1773.27 336.734,-1883.51 284.767,-1932.87"/>
<polygon fill="none" stroke="black" points="282.144,-1930.54 277.335,-1939.98 286.981,-1935.6 282.144,-1930.54"/>
</g>
<!-- \\JCORE\\TRANSPORT\\JSON\\JSONRPC_1_0_API -->
<g id="node33" class="node"><title>\\JCORE\\TRANSPORT\\JSON\\JSONRPC_1_0_API</title>
<polygon fill="none" stroke="black" points="732,-1619 614,-1619 614,-1583 732,-1583 732,-1619"/>
<text text-anchor="middle" x="673" y="-1598.1" font-family="Courier,monospace" font-size="11.00">JSONRPC_1_0_API</text>
</g>
<!-- \\JCORE\\TRANSPORT\\JSON\\JSONRPC_1_0_API&#45;&gt;\\JCORE\\TRANSPORT\\TRANSPORT_INTERFACE -->
<g id="edge54" class="edge"><title>\\JCORE\\TRANSPORT\\JSON\\JSONRPC_1_0_API&#45;&gt;\\JCORE\\TRANSPORT\\TRANSPORT_INTERFACE</title>
<path fill="none" stroke="black" stroke-dasharray="1,5" d="M637.688,-1619.11C620.324,-1628.62 599.435,-1640.99 582,-1654 459.955,-1745.1 333.704,-1876.88 282.587,-1932.11"/>
<polygon fill="none" stroke="black" points="279.804,-1929.97 275.599,-1939.69 284.951,-1934.71 279.804,-1929.97"/>
</g>
<!-- \\JCORE\\TRANSPORT\\JSON\\JSON -->
<g id="node34" class="node"><title>\\JCORE\\TRANSPORT\\JSON\\JSON</title>
<polygon fill="none" stroke="black" points="700,-1565 646,-1565 646,-1529 700,-1529 700,-1565"/>
<text text-anchor="middle" x="673" y="-1544.1" font-family="Courier,monospace" font-size="11.00">JSON</text>
</g>
<!-- \\JCORE\\TRANSPORT\\SERIALIZATION -->
<g id="node35" class="node"><title>\\JCORE\\TRANSPORT\\SERIALIZATION</title>
<polygon fill="none" stroke="black" points="725,-1511 621,-1511 621,-1475 725,-1475 725,-1511"/>
<text text-anchor="middle" x="673" y="-1490.1" font-family="Courier,monospace" font-size="11.00">SERIALIZATION</text>
</g>
<!-- \\JCORE\\TRANSPORT\\SERIALIZATION_STATIC -->
<g id="node36" class="node"><title>\\JCORE\\TRANSPORT\\SERIALIZATION_STATIC</title>
<polygon fill="none" stroke="black" points="749,-1457 597,-1457 597,-1421 749,-1421 749,-1457"/>
<text text-anchor="middle" x="673" y="-1436.1" font-family="Courier,monospace" font-size="11.00">SERIALIZATION_STATIC</text>
</g>
<!-- \\JCORE\\DATA\\API\\REDIS\\REDIS_connector -->
<g id="node41" class="node"><title>\\JCORE\\DATA\\API\\REDIS\\REDIS_connector</title>
<polygon fill="none" stroke="black" points="732,-1229 614,-1229 614,-1193 732,-1193 732,-1229"/>
<text text-anchor="middle" x="673" y="-1208.1" font-family="Courier,monospace" font-size="11.00">REDIS_connector</text>
</g>
<!-- \\JCORE\\DATA\\API\\DATA_API_INTERFACE -->
<g id="node49" class="node"><title>\\JCORE\\DATA\\API\\DATA_API_INTERFACE</title>
<polygon fill="none" stroke="black" points="328,-1229 190,-1229 190,-1193 328,-1193 328,-1229"/>
<text text-anchor="middle" x="259" y="-1208.1" font-family="Courier,monospace" font-size="11.00">DATA_API_INTERFACE</text>
</g>
<!-- \\JCORE\\DATA\\API\\REDIS\\REDIS_connector&#45;&gt;\\JCORE\\DATA\\API\\DATA_API_INTERFACE -->
<g id="edge32" class="edge"><title>\\JCORE\\DATA\\API\\REDIS\\REDIS_connector&#45;&gt;\\JCORE\\DATA\\API\\DATA_API_INTERFACE</title>
<path fill="none" stroke="black" stroke-dasharray="1,5" d="M613.684,-1211C541.32,-1211 418.711,-1211 338.299,-1211"/>
<polygon fill="none" stroke="black" points="338.22,-1207.5 328.22,-1211 338.22,-1214.5 338.22,-1207.5"/>
</g>
<!-- \\JCORE\\DATA\\API\\MySQL\\MySQL_connector -->
<g id="node43" class="node"><title>\\JCORE\\DATA\\API\\MySQL\\MySQL_connector</title>
<polygon fill="none" stroke="black" points="732,-1146 614,-1146 614,-1110 732,-1110 732,-1146"/>
<text text-anchor="middle" x="673" y="-1125.1" font-family="Courier,monospace" font-size="11.00">MySQL_connector</text>
</g>
<!-- \\JCORE\\DATA\\API\\MySQL\\MySQL_connector&#45;&gt;\\JCORE\\DATA\\API\\DATA_API_INTERFACE -->
<g id="edge36" class="edge"><title>\\JCORE\\DATA\\API\\MySQL\\MySQL_connector&#45;&gt;\\JCORE\\DATA\\API\\DATA_API_INTERFACE</title>
<path fill="none" stroke="black" stroke-dasharray="1,5" d="M613.684,-1139.89C541.32,-1154.4 418.711,-1178.98 338.299,-1195.1"/>
<polygon fill="none" stroke="black" points="337.336,-1191.73 328.22,-1197.12 338.713,-1198.59 337.336,-1191.73"/>
</g>
<!-- \\JCORE\\DATA\\API\\MySQL\\MySQL_TABLE_META -->
<g id="node44" class="node"><title>\\JCORE\\DATA\\API\\MySQL\\MySQL_TABLE_META</title>
<polygon fill="none" stroke="black" points="735,-1092 611,-1092 611,-1056 735,-1056 735,-1092"/>
<text text-anchor="middle" x="673" y="-1071.1" font-family="Courier,monospace" font-size="11.00">MySQL_TABLE_META</text>
</g>
<!-- \\JCORE\\DATA\\API\\FILE\\CSV_connector -->
<g id="node46" class="node"><title>\\JCORE\\DATA\\API\\FILE\\CSV_connector</title>
<polygon fill="none" stroke="black" points="725,-1312 621,-1312 621,-1276 725,-1276 725,-1312"/>
<text text-anchor="middle" x="673" y="-1291.1" font-family="Courier,monospace" font-size="11.00">CSV_connector</text>
</g>
<!-- \\JCORE\\DATA\\API\\FILE\\CSV_connector&#45;&gt;\\JCORE\\DATA\\API\\DATA_API_INTERFACE -->
<g id="edge46" class="edge"><title>\\JCORE\\DATA\\API\\FILE\\CSV_connector&#45;&gt;\\JCORE\\DATA\\API\\DATA_API_INTERFACE</title>
<path fill="none" stroke="black" stroke-dasharray="1,5" d="M620.986,-1283.57C549.719,-1269.28 421.103,-1243.5 337.929,-1226.82"/>
<polygon fill="none" stroke="black" points="338.511,-1223.37 328.018,-1224.84 337.135,-1230.23 338.511,-1223.37"/>
</g>
<!-- \\JCORE\\DATA\\API\\DATA_API -->
<g id="node47" class="node"><title>\\JCORE\\DATA\\API\\DATA_API</title>
<polygon fill="none" stroke="black" points="708,-1038 638,-1038 638,-1002 708,-1002 708,-1038"/>
<text text-anchor="middle" x="673" y="-1017.1" font-family="Courier,monospace" font-size="11.00">DATA_API</text>
</g>
<!-- \\JCORE\\DATA\\API\\DATA_UTIL_API -->
<g id="node48" class="node"><title>\\JCORE\\DATA\\API\\DATA_UTIL_API</title>
<polygon fill="none" stroke="black" points="725,-984 621,-984 621,-948 725,-948 725,-984"/>
<text text-anchor="middle" x="673" y="-963.1" font-family="Courier,monospace" font-size="11.00">DATA_UTIL_API</text>
</g>
<!-- \\JCORE\\EXCEPTION\\DATA_Exception -->
<g id="node51" class="node"><title>\\JCORE\\EXCEPTION\\DATA_Exception</title>
<polygon fill="none" stroke="black" points="728,-893 618,-893 618,-857 728,-857 728,-893"/>
<text text-anchor="middle" x="673" y="-872.1" font-family="Courier,monospace" font-size="11.00">DATA_Exception</text>
</g>
<!-- \\Exception -->
<g id="node75" class="node"><title>\\Exception</title>
<ellipse fill="none" stroke="black" cx="259" cy="-19" rx="53.033" ry="19.0919"/>
<text text-anchor="middle" x="259" y="-15.9" font-family="Times Roman,serif" font-size="14.00" fill="gray">\Exception</text>
</g>
<!-- \\JCORE\\EXCEPTION\\DATA_Exception&#45;&gt;\\Exception -->
<g id="edge34" class="edge"><title>\\JCORE\\EXCEPTION\\DATA_Exception&#45;&gt;\\Exception</title>
<path fill="none" stroke="black" d="M617.24,-869.52C603.814,-865.515 590.819,-858.883 582,-848 469.573,-709.269 642.489,-175.019 518,-47 465.839,6.63966 372.937,2.64682 313.73,-6.89239"/>
<polygon fill="none" stroke="black" points="313.072,-3.45406 303.807,-8.59355 314.255,-10.3534 313.072,-3.45406"/>
</g>
<!-- \\JCORE\\EXCEPTION\\networkException -->
<g id="node52" class="node"><title>\\JCORE\\EXCEPTION\\networkException</title>
<polygon fill="none" stroke="black" points="735,-839 611,-839 611,-803 735,-803 735,-839"/>
<text text-anchor="middle" x="673" y="-818.1" font-family="Courier,monospace" font-size="11.00">networkException</text>
</g>
<!-- \\JCORE\\EXCEPTION\\networkException&#45;&gt;\\Exception -->
<g id="edge48" class="edge"><title>\\JCORE\\EXCEPTION\\networkException&#45;&gt;\\Exception</title>
<path fill="none" stroke="black" d="M610.234,-813.112C599.395,-809.011 589.289,-802.941 582,-794 476.731,-664.861 634.493,-166.111 518,-47 465.686,6.48983 372.828,2.5408 313.672,-6.94865"/>
<polygon fill="none" stroke="black" points="313.027,-3.50815 303.758,-8.64116 314.205,-10.4083 313.027,-3.50815"/>
</g>
<!-- \\JCORE\\EXCEPTION\\ERROR -->
<g id="node53" class="node"><title>\\JCORE\\EXCEPTION\\ERROR</title>
<polygon fill="none" stroke="black" points="700,-785 646,-785 646,-749 700,-749 700,-785"/>
<text text-anchor="middle" x="673" y="-764.1" font-family="Courier,monospace" font-size="11.00">ERROR</text>
</g>
<!-- \\JCORE\\TEMPLATER\\TEMPLATER -->
<g id="node55" class="node"><title>\\JCORE\\TEMPLATER\\TEMPLATER</title>
<polygon fill="none" stroke="black" points="711,-702 635,-702 635,-666 711,-666 711,-702"/>
<text text-anchor="middle" x="673" y="-681.1" font-family="Courier,monospace" font-size="11.00">TEMPLATER</text>
</g>
<!-- \\JCORE\\LOAD\\CONFIG_MANAGER_INI -->
<g id="node57" class="node"><title>\\JCORE\\LOAD\\CONFIG_MANAGER_INI</title>
<polygon fill="none" stroke="black" points="742,-619 604,-619 604,-583 742,-583 742,-619"/>
<text text-anchor="middle" x="673" y="-598.1" font-family="Courier,monospace" font-size="11.00">CONFIG_MANAGER_INI</text>
</g>
<!-- \\JCORE\\LOAD\\ComposerAutoloaderInit -->
<g id="node58" class="node"><title>\\JCORE\\LOAD\\ComposerAutoloaderInit</title>
<polygon fill="none" stroke="black" points="755,-565 591,-565 591,-529 755,-529 755,-565"/>
<text text-anchor="middle" x="673" y="-544.1" font-family="Courier,monospace" font-size="11.00">ComposerAutoloaderInit</text>
</g>
<!-- \\JCORE\\LOAD\\CONFIG_MANAGER -->
<g id="node59" class="node"><title>\\JCORE\\LOAD\\CONFIG_MANAGER</title>
<polygon fill="none" stroke="black" points="728,-511 618,-511 618,-475 728,-475 728,-511"/>
<text text-anchor="middle" x="673" y="-490.1" font-family="Courier,monospace" font-size="11.00">CONFIG_MANAGER</text>
</g>
<!-- \\JCORE\\L10N\\PO_TRANSLATION -->
<g id="node61" class="node"><title>\\JCORE\\L10N\\PO_TRANSLATION</title>
<polygon fill="none" stroke="black" points="728,-428 618,-428 618,-392 728,-392 728,-428"/>
<text text-anchor="middle" x="673" y="-407.1" font-family="Courier,monospace" font-size="11.00">PO_TRANSLATION</text>
</g>
<!-- \\JCORE\\AUTH\\AUTH_HARNESS -->
<g id="node63" class="node"><title>\\JCORE\\AUTH\\AUTH_HARNESS</title>
<polygon fill="none" stroke="black" points="722,-345 624,-345 624,-309 722,-309 722,-345"/>
<text text-anchor="middle" x="673" y="-324.1" font-family="Courier,monospace" font-size="11.00">AUTH_HARNESS</text>
</g>
<!-- \\JCORE\\AUTH\\IP_WHITELIST -->
<g id="node64" class="node"><title>\\JCORE\\AUTH\\IP_WHITELIST</title>
<polygon fill="none" stroke="black" points="722,-291 624,-291 624,-255 722,-255 722,-291"/>
<text text-anchor="middle" x="673" y="-270.1" font-family="Courier,monospace" font-size="11.00">IP_WHITELIST</text>
</g>
<!-- \\JCORE\\AUTH\\AUTH_INTERFACE -->
<g id="node65" class="node"><title>\\JCORE\\AUTH\\AUTH_INTERFACE</title>
<polygon fill="none" stroke="black" points="314,-291 204,-291 204,-255 314,-255 314,-291"/>
<text text-anchor="middle" x="259" y="-270.1" font-family="Courier,monospace" font-size="11.00">AUTH_INTERFACE</text>
</g>
<!-- \\JCORE\\AUTH\\IP_WHITELIST&#45;&gt;\\JCORE\\AUTH\\AUTH_INTERFACE -->
<g id="edge52" class="edge"><title>\\JCORE\\AUTH\\IP_WHITELIST&#45;&gt;\\JCORE\\AUTH\\AUTH_INTERFACE</title>
<path fill="none" stroke="black" stroke-dasharray="1,5" d="M623.883,-273C549.451,-273 407.968,-273 324.74,-273"/>
<polygon fill="none" stroke="black" points="324.639,-269.5 314.639,-273 324.639,-276.5 324.639,-269.5"/>
</g>
<!-- \\JCORE\\LOG\\LOGGER -->
<g id="node67" class="node"><title>\\JCORE\\LOG\\LOGGER</title>
<polygon fill="none" stroke="black" points="701,-208 645,-208 645,-172 701,-172 701,-208"/>
<text text-anchor="middle" x="673" y="-187.1" font-family="Courier,monospace" font-size="11.00">LOGGER</text>
</g>
<!-- \\JCORE\\JCORE_SINGLETON -->
<g id="node68" class="node"><title>\\JCORE\\JCORE_SINGLETON</title>
<polygon fill="none" stroke="black" points="732,-154 614,-154 614,-118 732,-118 732,-154"/>
<text text-anchor="start" x="639" y="-141.433" font-family="Courier,monospace" font-size="11.00">«abstract»</text>
<text text-anchor="start" x="622" y="-128.233" font-family="Courier,monospace" font-size="11.00">JCORE_SINGLETON</text>
</g>
</g>
</svg>
