<?xml version="1.0" encoding="UTF-8" standalone="no"?>
<!DOCTYPE svg PUBLIC "-//W3C//DTD SVG 1.1//EN"
 "http://www.w3.org/Graphics/SVG/1.1/DTD/svg11.dtd">
<!-- Generated by graphviz version 2.26.0 (20091210.2329)
 -->
<!-- Title: G Pages: 1 -->
<svg width="808pt" height="3280pt"
 viewBox="0.00 0.00 808.00 3280.00" xmlns="http://www.w3.org/2000/svg" xmlns:xlink="http://www.w3.org/1999/xlink">
<g id="graph1" class="graph" transform="scale(1 1) rotate(0) translate(4 3276)">
<title>G</title>
<polygon fill="white" stroke="white" points="-4,5 -4,-3276 805,-3276 805,5 -4,5"/>
<g id="graph2" class="cluster"><title>cluster_Global</title>
<polyline fill="none" stroke="gray" points="151,-270 780,-270 "/>
<path fill="none" stroke="gray" d="M780,-270C786,-270 792,-276 792,-282"/>
<polyline fill="none" stroke="gray" points="792,-282 792,-3252 "/>
<path fill="none" stroke="gray" d="M792,-3252C792,-3258 786,-3264 780,-3264"/>
<polyline fill="none" stroke="gray" points="780,-3264 151,-3264 "/>
<path fill="none" stroke="gray" d="M151,-3264C145,-3264 139,-3258 139,-3252"/>
<polyline fill="none" stroke="gray" points="139,-3252 139,-282 "/>
<path fill="none" stroke="gray" d="M139,-282C139,-276 145,-270 151,-270"/>
<text text-anchor="middle" x="465.5" y="-3250.1" font-family="Times Roman,serif" font-size="11.00" fill="gray">Global</text>
</g>
<g id="graph3" class="cluster"><title>cluster_\JCORE</title>
<polyline fill="none" stroke="gray" points="159,-278 772,-278 "/>
<path fill="none" stroke="gray" d="M772,-278C778,-278 784,-284 784,-290"/>
<polyline fill="none" stroke="gray" points="784,-290 784,-3221 "/>
<path fill="none" stroke="gray" d="M784,-3221C784,-3227 778,-3233 772,-3233"/>
<polyline fill="none" stroke="gray" points="772,-3233 159,-3233 "/>
<path fill="none" stroke="gray" d="M159,-3233C153,-3233 147,-3227 147,-3221"/>
<polyline fill="none" stroke="gray" points="147,-3221 147,-290 "/>
<path fill="none" stroke="gray" d="M147,-290C147,-284 153,-278 159,-278"/>
<text text-anchor="middle" x="465.5" y="-3219.1" font-family="Times Roman,serif" font-size="11.00" fill="gray">JCORE</text>
</g>
<g id="graph4" class="cluster"><title>cluster_\JCORE\EXAMPLE</title>
<polyline fill="none" stroke="gray" points="650,-3088 716,-3088 "/>
<path fill="none" stroke="gray" d="M716,-3088C722,-3088 728,-3094 728,-3100"/>
<polyline fill="none" stroke="gray" points="728,-3100 728,-3190 "/>
<path fill="none" stroke="gray" d="M728,-3190C728,-3196 722,-3202 716,-3202"/>
<polyline fill="none" stroke="gray" points="716,-3202 650,-3202 "/>
<path fill="none" stroke="gray" d="M650,-3202C644,-3202 638,-3196 638,-3190"/>
<polyline fill="none" stroke="gray" points="638,-3190 638,-3100 "/>
<path fill="none" stroke="gray" d="M638,-3100C638,-3094 644,-3088 650,-3088"/>
<text text-anchor="middle" x="683" y="-3188.1" font-family="Times Roman,serif" font-size="11.00" fill="gray">EXAMPLE</text>
</g>
<g id="graph5" class="cluster"><title>cluster_\JCORE\EXAMPLE\EXT_REF</title>
<polyline fill="none" stroke="gray" points="658,-3096 708,-3096 "/>
<path fill="none" stroke="gray" d="M708,-3096C714,-3096 720,-3102 720,-3108"/>
<polyline fill="none" stroke="gray" points="720,-3108 720,-3159 "/>
<path fill="none" stroke="gray" d="M720,-3159C720,-3165 714,-3171 708,-3171"/>
<polyline fill="none" stroke="gray" points="708,-3171 658,-3171 "/>
<path fill="none" stroke="gray" d="M658,-3171C652,-3171 646,-3165 646,-3159"/>
<polyline fill="none" stroke="gray" points="646,-3159 646,-3108 "/>
<path fill="none" stroke="gray" d="M646,-3108C646,-3102 652,-3096 658,-3096"/>
<text text-anchor="middle" x="683" y="-3157.1" font-family="Times Roman,serif" font-size="11.00" fill="gray">EXT_REF</text>
</g>
<g id="graph6" class="cluster"><title>cluster_\JCORE\CACHE</title>
<polyline fill="none" stroke="gray" points="167,-2573 755,-2573 "/>
<path fill="none" stroke="gray" d="M755,-2573C761,-2573 767,-2579 767,-2585"/>
<polyline fill="none" stroke="gray" points="767,-2585 767,-3068 "/>
<path fill="none" stroke="gray" d="M767,-3068C767,-3074 761,-3080 755,-3080"/>
<polyline fill="none" stroke="gray" points="755,-3080 167,-3080 "/>
<path fill="none" stroke="gray" d="M167,-3080C161,-3080 155,-3074 155,-3068"/>
<polyline fill="none" stroke="gray" points="155,-3068 155,-2585 "/>
<path fill="none" stroke="gray" d="M155,-2585C155,-2579 161,-2573 167,-2573"/>
<text text-anchor="middle" x="461" y="-3066.1" font-family="Times Roman,serif" font-size="11.00" fill="gray">CACHE</text>
</g>
<g id="graph7" class="cluster"><title>cluster_\JCORE\DAO</title>
<polyline fill="none" stroke="gray" points="643,-2351 723,-2351 "/>
<path fill="none" stroke="gray" d="M723,-2351C729,-2351 735,-2357 735,-2363"/>
<polyline fill="none" stroke="gray" points="735,-2363 735,-2553 "/>
<path fill="none" stroke="gray" d="M735,-2553C735,-2559 729,-2565 723,-2565"/>
<polyline fill="none" stroke="gray" points="723,-2565 643,-2565 "/>
<path fill="none" stroke="gray" d="M643,-2565C637,-2565 631,-2559 631,-2553"/>
<polyline fill="none" stroke="gray" points="631,-2553 631,-2363 "/>
<path fill="none" stroke="gray" d="M631,-2363C631,-2357 637,-2351 643,-2351"/>
<text text-anchor="middle" x="683" y="-2551.1" font-family="Times Roman,serif" font-size="11.00" fill="gray">DAO</text>
</g>
<g id="graph8" class="cluster"><title>cluster_\JCORE\DAO\TREE</title>
<polyline fill="none" stroke="gray" points="651,-2459 715,-2459 "/>
<path fill="none" stroke="gray" d="M715,-2459C721,-2459 727,-2465 727,-2471"/>
<polyline fill="none" stroke="gray" points="727,-2471 727,-2522 "/>
<path fill="none" stroke="gray" d="M727,-2522C727,-2528 721,-2534 715,-2534"/>
<polyline fill="none" stroke="gray" points="715,-2534 651,-2534 "/>
<path fill="none" stroke="gray" d="M651,-2534C645,-2534 639,-2528 639,-2522"/>
<polyline fill="none" stroke="gray" points="639,-2522 639,-2471 "/>
<path fill="none" stroke="gray" d="M639,-2471C639,-2465 645,-2459 651,-2459"/>
<text text-anchor="middle" x="683" y="-2520.1" font-family="Times Roman,serif" font-size="11.00" fill="gray">TREE</text>
</g>
<g id="graph9" class="cluster"><title>cluster_\JCORE\TRANSPORT</title>
<polyline fill="none" stroke="gray" points="190,-1635 755,-1635 "/>
<path fill="none" stroke="gray" d="M755,-1635C761,-1635 767,-1641 767,-1647"/>
<polyline fill="none" stroke="gray" points="767,-1647 767,-2331 "/>
<path fill="none" stroke="gray" d="M767,-2331C767,-2337 761,-2343 755,-2343"/>
<polyline fill="none" stroke="gray" points="755,-2343 190,-2343 "/>
<path fill="none" stroke="gray" d="M190,-2343C184,-2343 178,-2337 178,-2331"/>
<polyline fill="none" stroke="gray" points="178,-2331 178,-1647 "/>
<path fill="none" stroke="gray" d="M178,-1647C178,-1641 184,-1635 190,-1635"/>
<text text-anchor="middle" x="472.5" y="-2329.1" font-family="Times Roman,serif" font-size="11.00" fill="gray">TRANSPORT</text>
</g>
<g id="graph10" class="cluster"><title>cluster_\JCORE\TRANSPORT\XML</title>
<polyline fill="none" stroke="gray" points="660,-2237 706,-2237 "/>
<path fill="none" stroke="gray" d="M706,-2237C712,-2237 718,-2243 718,-2249"/>
<polyline fill="none" stroke="gray" points="718,-2249 718,-2300 "/>
<path fill="none" stroke="gray" d="M718,-2300C718,-2306 712,-2312 706,-2312"/>
<polyline fill="none" stroke="gray" points="706,-2312 660,-2312 "/>
<path fill="none" stroke="gray" d="M660,-2312C654,-2312 648,-2306 648,-2300"/>
<polyline fill="none" stroke="gray" points="648,-2300 648,-2249 "/>
<path fill="none" stroke="gray" d="M648,-2249C648,-2243 654,-2237 660,-2237"/>
<text text-anchor="middle" x="683" y="-2298.1" font-family="Times Roman,serif" font-size="11.00" fill="gray">XML</text>
</g>
<g id="graph11" class="cluster"><title>cluster_\JCORE\TRANSPORT\REST</title>
<polyline fill="none" stroke="gray" points="644,-2154 722,-2154 "/>
<path fill="none" stroke="gray" d="M722,-2154C728,-2154 734,-2160 734,-2166"/>
<polyline fill="none" stroke="gray" points="734,-2166 734,-2217 "/>
<path fill="none" stroke="gray" d="M734,-2217C734,-2223 728,-2229 722,-2229"/>
<polyline fill="none" stroke="gray" points="722,-2229 644,-2229 "/>
<path fill="none" stroke="gray" d="M644,-2229C638,-2229 632,-2223 632,-2217"/>
<polyline fill="none" stroke="gray" points="632,-2217 632,-2166 "/>
<path fill="none" stroke="gray" d="M632,-2166C632,-2160 638,-2154 644,-2154"/>
<text text-anchor="middle" x="683" y="-2215.1" font-family="Times Roman,serif" font-size="11.00" fill="gray">REST</text>
</g>
<g id="graph12" class="cluster"><title>cluster_\JCORE\TRANSPORT\SOA</title>
<polyline fill="none" stroke="gray" points="621,-2017 745,-2017 "/>
<path fill="none" stroke="gray" d="M745,-2017C751,-2017 757,-2023 757,-2029"/>
<polyline fill="none" stroke="gray" points="757,-2029 757,-2134 "/>
<path fill="none" stroke="gray" d="M757,-2134C757,-2140 751,-2146 745,-2146"/>
<polyline fill="none" stroke="gray" points="745,-2146 621,-2146 "/>
<path fill="none" stroke="gray" d="M621,-2146C615,-2146 609,-2140 609,-2134"/>
<polyline fill="none" stroke="gray" points="609,-2134 609,-2029 "/>
<path fill="none" stroke="gray" d="M609,-2029C609,-2023 615,-2017 621,-2017"/>
<text text-anchor="middle" x="683" y="-2132.1" font-family="Times Roman,serif" font-size="11.00" fill="gray">SOA</text>
</g>
<g id="graph13" class="cluster"><title>cluster_\JCORE\TRANSPORT\HTTP</title>
<polyline fill="none" stroke="gray" points="648,-1880 718,-1880 "/>
<path fill="none" stroke="gray" d="M718,-1880C724,-1880 730,-1886 730,-1892"/>
<polyline fill="none" stroke="gray" points="730,-1892 730,-1997 "/>
<path fill="none" stroke="gray" d="M730,-1997C730,-2003 724,-2009 718,-2009"/>
<polyline fill="none" stroke="gray" points="718,-2009 648,-2009 "/>
<path fill="none" stroke="gray" d="M648,-2009C642,-2009 636,-2003 636,-1997"/>
<polyline fill="none" stroke="gray" points="636,-1997 636,-1892 "/>
<path fill="none" stroke="gray" d="M636,-1892C636,-1886 642,-1880 648,-1880"/>
<text text-anchor="middle" x="683" y="-1995.1" font-family="Times Roman,serif" font-size="11.00" fill="gray">HTTP</text>
</g>
<g id="graph14" class="cluster"><title>cluster_\JCORE\TRANSPORT\JSON</title>
<polyline fill="none" stroke="gray" points="628,-1743 738,-1743 "/>
<path fill="none" stroke="gray" d="M738,-1743C744,-1743 750,-1749 750,-1755"/>
<polyline fill="none" stroke="gray" points="750,-1755 750,-1860 "/>
<path fill="none" stroke="gray" d="M750,-1860C750,-1866 744,-1872 738,-1872"/>
<polyline fill="none" stroke="gray" points="738,-1872 628,-1872 "/>
<path fill="none" stroke="gray" d="M628,-1872C622,-1872 616,-1866 616,-1860"/>
<polyline fill="none" stroke="gray" points="616,-1860 616,-1755 "/>
<path fill="none" stroke="gray" d="M616,-1755C616,-1749 622,-1743 628,-1743"/>
<text text-anchor="middle" x="683" y="-1858.1" font-family="Times Roman,serif" font-size="11.00" fill="gray">JSON</text>
</g>
<g id="graph15" class="cluster"><title>cluster_\JCORE\DATA</title>
<polyline fill="none" stroke="gray" points="186,-1154 758,-1154 "/>
<path fill="none" stroke="gray" d="M758,-1154C764,-1154 770,-1160 770,-1166"/>
<polyline fill="none" stroke="gray" points="770,-1166 770,-1615 "/>
<path fill="none" stroke="gray" d="M770,-1615C770,-1621 764,-1627 758,-1627"/>
<polyline fill="none" stroke="gray" points="758,-1627 186,-1627 "/>
<path fill="none" stroke="gray" d="M186,-1627C180,-1627 174,-1621 174,-1615"/>
<polyline fill="none" stroke="gray" points="174,-1615 174,-1166 "/>
<path fill="none" stroke="gray" d="M174,-1166C174,-1160 180,-1154 186,-1154"/>
<text text-anchor="middle" x="472" y="-1613.1" font-family="Times Roman,serif" font-size="11.00" fill="gray">DATA</text>
</g>
<g id="graph16" class="cluster"><title>cluster_\JCORE\DATA\API</title>
<polyline fill="none" stroke="gray" points="194,-1162 750,-1162 "/>
<path fill="none" stroke="gray" d="M750,-1162C756,-1162 762,-1168 762,-1174"/>
<polyline fill="none" stroke="gray" points="762,-1174 762,-1584 "/>
<path fill="none" stroke="gray" d="M762,-1584C762,-1590 756,-1596 750,-1596"/>
<polyline fill="none" stroke="gray" points="750,-1596 194,-1596 "/>
<path fill="none" stroke="gray" d="M194,-1596C188,-1596 182,-1590 182,-1584"/>
<polyline fill="none" stroke="gray" points="182,-1584 182,-1174 "/>
<path fill="none" stroke="gray" d="M182,-1174C182,-1168 188,-1162 194,-1162"/>
<text text-anchor="middle" x="472" y="-1582.1" font-family="Times Roman,serif" font-size="11.00" fill="gray">API</text>
</g>
<g id="graph17" class="cluster"><title>cluster_\JCORE\DATA\API\REDIS</title>
<polyline fill="none" stroke="gray" points="628,-1407 738,-1407 "/>
<path fill="none" stroke="gray" d="M738,-1407C744,-1407 750,-1413 750,-1419"/>
<polyline fill="none" stroke="gray" points="750,-1419 750,-1470 "/>
<path fill="none" stroke="gray" d="M750,-1470C750,-1476 744,-1482 738,-1482"/>
<polyline fill="none" stroke="gray" points="738,-1482 628,-1482 "/>
<path fill="none" stroke="gray" d="M628,-1482C622,-1482 616,-1476 616,-1470"/>
<polyline fill="none" stroke="gray" points="616,-1470 616,-1419 "/>
<path fill="none" stroke="gray" d="M616,-1419C616,-1413 622,-1407 628,-1407"/>
<text text-anchor="middle" x="683" y="-1468.1" font-family="Times Roman,serif" font-size="11.00" fill="gray">REDIS</text>
</g>
<g id="graph18" class="cluster"><title>cluster_\JCORE\DATA\API\MySQL</title>
<polyline fill="none" stroke="gray" points="624,-1270 742,-1270 "/>
<path fill="none" stroke="gray" d="M742,-1270C748,-1270 754,-1276 754,-1282"/>
<polyline fill="none" stroke="gray" points="754,-1282 754,-1387 "/>
<path fill="none" stroke="gray" d="M754,-1387C754,-1393 748,-1399 742,-1399"/>
<polyline fill="none" stroke="gray" points="742,-1399 624,-1399 "/>
<path fill="none" stroke="gray" d="M624,-1399C618,-1399 612,-1393 612,-1387"/>
<polyline fill="none" stroke="gray" points="612,-1387 612,-1282 "/>
<path fill="none" stroke="gray" d="M612,-1282C612,-1276 618,-1270 624,-1270"/>
<text text-anchor="middle" x="683" y="-1385.1" font-family="Times Roman,serif" font-size="11.00" fill="gray">MySQL</text>
</g>
<g id="graph19" class="cluster"><title>cluster_\JCORE\DATA\API\FILE</title>
<polyline fill="none" stroke="gray" points="635,-1490 731,-1490 "/>
<path fill="none" stroke="gray" d="M731,-1490C737,-1490 743,-1496 743,-1502"/>
<polyline fill="none" stroke="gray" points="743,-1502 743,-1553 "/>
<path fill="none" stroke="gray" d="M743,-1553C743,-1559 737,-1565 731,-1565"/>
<polyline fill="none" stroke="gray" points="731,-1565 635,-1565 "/>
<path fill="none" stroke="gray" d="M635,-1565C629,-1565 623,-1559 623,-1553"/>
<polyline fill="none" stroke="gray" points="623,-1553 623,-1502 "/>
<path fill="none" stroke="gray" d="M623,-1502C623,-1496 629,-1490 635,-1490"/>
<text text-anchor="middle" x="683" y="-1551.1" font-family="Times Roman,serif" font-size="11.00" fill="gray">FILE</text>
</g>
<g id="graph20" class="cluster"><title>cluster_\JCORE\EXCEPTION</title>
<polyline fill="none" stroke="gray" points="624,-963 742,-963 "/>
<path fill="none" stroke="gray" d="M742,-963C748,-963 754,-969 754,-975"/>
<polyline fill="none" stroke="gray" points="754,-975 754,-1134 "/>
<path fill="none" stroke="gray" d="M754,-1134C754,-1140 748,-1146 742,-1146"/>
<polyline fill="none" stroke="gray" points="742,-1146 624,-1146 "/>
<path fill="none" stroke="gray" d="M624,-1146C618,-1146 612,-1140 612,-1134"/>
<polyline fill="none" stroke="gray" points="612,-1134 612,-975 "/>
<path fill="none" stroke="gray" d="M612,-975C612,-969 618,-963 624,-963"/>
<text text-anchor="middle" x="683" y="-1132.1" font-family="Times Roman,serif" font-size="11.00" fill="gray">EXCEPTION</text>
</g>
<g id="graph21" class="cluster"><title>cluster_\JCORE\TEMPLATER</title>
<polyline fill="none" stroke="gray" points="648,-880 718,-880 "/>
<path fill="none" stroke="gray" d="M718,-880C724,-880 730,-886 730,-892"/>
<polyline fill="none" stroke="gray" points="730,-892 730,-943 "/>
<path fill="none" stroke="gray" d="M730,-943C730,-949 724,-955 718,-955"/>
<polyline fill="none" stroke="gray" points="718,-955 648,-955 "/>
<path fill="none" stroke="gray" d="M648,-955C642,-955 636,-949 636,-943"/>
<polyline fill="none" stroke="gray" points="636,-943 636,-892 "/>
<path fill="none" stroke="gray" d="M636,-892C636,-886 642,-880 648,-880"/>
<text text-anchor="middle" x="683" y="-941.1" font-family="Times Roman,serif" font-size="11.00" fill="gray">TEMPLATER</text>
</g>
<g id="graph22" class="cluster"><title>cluster_\JCORE\LOAD</title>
<polyline fill="none" stroke="gray" points="604,-689 762,-689 "/>
<path fill="none" stroke="gray" d="M762,-689C768,-689 774,-695 774,-701"/>
<polyline fill="none" stroke="gray" points="774,-701 774,-860 "/>
<path fill="none" stroke="gray" d="M774,-860C774,-866 768,-872 762,-872"/>
<polyline fill="none" stroke="gray" points="762,-872 604,-872 "/>
<path fill="none" stroke="gray" d="M604,-872C598,-872 592,-866 592,-860"/>
<polyline fill="none" stroke="gray" points="592,-860 592,-701 "/>
<path fill="none" stroke="gray" d="M592,-701C592,-695 598,-689 604,-689"/>
<text text-anchor="middle" x="683" y="-858.1" font-family="Times Roman,serif" font-size="11.00" fill="gray">LOAD</text>
</g>
<g id="graph23" class="cluster"><title>cluster_\JCORE\L10N</title>
<polyline fill="none" stroke="gray" points="631,-606 735,-606 "/>
<path fill="none" stroke="gray" d="M735,-606C741,-606 747,-612 747,-618"/>
<polyline fill="none" stroke="gray" points="747,-618 747,-669 "/>
<path fill="none" stroke="gray" d="M747,-669C747,-675 741,-681 735,-681"/>
<polyline fill="none" stroke="gray" points="735,-681 631,-681 "/>
<path fill="none" stroke="gray" d="M631,-681C625,-681 619,-675 619,-669"/>
<polyline fill="none" stroke="gray" points="619,-669 619,-618 "/>
<path fill="none" stroke="gray" d="M619,-618C619,-612 625,-606 631,-606"/>
<text text-anchor="middle" x="683" y="-667.1" font-family="Times Roman,serif" font-size="11.00" fill="gray">L10N</text>
</g>
<g id="graph24" class="cluster"><title>cluster_\JCORE\AUTH</title>
<polyline fill="none" stroke="gray" points="207,-469 728,-469 "/>
<path fill="none" stroke="gray" d="M728,-469C734,-469 740,-475 740,-481"/>
<polyline fill="none" stroke="gray" points="740,-481 740,-586 "/>
<path fill="none" stroke="gray" d="M740,-586C740,-592 734,-598 728,-598"/>
<polyline fill="none" stroke="gray" points="728,-598 207,-598 "/>
<path fill="none" stroke="gray" d="M207,-598C201,-598 195,-592 195,-586"/>
<polyline fill="none" stroke="gray" points="195,-586 195,-481 "/>
<path fill="none" stroke="gray" d="M195,-481C195,-475 201,-469 207,-469"/>
<text text-anchor="middle" x="467.5" y="-584.1" font-family="Times Roman,serif" font-size="11.00" fill="gray">AUTH</text>
</g>
<g id="graph25" class="cluster"><title>cluster_\JCORE\LOG</title>
<polyline fill="none" stroke="gray" points="658,-386 708,-386 "/>
<path fill="none" stroke="gray" d="M708,-386C714,-386 720,-392 720,-398"/>
<polyline fill="none" stroke="gray" points="720,-398 720,-449 "/>
<path fill="none" stroke="gray" d="M720,-449C720,-455 714,-461 708,-461"/>
<polyline fill="none" stroke="gray" points="708,-461 658,-461 "/>
<path fill="none" stroke="gray" d="M658,-461C652,-461 646,-455 646,-449"/>
<polyline fill="none" stroke="gray" points="646,-449 646,-398 "/>
<path fill="none" stroke="gray" d="M646,-398C646,-392 652,-386 658,-386"/>
<text text-anchor="middle" x="683" y="-447.1" font-family="Times Roman,serif" font-size="11.00" fill="gray">LOG</text>
</g>
<!-- \\JCORE\\EXAMPLE\\EXT_REF\\XCache -->
<g id="node5" class="node"><title>\\JCORE\\EXAMPLE\\EXT_REF\\XCache</title>
<polygon fill="none" stroke="black" points="711,-3140 655,-3140 655,-3104 711,-3104 711,-3140"/>
<text text-anchor="middle" x="683" y="-3119.1" font-family="Courier,monospace" font-size="11.00">XCache</text>
</g>
<!-- \\JCORE\\CACHE\\XCACHE_static -->
<g id="node7" class="node"><title>\\JCORE\\CACHE\\XCACHE_static</title>
<polygon fill="none" stroke="black" points="735,-2779 631,-2779 631,-2743 735,-2743 735,-2779"/>
<text text-anchor="middle" x="683" y="-2758.1" font-family="Courier,monospace" font-size="11.00">XCACHE_static</text>
</g>
<!-- \\JCORE\\CACHE\\JCORE_SINGLETON -->
<g id="node73" class="node"><title>\\JCORE\\CACHE\\JCORE_SINGLETON</title>
<ellipse fill="none" stroke="black" cx="259" cy="-243" rx="168.999" ry="19.0919"/>
<text text-anchor="middle" x="259" y="-239.9" font-family="Times Roman,serif" font-size="14.00" fill="gray">\JCORE\CACHE\JCORE_SINGLETON</text>
</g>
<!-- \\JCORE\\CACHE\\XCACHE_static&#45;&gt;\\JCORE\\CACHE\\JCORE_SINGLETON -->
<g id="edge26" class="edge"><title>\\JCORE\\CACHE\\XCACHE_static&#45;&gt;\\JCORE\\CACHE\\JCORE_SINGLETON</title>
<path fill="none" stroke="black" d="M630.535,-2757.37C615.124,-2753.59 599.792,-2746.62 590,-2734 435.352,-2534.73 627.021,-692.461 518,-465 472.836,-370.77 366.895,-300.974 305.409,-266.694"/>
<polygon fill="none" stroke="black" points="306.756,-263.44 296.306,-261.696 303.388,-269.577 306.756,-263.44"/>
</g>
<!-- \\JCORE\\CACHE\\CACHE_STATIC_API_INTERFACE -->
<g id="node75" class="node"><title>\\JCORE\\CACHE\\CACHE_STATIC_API_INTERFACE</title>
<ellipse fill="none" stroke="black" cx="259" cy="-187" rx="229.103" ry="19.0919"/>
<text text-anchor="middle" x="259" y="-183.9" font-family="Times Roman,serif" font-size="14.00" fill="gray">\JCORE\CACHE\CACHE_STATIC_API_INTERFACE</text>
</g>
<!-- \\JCORE\\CACHE\\XCACHE_static&#45;&gt;\\JCORE\\CACHE\\CACHE_STATIC_API_INTERFACE -->
<g id="edge28" class="edge"><title>\\JCORE\\CACHE\\XCACHE_static&#45;&gt;\\JCORE\\CACHE\\CACHE_STATIC_API_INTERFACE</title>
<path fill="none" stroke="black" stroke-dasharray="1,5" d="M630.999,-2757.5C615.422,-2753.75 599.875,-2746.77 590,-2734 418.678,-2512.53 708.007,-420.667 518,-215 479.429,-173.25 416.307,-165.744 362.036,-168.922"/>
<polygon fill="none" stroke="black" points="361.74,-165.434 352.013,-169.633 362.236,-172.416 361.74,-165.434"/>
</g>
<!-- \\JCORE\\CACHE\\MEMCACHED -->
<g id="node8" class="node"><title>\\JCORE\\CACHE\\MEMCACHED</title>
<polygon fill="none" stroke="black" points="721,-3049 645,-3049 645,-3013 721,-3013 721,-3049"/>
<text text-anchor="middle" x="683" y="-3028.1" font-family="Courier,monospace" font-size="11.00">MEMCACHED</text>
</g>
<!-- \\JCORE\\CACHE\\CACHE_COMMON_API_INTERFACE -->
<g id="node17" class="node"><title>\\JCORE\\CACHE\\CACHE_COMMON_API_INTERFACE</title>
<polygon fill="none" stroke="black" points="355,-2995 163,-2995 163,-2959 355,-2959 355,-2995"/>
<text text-anchor="middle" x="259" y="-2974.1" font-family="Courier,monospace" font-size="11.00">CACHE_COMMON_API_INTERFACE</text>
</g>
<!-- \\JCORE\\CACHE\\MEMCACHED&#45;&gt;\\JCORE\\CACHE\\CACHE_COMMON_API_INTERFACE -->
<g id="edge30" class="edge"><title>\\JCORE\\CACHE\\MEMCACHED&#45;&gt;\\JCORE\\CACHE\\CACHE_COMMON_API_INTERFACE</title>
<path fill="none" stroke="black" stroke-dasharray="1,5" d="M644.249,-3026.06C581.588,-3018.08 455.884,-3002.07 365.076,-2990.51"/>
<polygon fill="none" stroke="black" points="365.378,-2987.02 355.016,-2989.23 364.493,-2993.96 365.378,-2987.02"/>
</g>
<!-- \\JCORE\\CACHE\\CACHE_API2 -->
<g id="node9" class="node"><title>\\JCORE\\CACHE\\CACHE_API2</title>
<polygon fill="none" stroke="black" points="725,-2995 641,-2995 641,-2959 725,-2959 725,-2995"/>
<text text-anchor="middle" x="683" y="-2974.1" font-family="Courier,monospace" font-size="11.00">CACHE_API2</text>
</g>
<!-- \\JCORE\\CACHE\\CACHE_API2&#45;&gt;\\JCORE\\CACHE\\CACHE_COMMON_API_INTERFACE -->
<g id="edge34" class="edge"><title>\\JCORE\\CACHE\\CACHE_API2&#45;&gt;\\JCORE\\CACHE\\CACHE_COMMON_API_INTERFACE</title>
<path fill="none" stroke="black" stroke-dasharray="1,5" d="M640.795,-2977C577.162,-2977 454.628,-2977 365.492,-2977"/>
<polygon fill="none" stroke="black" points="365.341,-2973.5 355.341,-2977 365.341,-2980.5 365.341,-2973.5"/>
</g>
<!-- \\JCORE\\CACHE\\XCACHE -->
<g id="node10" class="node"><title>\\JCORE\\CACHE\\XCACHE</title>
<polygon fill="none" stroke="black" points="711,-2725 655,-2725 655,-2689 711,-2689 711,-2725"/>
<text text-anchor="middle" x="683" y="-2704.1" font-family="Courier,monospace" font-size="11.00">XCACHE</text>
</g>
<!-- \\JCORE\\CACHE\\XCACHE&#45;&gt;\\JCORE\\CACHE\\CACHE_STATIC_API_INTERFACE -->
<g id="edge42" class="edge"><title>\\JCORE\\CACHE\\XCACHE&#45;&gt;\\JCORE\\CACHE\\CACHE_STATIC_API_INTERFACE</title>
<path fill="none" stroke="black" stroke-dasharray="1,5" d="M654.125,-2707.05C632.776,-2705.38 604.922,-2699.28 590,-2680 422.279,-2463.32 704,-416.204 518,-215 479.488,-173.34 416.53,-165.784 362.331,-168.913"/>
<polygon fill="none" stroke="black" points="362.051,-165.424 352.32,-169.616 362.541,-172.407 362.051,-165.424"/>
</g>
<!-- \\JCORE\\CACHE\\URL_API -->
<g id="node11" class="node"><title>\\JCORE\\CACHE\\URL_API</title>
<polygon fill="none" stroke="black" points="715,-2833 651,-2833 651,-2797 715,-2797 715,-2833"/>
<text text-anchor="middle" x="683" y="-2812.1" font-family="Courier,monospace" font-size="11.00">URL_API</text>
</g>
<!-- \\JCORE\\TRANSPORT\\TRANSPORT_INTERFACE -->
<g id="node39" class="node"><title>\\JCORE\\TRANSPORT\\TRANSPORT_INTERFACE</title>
<polygon fill="none" stroke="black" points="331,-2198 187,-2198 187,-2162 331,-2162 331,-2198"/>
<text text-anchor="middle" x="259" y="-2177.1" font-family="Courier,monospace" font-size="11.00">TRANSPORT_INTERFACE</text>
</g>
<!-- \\JCORE\\CACHE\\URL_API&#45;&gt;\\JCORE\\TRANSPORT\\TRANSPORT_INTERFACE -->
<g id="edge44" class="edge"><title>\\JCORE\\CACHE\\URL_API&#45;&gt;\\JCORE\\TRANSPORT\\TRANSPORT_INTERFACE</title>
<path fill="none" stroke="black" stroke-dasharray="1,5" d="M650.81,-2813.11C630.928,-2810.31 606.207,-2803.65 590,-2788 516.291,-2716.83 562.799,-2661.15 518,-2569 446.849,-2422.65 328.209,-2266.85 280.165,-2206.23"/>
<polygon fill="none" stroke="black" points="282.833,-2203.97 273.866,-2198.32 277.357,-2208.33 282.833,-2203.97"/>
</g>
<!-- \\JCORE\\CACHE\\SESSION -->
<g id="node12" class="node"><title>\\JCORE\\CACHE\\SESSION</title>
<polygon fill="none" stroke="black" points="715,-2887 651,-2887 651,-2851 715,-2851 715,-2887"/>
<text text-anchor="middle" x="683" y="-2866.1" font-family="Courier,monospace" font-size="11.00">SESSION</text>
</g>
<!-- \\JCORE\\CACHE\\PHP_SESSION -->
<g id="node16" class="node"><title>\\JCORE\\CACHE\\PHP_SESSION</title>
<polygon fill="none" stroke="black" points="304,-2887 214,-2887 214,-2851 304,-2851 304,-2887"/>
<text text-anchor="middle" x="259" y="-2866.1" font-family="Courier,monospace" font-size="11.00">PHP_SESSION</text>
</g>
<!-- \\JCORE\\CACHE\\SESSION&#45;&gt;\\JCORE\\CACHE\\PHP_SESSION -->
<g id="edge46" class="edge"><title>\\JCORE\\CACHE\\SESSION&#45;&gt;\\JCORE\\CACHE\\PHP_SESSION</title>
<path fill="none" stroke="black" stroke-dasharray="1,5" d="M650.783,-2869C578.862,-2869 404.501,-2869 314.62,-2869"/>
<polygon fill="none" stroke="black" points="314.615,-2865.5 304.615,-2869 314.615,-2872.5 314.615,-2865.5"/>
</g>
<!-- \\JCORE\\CACHE\\REDIS -->
<g id="node13" class="node"><title>\\JCORE\\CACHE\\REDIS</title>
<polygon fill="none" stroke="black" points="710,-2671 656,-2671 656,-2635 710,-2635 710,-2671"/>
<text text-anchor="middle" x="683" y="-2650.1" font-family="Courier,monospace" font-size="11.00">REDIS</text>
</g>
<!-- \\JCORE\\CACHE\\JCORE\\CACHE\\STATIC_API_INTERFACE -->
<g id="node88" class="node"><title>\\JCORE\\CACHE\\JCORE\\CACHE\\STATIC_API_INTERFACE</title>
<ellipse fill="none" stroke="black" cx="259" cy="-131" rx="258.801" ry="19.0919"/>
<text text-anchor="middle" x="259" y="-127.9" font-family="Times Roman,serif" font-size="14.00" fill="gray">\JCORE\CACHE\JCORE\CACHE\STATIC_API_INTERFACE</text>
</g>
<!-- \\JCORE\\CACHE\\REDIS&#45;&gt;\\JCORE\\CACHE\\JCORE\\CACHE\\STATIC_API_INTERFACE -->
<g id="edge50" class="edge"><title>\\JCORE\\CACHE\\REDIS&#45;&gt;\\JCORE\\CACHE\\JCORE\\CACHE\\STATIC_API_INTERFACE</title>
<path fill="none" stroke="black" stroke-dasharray="1,5" d="M655.877,-2653.17C634.322,-2651.71 605.333,-2645.81 590,-2626 422.146,-2409.15 704.149,-360.369 518,-159 480.289,-118.206 419.139,-110.113 365.724,-112.732"/>
<polygon fill="none" stroke="black" points="365.265,-109.253 355.501,-113.366 365.699,-116.24 365.265,-109.253"/>
</g>
<!-- \\JCORE\\CACHE\\FILECACHE_API -->
<g id="node14" class="node"><title>\\JCORE\\CACHE\\FILECACHE_API</title>
<polygon fill="none" stroke="black" points="735,-2941 631,-2941 631,-2905 735,-2905 735,-2941"/>
<text text-anchor="middle" x="683" y="-2920.1" font-family="Courier,monospace" font-size="11.00">FILECACHE_API</text>
</g>
<!-- \\JCORE\\CACHE\\FILECACHE_API&#45;&gt;\\JCORE\\CACHE\\CACHE_COMMON_API_INTERFACE -->
<g id="edge56" class="edge"><title>\\JCORE\\CACHE\\FILECACHE_API&#45;&gt;\\JCORE\\CACHE\\CACHE_COMMON_API_INTERFACE</title>
<path fill="none" stroke="black" stroke-dasharray="1,5" d="M630.584,-2929.68C564.688,-2938.07 449.967,-2952.68 365.379,-2963.45"/>
<polygon fill="none" stroke="black" points="364.696,-2960.01 355.218,-2964.75 365.58,-2966.95 364.696,-2960.01"/>
</g>
<!-- \\JCORE\\CACHE\\STATIC_API_INTERFACE -->
<g id="node15" class="node"><title>\\JCORE\\CACHE\\STATIC_API_INTERFACE</title>
<polygon fill="none" stroke="black" points="759,-2617 607,-2617 607,-2581 759,-2581 759,-2617"/>
<text text-anchor="middle" x="683" y="-2596.1" font-family="Courier,monospace" font-size="11.00">STATIC_API_INTERFACE</text>
</g>
<!-- \\JCORE\\CACHE\\JCORE\\JCORE_SINGLETON_INTERFACE -->
<g id="node96" class="node"><title>\\JCORE\\CACHE\\JCORE\\JCORE_SINGLETON_INTERFACE</title>
<ellipse fill="none" stroke="black" cx="259" cy="-75" rx="258.094" ry="19.0919"/>
<text text-anchor="middle" x="259" y="-71.9" font-family="Times Roman,serif" font-size="14.00" fill="gray">\JCORE\CACHE\JCORE\JCORE_SINGLETON_INTERFACE</text>
</g>
<!-- \\JCORE\\CACHE\\STATIC_API_INTERFACE&#45;&gt;\\JCORE\\CACHE\\JCORE\\JCORE_SINGLETON_INTERFACE -->
<g id="edge64" class="edge"><title>\\JCORE\\CACHE\\STATIC_API_INTERFACE&#45;&gt;\\JCORE\\CACHE\\JCORE\\JCORE_SINGLETON_INTERFACE</title>
<path fill="none" stroke="black" d="M638.333,-2580.99C620.018,-2571.16 600.65,-2557.04 590,-2538 457.883,-2301.76 701.774,-301.724 518,-103 480.281,-62.213 419.13,-54.1204 365.718,-56.7376"/>
<polygon fill="none" stroke="black" points="365.259,-53.2592 355.495,-57.3712 365.693,-60.2458 365.259,-53.2592"/>
</g>
<!-- \\JCORE\\DAO\\TREE\\DAO_TREE -->
<g id="node20" class="node"><title>\\JCORE\\DAO\\TREE\\DAO_TREE</title>
<polygon fill="none" stroke="black" points="718,-2503 648,-2503 648,-2467 718,-2467 718,-2503"/>
<text text-anchor="middle" x="683" y="-2482.1" font-family="Courier,monospace" font-size="11.00">DAO_TREE</text>
</g>
<!-- \\JCORE\\DAO\\DAO -->
<g id="node21" class="node"><title>\\JCORE\\DAO\\DAO</title>
<polygon fill="none" stroke="black" points="710,-2449 656,-2449 656,-2413 710,-2413 710,-2449"/>
<text text-anchor="middle" x="683" y="-2428.1" font-family="Courier,monospace" font-size="11.00">DAO</text>
</g>
<!-- \\JCORE\\DAO\\SESSION -->
<g id="node22" class="node"><title>\\JCORE\\DAO\\SESSION</title>
<polygon fill="none" stroke="black" points="715,-2395 651,-2395 651,-2359 715,-2359 715,-2395"/>
<text text-anchor="middle" x="683" y="-2374.1" font-family="Courier,monospace" font-size="11.00">SESSION</text>
</g>
<!-- \\JCORE\\TRANSPORT\\XML\\SOAP -->
<g id="node25" class="node"><title>\\JCORE\\TRANSPORT\\XML\\SOAP</title>
<polygon fill="none" stroke="black" points="710,-2281 656,-2281 656,-2245 710,-2245 710,-2281"/>
<text text-anchor="middle" x="683" y="-2260.1" font-family="Courier,monospace" font-size="11.00">SOAP</text>
</g>
<!-- \\JCORE\\TRANSPORT\\XML\\SOAP&#45;&gt;\\JCORE\\TRANSPORT\\TRANSPORT_INTERFACE -->
<g id="edge32" class="edge"><title>\\JCORE\\TRANSPORT\\XML\\SOAP&#45;&gt;\\JCORE\\TRANSPORT\\TRANSPORT_INTERFACE</title>
<path fill="none" stroke="black" stroke-dasharray="1,5" d="M655.832,-2257.68C593.606,-2245.5 438.674,-2215.17 341.838,-2196.22"/>
<polygon fill="none" stroke="black" points="342.268,-2192.73 331.782,-2194.25 340.923,-2199.6 342.268,-2192.73"/>
</g>
<!-- \\JCORE\\TRANSPORT\\REST\\REST_API -->
<g id="node27" class="node"><title>\\JCORE\\TRANSPORT\\REST\\REST_API</title>
<polygon fill="none" stroke="black" points="725,-2198 641,-2198 641,-2162 725,-2162 725,-2198"/>
<text text-anchor="start" x="649" y="-2185.43" font-family="Courier,monospace" font-size="11.00">«abstract»</text>
<text text-anchor="start" x="655.5" y="-2172.23" font-family="Courier,monospace" font-size="11.00">REST_API</text>
</g>
<!-- \\JCORE\\TRANSPORT\\REST\\REST_API&#45;&gt;\\JCORE\\TRANSPORT\\TRANSPORT_INTERFACE -->
<g id="edge48" class="edge"><title>\\JCORE\\TRANSPORT\\REST\\REST_API&#45;&gt;\\JCORE\\TRANSPORT\\TRANSPORT_INTERFACE</title>
<path fill="none" stroke="black" stroke-dasharray="1,5" d="M640.404,-2180C570.743,-2180 431.251,-2180 341.653,-2180"/>
<polygon fill="none" stroke="black" points="341.524,-2176.5 331.523,-2180 341.523,-2183.5 341.524,-2176.5"/>
</g>
<!-- \\JCORE\\TRANSPORT\\SOA\\SERVICE_VALIDATOR -->
<g id="node29" class="node"><title>\\JCORE\\TRANSPORT\\SOA\\SERVICE_VALIDATOR</title>
<polygon fill="none" stroke="black" points="748,-2115 618,-2115 618,-2079 748,-2079 748,-2115"/>
<text text-anchor="middle" x="683" y="-2094.1" font-family="Courier,monospace" font-size="11.00">SERVICE_VALIDATOR</text>
</g>
<!-- \\JCORE\\TRANSPORT\\SOA\\SOA_BASE -->
<g id="node30" class="node"><title>\\JCORE\\TRANSPORT\\SOA\\SOA_BASE</title>
<polygon fill="none" stroke="black" points="725,-2061 641,-2061 641,-2025 725,-2025 725,-2061"/>
<text text-anchor="start" x="649" y="-2048.43" font-family="Courier,monospace" font-size="11.00">«abstract»</text>
<text text-anchor="start" x="655.5" y="-2035.23" font-family="Courier,monospace" font-size="11.00">SOA_BASE</text>
</g>
<!-- \\JCORE\\TRANSPORT\\HTTP\\HTTP_UTIL -->
<g id="node32" class="node"><title>\\JCORE\\TRANSPORT\\HTTP\\HTTP_UTIL</title>
<polygon fill="none" stroke="black" points="721,-1978 645,-1978 645,-1942 721,-1942 721,-1978"/>
<text text-anchor="middle" x="683" y="-1957.1" font-family="Courier,monospace" font-size="11.00">HTTP_UTIL</text>
</g>
<!-- \\JCORE\\TRANSPORT\\HTTP\\HTTP_API -->
<g id="node33" class="node"><title>\\JCORE\\TRANSPORT\\HTTP\\HTTP_API</title>
<polygon fill="none" stroke="black" points="718,-1924 648,-1924 648,-1888 718,-1888 718,-1924"/>
<text text-anchor="middle" x="683" y="-1903.1" font-family="Courier,monospace" font-size="11.00">HTTP_API</text>
</g>
<!-- \\JCORE\\TRANSPORT\\HTTP\\HTTP_API&#45;&gt;\\JCORE\\TRANSPORT\\TRANSPORT_INTERFACE -->
<g id="edge62" class="edge"><title>\\JCORE\\TRANSPORT\\HTTP\\HTTP_API&#45;&gt;\\JCORE\\TRANSPORT\\TRANSPORT_INTERFACE</title>
<path fill="none" stroke="black" stroke-dasharray="1,5" d="M647.439,-1913.15C629.625,-1917.52 608.062,-1924.01 590,-1933 465.14,-1995.14 338.927,-2105.45 285.502,-2154.85"/>
<polygon fill="none" stroke="black" points="282.796,-2152.59 277.86,-2161.97 287.565,-2157.72 282.796,-2152.59"/>
</g>
<!-- \\JCORE\\TRANSPORT\\JSON\\JSONRPC_1_0_API -->
<g id="node35" class="node"><title>\\JCORE\\TRANSPORT\\JSON\\JSONRPC_1_0_API</title>
<polygon fill="none" stroke="black" points="742,-1841 624,-1841 624,-1805 742,-1805 742,-1841"/>
<text text-anchor="middle" x="683" y="-1820.1" font-family="Courier,monospace" font-size="11.00">JSONRPC_1_0_API</text>
</g>
<!-- \\JCORE\\TRANSPORT\\JSON\\JSONRPC_1_0_API&#45;&gt;\\JCORE\\TRANSPORT\\TRANSPORT_INTERFACE -->
<g id="edge60" class="edge"><title>\\JCORE\\TRANSPORT\\JSON\\JSONRPC_1_0_API&#45;&gt;\\JCORE\\TRANSPORT\\TRANSPORT_INTERFACE</title>
<path fill="none" stroke="black" stroke-dasharray="1,5" d="M646.952,-1841.09C629.215,-1850.59 607.863,-1862.96 590,-1876 465.353,-1966.97 335.746,-2098.82 283.236,-2154.09"/>
<polygon fill="none" stroke="black" points="280.389,-2152.01 276.058,-2161.68 285.474,-2156.82 280.389,-2152.01"/>
</g>
<!-- \\JCORE\\TRANSPORT\\JSON\\JSON -->
<g id="node36" class="node"><title>\\JCORE\\TRANSPORT\\JSON\\JSON</title>
<polygon fill="none" stroke="black" points="710,-1787 656,-1787 656,-1751 710,-1751 710,-1787"/>
<text text-anchor="middle" x="683" y="-1766.1" font-family="Courier,monospace" font-size="11.00">JSON</text>
</g>
<!-- \\JCORE\\TRANSPORT\\SERIALIZATION -->
<g id="node37" class="node"><title>\\JCORE\\TRANSPORT\\SERIALIZATION</title>
<polygon fill="none" stroke="black" points="735,-1733 631,-1733 631,-1697 735,-1697 735,-1733"/>
<text text-anchor="middle" x="683" y="-1712.1" font-family="Courier,monospace" font-size="11.00">SERIALIZATION</text>
</g>
<!-- \\JCORE\\TRANSPORT\\SERIALIZATION_STATIC -->
<g id="node38" class="node"><title>\\JCORE\\TRANSPORT\\SERIALIZATION_STATIC</title>
<polygon fill="none" stroke="black" points="759,-1679 607,-1679 607,-1643 759,-1643 759,-1679"/>
<text text-anchor="middle" x="683" y="-1658.1" font-family="Courier,monospace" font-size="11.00">SERIALIZATION_STATIC</text>
</g>
<!-- \\JCORE\\DATA\\API\\REDIS\\REDIS_connector -->
<g id="node43" class="node"><title>\\JCORE\\DATA\\API\\REDIS\\REDIS_connector</title>
<polygon fill="none" stroke="black" points="742,-1451 624,-1451 624,-1415 742,-1415 742,-1451"/>
<text text-anchor="middle" x="683" y="-1430.1" font-family="Courier,monospace" font-size="11.00">REDIS_connector</text>
</g>
<!-- \\JCORE\\DATA\\API\\DATA_API_INTERFACE -->
<g id="node51" class="node"><title>\\JCORE\\DATA\\API\\DATA_API_INTERFACE</title>
<polygon fill="none" stroke="black" points="328,-1451 190,-1451 190,-1415 328,-1415 328,-1451"/>
<text text-anchor="middle" x="259" y="-1430.1" font-family="Courier,monospace" font-size="11.00">DATA_API_INTERFACE</text>
</g>
<!-- \\JCORE\\DATA\\API\\REDIS\\REDIS_connector&#45;&gt;\\JCORE\\DATA\\API\\DATA_API_INTERFACE -->
<g id="edge36" class="edge"><title>\\JCORE\\DATA\\API\\REDIS\\REDIS_connector&#45;&gt;\\JCORE\\DATA\\API\\DATA_API_INTERFACE</title>
<path fill="none" stroke="black" stroke-dasharray="1,5" d="M623.598,-1433C549.101,-1433 421.125,-1433 338.315,-1433"/>
<polygon fill="none" stroke="black" points="338.196,-1429.5 328.196,-1433 338.196,-1436.5 338.196,-1429.5"/>
</g>
<!-- \\JCORE\\DATA\\API\\MySQL\\MySQL_connector -->
<g id="node45" class="node"><title>\\JCORE\\DATA\\API\\MySQL\\MySQL_connector</title>
<polygon fill="none" stroke="black" points="742,-1368 624,-1368 624,-1332 742,-1332 742,-1368"/>
<text text-anchor="middle" x="683" y="-1347.1" font-family="Courier,monospace" font-size="11.00">MySQL_connector</text>
</g>
<!-- \\JCORE\\DATA\\API\\MySQL\\MySQL_connector&#45;&gt;\\JCORE\\DATA\\API\\DATA_API_INTERFACE -->
<g id="edge40" class="edge"><title>\\JCORE\\DATA\\API\\MySQL\\MySQL_connector&#45;&gt;\\JCORE\\DATA\\API\\DATA_API_INTERFACE</title>
<path fill="none" stroke="black" stroke-dasharray="1,5" d="M623.598,-1361.63C549.026,-1376.23 420.864,-1401.31 338.063,-1417.52"/>
<polygon fill="none" stroke="black" points="337.338,-1414.1 328.196,-1419.45 338.683,-1420.97 337.338,-1414.1"/>
</g>
<!-- \\JCORE\\DATA\\API\\MySQL\\MySQL_TABLE_META -->
<g id="node46" class="node"><title>\\JCORE\\DATA\\API\\MySQL\\MySQL_TABLE_META</title>
<polygon fill="none" stroke="black" points="745,-1314 621,-1314 621,-1278 745,-1278 745,-1314"/>
<text text-anchor="middle" x="683" y="-1293.1" font-family="Courier,monospace" font-size="11.00">MySQL_TABLE_META</text>
</g>
<!-- \\JCORE\\DATA\\API\\FILE\\CSV_connector -->
<g id="node48" class="node"><title>\\JCORE\\DATA\\API\\FILE\\CSV_connector</title>
<polygon fill="none" stroke="black" points="735,-1534 631,-1534 631,-1498 735,-1498 735,-1534"/>
<text text-anchor="middle" x="683" y="-1513.1" font-family="Courier,monospace" font-size="11.00">CSV_connector</text>
</g>
<!-- \\JCORE\\DATA\\API\\FILE\\CSV_connector&#45;&gt;\\JCORE\\DATA\\API\\DATA_API_INTERFACE -->
<g id="edge52" class="edge"><title>\\JCORE\\DATA\\API\\FILE\\CSV_connector&#45;&gt;\\JCORE\\DATA\\API\\DATA_API_INTERFACE</title>
<path fill="none" stroke="black" stroke-dasharray="1,5" d="M630.584,-1505.74C557.268,-1491.39 423.513,-1465.2 338.064,-1448.48"/>
<polygon fill="none" stroke="black" points="338.634,-1445.02 328.148,-1446.54 337.289,-1451.89 338.634,-1445.02"/>
</g>
<!-- \\JCORE\\DATA\\API\\DATA_API -->
<g id="node49" class="node"><title>\\JCORE\\DATA\\API\\DATA_API</title>
<polygon fill="none" stroke="black" points="718,-1260 648,-1260 648,-1224 718,-1224 718,-1260"/>
<text text-anchor="middle" x="683" y="-1239.1" font-family="Courier,monospace" font-size="11.00">DATA_API</text>
</g>
<!-- \\JCORE\\DATA\\API\\DATA_UTIL_API -->
<g id="node50" class="node"><title>\\JCORE\\DATA\\API\\DATA_UTIL_API</title>
<polygon fill="none" stroke="black" points="735,-1206 631,-1206 631,-1170 735,-1170 735,-1206"/>
<text text-anchor="middle" x="683" y="-1185.1" font-family="Courier,monospace" font-size="11.00">DATA_UTIL_API</text>
</g>
<!-- \\JCORE\\EXCEPTION\\DATA_Exception -->
<g id="node53" class="node"><title>\\JCORE\\EXCEPTION\\DATA_Exception</title>
<polygon fill="none" stroke="black" points="738,-1115 628,-1115 628,-1079 738,-1079 738,-1115"/>
<text text-anchor="middle" x="683" y="-1094.1" font-family="Courier,monospace" font-size="11.00">DATA_Exception</text>
</g>
<!-- \\Exception -->
<g id="node81" class="node"><title>\\Exception</title>
<ellipse fill="none" stroke="black" cx="259" cy="-19" rx="53.033" ry="19.0919"/>
<text text-anchor="middle" x="259" y="-15.9" font-family="Times Roman,serif" font-size="14.00" fill="gray">\Exception</text>
</g>
<!-- \\JCORE\\EXCEPTION\\DATA_Exception&#45;&gt;\\Exception -->
<g id="edge38" class="edge"><title>\\JCORE\\EXCEPTION\\DATA_Exception&#45;&gt;\\Exception</title>
<path fill="none" stroke="black" d="M627.421,-1092.25C613.188,-1088.3 599.294,-1081.51 590,-1070 446.833,-892.688 676.103,-211.134 518,-47 465.946,7.03988 372.586,2.79737 313.318,-6.88252"/>
<polygon fill="none" stroke="black" points="312.643,-3.44735 303.389,-8.60686 313.841,-10.3441 312.643,-3.44735"/>
</g>
<!-- \\JCORE\\EXCEPTION\\networkException -->
<g id="node54" class="node"><title>\\JCORE\\EXCEPTION\\networkException</title>
<polygon fill="none" stroke="black" points="745,-1061 621,-1061 621,-1025 745,-1025 745,-1061"/>
<text text-anchor="middle" x="683" y="-1040.1" font-family="Courier,monospace" font-size="11.00">networkException</text>
</g>
<!-- \\JCORE\\EXCEPTION\\networkException&#45;&gt;\\Exception -->
<g id="edge54" class="edge"><title>\\JCORE\\EXCEPTION\\networkException&#45;&gt;\\Exception</title>
<path fill="none" stroke="black" d="M620.222,-1035.95C608.612,-1031.83 597.729,-1025.53 590,-1016 454.025,-848.265 668.103,-202.221 518,-47 465.989,6.78456 373.043,2.74934 313.786,-6.83798"/>
<polygon fill="none" stroke="black" points="313.116,-3.40178 303.855,-8.54752 314.304,-10.3003 313.116,-3.40178"/>
</g>
<!-- \\JCORE\\EXCEPTION\\ERROR -->
<g id="node55" class="node"><title>\\JCORE\\EXCEPTION\\ERROR</title>
<polygon fill="none" stroke="black" points="710,-1007 656,-1007 656,-971 710,-971 710,-1007"/>
<text text-anchor="middle" x="683" y="-986.1" font-family="Courier,monospace" font-size="11.00">ERROR</text>
</g>
<!-- \\JCORE\\TEMPLATER\\TEMPLATER -->
<g id="node57" class="node"><title>\\JCORE\\TEMPLATER\\TEMPLATER</title>
<polygon fill="none" stroke="black" points="721,-924 645,-924 645,-888 721,-888 721,-924"/>
<text text-anchor="middle" x="683" y="-903.1" font-family="Courier,monospace" font-size="11.00">TEMPLATER</text>
</g>
<!-- \\JCORE\\LOAD\\CONFIG_MANAGER_INI -->
<g id="node59" class="node"><title>\\JCORE\\LOAD\\CONFIG_MANAGER_INI</title>
<polygon fill="none" stroke="black" points="752,-841 614,-841 614,-805 752,-805 752,-841"/>
<text text-anchor="middle" x="683" y="-820.1" font-family="Courier,monospace" font-size="11.00">CONFIG_MANAGER_INI</text>
</g>
<!-- \\JCORE\\LOAD\\ComposerAutoloaderInit -->
<g id="node60" class="node"><title>\\JCORE\\LOAD\\ComposerAutoloaderInit</title>
<polygon fill="none" stroke="black" points="765,-787 601,-787 601,-751 765,-751 765,-787"/>
<text text-anchor="middle" x="683" y="-766.1" font-family="Courier,monospace" font-size="11.00">ComposerAutoloaderInit</text>
</g>
<!-- \\JCORE\\LOAD\\CONFIG_MANAGER -->
<g id="node61" class="node"><title>\\JCORE\\LOAD\\CONFIG_MANAGER</title>
<polygon fill="none" stroke="black" points="738,-733 628,-733 628,-697 738,-697 738,-733"/>
<text text-anchor="middle" x="683" y="-712.1" font-family="Courier,monospace" font-size="11.00">CONFIG_MANAGER</text>
</g>
<!-- \\JCORE\\L10N\\PO_TRANSLATION -->
<g id="node63" class="node"><title>\\JCORE\\L10N\\PO_TRANSLATION</title>
<polygon fill="none" stroke="black" points="738,-650 628,-650 628,-614 738,-614 738,-650"/>
<text text-anchor="middle" x="683" y="-629.1" font-family="Courier,monospace" font-size="11.00">PO_TRANSLATION</text>
</g>
<!-- \\JCORE\\AUTH\\AUTH_HARNESS -->
<g id="node65" class="node"><title>\\JCORE\\AUTH\\AUTH_HARNESS</title>
<polygon fill="none" stroke="black" points="732,-567 634,-567 634,-531 732,-531 732,-567"/>
<text text-anchor="middle" x="683" y="-546.1" font-family="Courier,monospace" font-size="11.00">AUTH_HARNESS</text>
</g>
<!-- \\JCORE\\AUTH\\IP_WHITELIST -->
<g id="node66" class="node"><title>\\JCORE\\AUTH\\IP_WHITELIST</title>
<polygon fill="none" stroke="black" points="732,-513 634,-513 634,-477 732,-477 732,-513"/>
<text text-anchor="middle" x="683" y="-492.1" font-family="Courier,monospace" font-size="11.00">IP_WHITELIST</text>
</g>
<!-- \\JCORE\\AUTH\\AUTH_INTERFACE -->
<g id="node67" class="node"><title>\\JCORE\\AUTH\\AUTH_INTERFACE</title>
<polygon fill="none" stroke="black" points="314,-513 204,-513 204,-477 314,-477 314,-513"/>
<text text-anchor="middle" x="259" y="-492.1" font-family="Courier,monospace" font-size="11.00">AUTH_INTERFACE</text>
</g>
<!-- \\JCORE\\AUTH\\IP_WHITELIST&#45;&gt;\\JCORE\\AUTH\\AUTH_INTERFACE -->
<g id="edge58" class="edge"><title>\\JCORE\\AUTH\\IP_WHITELIST&#45;&gt;\\JCORE\\AUTH\\AUTH_INTERFACE</title>
<path fill="none" stroke="black" stroke-dasharray="1,5" d="M633.948,-495C557.595,-495 410.233,-495 324.751,-495"/>
<polygon fill="none" stroke="black" points="324.642,-491.5 314.642,-495 324.642,-498.5 324.642,-491.5"/>
</g>
<!-- \\JCORE\\LOG\\LOGGER -->
<g id="node69" class="node"><title>\\JCORE\\LOG\\LOGGER</title>
<polygon fill="none" stroke="black" points="711,-430 655,-430 655,-394 711,-394 711,-430"/>
<text text-anchor="middle" x="683" y="-409.1" font-family="Courier,monospace" font-size="11.00">LOGGER</text>
</g>
<!-- \\JCORE\\JCORE_SINGLETON -->
<g id="node70" class="node"><title>\\JCORE\\JCORE_SINGLETON</title>
<polygon fill="none" stroke="black" points="742,-376 624,-376 624,-340 742,-340 742,-376"/>
<text text-anchor="start" x="649" y="-363.433" font-family="Courier,monospace" font-size="11.00">«abstract»</text>
<text text-anchor="start" x="632" y="-350.233" font-family="Courier,monospace" font-size="11.00">JCORE_SINGLETON</text>
</g>
<!-- \\JCORE\\JCORE_SINGLETON_INTERFACE -->
<g id="node71" class="node"><title>\\JCORE\\JCORE_SINGLETON_INTERFACE</title>
<polygon fill="none" stroke="black" points="775,-322 591,-322 591,-286 775,-286 775,-322"/>
<text text-anchor="middle" x="683" y="-301.1" font-family="Courier,monospace" font-size="11.00">JCORE_SINGLETON_INTERFACE</text>
</g>
</g>
</svg>
