<?xml version="1.0" encoding="UTF-8" standalone="no"?>
<!DOCTYPE svg PUBLIC "-//W3C//DTD SVG 1.1//EN"
 "http://www.w3.org/Graphics/SVG/1.1/DTD/svg11.dtd">
<!-- Generated by graphviz version 2.26.0 (20091210.2329)
 -->
<!-- Title: G Pages: 1 -->
<svg width="796pt" height="3094pt"
 viewBox="0.00 0.00 796.00 3094.00" xmlns="http://www.w3.org/2000/svg" xmlns:xlink="http://www.w3.org/1999/xlink">
<g id="graph1" class="graph" transform="scale(1 1) rotate(0) translate(4 3090)">
<title>G</title>
<polygon fill="white" stroke="white" points="-4,5 -4,-3090 793,-3090 793,5 -4,5"/>
<g id="graph2" class="cluster"><title>cluster_Global</title>
<polyline fill="none" stroke="gray" points="151,-214 768,-214 "/>
<path fill="none" stroke="gray" d="M768,-214C774,-214 780,-220 780,-226"/>
<polyline fill="none" stroke="gray" points="780,-226 780,-3066 "/>
<path fill="none" stroke="gray" d="M780,-3066C780,-3072 774,-3078 768,-3078"/>
<polyline fill="none" stroke="gray" points="768,-3078 151,-3078 "/>
<path fill="none" stroke="gray" d="M151,-3078C145,-3078 139,-3072 139,-3066"/>
<polyline fill="none" stroke="gray" points="139,-3066 139,-226 "/>
<path fill="none" stroke="gray" d="M139,-226C139,-220 145,-214 151,-214"/>
<text text-anchor="middle" x="459.5" y="-3064.1" font-family="Times Roman,serif" font-size="11.00" fill="gray">Global</text>
</g>
<g id="graph3" class="cluster"><title>cluster_\JCORE</title>
<polyline fill="none" stroke="gray" points="159,-376 760,-376 "/>
<path fill="none" stroke="gray" d="M760,-376C766,-376 772,-382 772,-388"/>
<polyline fill="none" stroke="gray" points="772,-388 772,-3035 "/>
<path fill="none" stroke="gray" d="M772,-3035C772,-3041 766,-3047 760,-3047"/>
<polyline fill="none" stroke="gray" points="760,-3047 159,-3047 "/>
<path fill="none" stroke="gray" d="M159,-3047C153,-3047 147,-3041 147,-3035"/>
<polyline fill="none" stroke="gray" points="147,-3035 147,-388 "/>
<path fill="none" stroke="gray" d="M147,-388C147,-382 153,-376 159,-376"/>
<text text-anchor="middle" x="459.5" y="-3033.1" font-family="Times Roman,serif" font-size="11.00" fill="gray">JCORE</text>
</g>
<g id="graph4" class="cluster"><title>cluster_\JCORE\DAO</title>
<polyline fill="none" stroke="gray" points="633,-2802 713,-2802 "/>
<path fill="none" stroke="gray" d="M713,-2802C719,-2802 725,-2808 725,-2814"/>
<polyline fill="none" stroke="gray" points="725,-2814 725,-3004 "/>
<path fill="none" stroke="gray" d="M725,-3004C725,-3010 719,-3016 713,-3016"/>
<polyline fill="none" stroke="gray" points="713,-3016 633,-3016 "/>
<path fill="none" stroke="gray" d="M633,-3016C627,-3016 621,-3010 621,-3004"/>
<polyline fill="none" stroke="gray" points="621,-3004 621,-2814 "/>
<path fill="none" stroke="gray" d="M621,-2814C621,-2808 627,-2802 633,-2802"/>
<text text-anchor="middle" x="673" y="-3002.1" font-family="Times Roman,serif" font-size="11.00" fill="gray">DAO</text>
</g>
<g id="graph5" class="cluster"><title>cluster_\JCORE\DAO\TREE</title>
<polyline fill="none" stroke="gray" points="641,-2910 705,-2910 "/>
<path fill="none" stroke="gray" d="M705,-2910C711,-2910 717,-2916 717,-2922"/>
<polyline fill="none" stroke="gray" points="717,-2922 717,-2973 "/>
<path fill="none" stroke="gray" d="M717,-2973C717,-2979 711,-2985 705,-2985"/>
<polyline fill="none" stroke="gray" points="705,-2985 641,-2985 "/>
<path fill="none" stroke="gray" d="M641,-2985C635,-2985 629,-2979 629,-2973"/>
<polyline fill="none" stroke="gray" points="629,-2973 629,-2922 "/>
<path fill="none" stroke="gray" d="M629,-2922C629,-2916 635,-2910 641,-2910"/>
<text text-anchor="middle" x="673" y="-2971.1" font-family="Times Roman,serif" font-size="11.00" fill="gray">TREE</text>
</g>
<g id="graph6" class="cluster"><title>cluster_\JCORE\CACHE</title>
<polyline fill="none" stroke="gray" points="167,-2395 745,-2395 "/>
<path fill="none" stroke="gray" d="M745,-2395C751,-2395 757,-2401 757,-2407"/>
<polyline fill="none" stroke="gray" points="757,-2407 757,-2782 "/>
<path fill="none" stroke="gray" d="M757,-2782C757,-2788 751,-2794 745,-2794"/>
<polyline fill="none" stroke="gray" points="745,-2794 167,-2794 "/>
<path fill="none" stroke="gray" d="M167,-2794C161,-2794 155,-2788 155,-2782"/>
<polyline fill="none" stroke="gray" points="155,-2782 155,-2407 "/>
<path fill="none" stroke="gray" d="M155,-2407C155,-2401 161,-2395 167,-2395"/>
<text text-anchor="middle" x="456" y="-2780.1" font-family="Times Roman,serif" font-size="11.00" fill="gray">CACHE</text>
</g>
<g id="graph7" class="cluster"><title>cluster_\JCORE\TRANSPORT</title>
<polyline fill="none" stroke="gray" points="190,-1679 745,-1679 "/>
<path fill="none" stroke="gray" d="M745,-1679C751,-1679 757,-1685 757,-1691"/>
<polyline fill="none" stroke="gray" points="757,-1691 757,-2375 "/>
<path fill="none" stroke="gray" d="M757,-2375C757,-2381 751,-2387 745,-2387"/>
<polyline fill="none" stroke="gray" points="745,-2387 190,-2387 "/>
<path fill="none" stroke="gray" d="M190,-2387C184,-2387 178,-2381 178,-2375"/>
<polyline fill="none" stroke="gray" points="178,-2375 178,-1691 "/>
<path fill="none" stroke="gray" d="M178,-1691C178,-1685 184,-1679 190,-1679"/>
<text text-anchor="middle" x="467.5" y="-2373.1" font-family="Times Roman,serif" font-size="11.00" fill="gray">TRANSPORT</text>
</g>
<g id="graph8" class="cluster"><title>cluster_\JCORE\TRANSPORT\XML</title>
<polyline fill="none" stroke="gray" points="650,-2281 696,-2281 "/>
<path fill="none" stroke="gray" d="M696,-2281C702,-2281 708,-2287 708,-2293"/>
<polyline fill="none" stroke="gray" points="708,-2293 708,-2344 "/>
<path fill="none" stroke="gray" d="M708,-2344C708,-2350 702,-2356 696,-2356"/>
<polyline fill="none" stroke="gray" points="696,-2356 650,-2356 "/>
<path fill="none" stroke="gray" d="M650,-2356C644,-2356 638,-2350 638,-2344"/>
<polyline fill="none" stroke="gray" points="638,-2344 638,-2293 "/>
<path fill="none" stroke="gray" d="M638,-2293C638,-2287 644,-2281 650,-2281"/>
<text text-anchor="middle" x="673" y="-2342.1" font-family="Times Roman,serif" font-size="11.00" fill="gray">XML</text>
</g>
<g id="graph9" class="cluster"><title>cluster_\JCORE\TRANSPORT\REST</title>
<polyline fill="none" stroke="gray" points="634,-2198 712,-2198 "/>
<path fill="none" stroke="gray" d="M712,-2198C718,-2198 724,-2204 724,-2210"/>
<polyline fill="none" stroke="gray" points="724,-2210 724,-2261 "/>
<path fill="none" stroke="gray" d="M724,-2261C724,-2267 718,-2273 712,-2273"/>
<polyline fill="none" stroke="gray" points="712,-2273 634,-2273 "/>
<path fill="none" stroke="gray" d="M634,-2273C628,-2273 622,-2267 622,-2261"/>
<polyline fill="none" stroke="gray" points="622,-2261 622,-2210 "/>
<path fill="none" stroke="gray" d="M622,-2210C622,-2204 628,-2198 634,-2198"/>
<text text-anchor="middle" x="673" y="-2259.1" font-family="Times Roman,serif" font-size="11.00" fill="gray">REST</text>
</g>
<g id="graph10" class="cluster"><title>cluster_\JCORE\TRANSPORT\SOA</title>
<polyline fill="none" stroke="gray" points="611,-2061 735,-2061 "/>
<path fill="none" stroke="gray" d="M735,-2061C741,-2061 747,-2067 747,-2073"/>
<polyline fill="none" stroke="gray" points="747,-2073 747,-2178 "/>
<path fill="none" stroke="gray" d="M747,-2178C747,-2184 741,-2190 735,-2190"/>
<polyline fill="none" stroke="gray" points="735,-2190 611,-2190 "/>
<path fill="none" stroke="gray" d="M611,-2190C605,-2190 599,-2184 599,-2178"/>
<polyline fill="none" stroke="gray" points="599,-2178 599,-2073 "/>
<path fill="none" stroke="gray" d="M599,-2073C599,-2067 605,-2061 611,-2061"/>
<text text-anchor="middle" x="673" y="-2176.1" font-family="Times Roman,serif" font-size="11.00" fill="gray">SOA</text>
</g>
<g id="graph11" class="cluster"><title>cluster_\JCORE\TRANSPORT\HTTP</title>
<polyline fill="none" stroke="gray" points="638,-1924 708,-1924 "/>
<path fill="none" stroke="gray" d="M708,-1924C714,-1924 720,-1930 720,-1936"/>
<polyline fill="none" stroke="gray" points="720,-1936 720,-2041 "/>
<path fill="none" stroke="gray" d="M720,-2041C720,-2047 714,-2053 708,-2053"/>
<polyline fill="none" stroke="gray" points="708,-2053 638,-2053 "/>
<path fill="none" stroke="gray" d="M638,-2053C632,-2053 626,-2047 626,-2041"/>
<polyline fill="none" stroke="gray" points="626,-2041 626,-1936 "/>
<path fill="none" stroke="gray" d="M626,-1936C626,-1930 632,-1924 638,-1924"/>
<text text-anchor="middle" x="673" y="-2039.1" font-family="Times Roman,serif" font-size="11.00" fill="gray">HTTP</text>
</g>
<g id="graph12" class="cluster"><title>cluster_\JCORE\TRANSPORT\JSON</title>
<polyline fill="none" stroke="gray" points="618,-1787 728,-1787 "/>
<path fill="none" stroke="gray" d="M728,-1787C734,-1787 740,-1793 740,-1799"/>
<polyline fill="none" stroke="gray" points="740,-1799 740,-1904 "/>
<path fill="none" stroke="gray" d="M740,-1904C740,-1910 734,-1916 728,-1916"/>
<polyline fill="none" stroke="gray" points="728,-1916 618,-1916 "/>
<path fill="none" stroke="gray" d="M618,-1916C612,-1916 606,-1910 606,-1904"/>
<polyline fill="none" stroke="gray" points="606,-1904 606,-1799 "/>
<path fill="none" stroke="gray" d="M606,-1799C606,-1793 612,-1787 618,-1787"/>
<text text-anchor="middle" x="673" y="-1902.1" font-family="Times Roman,serif" font-size="11.00" fill="gray">JSON</text>
</g>
<g id="graph13" class="cluster"><title>cluster_\JCORE\DATA</title>
<polyline fill="none" stroke="gray" points="186,-1198 748,-1198 "/>
<path fill="none" stroke="gray" d="M748,-1198C754,-1198 760,-1204 760,-1210"/>
<polyline fill="none" stroke="gray" points="760,-1210 760,-1659 "/>
<path fill="none" stroke="gray" d="M760,-1659C760,-1665 754,-1671 748,-1671"/>
<polyline fill="none" stroke="gray" points="748,-1671 186,-1671 "/>
<path fill="none" stroke="gray" d="M186,-1671C180,-1671 174,-1665 174,-1659"/>
<polyline fill="none" stroke="gray" points="174,-1659 174,-1210 "/>
<path fill="none" stroke="gray" d="M174,-1210C174,-1204 180,-1198 186,-1198"/>
<text text-anchor="middle" x="467" y="-1657.1" font-family="Times Roman,serif" font-size="11.00" fill="gray">DATA</text>
</g>
<g id="graph14" class="cluster"><title>cluster_\JCORE\DATA\API</title>
<polyline fill="none" stroke="gray" points="194,-1206 740,-1206 "/>
<path fill="none" stroke="gray" d="M740,-1206C746,-1206 752,-1212 752,-1218"/>
<polyline fill="none" stroke="gray" points="752,-1218 752,-1628 "/>
<path fill="none" stroke="gray" d="M752,-1628C752,-1634 746,-1640 740,-1640"/>
<polyline fill="none" stroke="gray" points="740,-1640 194,-1640 "/>
<path fill="none" stroke="gray" d="M194,-1640C188,-1640 182,-1634 182,-1628"/>
<polyline fill="none" stroke="gray" points="182,-1628 182,-1218 "/>
<path fill="none" stroke="gray" d="M182,-1218C182,-1212 188,-1206 194,-1206"/>
<text text-anchor="middle" x="467" y="-1626.1" font-family="Times Roman,serif" font-size="11.00" fill="gray">API</text>
</g>
<g id="graph15" class="cluster"><title>cluster_\JCORE\DATA\API\REDIS</title>
<polyline fill="none" stroke="gray" points="618,-1451 728,-1451 "/>
<path fill="none" stroke="gray" d="M728,-1451C734,-1451 740,-1457 740,-1463"/>
<polyline fill="none" stroke="gray" points="740,-1463 740,-1514 "/>
<path fill="none" stroke="gray" d="M740,-1514C740,-1520 734,-1526 728,-1526"/>
<polyline fill="none" stroke="gray" points="728,-1526 618,-1526 "/>
<path fill="none" stroke="gray" d="M618,-1526C612,-1526 606,-1520 606,-1514"/>
<polyline fill="none" stroke="gray" points="606,-1514 606,-1463 "/>
<path fill="none" stroke="gray" d="M606,-1463C606,-1457 612,-1451 618,-1451"/>
<text text-anchor="middle" x="673" y="-1512.1" font-family="Times Roman,serif" font-size="11.00" fill="gray">REDIS</text>
</g>
<g id="graph16" class="cluster"><title>cluster_\JCORE\DATA\API\MySQL</title>
<polyline fill="none" stroke="gray" points="614,-1314 732,-1314 "/>
<path fill="none" stroke="gray" d="M732,-1314C738,-1314 744,-1320 744,-1326"/>
<polyline fill="none" stroke="gray" points="744,-1326 744,-1431 "/>
<path fill="none" stroke="gray" d="M744,-1431C744,-1437 738,-1443 732,-1443"/>
<polyline fill="none" stroke="gray" points="732,-1443 614,-1443 "/>
<path fill="none" stroke="gray" d="M614,-1443C608,-1443 602,-1437 602,-1431"/>
<polyline fill="none" stroke="gray" points="602,-1431 602,-1326 "/>
<path fill="none" stroke="gray" d="M602,-1326C602,-1320 608,-1314 614,-1314"/>
<text text-anchor="middle" x="673" y="-1429.1" font-family="Times Roman,serif" font-size="11.00" fill="gray">MySQL</text>
</g>
<g id="graph17" class="cluster"><title>cluster_\JCORE\DATA\API\FILE</title>
<polyline fill="none" stroke="gray" points="625,-1534 721,-1534 "/>
<path fill="none" stroke="gray" d="M721,-1534C727,-1534 733,-1540 733,-1546"/>
<polyline fill="none" stroke="gray" points="733,-1546 733,-1597 "/>
<path fill="none" stroke="gray" d="M733,-1597C733,-1603 727,-1609 721,-1609"/>
<polyline fill="none" stroke="gray" points="721,-1609 625,-1609 "/>
<path fill="none" stroke="gray" d="M625,-1609C619,-1609 613,-1603 613,-1597"/>
<polyline fill="none" stroke="gray" points="613,-1597 613,-1546 "/>
<path fill="none" stroke="gray" d="M613,-1546C613,-1540 619,-1534 625,-1534"/>
<text text-anchor="middle" x="673" y="-1595.1" font-family="Times Roman,serif" font-size="11.00" fill="gray">FILE</text>
</g>
<g id="graph18" class="cluster"><title>cluster_\JCORE\EXCEPTION</title>
<polyline fill="none" stroke="gray" points="614,-1007 732,-1007 "/>
<path fill="none" stroke="gray" d="M732,-1007C738,-1007 744,-1013 744,-1019"/>
<polyline fill="none" stroke="gray" points="744,-1019 744,-1178 "/>
<path fill="none" stroke="gray" d="M744,-1178C744,-1184 738,-1190 732,-1190"/>
<polyline fill="none" stroke="gray" points="732,-1190 614,-1190 "/>
<path fill="none" stroke="gray" d="M614,-1190C608,-1190 602,-1184 602,-1178"/>
<polyline fill="none" stroke="gray" points="602,-1178 602,-1019 "/>
<path fill="none" stroke="gray" d="M602,-1019C602,-1013 608,-1007 614,-1007"/>
<text text-anchor="middle" x="673" y="-1176.1" font-family="Times Roman,serif" font-size="11.00" fill="gray">EXCEPTION</text>
</g>
<g id="graph19" class="cluster"><title>cluster_\JCORE\TEMPLATER</title>
<polyline fill="none" stroke="gray" points="638,-924 708,-924 "/>
<path fill="none" stroke="gray" d="M708,-924C714,-924 720,-930 720,-936"/>
<polyline fill="none" stroke="gray" points="720,-936 720,-987 "/>
<path fill="none" stroke="gray" d="M720,-987C720,-993 714,-999 708,-999"/>
<polyline fill="none" stroke="gray" points="708,-999 638,-999 "/>
<path fill="none" stroke="gray" d="M638,-999C632,-999 626,-993 626,-987"/>
<polyline fill="none" stroke="gray" points="626,-987 626,-936 "/>
<path fill="none" stroke="gray" d="M626,-936C626,-930 632,-924 638,-924"/>
<text text-anchor="middle" x="673" y="-985.1" font-family="Times Roman,serif" font-size="11.00" fill="gray">TEMPLATER</text>
</g>
<g id="graph20" class="cluster"><title>cluster_\JCORE\LOAD</title>
<polyline fill="none" stroke="gray" points="594,-733 752,-733 "/>
<path fill="none" stroke="gray" d="M752,-733C758,-733 764,-739 764,-745"/>
<polyline fill="none" stroke="gray" points="764,-745 764,-904 "/>
<path fill="none" stroke="gray" d="M764,-904C764,-910 758,-916 752,-916"/>
<polyline fill="none" stroke="gray" points="752,-916 594,-916 "/>
<path fill="none" stroke="gray" d="M594,-916C588,-916 582,-910 582,-904"/>
<polyline fill="none" stroke="gray" points="582,-904 582,-745 "/>
<path fill="none" stroke="gray" d="M582,-745C582,-739 588,-733 594,-733"/>
<text text-anchor="middle" x="673" y="-902.1" font-family="Times Roman,serif" font-size="11.00" fill="gray">LOAD</text>
</g>
<g id="graph21" class="cluster"><title>cluster_\JCORE\L10N</title>
<polyline fill="none" stroke="gray" points="621,-650 725,-650 "/>
<path fill="none" stroke="gray" d="M725,-650C731,-650 737,-656 737,-662"/>
<polyline fill="none" stroke="gray" points="737,-662 737,-713 "/>
<path fill="none" stroke="gray" d="M737,-713C737,-719 731,-725 725,-725"/>
<polyline fill="none" stroke="gray" points="725,-725 621,-725 "/>
<path fill="none" stroke="gray" d="M621,-725C615,-725 609,-719 609,-713"/>
<polyline fill="none" stroke="gray" points="609,-713 609,-662 "/>
<path fill="none" stroke="gray" d="M609,-662C609,-656 615,-650 621,-650"/>
<text text-anchor="middle" x="673" y="-711.1" font-family="Times Roman,serif" font-size="11.00" fill="gray">L10N</text>
</g>
<g id="graph22" class="cluster"><title>cluster_\JCORE\AUTH</title>
<polyline fill="none" stroke="gray" points="207,-513 718,-513 "/>
<path fill="none" stroke="gray" d="M718,-513C724,-513 730,-519 730,-525"/>
<polyline fill="none" stroke="gray" points="730,-525 730,-630 "/>
<path fill="none" stroke="gray" d="M730,-630C730,-636 724,-642 718,-642"/>
<polyline fill="none" stroke="gray" points="718,-642 207,-642 "/>
<path fill="none" stroke="gray" d="M207,-642C201,-642 195,-636 195,-630"/>
<polyline fill="none" stroke="gray" points="195,-630 195,-525 "/>
<path fill="none" stroke="gray" d="M195,-525C195,-519 201,-513 207,-513"/>
<text text-anchor="middle" x="462.5" y="-628.1" font-family="Times Roman,serif" font-size="11.00" fill="gray">AUTH</text>
</g>
<g id="graph23" class="cluster"><title>cluster_\JCORE\LOG</title>
<polyline fill="none" stroke="gray" points="648,-430 698,-430 "/>
<path fill="none" stroke="gray" d="M698,-430C704,-430 710,-436 710,-442"/>
<polyline fill="none" stroke="gray" points="710,-442 710,-493 "/>
<path fill="none" stroke="gray" d="M710,-493C710,-499 704,-505 698,-505"/>
<polyline fill="none" stroke="gray" points="698,-505 648,-505 "/>
<path fill="none" stroke="gray" d="M648,-505C642,-505 636,-499 636,-493"/>
<polyline fill="none" stroke="gray" points="636,-493 636,-442 "/>
<path fill="none" stroke="gray" d="M636,-442C636,-436 642,-430 648,-430"/>
<text text-anchor="middle" x="673" y="-491.1" font-family="Times Roman,serif" font-size="11.00" fill="gray">LOG</text>
</g>
<!-- \\JCORE\\DAO\\TREE\\DAO_TREE -->
<g id="node5" class="node"><title>\\JCORE\\DAO\\TREE\\DAO_TREE</title>
<polygon fill="none" stroke="black" points="708,-2954 638,-2954 638,-2918 708,-2918 708,-2954"/>
<text text-anchor="middle" x="673" y="-2933.1" font-family="Courier,monospace" font-size="11.00">DAO_TREE</text>
</g>
<!-- \\JCORE\\DAO\\DAO -->
<g id="node6" class="node"><title>\\JCORE\\DAO\\DAO</title>
<polygon fill="none" stroke="black" points="700,-2900 646,-2900 646,-2864 700,-2864 700,-2900"/>
<text text-anchor="middle" x="673" y="-2879.1" font-family="Courier,monospace" font-size="11.00">DAO</text>
</g>
<!-- \\JCORE\\DAO\\SESSION -->
<g id="node7" class="node"><title>\\JCORE\\DAO\\SESSION</title>
<polygon fill="none" stroke="black" points="705,-2846 641,-2846 641,-2810 705,-2810 705,-2846"/>
<text text-anchor="middle" x="673" y="-2825.1" font-family="Courier,monospace" font-size="11.00">SESSION</text>
</g>
<!-- \\JCORE\\CACHE\\MEMCACHED -->
<g id="node9" class="node"><title>\\JCORE\\CACHE\\MEMCACHED</title>
<polygon fill="none" stroke="black" points="711,-2601 635,-2601 635,-2565 711,-2565 711,-2601"/>
<text text-anchor="middle" x="673" y="-2580.1" font-family="Courier,monospace" font-size="11.00">MEMCACHED</text>
</g>
<!-- \\JCORE\\CACHE\\CACHE_COMMON_API_INTERFACE -->
<g id="node17" class="node"><title>\\JCORE\\CACHE\\CACHE_COMMON_API_INTERFACE</title>
<polygon fill="none" stroke="black" points="355,-2655 163,-2655 163,-2619 355,-2619 355,-2655"/>
<text text-anchor="middle" x="259" y="-2634.1" font-family="Courier,monospace" font-size="11.00">CACHE_COMMON_API_INTERFACE</text>
</g>
<!-- \\JCORE\\CACHE\\MEMCACHED&#45;&gt;\\JCORE\\CACHE\\CACHE_COMMON_API_INTERFACE -->
<g id="edge28" class="edge"><title>\\JCORE\\CACHE\\MEMCACHED&#45;&gt;\\JCORE\\CACHE\\CACHE_COMMON_API_INTERFACE</title>
<path fill="none" stroke="black" stroke-dasharray="1,5" d="M634.424,-2588.03C573.636,-2595.96 453.421,-2611.64 365.343,-2623.13"/>
<polygon fill="none" stroke="black" points="364.771,-2619.67 355.308,-2624.44 365.677,-2626.62 364.771,-2619.67"/>
</g>
<!-- \\JCORE\\CACHE\\CACHE_API2 -->
<g id="node10" class="node"><title>\\JCORE\\CACHE\\CACHE_API2</title>
<polygon fill="none" stroke="black" points="715,-2709 631,-2709 631,-2673 715,-2673 715,-2709"/>
<text text-anchor="middle" x="673" y="-2688.1" font-family="Courier,monospace" font-size="11.00">CACHE_API2</text>
</g>
<!-- \\JCORE\\CACHE\\CACHE_API2&#45;&gt;\\JCORE\\CACHE\\CACHE_COMMON_API_INTERFACE -->
<g id="edge32" class="edge"><title>\\JCORE\\CACHE\\CACHE_API2&#45;&gt;\\JCORE\\CACHE\\CACHE_COMMON_API_INTERFACE</title>
<path fill="none" stroke="black" stroke-dasharray="1,5" d="M630.807,-2680.87C599.774,-2673.77 556.477,-2664.59 518,-2659 468.073,-2651.75 412.358,-2646.64 365.432,-2643.18"/>
<polygon fill="none" stroke="black" points="365.477,-2639.67 355.251,-2642.44 364.972,-2646.65 365.477,-2639.67"/>
</g>
<!-- \\JCORE\\CACHE\\URL_API -->
<g id="node11" class="node"><title>\\JCORE\\CACHE\\URL_API</title>
<polygon fill="none" stroke="black" points="705,-2493 641,-2493 641,-2457 705,-2457 705,-2493"/>
<text text-anchor="middle" x="673" y="-2472.1" font-family="Courier,monospace" font-size="11.00">URL_API</text>
</g>
<!-- \\JCORE\\TRANSPORT\\TRANSPORT_INTERFACE -->
<g id="node34" class="node"><title>\\JCORE\\TRANSPORT\\TRANSPORT_INTERFACE</title>
<polygon fill="none" stroke="black" points="331,-2242 187,-2242 187,-2206 331,-2206 331,-2242"/>
<text text-anchor="middle" x="259" y="-2221.1" font-family="Courier,monospace" font-size="11.00">TRANSPORT_INTERFACE</text>
</g>
<!-- \\JCORE\\CACHE\\URL_API&#45;&gt;\\JCORE\\TRANSPORT\\TRANSPORT_INTERFACE -->
<g id="edge42" class="edge"><title>\\JCORE\\CACHE\\URL_API&#45;&gt;\\JCORE\\TRANSPORT\\TRANSPORT_INTERFACE</title>
<path fill="none" stroke="black" stroke-dasharray="1,5" d="M640.896,-2469.1C622.824,-2464.91 600.286,-2458.18 582,-2448 548.72,-2429.47 548.319,-2414.06 518,-2391 444.078,-2334.79 351.328,-2278.03 299.267,-2247.3"/>
<polygon fill="none" stroke="black" points="300.737,-2244.11 290.343,-2242.06 297.19,-2250.14 300.737,-2244.11"/>
</g>
<!-- \\JCORE\\CACHE\\SESSION -->
<g id="node12" class="node"><title>\\JCORE\\CACHE\\SESSION</title>
<polygon fill="none" stroke="black" points="705,-2547 641,-2547 641,-2511 705,-2511 705,-2547"/>
<text text-anchor="middle" x="673" y="-2526.1" font-family="Courier,monospace" font-size="11.00">SESSION</text>
</g>
<!-- \\JCORE\\CACHE\\PHP_SESSION -->
<g id="node16" class="node"><title>\\JCORE\\CACHE\\PHP_SESSION</title>
<polygon fill="none" stroke="black" points="304,-2547 214,-2547 214,-2511 304,-2511 304,-2547"/>
<text text-anchor="middle" x="259" y="-2526.1" font-family="Courier,monospace" font-size="11.00">PHP_SESSION</text>
</g>
<!-- \\JCORE\\CACHE\\SESSION&#45;&gt;\\JCORE\\CACHE\\PHP_SESSION -->
<g id="edge44" class="edge"><title>\\JCORE\\CACHE\\SESSION&#45;&gt;\\JCORE\\CACHE\\PHP_SESSION</title>
<path fill="none" stroke="black" stroke-dasharray="1,5" d="M640.859,-2529C570.592,-2529 402.58,-2529 314.706,-2529"/>
<polygon fill="none" stroke="black" points="314.657,-2525.5 304.657,-2529 314.657,-2532.5 314.657,-2525.5"/>
</g>
<!-- \\JCORE\\CACHE\\REDIS -->
<g id="node13" class="node"><title>\\JCORE\\CACHE\\REDIS</title>
<polygon fill="none" stroke="black" points="700,-2439 646,-2439 646,-2403 700,-2403 700,-2439"/>
<text text-anchor="middle" x="673" y="-2418.1" font-family="Courier,monospace" font-size="11.00">REDIS</text>
</g>
<!-- \\JCORE\\CACHE\\JCORE\\CACHE\\STATIC_API_INTERFACE -->
<g id="node86" class="node"><title>\\JCORE\\CACHE\\JCORE\\CACHE\\STATIC_API_INTERFACE</title>
<ellipse fill="none" stroke="black" cx="259" cy="-187" rx="258.801" ry="19.0919"/>
<text text-anchor="middle" x="259" y="-183.9" font-family="Times Roman,serif" font-size="14.00" fill="gray">\JCORE\CACHE\JCORE\CACHE\STATIC_API_INTERFACE</text>
</g>
<!-- \\JCORE\\CACHE\\REDIS&#45;&gt;\\JCORE\\CACHE\\JCORE\\CACHE\\STATIC_API_INTERFACE -->
<g id="edge48" class="edge"><title>\\JCORE\\CACHE\\REDIS&#45;&gt;\\JCORE\\CACHE\\JCORE\\CACHE\\STATIC_API_INTERFACE</title>
<path fill="none" stroke="black" stroke-dasharray="1,5" d="M645.814,-2410.92C624.339,-2401.37 595.771,-2384.77 582,-2360 482.003,-2180.14 589.718,-701.888 518,-509 469.883,-379.588 347.741,-262.776 290.064,-212.754"/>
<polygon fill="none" stroke="black" points="292.234,-210.004 282.367,-206.144 287.674,-215.315 292.234,-210.004"/>
</g>
<!-- \\JCORE\\CACHE\\FILECACHE_API -->
<g id="node14" class="node"><title>\\JCORE\\CACHE\\FILECACHE_API</title>
<polygon fill="none" stroke="black" points="725,-2655 621,-2655 621,-2619 725,-2619 725,-2655"/>
<text text-anchor="middle" x="673" y="-2634.1" font-family="Courier,monospace" font-size="11.00">FILECACHE_API</text>
</g>
<!-- \\JCORE\\CACHE\\FILECACHE_API&#45;&gt;\\JCORE\\CACHE\\CACHE_COMMON_API_INTERFACE -->
<g id="edge54" class="edge"><title>\\JCORE\\CACHE\\FILECACHE_API&#45;&gt;\\JCORE\\CACHE\\CACHE_COMMON_API_INTERFACE</title>
<path fill="none" stroke="black" stroke-dasharray="1,5" d="M620.986,-2637C557.192,-2637 447.447,-2637 365.475,-2637"/>
<polygon fill="none" stroke="black" points="365.369,-2633.5 355.369,-2637 365.369,-2640.5 365.369,-2633.5"/>
</g>
<!-- \\JCORE\\CACHE\\STATIC_API_INTERFACE -->
<g id="node15" class="node"><title>\\JCORE\\CACHE\\STATIC_API_INTERFACE</title>
<polygon fill="none" stroke="black" points="749,-2763 597,-2763 597,-2727 749,-2727 749,-2763"/>
<text text-anchor="middle" x="673" y="-2742.1" font-family="Courier,monospace" font-size="11.00">STATIC_API_INTERFACE</text>
</g>
<!-- \\JCORE\\JCORE_SINGLETON_INTERFACE -->
<g id="node66" class="node"><title>\\JCORE\\JCORE_SINGLETON_INTERFACE</title>
<polygon fill="none" stroke="black" points="351,-2838 167,-2838 167,-2802 351,-2802 351,-2838"/>
<text text-anchor="middle" x="259" y="-2817.1" font-family="Courier,monospace" font-size="11.00">JCORE_SINGLETON_INTERFACE</text>
</g>
<!-- \\JCORE\\CACHE\\STATIC_API_INTERFACE&#45;&gt;\\JCORE\\JCORE_SINGLETON_INTERFACE -->
<g id="edge62" class="edge"><title>\\JCORE\\CACHE\\STATIC_API_INTERFACE&#45;&gt;\\JCORE\\JCORE_SINGLETON_INTERFACE</title>
<path fill="none" stroke="black" d="M629.376,-2763.13C598.753,-2775.05 556.547,-2789.9 518,-2798 467.184,-2808.68 409.724,-2814.2 361.859,-2817.05"/>
<polygon fill="none" stroke="black" points="361.583,-2813.56 351.796,-2817.61 361.977,-2820.55 361.583,-2813.56"/>
</g>
<!-- \\JCORE\\TRANSPORT\\XML\\SOAP -->
<g id="node20" class="node"><title>\\JCORE\\TRANSPORT\\XML\\SOAP</title>
<polygon fill="none" stroke="black" points="700,-2325 646,-2325 646,-2289 700,-2289 700,-2325"/>
<text text-anchor="middle" x="673" y="-2304.1" font-family="Courier,monospace" font-size="11.00">SOAP</text>
</g>
<!-- \\JCORE\\TRANSPORT\\XML\\SOAP&#45;&gt;\\JCORE\\TRANSPORT\\TRANSPORT_INTERFACE -->
<g id="edge30" class="edge"><title>\\JCORE\\TRANSPORT\\XML\\SOAP&#45;&gt;\\JCORE\\TRANSPORT\\TRANSPORT_INTERFACE</title>
<path fill="none" stroke="black" stroke-dasharray="1,5" d="M645.836,-2301.55C585.088,-2289.38 436.192,-2259.52 341.853,-2240.61"/>
<polygon fill="none" stroke="black" points="342.258,-2237.12 331.765,-2238.59 340.882,-2243.99 342.258,-2237.12"/>
</g>
<!-- \\JCORE\\TRANSPORT\\REST\\REST_API -->
<g id="node22" class="node"><title>\\JCORE\\TRANSPORT\\REST\\REST_API</title>
<polygon fill="none" stroke="black" points="715,-2242 631,-2242 631,-2206 715,-2206 715,-2242"/>
<text text-anchor="start" x="639" y="-2229.43" font-family="Courier,monospace" font-size="11.00">«abstract»</text>
<text text-anchor="start" x="645.5" y="-2216.23" font-family="Courier,monospace" font-size="11.00">REST_API</text>
</g>
<!-- \\JCORE\\TRANSPORT\\REST\\REST_API&#45;&gt;\\JCORE\\TRANSPORT\\TRANSPORT_INTERFACE -->
<g id="edge46" class="edge"><title>\\JCORE\\TRANSPORT\\REST\\REST_API&#45;&gt;\\JCORE\\TRANSPORT\\TRANSPORT_INTERFACE</title>
<path fill="none" stroke="black" stroke-dasharray="1,5" d="M630.254,-2224C562.389,-2224 428.785,-2224 341.733,-2224"/>
<polygon fill="none" stroke="black" points="341.619,-2220.5 331.619,-2224 341.619,-2227.5 341.619,-2220.5"/>
</g>
<!-- \\JCORE\\TRANSPORT\\SOA\\SERVICE_VALIDATOR -->
<g id="node24" class="node"><title>\\JCORE\\TRANSPORT\\SOA\\SERVICE_VALIDATOR</title>
<polygon fill="none" stroke="black" points="738,-2159 608,-2159 608,-2123 738,-2123 738,-2159"/>
<text text-anchor="middle" x="673" y="-2138.1" font-family="Courier,monospace" font-size="11.00">SERVICE_VALIDATOR</text>
</g>
<!-- \\JCORE\\TRANSPORT\\SOA\\SOA_BASE -->
<g id="node25" class="node"><title>\\JCORE\\TRANSPORT\\SOA\\SOA_BASE</title>
<polygon fill="none" stroke="black" points="715,-2105 631,-2105 631,-2069 715,-2069 715,-2105"/>
<text text-anchor="start" x="639" y="-2092.43" font-family="Courier,monospace" font-size="11.00">«abstract»</text>
<text text-anchor="start" x="645.5" y="-2079.23" font-family="Courier,monospace" font-size="11.00">SOA_BASE</text>
</g>
<!-- \\JCORE\\TRANSPORT\\HTTP\\HTTP_UTIL -->
<g id="node27" class="node"><title>\\JCORE\\TRANSPORT\\HTTP\\HTTP_UTIL</title>
<polygon fill="none" stroke="black" points="711,-2022 635,-2022 635,-1986 711,-1986 711,-2022"/>
<text text-anchor="middle" x="673" y="-2001.1" font-family="Courier,monospace" font-size="11.00">HTTP_UTIL</text>
</g>
<!-- \\JCORE\\TRANSPORT\\HTTP\\HTTP_API -->
<g id="node28" class="node"><title>\\JCORE\\TRANSPORT\\HTTP\\HTTP_API</title>
<polygon fill="none" stroke="black" points="708,-1968 638,-1968 638,-1932 708,-1932 708,-1968"/>
<text text-anchor="middle" x="673" y="-1947.1" font-family="Courier,monospace" font-size="11.00">HTTP_API</text>
</g>
<!-- \\JCORE\\TRANSPORT\\HTTP\\HTTP_API&#45;&gt;\\JCORE\\TRANSPORT\\TRANSPORT_INTERFACE -->
<g id="edge60" class="edge"><title>\\JCORE\\TRANSPORT\\HTTP\\HTTP_API&#45;&gt;\\JCORE\\TRANSPORT\\TRANSPORT_INTERFACE</title>
<path fill="none" stroke="black" stroke-dasharray="1,5" d="M637.288,-1957.39C620.02,-1961.76 599.331,-1968.18 582,-1977 459.615,-2039.27 336.734,-2149.51 284.767,-2198.87"/>
<polygon fill="none" stroke="black" points="282.144,-2196.54 277.335,-2205.98 286.981,-2201.6 282.144,-2196.54"/>
</g>
<!-- \\JCORE\\TRANSPORT\\JSON\\JSONRPC_1_0_API -->
<g id="node30" class="node"><title>\\JCORE\\TRANSPORT\\JSON\\JSONRPC_1_0_API</title>
<polygon fill="none" stroke="black" points="732,-1885 614,-1885 614,-1849 732,-1849 732,-1885"/>
<text text-anchor="middle" x="673" y="-1864.1" font-family="Courier,monospace" font-size="11.00">JSONRPC_1_0_API</text>
</g>
<!-- \\JCORE\\TRANSPORT\\JSON\\JSONRPC_1_0_API&#45;&gt;\\JCORE\\TRANSPORT\\TRANSPORT_INTERFACE -->
<g id="edge58" class="edge"><title>\\JCORE\\TRANSPORT\\JSON\\JSONRPC_1_0_API&#45;&gt;\\JCORE\\TRANSPORT\\TRANSPORT_INTERFACE</title>
<path fill="none" stroke="black" stroke-dasharray="1,5" d="M637.688,-1885.11C620.324,-1894.62 599.435,-1906.99 582,-1920 459.955,-2011.1 333.704,-2142.88 282.587,-2198.11"/>
<polygon fill="none" stroke="black" points="279.804,-2195.97 275.599,-2205.69 284.951,-2200.71 279.804,-2195.97"/>
</g>
<!-- \\JCORE\\TRANSPORT\\JSON\\JSON -->
<g id="node31" class="node"><title>\\JCORE\\TRANSPORT\\JSON\\JSON</title>
<polygon fill="none" stroke="black" points="700,-1831 646,-1831 646,-1795 700,-1795 700,-1831"/>
<text text-anchor="middle" x="673" y="-1810.1" font-family="Courier,monospace" font-size="11.00">JSON</text>
</g>
<!-- \\JCORE\\TRANSPORT\\SERIALIZATION -->
<g id="node32" class="node"><title>\\JCORE\\TRANSPORT\\SERIALIZATION</title>
<polygon fill="none" stroke="black" points="725,-1777 621,-1777 621,-1741 725,-1741 725,-1777"/>
<text text-anchor="middle" x="673" y="-1756.1" font-family="Courier,monospace" font-size="11.00">SERIALIZATION</text>
</g>
<!-- \\JCORE\\TRANSPORT\\SERIALIZATION_STATIC -->
<g id="node33" class="node"><title>\\JCORE\\TRANSPORT\\SERIALIZATION_STATIC</title>
<polygon fill="none" stroke="black" points="749,-1723 597,-1723 597,-1687 749,-1687 749,-1723"/>
<text text-anchor="middle" x="673" y="-1702.1" font-family="Courier,monospace" font-size="11.00">SERIALIZATION_STATIC</text>
</g>
<!-- \\JCORE\\DATA\\API\\REDIS\\REDIS_connector -->
<g id="node38" class="node"><title>\\JCORE\\DATA\\API\\REDIS\\REDIS_connector</title>
<polygon fill="none" stroke="black" points="732,-1495 614,-1495 614,-1459 732,-1459 732,-1495"/>
<text text-anchor="middle" x="673" y="-1474.1" font-family="Courier,monospace" font-size="11.00">REDIS_connector</text>
</g>
<!-- \\JCORE\\DATA\\API\\DATA_API_INTERFACE -->
<g id="node46" class="node"><title>\\JCORE\\DATA\\API\\DATA_API_INTERFACE</title>
<polygon fill="none" stroke="black" points="328,-1495 190,-1495 190,-1459 328,-1459 328,-1495"/>
<text text-anchor="middle" x="259" y="-1474.1" font-family="Courier,monospace" font-size="11.00">DATA_API_INTERFACE</text>
</g>
<!-- \\JCORE\\DATA\\API\\REDIS\\REDIS_connector&#45;&gt;\\JCORE\\DATA\\API\\DATA_API_INTERFACE -->
<g id="edge34" class="edge"><title>\\JCORE\\DATA\\API\\REDIS\\REDIS_connector&#45;&gt;\\JCORE\\DATA\\API\\DATA_API_INTERFACE</title>
<path fill="none" stroke="black" stroke-dasharray="1,5" d="M613.684,-1477C541.32,-1477 418.711,-1477 338.299,-1477"/>
<polygon fill="none" stroke="black" points="338.22,-1473.5 328.22,-1477 338.22,-1480.5 338.22,-1473.5"/>
</g>
<!-- \\JCORE\\DATA\\API\\MySQL\\MySQL_connector -->
<g id="node40" class="node"><title>\\JCORE\\DATA\\API\\MySQL\\MySQL_connector</title>
<polygon fill="none" stroke="black" points="732,-1412 614,-1412 614,-1376 732,-1376 732,-1412"/>
<text text-anchor="middle" x="673" y="-1391.1" font-family="Courier,monospace" font-size="11.00">MySQL_connector</text>
</g>
<!-- \\JCORE\\DATA\\API\\MySQL\\MySQL_connector&#45;&gt;\\JCORE\\DATA\\API\\DATA_API_INTERFACE -->
<g id="edge38" class="edge"><title>\\JCORE\\DATA\\API\\MySQL\\MySQL_connector&#45;&gt;\\JCORE\\DATA\\API\\DATA_API_INTERFACE</title>
<path fill="none" stroke="black" stroke-dasharray="1,5" d="M613.684,-1405.89C541.32,-1420.4 418.711,-1444.98 338.299,-1461.1"/>
<polygon fill="none" stroke="black" points="337.336,-1457.73 328.22,-1463.12 338.713,-1464.59 337.336,-1457.73"/>
</g>
<!-- \\JCORE\\DATA\\API\\MySQL\\MySQL_TABLE_META -->
<g id="node41" class="node"><title>\\JCORE\\DATA\\API\\MySQL\\MySQL_TABLE_META</title>
<polygon fill="none" stroke="black" points="735,-1358 611,-1358 611,-1322 735,-1322 735,-1358"/>
<text text-anchor="middle" x="673" y="-1337.1" font-family="Courier,monospace" font-size="11.00">MySQL_TABLE_META</text>
</g>
<!-- \\JCORE\\DATA\\API\\FILE\\CSV_connector -->
<g id="node43" class="node"><title>\\JCORE\\DATA\\API\\FILE\\CSV_connector</title>
<polygon fill="none" stroke="black" points="725,-1578 621,-1578 621,-1542 725,-1542 725,-1578"/>
<text text-anchor="middle" x="673" y="-1557.1" font-family="Courier,monospace" font-size="11.00">CSV_connector</text>
</g>
<!-- \\JCORE\\DATA\\API\\FILE\\CSV_connector&#45;&gt;\\JCORE\\DATA\\API\\DATA_API_INTERFACE -->
<g id="edge50" class="edge"><title>\\JCORE\\DATA\\API\\FILE\\CSV_connector&#45;&gt;\\JCORE\\DATA\\API\\DATA_API_INTERFACE</title>
<path fill="none" stroke="black" stroke-dasharray="1,5" d="M620.986,-1549.57C549.719,-1535.28 421.103,-1509.5 337.929,-1492.82"/>
<polygon fill="none" stroke="black" points="338.511,-1489.37 328.018,-1490.84 337.135,-1496.23 338.511,-1489.37"/>
</g>
<!-- \\JCORE\\DATA\\API\\DATA_API -->
<g id="node44" class="node"><title>\\JCORE\\DATA\\API\\DATA_API</title>
<polygon fill="none" stroke="black" points="708,-1304 638,-1304 638,-1268 708,-1268 708,-1304"/>
<text text-anchor="middle" x="673" y="-1283.1" font-family="Courier,monospace" font-size="11.00">DATA_API</text>
</g>
<!-- \\JCORE\\DATA\\API\\DATA_UTIL_API -->
<g id="node45" class="node"><title>\\JCORE\\DATA\\API\\DATA_UTIL_API</title>
<polygon fill="none" stroke="black" points="725,-1250 621,-1250 621,-1214 725,-1214 725,-1250"/>
<text text-anchor="middle" x="673" y="-1229.1" font-family="Courier,monospace" font-size="11.00">DATA_UTIL_API</text>
</g>
<!-- \\JCORE\\EXCEPTION\\DATA_Exception -->
<g id="node48" class="node"><title>\\JCORE\\EXCEPTION\\DATA_Exception</title>
<polygon fill="none" stroke="black" points="728,-1159 618,-1159 618,-1123 728,-1123 728,-1159"/>
<text text-anchor="middle" x="673" y="-1138.1" font-family="Courier,monospace" font-size="11.00">DATA_Exception</text>
</g>
<!-- \\Exception -->
<g id="node79" class="node"><title>\\Exception</title>
<ellipse fill="none" stroke="black" cx="259" cy="-131" rx="53.033" ry="19.0919"/>
<text text-anchor="middle" x="259" y="-127.9" font-family="Times Roman,serif" font-size="14.00" fill="gray">\Exception</text>
</g>
<!-- \\JCORE\\EXCEPTION\\DATA_Exception&#45;&gt;\\Exception -->
<g id="edge36" class="edge"><title>\\JCORE\\EXCEPTION\\DATA_Exception&#45;&gt;\\Exception</title>
<path fill="none" stroke="black" d="M617.146,-1135.6C603.721,-1131.59 590.749,-1124.94 582,-1114 449.145,-947.897 665.303,-312.435 518,-159 466.036,-104.873 372.649,-109.141 313.352,-118.85"/>
<polygon fill="none" stroke="black" points="312.669,-115.416 303.418,-120.58 313.87,-122.313 312.669,-115.416"/>
</g>
<!-- \\JCORE\\EXCEPTION\\networkException -->
<g id="node49" class="node"><title>\\JCORE\\EXCEPTION\\networkException</title>
<polygon fill="none" stroke="black" points="735,-1105 611,-1105 611,-1069 735,-1069 735,-1105"/>
<text text-anchor="middle" x="673" y="-1084.1" font-family="Courier,monospace" font-size="11.00">networkException</text>
</g>
<!-- \\JCORE\\EXCEPTION\\networkException&#45;&gt;\\Exception -->
<g id="edge52" class="edge"><title>\\JCORE\\EXCEPTION\\networkException&#45;&gt;\\Exception</title>
<path fill="none" stroke="black" d="M610.13,-1079.2C599.3,-1075.09 589.223,-1068.99 582,-1060 456.31,-903.497 657.301,-303.521 518,-159 465.928,-104.977 372.573,-109.215 313.312,-118.889"/>
<polygon fill="none" stroke="black" points="312.638,-115.453 303.384,-120.612 313.835,-122.35 312.638,-115.453"/>
</g>
<!-- \\JCORE\\EXCEPTION\\ERROR -->
<g id="node50" class="node"><title>\\JCORE\\EXCEPTION\\ERROR</title>
<polygon fill="none" stroke="black" points="700,-1051 646,-1051 646,-1015 700,-1015 700,-1051"/>
<text text-anchor="middle" x="673" y="-1030.1" font-family="Courier,monospace" font-size="11.00">ERROR</text>
</g>
<!-- \\JCORE\\TEMPLATER\\TEMPLATER -->
<g id="node52" class="node"><title>\\JCORE\\TEMPLATER\\TEMPLATER</title>
<polygon fill="none" stroke="black" points="711,-968 635,-968 635,-932 711,-932 711,-968"/>
<text text-anchor="middle" x="673" y="-947.1" font-family="Courier,monospace" font-size="11.00">TEMPLATER</text>
</g>
<!-- \\JCORE\\LOAD\\CONFIG_MANAGER_INI -->
<g id="node54" class="node"><title>\\JCORE\\LOAD\\CONFIG_MANAGER_INI</title>
<polygon fill="none" stroke="black" points="742,-885 604,-885 604,-849 742,-849 742,-885"/>
<text text-anchor="middle" x="673" y="-864.1" font-family="Courier,monospace" font-size="11.00">CONFIG_MANAGER_INI</text>
</g>
<!-- \\JCORE\\LOAD\\ComposerAutoloaderInit -->
<g id="node55" class="node"><title>\\JCORE\\LOAD\\ComposerAutoloaderInit</title>
<polygon fill="none" stroke="black" points="755,-831 591,-831 591,-795 755,-795 755,-831"/>
<text text-anchor="middle" x="673" y="-810.1" font-family="Courier,monospace" font-size="11.00">ComposerAutoloaderInit</text>
</g>
<!-- \\JCORE\\LOAD\\CONFIG_MANAGER -->
<g id="node56" class="node"><title>\\JCORE\\LOAD\\CONFIG_MANAGER</title>
<polygon fill="none" stroke="black" points="728,-777 618,-777 618,-741 728,-741 728,-777"/>
<text text-anchor="middle" x="673" y="-756.1" font-family="Courier,monospace" font-size="11.00">CONFIG_MANAGER</text>
</g>
<!-- \\JCORE\\L10N\\PO_TRANSLATION -->
<g id="node58" class="node"><title>\\JCORE\\L10N\\PO_TRANSLATION</title>
<polygon fill="none" stroke="black" points="728,-694 618,-694 618,-658 728,-658 728,-694"/>
<text text-anchor="middle" x="673" y="-673.1" font-family="Courier,monospace" font-size="11.00">PO_TRANSLATION</text>
</g>
<!-- \\JCORE\\AUTH\\AUTH_HARNESS -->
<g id="node60" class="node"><title>\\JCORE\\AUTH\\AUTH_HARNESS</title>
<polygon fill="none" stroke="black" points="722,-611 624,-611 624,-575 722,-575 722,-611"/>
<text text-anchor="middle" x="673" y="-590.1" font-family="Courier,monospace" font-size="11.00">AUTH_HARNESS</text>
</g>
<!-- \\JCORE\\AUTH\\IP_WHITELIST -->
<g id="node61" class="node"><title>\\JCORE\\AUTH\\IP_WHITELIST</title>
<polygon fill="none" stroke="black" points="722,-557 624,-557 624,-521 722,-521 722,-557"/>
<text text-anchor="middle" x="673" y="-536.1" font-family="Courier,monospace" font-size="11.00">IP_WHITELIST</text>
</g>
<!-- \\JCORE\\AUTH\\AUTH_INTERFACE -->
<g id="node62" class="node"><title>\\JCORE\\AUTH\\AUTH_INTERFACE</title>
<polygon fill="none" stroke="black" points="314,-557 204,-557 204,-521 314,-521 314,-557"/>
<text text-anchor="middle" x="259" y="-536.1" font-family="Courier,monospace" font-size="11.00">AUTH_INTERFACE</text>
</g>
<!-- \\JCORE\\AUTH\\IP_WHITELIST&#45;&gt;\\JCORE\\AUTH\\AUTH_INTERFACE -->
<g id="edge56" class="edge"><title>\\JCORE\\AUTH\\IP_WHITELIST&#45;&gt;\\JCORE\\AUTH\\AUTH_INTERFACE</title>
<path fill="none" stroke="black" stroke-dasharray="1,5" d="M623.883,-539C549.451,-539 407.968,-539 324.74,-539"/>
<polygon fill="none" stroke="black" points="324.639,-535.5 314.639,-539 324.639,-542.5 324.639,-535.5"/>
</g>
<!-- \\JCORE\\LOG\\LOGGER -->
<g id="node64" class="node"><title>\\JCORE\\LOG\\LOGGER</title>
<polygon fill="none" stroke="black" points="701,-474 645,-474 645,-438 701,-438 701,-474"/>
<text text-anchor="middle" x="673" y="-453.1" font-family="Courier,monospace" font-size="11.00">LOGGER</text>
</g>
<!-- \\JCORE\\JCORE_SINGLETON -->
<g id="node65" class="node"><title>\\JCORE\\JCORE_SINGLETON</title>
<polygon fill="none" stroke="black" points="732,-420 614,-420 614,-384 732,-384 732,-420"/>
<text text-anchor="start" x="639" y="-407.433" font-family="Courier,monospace" font-size="11.00">«abstract»</text>
<text text-anchor="start" x="622" y="-394.233" font-family="Courier,monospace" font-size="11.00">JCORE_SINGLETON</text>
</g>
<!-- \\XCache -->
<g id="node67" class="node"><title>\\XCache</title>
<polygon fill="none" stroke="black" points="701,-366 645,-366 645,-330 701,-330 701,-366"/>
<text text-anchor="middle" x="673" y="-345.1" font-family="Courier,monospace" font-size="11.00">XCache</text>
</g>
<!-- \\XCACHE_static -->
<g id="node68" class="node"><title>\\XCACHE_static</title>
<polygon fill="none" stroke="black" points="725,-312 621,-312 621,-276 725,-276 725,-312"/>
<text text-anchor="middle" x="673" y="-291.1" font-family="Courier,monospace" font-size="11.00">XCACHE_static</text>
</g>
<!-- \\JCORE_SINGLETON -->
<g id="node71" class="node"><title>\\JCORE_SINGLETON</title>
<ellipse fill="none" stroke="black" cx="259" cy="-75" rx="101.823" ry="19.0919"/>
<text text-anchor="middle" x="259" y="-71.9" font-family="Times Roman,serif" font-size="14.00" fill="gray">\JCORE_SINGLETON</text>
</g>
<!-- \\XCACHE_static&#45;&gt;\\JCORE_SINGLETON -->
<g id="edge24" class="edge"><title>\\XCACHE_static&#45;&gt;\\JCORE_SINGLETON</title>
<path fill="none" stroke="black" d="M620.657,-287.061C606.763,-283.075 592.674,-276.817 582,-267 524.41,-214.036 580.135,-150.551 518,-103 470.846,-66.9136 403.937,-60.4764 349.938,-62.7686"/>
<polygon fill="none" stroke="black" points="349.467,-59.2886 339.668,-63.315 349.839,-66.2787 349.467,-59.2886"/>
</g>
<!-- \\CACHE_STATIC_API_INTERFACE -->
<g id="node73" class="node"><title>\\CACHE_STATIC_API_INTERFACE</title>
<ellipse fill="none" stroke="black" cx="259" cy="-19" rx="162.134" ry="19.0919"/>
<text text-anchor="middle" x="259" y="-15.9" font-family="Times Roman,serif" font-size="14.00" fill="gray">\CACHE_STATIC_API_INTERFACE</text>
</g>
<!-- \\XCACHE_static&#45;&gt;\\CACHE_STATIC_API_INTERFACE -->
<g id="edge26" class="edge"><title>\\XCACHE_static&#45;&gt;\\CACHE_STATIC_API_INTERFACE</title>
<path fill="none" stroke="black" stroke-dasharray="1,5" d="M620.553,-287.796C606.493,-283.83 592.343,-277.398 582,-267 510.187,-194.803 596.036,-112.422 518,-47 479.495,-14.719 425.632,-5.18296 376.992,-4.72998"/>
<polygon fill="none" stroke="black" points="376.687,-1.23094 366.7,-4.76627 376.712,-8.23089 376.687,-1.23094"/>
</g>
<!-- \\XCACHE -->
<g id="node69" class="node"><title>\\XCACHE</title>
<polygon fill="none" stroke="black" points="701,-258 645,-258 645,-222 701,-222 701,-258"/>
<text text-anchor="middle" x="673" y="-237.1" font-family="Courier,monospace" font-size="11.00">XCACHE</text>
</g>
<!-- \\XCACHE&#45;&gt;\\CACHE_STATIC_API_INTERFACE -->
<g id="edge40" class="edge"><title>\\XCACHE&#45;&gt;\\CACHE_STATIC_API_INTERFACE</title>
<path fill="none" stroke="black" stroke-dasharray="1,5" d="M664.672,-221.963C645.326,-182.384 593.202,-88.1733 518,-47 491.536,-32.5109 461.277,-23.6717 430.999,-18.5218"/>
<polygon fill="none" stroke="black" points="431.156,-15.0038 420.735,-16.9139 430.073,-21.9195 431.156,-15.0038"/>
</g>
</g>
</svg>
