<?xml version="1.0" encoding="UTF-8" standalone="no"?>
<!DOCTYPE svg PUBLIC "-//W3C//DTD SVG 1.1//EN"
 "http://www.w3.org/Graphics/SVG/1.1/DTD/svg11.dtd">
<!-- Generated by graphviz version 2.26.0 (20091210.2329)
 -->
<!-- Title: G Pages: 1 -->
<svg width="796pt" height="3138pt"
 viewBox="0.00 0.00 796.00 3138.00" xmlns="http://www.w3.org/2000/svg" xmlns:xlink="http://www.w3.org/1999/xlink">
<g id="graph1" class="graph" transform="scale(1 1) rotate(0) translate(4 3134)">
<title>G</title>
<polygon fill="white" stroke="white" points="-4,5 -4,-3134 793,-3134 793,5 -4,5"/>
<g id="graph2" class="cluster"><title>cluster_Global</title>
<polyline fill="none" stroke="gray" points="151,-214 768,-214 "/>
<path fill="none" stroke="gray" d="M768,-214C774,-214 780,-220 780,-226"/>
<polyline fill="none" stroke="gray" points="780,-226 780,-3110 "/>
<path fill="none" stroke="gray" d="M780,-3110C780,-3116 774,-3122 768,-3122"/>
<polyline fill="none" stroke="gray" points="768,-3122 151,-3122 "/>
<path fill="none" stroke="gray" d="M151,-3122C145,-3122 139,-3116 139,-3110"/>
<polyline fill="none" stroke="gray" points="139,-3110 139,-226 "/>
<path fill="none" stroke="gray" d="M139,-226C139,-220 145,-214 151,-214"/>
<text text-anchor="middle" x="459.5" y="-3108.1" font-family="Times Roman,serif" font-size="11.00" fill="gray">Global</text>
</g>
<g id="graph3" class="cluster"><title>cluster_\JCORE</title>
<polyline fill="none" stroke="gray" points="159,-376 760,-376 "/>
<path fill="none" stroke="gray" d="M760,-376C766,-376 772,-382 772,-388"/>
<polyline fill="none" stroke="gray" points="772,-388 772,-3079 "/>
<path fill="none" stroke="gray" d="M772,-3079C772,-3085 766,-3091 760,-3091"/>
<polyline fill="none" stroke="gray" points="760,-3091 159,-3091 "/>
<path fill="none" stroke="gray" d="M159,-3091C153,-3091 147,-3085 147,-3079"/>
<polyline fill="none" stroke="gray" points="147,-3079 147,-388 "/>
<path fill="none" stroke="gray" d="M147,-388C147,-382 153,-376 159,-376"/>
<text text-anchor="middle" x="459.5" y="-3077.1" font-family="Times Roman,serif" font-size="11.00" fill="gray">JCORE</text>
</g>
<g id="graph4" class="cluster"><title>cluster_\JCORE\DATA</title>
<polyline fill="none" stroke="gray" points="186,-2587 748,-2587 "/>
<path fill="none" stroke="gray" d="M748,-2587C754,-2587 760,-2593 760,-2599"/>
<polyline fill="none" stroke="gray" points="760,-2599 760,-3048 "/>
<path fill="none" stroke="gray" d="M760,-3048C760,-3054 754,-3060 748,-3060"/>
<polyline fill="none" stroke="gray" points="748,-3060 186,-3060 "/>
<path fill="none" stroke="gray" d="M186,-3060C180,-3060 174,-3054 174,-3048"/>
<polyline fill="none" stroke="gray" points="174,-3048 174,-2599 "/>
<path fill="none" stroke="gray" d="M174,-2599C174,-2593 180,-2587 186,-2587"/>
<text text-anchor="middle" x="467" y="-3046.1" font-family="Times Roman,serif" font-size="11.00" fill="gray">DATA</text>
</g>
<g id="graph5" class="cluster"><title>cluster_\JCORE\DATA\API</title>
<polyline fill="none" stroke="gray" points="194,-2595 740,-2595 "/>
<path fill="none" stroke="gray" d="M740,-2595C746,-2595 752,-2601 752,-2607"/>
<polyline fill="none" stroke="gray" points="752,-2607 752,-3017 "/>
<path fill="none" stroke="gray" d="M752,-3017C752,-3023 746,-3029 740,-3029"/>
<polyline fill="none" stroke="gray" points="740,-3029 194,-3029 "/>
<path fill="none" stroke="gray" d="M194,-3029C188,-3029 182,-3023 182,-3017"/>
<polyline fill="none" stroke="gray" points="182,-3017 182,-2607 "/>
<path fill="none" stroke="gray" d="M182,-2607C182,-2601 188,-2595 194,-2595"/>
<text text-anchor="middle" x="467" y="-3015.1" font-family="Times Roman,serif" font-size="11.00" fill="gray">API</text>
</g>
<g id="graph6" class="cluster"><title>cluster_\JCORE\DATA\API\MySQL</title>
<polyline fill="none" stroke="gray" points="614,-2786 732,-2786 "/>
<path fill="none" stroke="gray" d="M732,-2786C738,-2786 744,-2792 744,-2798"/>
<polyline fill="none" stroke="gray" points="744,-2798 744,-2903 "/>
<path fill="none" stroke="gray" d="M744,-2903C744,-2909 738,-2915 732,-2915"/>
<polyline fill="none" stroke="gray" points="732,-2915 614,-2915 "/>
<path fill="none" stroke="gray" d="M614,-2915C608,-2915 602,-2909 602,-2903"/>
<polyline fill="none" stroke="gray" points="602,-2903 602,-2798 "/>
<path fill="none" stroke="gray" d="M602,-2798C602,-2792 608,-2786 614,-2786"/>
<text text-anchor="middle" x="673" y="-2901.1" font-family="Times Roman,serif" font-size="11.00" fill="gray">MySQL</text>
</g>
<g id="graph7" class="cluster"><title>cluster_\JCORE\DATA\API\REDIS</title>
<polyline fill="none" stroke="gray" points="618,-2703 728,-2703 "/>
<path fill="none" stroke="gray" d="M728,-2703C734,-2703 740,-2709 740,-2715"/>
<polyline fill="none" stroke="gray" points="740,-2715 740,-2766 "/>
<path fill="none" stroke="gray" d="M740,-2766C740,-2772 734,-2778 728,-2778"/>
<polyline fill="none" stroke="gray" points="728,-2778 618,-2778 "/>
<path fill="none" stroke="gray" d="M618,-2778C612,-2778 606,-2772 606,-2766"/>
<polyline fill="none" stroke="gray" points="606,-2766 606,-2715 "/>
<path fill="none" stroke="gray" d="M606,-2715C606,-2709 612,-2703 618,-2703"/>
<text text-anchor="middle" x="673" y="-2764.1" font-family="Times Roman,serif" font-size="11.00" fill="gray">REDIS</text>
</g>
<g id="graph8" class="cluster"><title>cluster_\JCORE\DATA\API\FILE</title>
<polyline fill="none" stroke="gray" points="625,-2923 721,-2923 "/>
<path fill="none" stroke="gray" d="M721,-2923C727,-2923 733,-2929 733,-2935"/>
<polyline fill="none" stroke="gray" points="733,-2935 733,-2986 "/>
<path fill="none" stroke="gray" d="M733,-2986C733,-2992 727,-2998 721,-2998"/>
<polyline fill="none" stroke="gray" points="721,-2998 625,-2998 "/>
<path fill="none" stroke="gray" d="M625,-2998C619,-2998 613,-2992 613,-2986"/>
<polyline fill="none" stroke="gray" points="613,-2986 613,-2935 "/>
<path fill="none" stroke="gray" d="M613,-2935C613,-2929 619,-2923 625,-2923"/>
<text text-anchor="middle" x="673" y="-2984.1" font-family="Times Roman,serif" font-size="11.00" fill="gray">FILE</text>
</g>
<g id="graph9" class="cluster"><title>cluster_\JCORE\DAO</title>
<polyline fill="none" stroke="gray" points="633,-2365 713,-2365 "/>
<path fill="none" stroke="gray" d="M713,-2365C719,-2365 725,-2371 725,-2377"/>
<polyline fill="none" stroke="gray" points="725,-2377 725,-2567 "/>
<path fill="none" stroke="gray" d="M725,-2567C725,-2573 719,-2579 713,-2579"/>
<polyline fill="none" stroke="gray" points="713,-2579 633,-2579 "/>
<path fill="none" stroke="gray" d="M633,-2579C627,-2579 621,-2573 621,-2567"/>
<polyline fill="none" stroke="gray" points="621,-2567 621,-2377 "/>
<path fill="none" stroke="gray" d="M621,-2377C621,-2371 627,-2365 633,-2365"/>
<text text-anchor="middle" x="673" y="-2565.1" font-family="Times Roman,serif" font-size="11.00" fill="gray">DAO</text>
</g>
<g id="graph10" class="cluster"><title>cluster_\JCORE\DAO\TREE</title>
<polyline fill="none" stroke="gray" points="641,-2473 705,-2473 "/>
<path fill="none" stroke="gray" d="M705,-2473C711,-2473 717,-2479 717,-2485"/>
<polyline fill="none" stroke="gray" points="717,-2485 717,-2536 "/>
<path fill="none" stroke="gray" d="M717,-2536C717,-2542 711,-2548 705,-2548"/>
<polyline fill="none" stroke="gray" points="705,-2548 641,-2548 "/>
<path fill="none" stroke="gray" d="M641,-2548C635,-2548 629,-2542 629,-2536"/>
<polyline fill="none" stroke="gray" points="629,-2536 629,-2485 "/>
<path fill="none" stroke="gray" d="M629,-2485C629,-2479 635,-2473 641,-2473"/>
<text text-anchor="middle" x="673" y="-2534.1" font-family="Times Roman,serif" font-size="11.00" fill="gray">TREE</text>
</g>
<g id="graph11" class="cluster"><title>cluster_\JCORE\L10N</title>
<polyline fill="none" stroke="gray" points="621,-2282 725,-2282 "/>
<path fill="none" stroke="gray" d="M725,-2282C731,-2282 737,-2288 737,-2294"/>
<polyline fill="none" stroke="gray" points="737,-2294 737,-2345 "/>
<path fill="none" stroke="gray" d="M737,-2345C737,-2351 731,-2357 725,-2357"/>
<polyline fill="none" stroke="gray" points="725,-2357 621,-2357 "/>
<path fill="none" stroke="gray" d="M621,-2357C615,-2357 609,-2351 609,-2345"/>
<polyline fill="none" stroke="gray" points="609,-2345 609,-2294 "/>
<path fill="none" stroke="gray" d="M609,-2294C609,-2288 615,-2282 621,-2282"/>
<text text-anchor="middle" x="673" y="-2343.1" font-family="Times Roman,serif" font-size="11.00" fill="gray">L10N</text>
</g>
<g id="graph12" class="cluster"><title>cluster_\JCORE\TRANSPORT</title>
<polyline fill="none" stroke="gray" points="190,-1566 745,-1566 "/>
<path fill="none" stroke="gray" d="M745,-1566C751,-1566 757,-1572 757,-1578"/>
<polyline fill="none" stroke="gray" points="757,-1578 757,-2262 "/>
<path fill="none" stroke="gray" d="M757,-2262C757,-2268 751,-2274 745,-2274"/>
<polyline fill="none" stroke="gray" points="745,-2274 190,-2274 "/>
<path fill="none" stroke="gray" d="M190,-2274C184,-2274 178,-2268 178,-2262"/>
<polyline fill="none" stroke="gray" points="178,-2262 178,-1578 "/>
<path fill="none" stroke="gray" d="M178,-1578C178,-1572 184,-1566 190,-1566"/>
<text text-anchor="middle" x="467.5" y="-2260.1" font-family="Times Roman,serif" font-size="11.00" fill="gray">TRANSPORT</text>
</g>
<g id="graph13" class="cluster"><title>cluster_\JCORE\TRANSPORT\HTTP</title>
<polyline fill="none" stroke="gray" points="638,-2114 708,-2114 "/>
<path fill="none" stroke="gray" d="M708,-2114C714,-2114 720,-2120 720,-2126"/>
<polyline fill="none" stroke="gray" points="720,-2126 720,-2231 "/>
<path fill="none" stroke="gray" d="M720,-2231C720,-2237 714,-2243 708,-2243"/>
<polyline fill="none" stroke="gray" points="708,-2243 638,-2243 "/>
<path fill="none" stroke="gray" d="M638,-2243C632,-2243 626,-2237 626,-2231"/>
<polyline fill="none" stroke="gray" points="626,-2231 626,-2126 "/>
<path fill="none" stroke="gray" d="M626,-2126C626,-2120 632,-2114 638,-2114"/>
<text text-anchor="middle" x="673" y="-2229.1" font-family="Times Roman,serif" font-size="11.00" fill="gray">HTTP</text>
</g>
<g id="graph14" class="cluster"><title>cluster_\JCORE\TRANSPORT\SOA</title>
<polyline fill="none" stroke="gray" points="611,-1977 735,-1977 "/>
<path fill="none" stroke="gray" d="M735,-1977C741,-1977 747,-1983 747,-1989"/>
<polyline fill="none" stroke="gray" points="747,-1989 747,-2094 "/>
<path fill="none" stroke="gray" d="M747,-2094C747,-2100 741,-2106 735,-2106"/>
<polyline fill="none" stroke="gray" points="735,-2106 611,-2106 "/>
<path fill="none" stroke="gray" d="M611,-2106C605,-2106 599,-2100 599,-2094"/>
<polyline fill="none" stroke="gray" points="599,-2094 599,-1989 "/>
<path fill="none" stroke="gray" d="M599,-1989C599,-1983 605,-1977 611,-1977"/>
<text text-anchor="middle" x="673" y="-2092.1" font-family="Times Roman,serif" font-size="11.00" fill="gray">SOA</text>
</g>
<g id="graph15" class="cluster"><title>cluster_\JCORE\TRANSPORT\XML</title>
<polyline fill="none" stroke="gray" points="650,-1674 696,-1674 "/>
<path fill="none" stroke="gray" d="M696,-1674C702,-1674 708,-1680 708,-1686"/>
<polyline fill="none" stroke="gray" points="708,-1686 708,-1737 "/>
<path fill="none" stroke="gray" d="M708,-1737C708,-1743 702,-1749 696,-1749"/>
<polyline fill="none" stroke="gray" points="696,-1749 650,-1749 "/>
<path fill="none" stroke="gray" d="M650,-1749C644,-1749 638,-1743 638,-1737"/>
<polyline fill="none" stroke="gray" points="638,-1737 638,-1686 "/>
<path fill="none" stroke="gray" d="M638,-1686C638,-1680 644,-1674 650,-1674"/>
<text text-anchor="middle" x="673" y="-1735.1" font-family="Times Roman,serif" font-size="11.00" fill="gray">XML</text>
</g>
<g id="graph16" class="cluster"><title>cluster_\JCORE\TRANSPORT\JSON</title>
<polyline fill="none" stroke="gray" points="618,-1840 728,-1840 "/>
<path fill="none" stroke="gray" d="M728,-1840C734,-1840 740,-1846 740,-1852"/>
<polyline fill="none" stroke="gray" points="740,-1852 740,-1957 "/>
<path fill="none" stroke="gray" d="M740,-1957C740,-1963 734,-1969 728,-1969"/>
<polyline fill="none" stroke="gray" points="728,-1969 618,-1969 "/>
<path fill="none" stroke="gray" d="M618,-1969C612,-1969 606,-1963 606,-1957"/>
<polyline fill="none" stroke="gray" points="606,-1957 606,-1852 "/>
<path fill="none" stroke="gray" d="M606,-1852C606,-1846 612,-1840 618,-1840"/>
<text text-anchor="middle" x="673" y="-1955.1" font-family="Times Roman,serif" font-size="11.00" fill="gray">JSON</text>
</g>
<g id="graph17" class="cluster"><title>cluster_\JCORE\TRANSPORT\REST</title>
<polyline fill="none" stroke="gray" points="634,-1757 712,-1757 "/>
<path fill="none" stroke="gray" d="M712,-1757C718,-1757 724,-1763 724,-1769"/>
<polyline fill="none" stroke="gray" points="724,-1769 724,-1820 "/>
<path fill="none" stroke="gray" d="M724,-1820C724,-1826 718,-1832 712,-1832"/>
<polyline fill="none" stroke="gray" points="712,-1832 634,-1832 "/>
<path fill="none" stroke="gray" d="M634,-1832C628,-1832 622,-1826 622,-1820"/>
<polyline fill="none" stroke="gray" points="622,-1820 622,-1769 "/>
<path fill="none" stroke="gray" d="M622,-1769C622,-1763 628,-1757 634,-1757"/>
<text text-anchor="middle" x="673" y="-1818.1" font-family="Times Roman,serif" font-size="11.00" fill="gray">REST</text>
</g>
<g id="graph18" class="cluster"><title>cluster_\JCORE\CACHE</title>
<polyline fill="none" stroke="gray" points="167,-1115 745,-1115 "/>
<path fill="none" stroke="gray" d="M745,-1115C751,-1115 757,-1121 757,-1127"/>
<polyline fill="none" stroke="gray" points="757,-1127 757,-1502 "/>
<path fill="none" stroke="gray" d="M757,-1502C757,-1508 751,-1514 745,-1514"/>
<polyline fill="none" stroke="gray" points="745,-1514 167,-1514 "/>
<path fill="none" stroke="gray" d="M167,-1514C161,-1514 155,-1508 155,-1502"/>
<polyline fill="none" stroke="gray" points="155,-1502 155,-1127 "/>
<path fill="none" stroke="gray" d="M155,-1127C155,-1121 161,-1115 167,-1115"/>
<text text-anchor="middle" x="456" y="-1500.1" font-family="Times Roman,serif" font-size="11.00" fill="gray">CACHE</text>
</g>
<g id="graph19" class="cluster"><title>cluster_\JCORE\LOAD</title>
<polyline fill="none" stroke="gray" points="594,-924 752,-924 "/>
<path fill="none" stroke="gray" d="M752,-924C758,-924 764,-930 764,-936"/>
<polyline fill="none" stroke="gray" points="764,-936 764,-1095 "/>
<path fill="none" stroke="gray" d="M764,-1095C764,-1101 758,-1107 752,-1107"/>
<polyline fill="none" stroke="gray" points="752,-1107 594,-1107 "/>
<path fill="none" stroke="gray" d="M594,-1107C588,-1107 582,-1101 582,-1095"/>
<polyline fill="none" stroke="gray" points="582,-1095 582,-936 "/>
<path fill="none" stroke="gray" d="M582,-936C582,-930 588,-924 594,-924"/>
<text text-anchor="middle" x="673" y="-1093.1" font-family="Times Roman,serif" font-size="11.00" fill="gray">LOAD</text>
</g>
<g id="graph20" class="cluster"><title>cluster_\JCORE\EXCEPTION</title>
<polyline fill="none" stroke="gray" points="614,-596 732,-596 "/>
<path fill="none" stroke="gray" d="M732,-596C738,-596 744,-602 744,-608"/>
<polyline fill="none" stroke="gray" points="744,-608 744,-767 "/>
<path fill="none" stroke="gray" d="M744,-767C744,-773 738,-779 732,-779"/>
<polyline fill="none" stroke="gray" points="732,-779 614,-779 "/>
<path fill="none" stroke="gray" d="M614,-779C608,-779 602,-773 602,-767"/>
<polyline fill="none" stroke="gray" points="602,-767 602,-608 "/>
<path fill="none" stroke="gray" d="M602,-608C602,-602 608,-596 614,-596"/>
<text text-anchor="middle" x="673" y="-765.1" font-family="Times Roman,serif" font-size="11.00" fill="gray">EXCEPTION</text>
</g>
<g id="graph21" class="cluster"><title>cluster_\JCORE\AUTH</title>
<polyline fill="none" stroke="gray" points="207,-787 718,-787 "/>
<path fill="none" stroke="gray" d="M718,-787C724,-787 730,-793 730,-799"/>
<polyline fill="none" stroke="gray" points="730,-799 730,-904 "/>
<path fill="none" stroke="gray" d="M730,-904C730,-910 724,-916 718,-916"/>
<polyline fill="none" stroke="gray" points="718,-916 207,-916 "/>
<path fill="none" stroke="gray" d="M207,-916C201,-916 195,-910 195,-904"/>
<polyline fill="none" stroke="gray" points="195,-904 195,-799 "/>
<path fill="none" stroke="gray" d="M195,-799C195,-793 201,-787 207,-787"/>
<text text-anchor="middle" x="462.5" y="-902.1" font-family="Times Roman,serif" font-size="11.00" fill="gray">AUTH</text>
</g>
<g id="graph22" class="cluster"><title>cluster_\JCORE\TEMPLATER</title>
<polyline fill="none" stroke="gray" points="638,-513 708,-513 "/>
<path fill="none" stroke="gray" d="M708,-513C714,-513 720,-519 720,-525"/>
<polyline fill="none" stroke="gray" points="720,-525 720,-576 "/>
<path fill="none" stroke="gray" d="M720,-576C720,-582 714,-588 708,-588"/>
<polyline fill="none" stroke="gray" points="708,-588 638,-588 "/>
<path fill="none" stroke="gray" d="M638,-588C632,-588 626,-582 626,-576"/>
<polyline fill="none" stroke="gray" points="626,-576 626,-525 "/>
<path fill="none" stroke="gray" d="M626,-525C626,-519 632,-513 638,-513"/>
<text text-anchor="middle" x="673" y="-574.1" font-family="Times Roman,serif" font-size="11.00" fill="gray">TEMPLATER</text>
</g>
<g id="graph23" class="cluster"><title>cluster_\JCORE\LOG</title>
<polyline fill="none" stroke="gray" points="648,-430 698,-430 "/>
<path fill="none" stroke="gray" d="M698,-430C704,-430 710,-436 710,-442"/>
<polyline fill="none" stroke="gray" points="710,-442 710,-493 "/>
<path fill="none" stroke="gray" d="M710,-493C710,-499 704,-505 698,-505"/>
<polyline fill="none" stroke="gray" points="698,-505 648,-505 "/>
<path fill="none" stroke="gray" d="M648,-505C642,-505 636,-499 636,-493"/>
<polyline fill="none" stroke="gray" points="636,-493 636,-442 "/>
<path fill="none" stroke="gray" d="M636,-442C636,-436 642,-430 648,-430"/>
<text text-anchor="middle" x="673" y="-491.1" font-family="Times Roman,serif" font-size="11.00" fill="gray">LOG</text>
</g>
<!-- \\JCORE\\DATA\\API\\MySQL\\MySQL_connector -->
<g id="node6" class="node"><title>\\JCORE\\DATA\\API\\MySQL\\MySQL_connector</title>
<polygon fill="none" stroke="black" points="732,-2884 614,-2884 614,-2848 732,-2848 732,-2884"/>
<text text-anchor="middle" x="673" y="-2863.1" font-family="Courier,monospace" font-size="11.00">MySQL_connector</text>
</g>
<!-- \\JCORE\\DATA\\API\\DATA_API_INTERFACE -->
<g id="node14" class="node"><title>\\JCORE\\DATA\\API\\DATA_API_INTERFACE</title>
<polygon fill="none" stroke="black" points="328,-2884 190,-2884 190,-2848 328,-2848 328,-2884"/>
<text text-anchor="middle" x="259" y="-2863.1" font-family="Courier,monospace" font-size="11.00">DATA_API_INTERFACE</text>
</g>
<!-- \\JCORE\\DATA\\API\\MySQL\\MySQL_connector&#45;&gt;\\JCORE\\DATA\\API\\DATA_API_INTERFACE -->
<g id="edge24" class="edge"><title>\\JCORE\\DATA\\API\\MySQL\\MySQL_connector&#45;&gt;\\JCORE\\DATA\\API\\DATA_API_INTERFACE</title>
<path fill="none" stroke="black" stroke-dasharray="1,5" d="M613.684,-2866C541.32,-2866 418.711,-2866 338.299,-2866"/>
<polygon fill="none" stroke="black" points="338.22,-2862.5 328.22,-2866 338.22,-2869.5 338.22,-2862.5"/>
</g>
<!-- \\JCORE\\DATA\\API\\MySQL\\MySQL_TABLE_META -->
<g id="node7" class="node"><title>\\JCORE\\DATA\\API\\MySQL\\MySQL_TABLE_META</title>
<polygon fill="none" stroke="black" points="735,-2830 611,-2830 611,-2794 735,-2794 735,-2830"/>
<text text-anchor="middle" x="673" y="-2809.1" font-family="Courier,monospace" font-size="11.00">MySQL_TABLE_META</text>
</g>
<!-- \\JCORE\\DATA\\API\\REDIS\\REDIS_connector -->
<g id="node9" class="node"><title>\\JCORE\\DATA\\API\\REDIS\\REDIS_connector</title>
<polygon fill="none" stroke="black" points="732,-2747 614,-2747 614,-2711 732,-2711 732,-2747"/>
<text text-anchor="middle" x="673" y="-2726.1" font-family="Courier,monospace" font-size="11.00">REDIS_connector</text>
</g>
<!-- \\JCORE\\DATA\\API\\REDIS\\REDIS_connector&#45;&gt;\\JCORE\\DATA\\API\\DATA_API_INTERFACE -->
<g id="edge26" class="edge"><title>\\JCORE\\DATA\\API\\REDIS\\REDIS_connector&#45;&gt;\\JCORE\\DATA\\API\\DATA_API_INTERFACE</title>
<path fill="none" stroke="black" stroke-dasharray="1,5" d="M618.451,-2747.05C542.283,-2772.26 404.32,-2817.91 323.265,-2844.73"/>
<polygon fill="none" stroke="black" points="322.064,-2841.44 313.67,-2847.91 324.263,-2848.09 322.064,-2841.44"/>
</g>
<!-- \\JCORE\\DATA\\API\\FILE\\CSV_connector -->
<g id="node11" class="node"><title>\\JCORE\\DATA\\API\\FILE\\CSV_connector</title>
<polygon fill="none" stroke="black" points="725,-2967 621,-2967 621,-2931 725,-2931 725,-2967"/>
<text text-anchor="middle" x="673" y="-2946.1" font-family="Courier,monospace" font-size="11.00">CSV_connector</text>
</g>
<!-- \\JCORE\\DATA\\API\\FILE\\CSV_connector&#45;&gt;\\JCORE\\DATA\\API\\DATA_API_INTERFACE -->
<g id="edge28" class="edge"><title>\\JCORE\\DATA\\API\\FILE\\CSV_connector&#45;&gt;\\JCORE\\DATA\\API\\DATA_API_INTERFACE</title>
<path fill="none" stroke="black" stroke-dasharray="1,5" d="M620.986,-2938.57C549.719,-2924.28 421.103,-2898.5 337.929,-2881.82"/>
<polygon fill="none" stroke="black" points="338.511,-2878.37 328.018,-2879.84 337.135,-2885.23 338.511,-2878.37"/>
</g>
<!-- \\JCORE\\DATA\\API\\DATA_API -->
<g id="node12" class="node"><title>\\JCORE\\DATA\\API\\DATA_API</title>
<polygon fill="none" stroke="black" points="708,-2693 638,-2693 638,-2657 708,-2657 708,-2693"/>
<text text-anchor="middle" x="673" y="-2672.1" font-family="Courier,monospace" font-size="11.00">DATA_API</text>
</g>
<!-- \\JCORE\\DATA\\API\\DATA_UTIL_API -->
<g id="node13" class="node"><title>\\JCORE\\DATA\\API\\DATA_UTIL_API</title>
<polygon fill="none" stroke="black" points="725,-2639 621,-2639 621,-2603 725,-2603 725,-2639"/>
<text text-anchor="middle" x="673" y="-2618.1" font-family="Courier,monospace" font-size="11.00">DATA_UTIL_API</text>
</g>
<!-- \\JCORE\\DAO\\TREE\\DAO_TREE -->
<g id="node17" class="node"><title>\\JCORE\\DAO\\TREE\\DAO_TREE</title>
<polygon fill="none" stroke="black" points="708,-2517 638,-2517 638,-2481 708,-2481 708,-2517"/>
<text text-anchor="middle" x="673" y="-2496.1" font-family="Courier,monospace" font-size="11.00">DAO_TREE</text>
</g>
<!-- \\JCORE\\DAO\\SESSION -->
<g id="node18" class="node"><title>\\JCORE\\DAO\\SESSION</title>
<polygon fill="none" stroke="black" points="705,-2463 641,-2463 641,-2427 705,-2427 705,-2463"/>
<text text-anchor="middle" x="673" y="-2442.1" font-family="Courier,monospace" font-size="11.00">SESSION</text>
</g>
<!-- \\JCORE\\DAO\\DAO -->
<g id="node19" class="node"><title>\\JCORE\\DAO\\DAO</title>
<polygon fill="none" stroke="black" points="700,-2409 646,-2409 646,-2373 700,-2373 700,-2409"/>
<text text-anchor="middle" x="673" y="-2388.1" font-family="Courier,monospace" font-size="11.00">DAO</text>
</g>
<!-- \\JCORE\\L10N\\PO_TRANSLATION -->
<g id="node21" class="node"><title>\\JCORE\\L10N\\PO_TRANSLATION</title>
<polygon fill="none" stroke="black" points="728,-2326 618,-2326 618,-2290 728,-2290 728,-2326"/>
<text text-anchor="middle" x="673" y="-2305.1" font-family="Courier,monospace" font-size="11.00">PO_TRANSLATION</text>
</g>
<!-- \\JCORE\\TRANSPORT\\HTTP\\HTTP_API -->
<g id="node24" class="node"><title>\\JCORE\\TRANSPORT\\HTTP\\HTTP_API</title>
<polygon fill="none" stroke="black" points="708,-2212 638,-2212 638,-2176 708,-2176 708,-2212"/>
<text text-anchor="middle" x="673" y="-2191.1" font-family="Courier,monospace" font-size="11.00">HTTP_API</text>
</g>
<!-- \\JCORE\\TRANSPORT\\TRANSPORT_INTERFACE -->
<g id="node38" class="node"><title>\\JCORE\\TRANSPORT\\TRANSPORT_INTERFACE</title>
<polygon fill="none" stroke="black" points="331,-1801 187,-1801 187,-1765 331,-1765 331,-1801"/>
<text text-anchor="middle" x="259" y="-1780.1" font-family="Courier,monospace" font-size="11.00">TRANSPORT_INTERFACE</text>
</g>
<!-- \\JCORE\\TRANSPORT\\HTTP\\HTTP_API&#45;&gt;\\JCORE\\TRANSPORT\\TRANSPORT_INTERFACE -->
<g id="edge30" class="edge"><title>\\JCORE\\TRANSPORT\\HTTP\\HTTP_API&#45;&gt;\\JCORE\\TRANSPORT\\TRANSPORT_INTERFACE</title>
<path fill="none" stroke="black" stroke-dasharray="1,5" d="M637.246,-2188.41C619.571,-2184.45 598.542,-2177.84 582,-2167 432.018,-2068.75 314.419,-1880.27 274.078,-1810.15"/>
<polygon fill="none" stroke="black" points="276.894,-1808.02 268.903,-1801.07 270.811,-1811.49 276.894,-1808.02"/>
</g>
<!-- \\JCORE\\TRANSPORT\\HTTP\\HTTP_UTIL -->
<g id="node25" class="node"><title>\\JCORE\\TRANSPORT\\HTTP\\HTTP_UTIL</title>
<polygon fill="none" stroke="black" points="711,-2158 635,-2158 635,-2122 711,-2122 711,-2158"/>
<text text-anchor="middle" x="673" y="-2137.1" font-family="Courier,monospace" font-size="11.00">HTTP_UTIL</text>
</g>
<!-- \\JCORE\\TRANSPORT\\SOA\\SOA_BASE -->
<g id="node27" class="node"><title>\\JCORE\\TRANSPORT\\SOA\\SOA_BASE</title>
<polygon fill="none" stroke="black" points="715,-2075 631,-2075 631,-2039 715,-2039 715,-2075"/>
<text text-anchor="start" x="639" y="-2062.43" font-family="Courier,monospace" font-size="11.00">«abstract»</text>
<text text-anchor="start" x="645.5" y="-2049.23" font-family="Courier,monospace" font-size="11.00">SOA_BASE</text>
</g>
<!-- \\JCORE\\TRANSPORT\\SOA\\SERVICE_VALIDATOR -->
<g id="node28" class="node"><title>\\JCORE\\TRANSPORT\\SOA\\SERVICE_VALIDATOR</title>
<polygon fill="none" stroke="black" points="738,-2021 608,-2021 608,-1985 738,-1985 738,-2021"/>
<text text-anchor="middle" x="673" y="-2000.1" font-family="Courier,monospace" font-size="11.00">SERVICE_VALIDATOR</text>
</g>
<!-- \\JCORE\\TRANSPORT\\XML\\SOAP -->
<g id="node30" class="node"><title>\\JCORE\\TRANSPORT\\XML\\SOAP</title>
<polygon fill="none" stroke="black" points="700,-1718 646,-1718 646,-1682 700,-1682 700,-1718"/>
<text text-anchor="middle" x="673" y="-1697.1" font-family="Courier,monospace" font-size="11.00">SOAP</text>
</g>
<!-- \\JCORE\\TRANSPORT\\XML\\SOAP&#45;&gt;\\JCORE\\TRANSPORT\\TRANSPORT_INTERFACE -->
<g id="edge34" class="edge"><title>\\JCORE\\TRANSPORT\\XML\\SOAP&#45;&gt;\\JCORE\\TRANSPORT\\TRANSPORT_INTERFACE</title>
<path fill="none" stroke="black" stroke-dasharray="1,5" d="M645.78,-1713.52C615.421,-1727.93 564.461,-1750.13 518,-1761 460.019,-1774.57 392.999,-1779.99 341.662,-1782.07"/>
<polygon fill="none" stroke="black" points="341.475,-1778.57 331.611,-1782.44 341.733,-1785.56 341.475,-1778.57"/>
</g>
<!-- \\JCORE\\TRANSPORT\\JSON\\JSON -->
<g id="node32" class="node"><title>\\JCORE\\TRANSPORT\\JSON\\JSON</title>
<polygon fill="none" stroke="black" points="700,-1938 646,-1938 646,-1902 700,-1902 700,-1938"/>
<text text-anchor="middle" x="673" y="-1917.1" font-family="Courier,monospace" font-size="11.00">JSON</text>
</g>
<!-- \\JCORE\\TRANSPORT\\JSON\\JSONRPC_1_0_API -->
<g id="node33" class="node"><title>\\JCORE\\TRANSPORT\\JSON\\JSONRPC_1_0_API</title>
<polygon fill="none" stroke="black" points="732,-1884 614,-1884 614,-1848 732,-1848 732,-1884"/>
<text text-anchor="middle" x="673" y="-1863.1" font-family="Courier,monospace" font-size="11.00">JSONRPC_1_0_API</text>
</g>
<!-- \\JCORE\\TRANSPORT\\JSON\\JSONRPC_1_0_API&#45;&gt;\\JCORE\\TRANSPORT\\TRANSPORT_INTERFACE -->
<g id="edge36" class="edge"><title>\\JCORE\\TRANSPORT\\JSON\\JSONRPC_1_0_API&#45;&gt;\\JCORE\\TRANSPORT\\TRANSPORT_INTERFACE</title>
<path fill="none" stroke="black" stroke-dasharray="1,5" d="M613.684,-1854.11C542.392,-1839.82 422.333,-1815.75 341.9,-1799.62"/>
<polygon fill="none" stroke="black" points="342.297,-1796.13 331.804,-1797.6 340.921,-1802.99 342.297,-1796.13"/>
</g>
<!-- \\JCORE\\TRANSPORT\\REST\\REST_API -->
<g id="node35" class="node"><title>\\JCORE\\TRANSPORT\\REST\\REST_API</title>
<polygon fill="none" stroke="black" points="715,-1801 631,-1801 631,-1765 715,-1765 715,-1801"/>
<text text-anchor="start" x="639" y="-1788.43" font-family="Courier,monospace" font-size="11.00">«abstract»</text>
<text text-anchor="start" x="645.5" y="-1775.23" font-family="Courier,monospace" font-size="11.00">REST_API</text>
</g>
<!-- \\JCORE\\TRANSPORT\\REST\\REST_API&#45;&gt;\\JCORE\\TRANSPORT\\TRANSPORT_INTERFACE -->
<g id="edge38" class="edge"><title>\\JCORE\\TRANSPORT\\REST\\REST_API&#45;&gt;\\JCORE\\TRANSPORT\\TRANSPORT_INTERFACE</title>
<path fill="none" stroke="black" stroke-dasharray="1,5" d="M630.254,-1783C562.389,-1783 428.785,-1783 341.733,-1783"/>
<polygon fill="none" stroke="black" points="341.619,-1779.5 331.619,-1783 341.619,-1786.5 341.619,-1779.5"/>
</g>
<!-- \\JCORE\\TRANSPORT\\SERIALIZATION_STATIC -->
<g id="node36" class="node"><title>\\JCORE\\TRANSPORT\\SERIALIZATION_STATIC</title>
<polygon fill="none" stroke="black" points="749,-1664 597,-1664 597,-1628 749,-1628 749,-1664"/>
<text text-anchor="middle" x="673" y="-1643.1" font-family="Courier,monospace" font-size="11.00">SERIALIZATION_STATIC</text>
</g>
<!-- \\JCORE\\TRANSPORT\\SERIALIZATION -->
<g id="node37" class="node"><title>\\JCORE\\TRANSPORT\\SERIALIZATION</title>
<polygon fill="none" stroke="black" points="725,-1610 621,-1610 621,-1574 725,-1574 725,-1610"/>
<text text-anchor="middle" x="673" y="-1589.1" font-family="Courier,monospace" font-size="11.00">SERIALIZATION</text>
</g>
<!-- \\JCORE\\CACHE\\URL_API -->
<g id="node40" class="node"><title>\\JCORE\\CACHE\\URL_API</title>
<polygon fill="none" stroke="black" points="705,-1483 641,-1483 641,-1447 705,-1447 705,-1483"/>
<text text-anchor="middle" x="673" y="-1462.1" font-family="Courier,monospace" font-size="11.00">URL_API</text>
</g>
<!-- \\JCORE\\CACHE\\URL_API&#45;&gt;\\JCORE\\TRANSPORT\\TRANSPORT_INTERFACE -->
<g id="edge32" class="edge"><title>\\JCORE\\CACHE\\URL_API&#45;&gt;\\JCORE\\TRANSPORT\\TRANSPORT_INTERFACE</title>
<path fill="none" stroke="black" stroke-dasharray="1,5" d="M650.953,-1483.29C630.457,-1501.36 600.4,-1530.76 582,-1562 534.847,-1642.05 590.695,-1703.15 518,-1761 469.135,-1799.89 397.416,-1803.16 341.83,-1797.96"/>
<polygon fill="none" stroke="black" points="341.957,-1794.45 331.648,-1796.9 341.23,-1801.42 341.957,-1794.45"/>
</g>
<!-- \\JCORE\\CACHE\\SESSION -->
<g id="node41" class="node"><title>\\JCORE\\CACHE\\SESSION</title>
<polygon fill="none" stroke="black" points="705,-1375 641,-1375 641,-1339 705,-1339 705,-1375"/>
<text text-anchor="middle" x="673" y="-1354.1" font-family="Courier,monospace" font-size="11.00">SESSION</text>
</g>
<!-- \\JCORE\\CACHE\\PHP_SESSION -->
<g id="node47" class="node"><title>\\JCORE\\CACHE\\PHP_SESSION</title>
<polygon fill="none" stroke="black" points="304,-1375 214,-1375 214,-1339 304,-1339 304,-1375"/>
<text text-anchor="middle" x="259" y="-1354.1" font-family="Courier,monospace" font-size="11.00">PHP_SESSION</text>
</g>
<!-- \\JCORE\\CACHE\\SESSION&#45;&gt;\\JCORE\\CACHE\\PHP_SESSION -->
<g id="edge46" class="edge"><title>\\JCORE\\CACHE\\SESSION&#45;&gt;\\JCORE\\CACHE\\PHP_SESSION</title>
<path fill="none" stroke="black" stroke-dasharray="1,5" d="M640.859,-1357C570.592,-1357 402.58,-1357 314.706,-1357"/>
<polygon fill="none" stroke="black" points="314.657,-1353.5 304.657,-1357 314.657,-1360.5 314.657,-1353.5"/>
</g>
<!-- \\JCORE\\CACHE\\REDIS -->
<g id="node42" class="node"><title>\\JCORE\\CACHE\\REDIS</title>
<polygon fill="none" stroke="black" points="700,-1159 646,-1159 646,-1123 700,-1123 700,-1159"/>
<text text-anchor="middle" x="673" y="-1138.1" font-family="Courier,monospace" font-size="11.00">REDIS</text>
</g>
<!-- \\JCORE\\CACHE\\JCORE\\CACHE\\STATIC_API_INTERFACE -->
<g id="node84" class="node"><title>\\JCORE\\CACHE\\JCORE\\CACHE\\STATIC_API_INTERFACE</title>
<ellipse fill="none" stroke="black" cx="259" cy="-187" rx="258.801" ry="19.0919"/>
<text text-anchor="middle" x="259" y="-183.9" font-family="Times Roman,serif" font-size="14.00" fill="gray">\JCORE\CACHE\JCORE\CACHE\STATIC_API_INTERFACE</text>
</g>
<!-- \\JCORE\\CACHE\\REDIS&#45;&gt;\\JCORE\\CACHE\\JCORE\\CACHE\\STATIC_API_INTERFACE -->
<g id="edge48" class="edge"><title>\\JCORE\\CACHE\\REDIS&#45;&gt;\\JCORE\\CACHE\\JCORE\\CACHE\\STATIC_API_INTERFACE</title>
<path fill="none" stroke="black" stroke-dasharray="1,5" d="M645.93,-1139.23C625.4,-1136.41 598.061,-1129.22 582,-1111 483.782,-999.584 562.08,-924.835 518,-783 447.474,-556.071 317.668,-299.094 273.875,-215.139"/>
<polygon fill="none" stroke="black" points="276.942,-213.451 269.203,-206.215 270.74,-216.697 276.942,-213.451"/>
</g>
<!-- \\JCORE\\CACHE\\MEMCACHED -->
<g id="node43" class="node"><title>\\JCORE\\CACHE\\MEMCACHED</title>
<polygon fill="none" stroke="black" points="711,-1213 635,-1213 635,-1177 711,-1177 711,-1213"/>
<text text-anchor="middle" x="673" y="-1192.1" font-family="Courier,monospace" font-size="11.00">MEMCACHED</text>
</g>
<!-- \\JCORE\\CACHE\\CACHE_COMMON_API_INTERFACE -->
<g id="node48" class="node"><title>\\JCORE\\CACHE\\CACHE_COMMON_API_INTERFACE</title>
<polygon fill="none" stroke="black" points="355,-1267 163,-1267 163,-1231 355,-1231 355,-1267"/>
<text text-anchor="middle" x="259" y="-1246.1" font-family="Courier,monospace" font-size="11.00">CACHE_COMMON_API_INTERFACE</text>
</g>
<!-- \\JCORE\\CACHE\\MEMCACHED&#45;&gt;\\JCORE\\CACHE\\CACHE_COMMON_API_INTERFACE -->
<g id="edge50" class="edge"><title>\\JCORE\\CACHE\\MEMCACHED&#45;&gt;\\JCORE\\CACHE\\CACHE_COMMON_API_INTERFACE</title>
<path fill="none" stroke="black" stroke-dasharray="1,5" d="M634.424,-1200.03C573.636,-1207.96 453.421,-1223.64 365.343,-1235.13"/>
<polygon fill="none" stroke="black" points="364.771,-1231.67 355.308,-1236.44 365.677,-1238.62 364.771,-1231.67"/>
</g>
<!-- \\JCORE\\CACHE\\FILECACHE_API -->
<g id="node44" class="node"><title>\\JCORE\\CACHE\\FILECACHE_API</title>
<polygon fill="none" stroke="black" points="725,-1321 621,-1321 621,-1285 725,-1285 725,-1321"/>
<text text-anchor="middle" x="673" y="-1300.1" font-family="Courier,monospace" font-size="11.00">FILECACHE_API</text>
</g>
<!-- \\JCORE\\CACHE\\FILECACHE_API&#45;&gt;\\JCORE\\CACHE\\CACHE_COMMON_API_INTERFACE -->
<g id="edge52" class="edge"><title>\\JCORE\\CACHE\\FILECACHE_API&#45;&gt;\\JCORE\\CACHE\\CACHE_COMMON_API_INTERFACE</title>
<path fill="none" stroke="black" stroke-dasharray="1,5" d="M620.986,-1296.22C557.192,-1287.89 447.447,-1273.58 365.475,-1262.89"/>
<polygon fill="none" stroke="black" points="365.738,-1259.39 355.369,-1261.57 364.832,-1266.33 365.738,-1259.39"/>
</g>
<!-- \\JCORE\\CACHE\\CACHE_API2 -->
<g id="node45" class="node"><title>\\JCORE\\CACHE\\CACHE_API2</title>
<polygon fill="none" stroke="black" points="715,-1267 631,-1267 631,-1231 715,-1231 715,-1267"/>
<text text-anchor="middle" x="673" y="-1246.1" font-family="Courier,monospace" font-size="11.00">CACHE_API2</text>
</g>
<!-- \\JCORE\\CACHE\\CACHE_API2&#45;&gt;\\JCORE\\CACHE\\CACHE_COMMON_API_INTERFACE -->
<g id="edge60" class="edge"><title>\\JCORE\\CACHE\\CACHE_API2&#45;&gt;\\JCORE\\CACHE\\CACHE_COMMON_API_INTERFACE</title>
<path fill="none" stroke="black" stroke-dasharray="1,5" d="M630.64,-1249C568.791,-1249 451.758,-1249 365.485,-1249"/>
<polygon fill="none" stroke="black" points="365.387,-1245.5 355.387,-1249 365.387,-1252.5 365.387,-1245.5"/>
</g>
<!-- \\JCORE\\CACHE\\STATIC_API_INTERFACE -->
<g id="node46" class="node"><title>\\JCORE\\CACHE\\STATIC_API_INTERFACE</title>
<polygon fill="none" stroke="black" points="749,-1429 597,-1429 597,-1393 749,-1393 749,-1429"/>
<text text-anchor="middle" x="673" y="-1408.1" font-family="Courier,monospace" font-size="11.00">STATIC_API_INTERFACE</text>
</g>
<!-- \\JCORE\\JCORE_SINGLETON_INTERFACE -->
<g id="node66" class="node"><title>\\JCORE\\JCORE_SINGLETON_INTERFACE</title>
<polygon fill="none" stroke="black" points="351,-1558 167,-1558 167,-1522 351,-1522 351,-1558"/>
<text text-anchor="middle" x="259" y="-1537.1" font-family="Courier,monospace" font-size="11.00">JCORE_SINGLETON_INTERFACE</text>
</g>
<!-- \\JCORE\\CACHE\\STATIC_API_INTERFACE&#45;&gt;\\JCORE\\JCORE_SINGLETON_INTERFACE -->
<g id="edge62" class="edge"><title>\\JCORE\\CACHE\\STATIC_API_INTERFACE&#45;&gt;\\JCORE\\JCORE_SINGLETON_INTERFACE</title>
<path fill="none" stroke="black" d="M597.798,-1429.21C592.26,-1431.77 586.922,-1434.69 582,-1438 544.221,-1463.42 558.167,-1496.55 518,-1518 470.701,-1543.25 411.517,-1549.8 361.668,-1549.57"/>
<polygon fill="none" stroke="black" points="361.552,-1546.07 351.505,-1549.43 361.456,-1553.07 361.552,-1546.07"/>
</g>
<!-- \\JCORE\\LOAD\\CONFIG_MANAGER_INI -->
<g id="node50" class="node"><title>\\JCORE\\LOAD\\CONFIG_MANAGER_INI</title>
<polygon fill="none" stroke="black" points="742,-1076 604,-1076 604,-1040 742,-1040 742,-1076"/>
<text text-anchor="middle" x="673" y="-1055.1" font-family="Courier,monospace" font-size="11.00">CONFIG_MANAGER_INI</text>
</g>
<!-- \\JCORE\\LOAD\\ComposerAutoloaderInit -->
<g id="node51" class="node"><title>\\JCORE\\LOAD\\ComposerAutoloaderInit</title>
<polygon fill="none" stroke="black" points="755,-1022 591,-1022 591,-986 755,-986 755,-1022"/>
<text text-anchor="middle" x="673" y="-1001.1" font-family="Courier,monospace" font-size="11.00">ComposerAutoloaderInit</text>
</g>
<!-- \\JCORE\\LOAD\\CONFIG_MANAGER -->
<g id="node52" class="node"><title>\\JCORE\\LOAD\\CONFIG_MANAGER</title>
<polygon fill="none" stroke="black" points="728,-968 618,-968 618,-932 728,-932 728,-968"/>
<text text-anchor="middle" x="673" y="-947.1" font-family="Courier,monospace" font-size="11.00">CONFIG_MANAGER</text>
</g>
<!-- \\JCORE\\EXCEPTION\\networkException -->
<g id="node54" class="node"><title>\\JCORE\\EXCEPTION\\networkException</title>
<polygon fill="none" stroke="black" points="735,-748 611,-748 611,-712 735,-712 735,-748"/>
<text text-anchor="middle" x="673" y="-727.1" font-family="Courier,monospace" font-size="11.00">networkException</text>
</g>
<!-- \\Exception -->
<g id="node79" class="node"><title>\\Exception</title>
<ellipse fill="none" stroke="black" cx="259" cy="-131" rx="53.033" ry="19.0919"/>
<text text-anchor="middle" x="259" y="-127.9" font-family="Times Roman,serif" font-size="14.00" fill="gray">\Exception</text>
</g>
<!-- \\JCORE\\EXCEPTION\\networkException&#45;&gt;\\Exception -->
<g id="edge40" class="edge"><title>\\JCORE\\EXCEPTION\\networkException&#45;&gt;\\Exception</title>
<path fill="none" stroke="black" d="M610.456,-721.928C599.599,-717.842 589.429,-711.825 582,-703 425.217,-516.762 690.951,-330.329 518,-159 464.998,-106.495 372.763,-110.029 313.863,-119.183"/>
<polygon fill="none" stroke="black" points="313.283,-115.731 303.989,-120.819 314.427,-122.637 313.283,-115.731"/>
</g>
<!-- \\JCORE\\EXCEPTION\\ERROR -->
<g id="node55" class="node"><title>\\JCORE\\EXCEPTION\\ERROR</title>
<polygon fill="none" stroke="black" points="700,-694 646,-694 646,-658 700,-658 700,-694"/>
<text text-anchor="middle" x="673" y="-673.1" font-family="Courier,monospace" font-size="11.00">ERROR</text>
</g>
<!-- \\JCORE\\EXCEPTION\\DATA_Exception -->
<g id="node56" class="node"><title>\\JCORE\\EXCEPTION\\DATA_Exception</title>
<polygon fill="none" stroke="black" points="728,-640 618,-640 618,-604 728,-604 728,-640"/>
<text text-anchor="middle" x="673" y="-619.1" font-family="Courier,monospace" font-size="11.00">DATA_Exception</text>
</g>
<!-- \\JCORE\\EXCEPTION\\DATA_Exception&#45;&gt;\\Exception -->
<g id="edge42" class="edge"><title>\\JCORE\\EXCEPTION\\DATA_Exception&#45;&gt;\\Exception</title>
<path fill="none" stroke="black" d="M617.147,-614.049C603.887,-609.597 590.997,-602.692 582,-592 456.745,-443.154 658.217,-293.845 518,-159 464.491,-107.541 373.12,-110.56 314.439,-119.352"/>
<polygon fill="none" stroke="black" points="313.557,-115.949 304.238,-120.988 314.666,-122.861 313.557,-115.949"/>
</g>
<!-- \\JCORE\\AUTH\\AUTH_HARNESS -->
<g id="node58" class="node"><title>\\JCORE\\AUTH\\AUTH_HARNESS</title>
<polygon fill="none" stroke="black" points="722,-885 624,-885 624,-849 722,-849 722,-885"/>
<text text-anchor="middle" x="673" y="-864.1" font-family="Courier,monospace" font-size="11.00">AUTH_HARNESS</text>
</g>
<!-- \\JCORE\\AUTH\\IP_WHITELIST -->
<g id="node59" class="node"><title>\\JCORE\\AUTH\\IP_WHITELIST</title>
<polygon fill="none" stroke="black" points="722,-831 624,-831 624,-795 722,-795 722,-831"/>
<text text-anchor="middle" x="673" y="-810.1" font-family="Courier,monospace" font-size="11.00">IP_WHITELIST</text>
</g>
<!-- \\JCORE\\AUTH\\AUTH_INTERFACE -->
<g id="node60" class="node"><title>\\JCORE\\AUTH\\AUTH_INTERFACE</title>
<polygon fill="none" stroke="black" points="314,-831 204,-831 204,-795 314,-795 314,-831"/>
<text text-anchor="middle" x="259" y="-810.1" font-family="Courier,monospace" font-size="11.00">AUTH_INTERFACE</text>
</g>
<!-- \\JCORE\\AUTH\\IP_WHITELIST&#45;&gt;\\JCORE\\AUTH\\AUTH_INTERFACE -->
<g id="edge44" class="edge"><title>\\JCORE\\AUTH\\IP_WHITELIST&#45;&gt;\\JCORE\\AUTH\\AUTH_INTERFACE</title>
<path fill="none" stroke="black" stroke-dasharray="1,5" d="M623.883,-813C549.451,-813 407.968,-813 324.74,-813"/>
<polygon fill="none" stroke="black" points="324.639,-809.5 314.639,-813 324.639,-816.5 324.639,-809.5"/>
</g>
<!-- \\JCORE\\TEMPLATER\\TEMPLATER -->
<g id="node62" class="node"><title>\\JCORE\\TEMPLATER\\TEMPLATER</title>
<polygon fill="none" stroke="black" points="711,-557 635,-557 635,-521 711,-521 711,-557"/>
<text text-anchor="middle" x="673" y="-536.1" font-family="Courier,monospace" font-size="11.00">TEMPLATER</text>
</g>
<!-- \\JCORE\\LOG\\LOGGER -->
<g id="node64" class="node"><title>\\JCORE\\LOG\\LOGGER</title>
<polygon fill="none" stroke="black" points="701,-474 645,-474 645,-438 701,-438 701,-474"/>
<text text-anchor="middle" x="673" y="-453.1" font-family="Courier,monospace" font-size="11.00">LOGGER</text>
</g>
<!-- \\JCORE\\JCORE_SINGLETON -->
<g id="node65" class="node"><title>\\JCORE\\JCORE_SINGLETON</title>
<polygon fill="none" stroke="black" points="732,-420 614,-420 614,-384 732,-384 732,-420"/>
<text text-anchor="start" x="639" y="-407.433" font-family="Courier,monospace" font-size="11.00">«abstract»</text>
<text text-anchor="start" x="622" y="-394.233" font-family="Courier,monospace" font-size="11.00">JCORE_SINGLETON</text>
</g>
<!-- \\XCache -->
<g id="node67" class="node"><title>\\XCache</title>
<polygon fill="none" stroke="black" points="701,-366 645,-366 645,-330 701,-330 701,-366"/>
<text text-anchor="middle" x="673" y="-345.1" font-family="Courier,monospace" font-size="11.00">XCache</text>
</g>
<!-- \\XCACHE -->
<g id="node68" class="node"><title>\\XCACHE</title>
<polygon fill="none" stroke="black" points="701,-312 645,-312 645,-276 701,-276 701,-312"/>
<text text-anchor="middle" x="673" y="-291.1" font-family="Courier,monospace" font-size="11.00">XCACHE</text>
</g>
<!-- \\CACHE_STATIC_API_INTERFACE -->
<g id="node88" class="node"><title>\\CACHE_STATIC_API_INTERFACE</title>
<ellipse fill="none" stroke="black" cx="259" cy="-75" rx="162.134" ry="19.0919"/>
<text text-anchor="middle" x="259" y="-71.9" font-family="Times Roman,serif" font-size="14.00" fill="gray">\CACHE_STATIC_API_INTERFACE</text>
</g>
<!-- \\XCACHE&#45;&gt;\\CACHE_STATIC_API_INTERFACE -->
<g id="edge54" class="edge"><title>\\XCACHE&#45;&gt;\\CACHE_STATIC_API_INTERFACE</title>
<path fill="none" stroke="black" stroke-dasharray="1,5" d="M644.34,-292.013C624.605,-289.228 598.981,-282.617 582,-267 524.41,-214.036 580.135,-150.551 518,-103 482.596,-75.9062 436.057,-65.5259 392.207,-63.005"/>
<polygon fill="none" stroke="black" points="392.16,-59.4996 382.015,-62.5548 391.851,-66.4928 392.16,-59.4996"/>
</g>
<!-- \\XCACHE_static -->
<g id="node69" class="node"><title>\\XCACHE_static</title>
<polygon fill="none" stroke="black" points="725,-258 621,-258 621,-222 725,-222 725,-258"/>
<text text-anchor="middle" x="673" y="-237.1" font-family="Courier,monospace" font-size="11.00">XCACHE_static</text>
</g>
<!-- \\XCACHE_static&#45;&gt;\\CACHE_STATIC_API_INTERFACE -->
<g id="edge58" class="edge"><title>\\XCACHE_static&#45;&gt;\\CACHE_STATIC_API_INTERFACE</title>
<path fill="none" stroke="black" stroke-dasharray="1,5" d="M659.075,-221.909C634.406,-191.372 579.767,-130.27 518,-103 490.957,-91.0607 460.84,-83.3927 430.981,-78.5934"/>
<polygon fill="none" stroke="black" points="431.279,-75.0989 420.87,-77.0737 430.238,-82.0211 431.279,-75.0989"/>
</g>
<!-- \\JCORE_SINGLETON -->
<g id="node90" class="node"><title>\\JCORE_SINGLETON</title>
<ellipse fill="none" stroke="black" cx="259" cy="-19" rx="101.823" ry="19.0919"/>
<text text-anchor="middle" x="259" y="-15.9" font-family="Times Roman,serif" font-size="14.00" fill="gray">\JCORE_SINGLETON</text>
</g>
<!-- \\XCACHE_static&#45;&gt;\\JCORE_SINGLETON -->
<g id="edge56" class="edge"><title>\\XCACHE_static&#45;&gt;\\JCORE_SINGLETON</title>
<path fill="none" stroke="black" d="M664.672,-221.963C645.326,-182.384 593.202,-88.1733 518,-47 471.701,-21.6509 413.786,-13.5953 364.469,-12.3338"/>
<polygon fill="none" stroke="black" points="364.462,-8.8333 354.406,-12.1664 364.346,-15.8323 364.462,-8.8333"/>
</g>
</g>
</svg>
