<?xml version="1.0" encoding="UTF-8" standalone="no"?>
<!DOCTYPE svg PUBLIC "-//W3C//DTD SVG 1.1//EN"
 "http://www.w3.org/Graphics/SVG/1.1/DTD/svg11.dtd">
<!-- Generated by graphviz version 2.26.0 (20091210.2329)
 -->
<!-- Title: G Pages: 1 -->
<svg width="1194pt" height="2583pt"
 viewBox="0.00 0.00 1194.00 2583.00" xmlns="http://www.w3.org/2000/svg" xmlns:xlink="http://www.w3.org/1999/xlink">
<g id="graph1" class="graph" transform="scale(1 1) rotate(0) translate(4 2579)">
<title>G</title>
<polygon fill="white" stroke="white" points="-4,5 -4,-2579 1191,-2579 1191,5 -4,5"/>
<g id="graph2" class="cluster"><title>cluster_Global</title>
<polyline fill="none" stroke="gray" points="151,-158 1166,-158 "/>
<path fill="none" stroke="gray" d="M1166,-158C1172,-158 1178,-164 1178,-170"/>
<polyline fill="none" stroke="gray" points="1178,-170 1178,-2555 "/>
<path fill="none" stroke="gray" d="M1178,-2555C1178,-2561 1172,-2567 1166,-2567"/>
<polyline fill="none" stroke="gray" points="1166,-2567 151,-2567 "/>
<path fill="none" stroke="gray" d="M151,-2567C145,-2567 139,-2561 139,-2555"/>
<polyline fill="none" stroke="gray" points="139,-2555 139,-170 "/>
<path fill="none" stroke="gray" d="M139,-170C139,-164 145,-158 151,-158"/>
<text text-anchor="middle" x="658.5" y="-2553.1" font-family="Times Roman,serif" font-size="11.00" fill="gray">Global</text>
</g>
<g id="graph3" class="cluster"><title>cluster_\JCORE</title>
<polyline fill="none" stroke="gray" points="159,-318 1158,-318 "/>
<path fill="none" stroke="gray" d="M1158,-318C1164,-318 1170,-324 1170,-330"/>
<polyline fill="none" stroke="gray" points="1170,-330 1170,-2524 "/>
<path fill="none" stroke="gray" d="M1170,-2524C1170,-2530 1164,-2536 1158,-2536"/>
<polyline fill="none" stroke="gray" points="1158,-2536 159,-2536 "/>
<path fill="none" stroke="gray" d="M159,-2536C153,-2536 147,-2530 147,-2524"/>
<polyline fill="none" stroke="gray" points="147,-2524 147,-330 "/>
<path fill="none" stroke="gray" d="M147,-330C147,-324 153,-318 159,-318"/>
<text text-anchor="middle" x="658.5" y="-2522.1" font-family="Times Roman,serif" font-size="11.00" fill="gray">JCORE</text>
</g>
<g id="graph4" class="cluster"><title>cluster_\JCORE\DATA</title>
<polyline fill="none" stroke="gray" points="680,-2032 1146,-2032 "/>
<path fill="none" stroke="gray" d="M1146,-2032C1152,-2032 1158,-2038 1158,-2044"/>
<polyline fill="none" stroke="gray" points="1158,-2044 1158,-2493 "/>
<path fill="none" stroke="gray" d="M1158,-2493C1158,-2499 1152,-2505 1146,-2505"/>
<polyline fill="none" stroke="gray" points="1146,-2505 680,-2505 "/>
<path fill="none" stroke="gray" d="M680,-2505C674,-2505 668,-2499 668,-2493"/>
<polyline fill="none" stroke="gray" points="668,-2493 668,-2044 "/>
<path fill="none" stroke="gray" d="M668,-2044C668,-2038 674,-2032 680,-2032"/>
<text text-anchor="middle" x="913" y="-2491.1" font-family="Times Roman,serif" font-size="11.00" fill="gray">DATA</text>
</g>
<g id="graph5" class="cluster"><title>cluster_\JCORE\DATA\API</title>
<polyline fill="none" stroke="gray" points="688,-2040 1138,-2040 "/>
<path fill="none" stroke="gray" d="M1138,-2040C1144,-2040 1150,-2046 1150,-2052"/>
<polyline fill="none" stroke="gray" points="1150,-2052 1150,-2462 "/>
<path fill="none" stroke="gray" d="M1150,-2462C1150,-2468 1144,-2474 1138,-2474"/>
<polyline fill="none" stroke="gray" points="1138,-2474 688,-2474 "/>
<path fill="none" stroke="gray" d="M688,-2474C682,-2474 676,-2468 676,-2462"/>
<polyline fill="none" stroke="gray" points="676,-2462 676,-2052 "/>
<path fill="none" stroke="gray" d="M676,-2052C676,-2046 682,-2040 688,-2040"/>
<text text-anchor="middle" x="913" y="-2460.1" font-family="Times Roman,serif" font-size="11.00" fill="gray">API</text>
</g>
<g id="graph6" class="cluster"><title>cluster_\JCORE\DATA\API\MySQL</title>
<polyline fill="none" stroke="gray" points="1012,-2231 1130,-2231 "/>
<path fill="none" stroke="gray" d="M1130,-2231C1136,-2231 1142,-2237 1142,-2243"/>
<polyline fill="none" stroke="gray" points="1142,-2243 1142,-2348 "/>
<path fill="none" stroke="gray" d="M1142,-2348C1142,-2354 1136,-2360 1130,-2360"/>
<polyline fill="none" stroke="gray" points="1130,-2360 1012,-2360 "/>
<path fill="none" stroke="gray" d="M1012,-2360C1006,-2360 1000,-2354 1000,-2348"/>
<polyline fill="none" stroke="gray" points="1000,-2348 1000,-2243 "/>
<path fill="none" stroke="gray" d="M1000,-2243C1000,-2237 1006,-2231 1012,-2231"/>
<text text-anchor="middle" x="1071" y="-2346.1" font-family="Times Roman,serif" font-size="11.00" fill="gray">MySQL</text>
</g>
<g id="graph7" class="cluster"><title>cluster_\JCORE\DATA\API\REDIS</title>
<polyline fill="none" stroke="gray" points="1016,-2148 1126,-2148 "/>
<path fill="none" stroke="gray" d="M1126,-2148C1132,-2148 1138,-2154 1138,-2160"/>
<polyline fill="none" stroke="gray" points="1138,-2160 1138,-2211 "/>
<path fill="none" stroke="gray" d="M1138,-2211C1138,-2217 1132,-2223 1126,-2223"/>
<polyline fill="none" stroke="gray" points="1126,-2223 1016,-2223 "/>
<path fill="none" stroke="gray" d="M1016,-2223C1010,-2223 1004,-2217 1004,-2211"/>
<polyline fill="none" stroke="gray" points="1004,-2211 1004,-2160 "/>
<path fill="none" stroke="gray" d="M1004,-2160C1004,-2154 1010,-2148 1016,-2148"/>
<text text-anchor="middle" x="1071" y="-2209.1" font-family="Times Roman,serif" font-size="11.00" fill="gray">REDIS</text>
</g>
<g id="graph8" class="cluster"><title>cluster_\JCORE\DATA\API\FILE</title>
<polyline fill="none" stroke="gray" points="1023,-2368 1119,-2368 "/>
<path fill="none" stroke="gray" d="M1119,-2368C1125,-2368 1131,-2374 1131,-2380"/>
<polyline fill="none" stroke="gray" points="1131,-2380 1131,-2431 "/>
<path fill="none" stroke="gray" d="M1131,-2431C1131,-2437 1125,-2443 1119,-2443"/>
<polyline fill="none" stroke="gray" points="1119,-2443 1023,-2443 "/>
<path fill="none" stroke="gray" d="M1023,-2443C1017,-2443 1011,-2437 1011,-2431"/>
<polyline fill="none" stroke="gray" points="1011,-2431 1011,-2380 "/>
<path fill="none" stroke="gray" d="M1011,-2380C1011,-2374 1017,-2368 1023,-2368"/>
<text text-anchor="middle" x="1071" y="-2429.1" font-family="Times Roman,serif" font-size="11.00" fill="gray">FILE</text>
</g>
<g id="graph9" class="cluster"><title>cluster_\JCORE\DAO</title>
<polyline fill="none" stroke="gray" points="1031,-1810 1111,-1810 "/>
<path fill="none" stroke="gray" d="M1111,-1810C1117,-1810 1123,-1816 1123,-1822"/>
<polyline fill="none" stroke="gray" points="1123,-1822 1123,-2012 "/>
<path fill="none" stroke="gray" d="M1123,-2012C1123,-2018 1117,-2024 1111,-2024"/>
<polyline fill="none" stroke="gray" points="1111,-2024 1031,-2024 "/>
<path fill="none" stroke="gray" d="M1031,-2024C1025,-2024 1019,-2018 1019,-2012"/>
<polyline fill="none" stroke="gray" points="1019,-2012 1019,-1822 "/>
<path fill="none" stroke="gray" d="M1019,-1822C1019,-1816 1025,-1810 1031,-1810"/>
<text text-anchor="middle" x="1071" y="-2010.1" font-family="Times Roman,serif" font-size="11.00" fill="gray">DAO</text>
</g>
<g id="graph10" class="cluster"><title>cluster_\JCORE\DAO\TREE</title>
<polyline fill="none" stroke="gray" points="1039,-1918 1103,-1918 "/>
<path fill="none" stroke="gray" d="M1103,-1918C1109,-1918 1115,-1924 1115,-1930"/>
<polyline fill="none" stroke="gray" points="1115,-1930 1115,-1981 "/>
<path fill="none" stroke="gray" d="M1115,-1981C1115,-1987 1109,-1993 1103,-1993"/>
<polyline fill="none" stroke="gray" points="1103,-1993 1039,-1993 "/>
<path fill="none" stroke="gray" d="M1039,-1993C1033,-1993 1027,-1987 1027,-1981"/>
<polyline fill="none" stroke="gray" points="1027,-1981 1027,-1930 "/>
<path fill="none" stroke="gray" d="M1027,-1930C1027,-1924 1033,-1918 1039,-1918"/>
<text text-anchor="middle" x="1071" y="-1979.1" font-family="Times Roman,serif" font-size="11.00" fill="gray">TREE</text>
</g>
<g id="graph11" class="cluster"><title>cluster_\JCORE\L10N</title>
<polyline fill="none" stroke="gray" points="1019,-1727 1123,-1727 "/>
<path fill="none" stroke="gray" d="M1123,-1727C1129,-1727 1135,-1733 1135,-1739"/>
<polyline fill="none" stroke="gray" points="1135,-1739 1135,-1790 "/>
<path fill="none" stroke="gray" d="M1135,-1790C1135,-1796 1129,-1802 1123,-1802"/>
<polyline fill="none" stroke="gray" points="1123,-1802 1019,-1802 "/>
<path fill="none" stroke="gray" d="M1019,-1802C1013,-1802 1007,-1796 1007,-1790"/>
<polyline fill="none" stroke="gray" points="1007,-1790 1007,-1739 "/>
<path fill="none" stroke="gray" d="M1007,-1739C1007,-1733 1013,-1727 1019,-1727"/>
<text text-anchor="middle" x="1071" y="-1788.1" font-family="Times Roman,serif" font-size="11.00" fill="gray">L10N</text>
</g>
<g id="graph12" class="cluster"><title>cluster_\JCORE\TRANSPORT</title>
<polyline fill="none" stroke="gray" points="190,-326 825,-326 "/>
<path fill="none" stroke="gray" d="M825,-326C831,-326 837,-332 837,-338"/>
<polyline fill="none" stroke="gray" points="837,-338 837,-1022 "/>
<path fill="none" stroke="gray" d="M837,-1022C837,-1028 831,-1034 825,-1034"/>
<polyline fill="none" stroke="gray" points="825,-1034 190,-1034 "/>
<path fill="none" stroke="gray" d="M190,-1034C184,-1034 178,-1028 178,-1022"/>
<polyline fill="none" stroke="gray" points="178,-1022 178,-338 "/>
<path fill="none" stroke="gray" d="M178,-338C178,-332 184,-326 190,-326"/>
<text text-anchor="middle" x="507.5" y="-1020.1" font-family="Times Roman,serif" font-size="11.00" fill="gray">TRANSPORT</text>
</g>
<g id="graph13" class="cluster"><title>cluster_\JCORE\TRANSPORT\HTTP</title>
<polyline fill="none" stroke="gray" points="718,-874 788,-874 "/>
<path fill="none" stroke="gray" d="M788,-874C794,-874 800,-880 800,-886"/>
<polyline fill="none" stroke="gray" points="800,-886 800,-991 "/>
<path fill="none" stroke="gray" d="M800,-991C800,-997 794,-1003 788,-1003"/>
<polyline fill="none" stroke="gray" points="788,-1003 718,-1003 "/>
<path fill="none" stroke="gray" d="M718,-1003C712,-1003 706,-997 706,-991"/>
<polyline fill="none" stroke="gray" points="706,-991 706,-886 "/>
<path fill="none" stroke="gray" d="M706,-886C706,-880 712,-874 718,-874"/>
<text text-anchor="middle" x="753" y="-989.1" font-family="Times Roman,serif" font-size="11.00" fill="gray">HTTP</text>
</g>
<g id="graph14" class="cluster"><title>cluster_\JCORE\TRANSPORT\SOA</title>
<polyline fill="none" stroke="gray" points="691,-737 815,-737 "/>
<path fill="none" stroke="gray" d="M815,-737C821,-737 827,-743 827,-749"/>
<polyline fill="none" stroke="gray" points="827,-749 827,-854 "/>
<path fill="none" stroke="gray" d="M827,-854C827,-860 821,-866 815,-866"/>
<polyline fill="none" stroke="gray" points="815,-866 691,-866 "/>
<path fill="none" stroke="gray" d="M691,-866C685,-866 679,-860 679,-854"/>
<polyline fill="none" stroke="gray" points="679,-854 679,-749 "/>
<path fill="none" stroke="gray" d="M679,-749C679,-743 685,-737 691,-737"/>
<text text-anchor="middle" x="753" y="-852.1" font-family="Times Roman,serif" font-size="11.00" fill="gray">SOA</text>
</g>
<g id="graph15" class="cluster"><title>cluster_\JCORE\TRANSPORT\XML</title>
<polyline fill="none" stroke="gray" points="730,-434 776,-434 "/>
<path fill="none" stroke="gray" d="M776,-434C782,-434 788,-440 788,-446"/>
<polyline fill="none" stroke="gray" points="788,-446 788,-497 "/>
<path fill="none" stroke="gray" d="M788,-497C788,-503 782,-509 776,-509"/>
<polyline fill="none" stroke="gray" points="776,-509 730,-509 "/>
<path fill="none" stroke="gray" d="M730,-509C724,-509 718,-503 718,-497"/>
<polyline fill="none" stroke="gray" points="718,-497 718,-446 "/>
<path fill="none" stroke="gray" d="M718,-446C718,-440 724,-434 730,-434"/>
<text text-anchor="middle" x="753" y="-495.1" font-family="Times Roman,serif" font-size="11.00" fill="gray">XML</text>
</g>
<g id="graph16" class="cluster"><title>cluster_\JCORE\TRANSPORT\JSON</title>
<polyline fill="none" stroke="gray" points="698,-600 808,-600 "/>
<path fill="none" stroke="gray" d="M808,-600C814,-600 820,-606 820,-612"/>
<polyline fill="none" stroke="gray" points="820,-612 820,-717 "/>
<path fill="none" stroke="gray" d="M820,-717C820,-723 814,-729 808,-729"/>
<polyline fill="none" stroke="gray" points="808,-729 698,-729 "/>
<path fill="none" stroke="gray" d="M698,-729C692,-729 686,-723 686,-717"/>
<polyline fill="none" stroke="gray" points="686,-717 686,-612 "/>
<path fill="none" stroke="gray" d="M686,-612C686,-606 692,-600 698,-600"/>
<text text-anchor="middle" x="753" y="-715.1" font-family="Times Roman,serif" font-size="11.00" fill="gray">JSON</text>
</g>
<g id="graph17" class="cluster"><title>cluster_\JCORE\TRANSPORT\REST</title>
<polyline fill="none" stroke="gray" points="714,-517 792,-517 "/>
<path fill="none" stroke="gray" d="M792,-517C798,-517 804,-523 804,-529"/>
<polyline fill="none" stroke="gray" points="804,-529 804,-580 "/>
<path fill="none" stroke="gray" d="M804,-580C804,-586 798,-592 792,-592"/>
<polyline fill="none" stroke="gray" points="792,-592 714,-592 "/>
<path fill="none" stroke="gray" d="M714,-592C708,-592 702,-586 702,-580"/>
<polyline fill="none" stroke="gray" points="702,-580 702,-529 "/>
<path fill="none" stroke="gray" d="M702,-529C702,-523 708,-517 714,-517"/>
<text text-anchor="middle" x="753" y="-578.1" font-family="Times Roman,serif" font-size="11.00" fill="gray">REST</text>
</g>
<g id="graph18" class="cluster"><title>cluster_\JCORE\CACHE</title>
<polyline fill="none" stroke="gray" points="167,-1179 825,-1179 "/>
<path fill="none" stroke="gray" d="M825,-1179C831,-1179 837,-1185 837,-1191"/>
<polyline fill="none" stroke="gray" points="837,-1191 837,-1566 "/>
<path fill="none" stroke="gray" d="M837,-1566C837,-1572 831,-1578 825,-1578"/>
<polyline fill="none" stroke="gray" points="825,-1578 167,-1578 "/>
<path fill="none" stroke="gray" d="M167,-1578C161,-1578 155,-1572 155,-1566"/>
<polyline fill="none" stroke="gray" points="155,-1566 155,-1191 "/>
<path fill="none" stroke="gray" d="M155,-1191C155,-1185 161,-1179 167,-1179"/>
<text text-anchor="middle" x="496" y="-1564.1" font-family="Times Roman,serif" font-size="11.00" fill="gray">CACHE</text>
</g>
<g id="graph19" class="cluster"><title>cluster_\JCORE\LOAD</title>
<polyline fill="none" stroke="gray" points="992,-1536 1150,-1536 "/>
<path fill="none" stroke="gray" d="M1150,-1536C1156,-1536 1162,-1542 1162,-1548"/>
<polyline fill="none" stroke="gray" points="1162,-1548 1162,-1707 "/>
<path fill="none" stroke="gray" d="M1162,-1707C1162,-1713 1156,-1719 1150,-1719"/>
<polyline fill="none" stroke="gray" points="1150,-1719 992,-1719 "/>
<path fill="none" stroke="gray" d="M992,-1719C986,-1719 980,-1713 980,-1707"/>
<polyline fill="none" stroke="gray" points="980,-1707 980,-1548 "/>
<path fill="none" stroke="gray" d="M980,-1548C980,-1542 986,-1536 992,-1536"/>
<text text-anchor="middle" x="1071" y="-1705.1" font-family="Times Roman,serif" font-size="11.00" fill="gray">LOAD</text>
</g>
<g id="graph20" class="cluster"><title>cluster_\JCORE\EXCEPTION</title>
<polyline fill="none" stroke="gray" points="1012,-1345 1130,-1345 "/>
<path fill="none" stroke="gray" d="M1130,-1345C1136,-1345 1142,-1351 1142,-1357"/>
<polyline fill="none" stroke="gray" points="1142,-1357 1142,-1516 "/>
<path fill="none" stroke="gray" d="M1142,-1516C1142,-1522 1136,-1528 1130,-1528"/>
<polyline fill="none" stroke="gray" points="1130,-1528 1012,-1528 "/>
<path fill="none" stroke="gray" d="M1012,-1528C1006,-1528 1000,-1522 1000,-1516"/>
<polyline fill="none" stroke="gray" points="1000,-1516 1000,-1357 "/>
<path fill="none" stroke="gray" d="M1000,-1357C1000,-1351 1006,-1345 1012,-1345"/>
<text text-anchor="middle" x="1071" y="-1514.1" font-family="Times Roman,serif" font-size="11.00" fill="gray">EXCEPTION</text>
</g>
<g id="graph21" class="cluster"><title>cluster_\JCORE\AUTH</title>
<polyline fill="none" stroke="gray" points="701,-1042 1116,-1042 "/>
<path fill="none" stroke="gray" d="M1116,-1042C1122,-1042 1128,-1048 1128,-1054"/>
<polyline fill="none" stroke="gray" points="1128,-1054 1128,-1159 "/>
<path fill="none" stroke="gray" d="M1128,-1159C1128,-1165 1122,-1171 1116,-1171"/>
<polyline fill="none" stroke="gray" points="1116,-1171 701,-1171 "/>
<path fill="none" stroke="gray" d="M701,-1171C695,-1171 689,-1165 689,-1159"/>
<polyline fill="none" stroke="gray" points="689,-1159 689,-1054 "/>
<path fill="none" stroke="gray" d="M689,-1054C689,-1048 695,-1042 701,-1042"/>
<text text-anchor="middle" x="908.5" y="-1157.1" font-family="Times Roman,serif" font-size="11.00" fill="gray">AUTH</text>
</g>
<g id="graph22" class="cluster"><title>cluster_\JCORE\TEMPLATER</title>
<polyline fill="none" stroke="gray" points="1036,-1262 1106,-1262 "/>
<path fill="none" stroke="gray" d="M1106,-1262C1112,-1262 1118,-1268 1118,-1274"/>
<polyline fill="none" stroke="gray" points="1118,-1274 1118,-1325 "/>
<path fill="none" stroke="gray" d="M1118,-1325C1118,-1331 1112,-1337 1106,-1337"/>
<polyline fill="none" stroke="gray" points="1106,-1337 1036,-1337 "/>
<path fill="none" stroke="gray" d="M1036,-1337C1030,-1337 1024,-1331 1024,-1325"/>
<polyline fill="none" stroke="gray" points="1024,-1325 1024,-1274 "/>
<path fill="none" stroke="gray" d="M1024,-1274C1024,-1268 1030,-1262 1036,-1262"/>
<text text-anchor="middle" x="1071" y="-1323.1" font-family="Times Roman,serif" font-size="11.00" fill="gray">TEMPLATER</text>
</g>
<g id="graph23" class="cluster"><title>cluster_\JCORE\LOG</title>
<polyline fill="none" stroke="gray" points="1046,-1179 1096,-1179 "/>
<path fill="none" stroke="gray" d="M1096,-1179C1102,-1179 1108,-1185 1108,-1191"/>
<polyline fill="none" stroke="gray" points="1108,-1191 1108,-1242 "/>
<path fill="none" stroke="gray" d="M1108,-1242C1108,-1248 1102,-1254 1096,-1254"/>
<polyline fill="none" stroke="gray" points="1096,-1254 1046,-1254 "/>
<path fill="none" stroke="gray" d="M1046,-1254C1040,-1254 1034,-1248 1034,-1242"/>
<polyline fill="none" stroke="gray" points="1034,-1242 1034,-1191 "/>
<path fill="none" stroke="gray" d="M1034,-1191C1034,-1185 1040,-1179 1046,-1179"/>
<text text-anchor="middle" x="1071" y="-1240.1" font-family="Times Roman,serif" font-size="11.00" fill="gray">LOG</text>
</g>
<g id="graph24" class="cluster"><title>cluster_\JCORE\SERVICE</title>
<polyline fill="none" stroke="gray" points="1015,-824 1127,-824 "/>
<path fill="none" stroke="gray" d="M1127,-824C1133,-824 1139,-830 1139,-836"/>
<polyline fill="none" stroke="gray" points="1139,-836 1139,-980 "/>
<path fill="none" stroke="gray" d="M1139,-980C1139,-986 1133,-992 1127,-992"/>
<polyline fill="none" stroke="gray" points="1127,-992 1015,-992 "/>
<path fill="none" stroke="gray" d="M1015,-992C1009,-992 1003,-986 1003,-980"/>
<polyline fill="none" stroke="gray" points="1003,-980 1003,-836 "/>
<path fill="none" stroke="gray" d="M1003,-836C1003,-830 1009,-824 1015,-824"/>
<text text-anchor="middle" x="1071" y="-978.1" font-family="Times Roman,serif" font-size="11.00" fill="gray">SERVICE</text>
</g>
<g id="graph25" class="cluster"><title>cluster_\JCORE\SERVICE\AUTH</title>
<polyline fill="none" stroke="gray" points="1023,-832 1119,-832 "/>
<path fill="none" stroke="gray" d="M1119,-832C1125,-832 1131,-838 1131,-844"/>
<polyline fill="none" stroke="gray" points="1131,-844 1131,-949 "/>
<path fill="none" stroke="gray" d="M1131,-949C1131,-955 1125,-961 1119,-961"/>
<polyline fill="none" stroke="gray" points="1119,-961 1023,-961 "/>
<path fill="none" stroke="gray" d="M1023,-961C1017,-961 1011,-955 1011,-949"/>
<polyline fill="none" stroke="gray" points="1011,-949 1011,-844 "/>
<path fill="none" stroke="gray" d="M1011,-844C1011,-838 1017,-832 1023,-832"/>
<text text-anchor="middle" x="1071" y="-947.1" font-family="Times Roman,serif" font-size="11.00" fill="gray">AUTH</text>
</g>
<!-- \\JCORE\\DATA\\API\\MySQL\\MySQL_connector -->
<g id="node6" class="node"><title>\\JCORE\\DATA\\API\\MySQL\\MySQL_connector</title>
<polygon fill="none" stroke="black" points="1130,-2329 1012,-2329 1012,-2293 1130,-2293 1130,-2329"/>
<text text-anchor="middle" x="1071" y="-2308.1" font-family="Courier,monospace" font-size="11.00">MySQL_connector</text>
</g>
<!-- \\JCORE\\DATA\\API\\DATA_API_INTERFACE -->
<g id="node14" class="node"><title>\\JCORE\\DATA\\API\\DATA_API_INTERFACE</title>
<polygon fill="none" stroke="black" points="822,-2329 684,-2329 684,-2293 822,-2293 822,-2329"/>
<text text-anchor="middle" x="753" y="-2308.1" font-family="Courier,monospace" font-size="11.00">DATA_API_INTERFACE</text>
</g>
<!-- \\JCORE\\DATA\\API\\MySQL\\MySQL_connector&#45;&gt;\\JCORE\\DATA\\API\\DATA_API_INTERFACE -->
<g id="edge26" class="edge"><title>\\JCORE\\DATA\\API\\MySQL\\MySQL_connector&#45;&gt;\\JCORE\\DATA\\API\\DATA_API_INTERFACE</title>
<path fill="none" stroke="black" stroke-dasharray="1,5" d="M1011.93,-2311C961.374,-2311 888.145,-2311 832.455,-2311"/>
<polygon fill="none" stroke="black" points="832.269,-2307.5 822.269,-2311 832.269,-2314.5 832.269,-2307.5"/>
</g>
<!-- \\JCORE\\DATA\\API\\MySQL\\MySQL_TABLE_META -->
<g id="node7" class="node"><title>\\JCORE\\DATA\\API\\MySQL\\MySQL_TABLE_META</title>
<polygon fill="none" stroke="black" points="1133,-2275 1009,-2275 1009,-2239 1133,-2239 1133,-2275"/>
<text text-anchor="middle" x="1071" y="-2254.1" font-family="Courier,monospace" font-size="11.00">MySQL_TABLE_META</text>
</g>
<!-- \\JCORE\\DATA\\API\\REDIS\\REDIS_connector -->
<g id="node9" class="node"><title>\\JCORE\\DATA\\API\\REDIS\\REDIS_connector</title>
<polygon fill="none" stroke="black" points="1130,-2192 1012,-2192 1012,-2156 1130,-2156 1130,-2192"/>
<text text-anchor="middle" x="1071" y="-2171.1" font-family="Courier,monospace" font-size="11.00">REDIS_connector</text>
</g>
<!-- \\JCORE\\DATA\\API\\REDIS\\REDIS_connector&#45;&gt;\\JCORE\\DATA\\API\\DATA_API_INTERFACE -->
<g id="edge28" class="edge"><title>\\JCORE\\DATA\\API\\REDIS\\REDIS_connector&#45;&gt;\\JCORE\\DATA\\API\\DATA_API_INTERFACE</title>
<path fill="none" stroke="black" stroke-dasharray="1,5" d="M1029.1,-2192.05C971.189,-2217 866.772,-2261.99 804.274,-2288.91"/>
<polygon fill="none" stroke="black" points="802.792,-2285.74 794.993,-2292.91 805.562,-2292.17 802.792,-2285.74"/>
</g>
<!-- \\JCORE\\DATA\\API\\FILE\\CSV_connector -->
<g id="node11" class="node"><title>\\JCORE\\DATA\\API\\FILE\\CSV_connector</title>
<polygon fill="none" stroke="black" points="1123,-2412 1019,-2412 1019,-2376 1123,-2376 1123,-2412"/>
<text text-anchor="middle" x="1071" y="-2391.1" font-family="Courier,monospace" font-size="11.00">CSV_connector</text>
</g>
<!-- \\JCORE\\DATA\\API\\FILE\\CSV_connector&#45;&gt;\\JCORE\\DATA\\API\\DATA_API_INTERFACE -->
<g id="edge30" class="edge"><title>\\JCORE\\DATA\\API\\FILE\\CSV_connector&#45;&gt;\\JCORE\\DATA\\API\\DATA_API_INTERFACE</title>
<path fill="none" stroke="black" stroke-dasharray="1,5" d="M1018.84,-2380.39C968.125,-2367.15 890.409,-2346.86 832.082,-2331.64"/>
<polygon fill="none" stroke="black" points="832.723,-2328.19 822.163,-2329.05 830.955,-2334.96 832.723,-2328.19"/>
</g>
<!-- \\JCORE\\DATA\\API\\DATA_API -->
<g id="node12" class="node"><title>\\JCORE\\DATA\\API\\DATA_API</title>
<polygon fill="none" stroke="black" points="1106,-2138 1036,-2138 1036,-2102 1106,-2102 1106,-2138"/>
<text text-anchor="middle" x="1071" y="-2117.1" font-family="Courier,monospace" font-size="11.00">DATA_API</text>
</g>
<!-- \\JCORE\\DATA\\API\\DATA_UTIL_API -->
<g id="node13" class="node"><title>\\JCORE\\DATA\\API\\DATA_UTIL_API</title>
<polygon fill="none" stroke="black" points="1123,-2084 1019,-2084 1019,-2048 1123,-2048 1123,-2084"/>
<text text-anchor="middle" x="1071" y="-2063.1" font-family="Courier,monospace" font-size="11.00">DATA_UTIL_API</text>
</g>
<!-- \\JCORE\\DAO\\TREE\\DAO_TREE -->
<g id="node17" class="node"><title>\\JCORE\\DAO\\TREE\\DAO_TREE</title>
<polygon fill="none" stroke="black" points="1106,-1962 1036,-1962 1036,-1926 1106,-1926 1106,-1962"/>
<text text-anchor="middle" x="1071" y="-1941.1" font-family="Courier,monospace" font-size="11.00">DAO_TREE</text>
</g>
<!-- \\JCORE\\DAO\\SESSION -->
<g id="node18" class="node"><title>\\JCORE\\DAO\\SESSION</title>
<polygon fill="none" stroke="black" points="1103,-1908 1039,-1908 1039,-1872 1103,-1872 1103,-1908"/>
<text text-anchor="middle" x="1071" y="-1887.1" font-family="Courier,monospace" font-size="11.00">SESSION</text>
</g>
<!-- \\JCORE\\DAO\\DAO -->
<g id="node19" class="node"><title>\\JCORE\\DAO\\DAO</title>
<polygon fill="none" stroke="black" points="1098,-1854 1044,-1854 1044,-1818 1098,-1818 1098,-1854"/>
<text text-anchor="middle" x="1071" y="-1833.1" font-family="Courier,monospace" font-size="11.00">DAO</text>
</g>
<!-- \\JCORE\\L10N\\PO_TRANSLATION -->
<g id="node21" class="node"><title>\\JCORE\\L10N\\PO_TRANSLATION</title>
<polygon fill="none" stroke="black" points="1126,-1771 1016,-1771 1016,-1735 1126,-1735 1126,-1771"/>
<text text-anchor="middle" x="1071" y="-1750.1" font-family="Courier,monospace" font-size="11.00">PO_TRANSLATION</text>
</g>
<!-- \\JCORE\\TRANSPORT\\HTTP\\HTTP_API -->
<g id="node24" class="node"><title>\\JCORE\\TRANSPORT\\HTTP\\HTTP_API</title>
<polygon fill="none" stroke="black" points="788,-972 718,-972 718,-936 788,-936 788,-972"/>
<text text-anchor="middle" x="753" y="-951.1" font-family="Courier,monospace" font-size="11.00">HTTP_API</text>
</g>
<!-- \\JCORE\\TRANSPORT\\TRANSPORT_INTERFACE -->
<g id="node38" class="node"><title>\\JCORE\\TRANSPORT\\TRANSPORT_INTERFACE</title>
<polygon fill="none" stroke="black" points="331,-644 187,-644 187,-608 331,-608 331,-644"/>
<text text-anchor="middle" x="259" y="-623.1" font-family="Courier,monospace" font-size="11.00">TRANSPORT_INTERFACE</text>
</g>
<!-- \\JCORE\\TRANSPORT\\HTTP\\HTTP_API&#45;&gt;\\JCORE\\TRANSPORT\\TRANSPORT_INTERFACE -->
<g id="edge32" class="edge"><title>\\JCORE\\TRANSPORT\\HTTP\\HTTP_API&#45;&gt;\\JCORE\\TRANSPORT\\TRANSPORT_INTERFACE</title>
<path fill="none" stroke="black" stroke-dasharray="1,5" d="M717.234,-953.831C682.986,-952.375 630.659,-946.694 590,-927 449.416,-858.906 325.439,-712.04 278.737,-652.189"/>
<polygon fill="none" stroke="black" points="281.299,-649.781 272.414,-644.01 275.761,-654.062 281.299,-649.781"/>
</g>
<!-- \\JCORE\\TRANSPORT\\HTTP\\HTTP_UTIL -->
<g id="node25" class="node"><title>\\JCORE\\TRANSPORT\\HTTP\\HTTP_UTIL</title>
<polygon fill="none" stroke="black" points="791,-918 715,-918 715,-882 791,-882 791,-918"/>
<text text-anchor="middle" x="753" y="-897.1" font-family="Courier,monospace" font-size="11.00">HTTP_UTIL</text>
</g>
<!-- \\JCORE\\TRANSPORT\\SOA\\SOA_BASE -->
<g id="node27" class="node"><title>\\JCORE\\TRANSPORT\\SOA\\SOA_BASE</title>
<polygon fill="none" stroke="black" points="795,-835 711,-835 711,-799 795,-799 795,-835"/>
<text text-anchor="start" x="719" y="-822.433" font-family="Courier,monospace" font-size="11.00">«abstract»</text>
<text text-anchor="start" x="725.5" y="-809.233" font-family="Courier,monospace" font-size="11.00">SOA_BASE</text>
</g>
<!-- \\JCORE\\TRANSPORT\\SOA\\SERVICE_VALIDATOR -->
<g id="node28" class="node"><title>\\JCORE\\TRANSPORT\\SOA\\SERVICE_VALIDATOR</title>
<polygon fill="none" stroke="black" points="818,-781 688,-781 688,-745 818,-745 818,-781"/>
<text text-anchor="middle" x="753" y="-760.1" font-family="Courier,monospace" font-size="11.00">SERVICE_VALIDATOR</text>
</g>
<!-- \\JCORE\\TRANSPORT\\XML\\SOAP -->
<g id="node30" class="node"><title>\\JCORE\\TRANSPORT\\XML\\SOAP</title>
<polygon fill="none" stroke="black" points="780,-478 726,-478 726,-442 780,-442 780,-478"/>
<text text-anchor="middle" x="753" y="-457.1" font-family="Courier,monospace" font-size="11.00">SOAP</text>
</g>
<!-- \\JCORE\\TRANSPORT\\XML\\SOAP&#45;&gt;\\JCORE\\TRANSPORT\\TRANSPORT_INTERFACE -->
<g id="edge36" class="edge"><title>\\JCORE\\TRANSPORT\\XML\\SOAP&#45;&gt;\\JCORE\\TRANSPORT\\TRANSPORT_INTERFACE</title>
<path fill="none" stroke="black" stroke-dasharray="1,5" d="M725.737,-463.88C691.496,-469.811 632.135,-483.682 590,-513 547.667,-542.456 563.429,-579.588 518,-604 464.317,-632.847 395.197,-637.381 341.866,-635.226"/>
<polygon fill="none" stroke="black" points="341.919,-631.725 331.76,-634.731 341.576,-638.716 341.919,-631.725"/>
</g>
<!-- \\JCORE\\TRANSPORT\\JSON\\JSON -->
<g id="node32" class="node"><title>\\JCORE\\TRANSPORT\\JSON\\JSON</title>
<polygon fill="none" stroke="black" points="780,-698 726,-698 726,-662 780,-662 780,-698"/>
<text text-anchor="middle" x="753" y="-677.1" font-family="Courier,monospace" font-size="11.00">JSON</text>
</g>
<!-- \\JCORE\\TRANSPORT\\JSON\\JSONRPC_1_0_API -->
<g id="node33" class="node"><title>\\JCORE\\TRANSPORT\\JSON\\JSONRPC_1_0_API</title>
<polygon fill="none" stroke="black" points="812,-644 694,-644 694,-608 812,-608 812,-644"/>
<text text-anchor="middle" x="753" y="-623.1" font-family="Courier,monospace" font-size="11.00">JSONRPC_1_0_API</text>
</g>
<!-- \\JCORE\\TRANSPORT\\JSON\\JSONRPC_1_0_API&#45;&gt;\\JCORE\\TRANSPORT\\TRANSPORT_INTERFACE -->
<g id="edge38" class="edge"><title>\\JCORE\\TRANSPORT\\JSON\\JSONRPC_1_0_API&#45;&gt;\\JCORE\\TRANSPORT\\TRANSPORT_INTERFACE</title>
<path fill="none" stroke="black" stroke-dasharray="1,5" d="M693.903,-626C606.253,-626 441.457,-626 341.815,-626"/>
<polygon fill="none" stroke="black" points="341.786,-622.5 331.786,-626 341.786,-629.5 341.786,-622.5"/>
</g>
<!-- \\JCORE\\TRANSPORT\\REST\\REST_API -->
<g id="node35" class="node"><title>\\JCORE\\TRANSPORT\\REST\\REST_API</title>
<polygon fill="none" stroke="black" points="795,-561 711,-561 711,-525 795,-525 795,-561"/>
<text text-anchor="start" x="719" y="-548.433" font-family="Courier,monospace" font-size="11.00">«abstract»</text>
<text text-anchor="start" x="725.5" y="-535.233" font-family="Courier,monospace" font-size="11.00">REST_API</text>
</g>
<!-- \\JCORE\\TRANSPORT\\REST\\REST_API&#45;&gt;\\JCORE\\TRANSPORT\\TRANSPORT_INTERFACE -->
<g id="edge40" class="edge"><title>\\JCORE\\TRANSPORT\\REST\\REST_API&#45;&gt;\\JCORE\\TRANSPORT\\TRANSPORT_INTERFACE</title>
<path fill="none" stroke="black" stroke-dasharray="1,5" d="M710.164,-556.458C663.418,-570.591 586.138,-592.349 518,-604 459.514,-614.001 392.783,-619.532 341.704,-622.547"/>
<polygon fill="none" stroke="black" points="341.489,-619.053 331.705,-623.117 341.888,-626.042 341.489,-619.053"/>
</g>
<!-- \\JCORE\\TRANSPORT\\SERIALIZATION_STATIC -->
<g id="node36" class="node"><title>\\JCORE\\TRANSPORT\\SERIALIZATION_STATIC</title>
<polygon fill="none" stroke="black" points="829,-424 677,-424 677,-388 829,-388 829,-424"/>
<text text-anchor="middle" x="753" y="-403.1" font-family="Courier,monospace" font-size="11.00">SERIALIZATION_STATIC</text>
</g>
<!-- \\JCORE\\TRANSPORT\\SERIALIZATION -->
<g id="node37" class="node"><title>\\JCORE\\TRANSPORT\\SERIALIZATION</title>
<polygon fill="none" stroke="black" points="805,-370 701,-370 701,-334 805,-334 805,-370"/>
<text text-anchor="middle" x="753" y="-349.1" font-family="Courier,monospace" font-size="11.00">SERIALIZATION</text>
</g>
<!-- \\JCORE\\CACHE\\URL_API -->
<g id="node40" class="node"><title>\\JCORE\\CACHE\\URL_API</title>
<polygon fill="none" stroke="black" points="785,-1277 721,-1277 721,-1241 785,-1241 785,-1277"/>
<text text-anchor="middle" x="753" y="-1256.1" font-family="Courier,monospace" font-size="11.00">URL_API</text>
</g>
<!-- \\JCORE\\CACHE\\URL_API&#45;&gt;\\JCORE\\TRANSPORT\\TRANSPORT_INTERFACE -->
<g id="edge34" class="edge"><title>\\JCORE\\CACHE\\URL_API&#45;&gt;\\JCORE\\TRANSPORT\\TRANSPORT_INTERFACE</title>
<path fill="none" stroke="black" stroke-dasharray="1,5" d="M720.802,-1261.57C685.49,-1262.72 628.705,-1259.49 590,-1232 378.288,-1081.65 287.874,-751.879 265.062,-653.951"/>
<polygon fill="none" stroke="black" points="268.471,-653.161 262.835,-644.19 261.647,-654.718 268.471,-653.161"/>
</g>
<!-- \\JCORE\\CACHE\\SESSION -->
<g id="node41" class="node"><title>\\JCORE\\CACHE\\SESSION</title>
<polygon fill="none" stroke="black" points="785,-1493 721,-1493 721,-1457 785,-1457 785,-1493"/>
<text text-anchor="middle" x="753" y="-1472.1" font-family="Courier,monospace" font-size="11.00">SESSION</text>
</g>
<!-- \\JCORE\\CACHE\\PHP_SESSION -->
<g id="node47" class="node"><title>\\JCORE\\CACHE\\PHP_SESSION</title>
<polygon fill="none" stroke="black" points="304,-1493 214,-1493 214,-1457 304,-1457 304,-1493"/>
<text text-anchor="middle" x="259" y="-1472.1" font-family="Courier,monospace" font-size="11.00">PHP_SESSION</text>
</g>
<!-- \\JCORE\\CACHE\\SESSION&#45;&gt;\\JCORE\\CACHE\\PHP_SESSION -->
<g id="edge48" class="edge"><title>\\JCORE\\CACHE\\SESSION&#45;&gt;\\JCORE\\CACHE\\PHP_SESSION</title>
<path fill="none" stroke="black" stroke-dasharray="1,5" d="M720.968,-1475C638.699,-1475 419.165,-1475 315.15,-1475"/>
<polygon fill="none" stroke="black" points="314.853,-1471.5 304.853,-1475 314.853,-1478.5 314.853,-1471.5"/>
</g>
<!-- \\JCORE\\CACHE\\REDIS -->
<g id="node42" class="node"><title>\\JCORE\\CACHE\\REDIS</title>
<polygon fill="none" stroke="black" points="780,-1223 726,-1223 726,-1187 780,-1187 780,-1223"/>
<text text-anchor="middle" x="753" y="-1202.1" font-family="Courier,monospace" font-size="11.00">REDIS</text>
</g>
<!-- \\JCORE\\CACHE\\JCORE\\CACHE\\STATIC_API_INTERFACE -->
<g id="node88" class="node"><title>\\JCORE\\CACHE\\JCORE\\CACHE\\STATIC_API_INTERFACE</title>
<ellipse fill="none" stroke="black" cx="259" cy="-131" rx="258.801" ry="19.0919"/>
<text text-anchor="middle" x="259" y="-127.9" font-family="Times Roman,serif" font-size="14.00" fill="gray">\JCORE\CACHE\JCORE\CACHE\STATIC_API_INTERFACE</text>
</g>
<!-- \\JCORE\\CACHE\\REDIS&#45;&gt;\\JCORE\\CACHE\\JCORE\\CACHE\\STATIC_API_INTERFACE -->
<g id="edge50" class="edge"><title>\\JCORE\\CACHE\\REDIS&#45;&gt;\\JCORE\\CACHE\\JCORE\\CACHE\\STATIC_API_INTERFACE</title>
<path fill="none" stroke="black" stroke-dasharray="1,5" d="M725.786,-1208.97C689.035,-1212.63 624.209,-1212.73 590,-1175 462.223,-1034.07 610.831,-488.041 518,-322 472.163,-240.015 374.829,-183.338 313.405,-154.087"/>
<polygon fill="none" stroke="black" points="314.782,-150.867 304.241,-149.799 311.815,-157.207 314.782,-150.867"/>
</g>
<!-- \\JCORE\\CACHE\\MEMCACHED -->
<g id="node43" class="node"><title>\\JCORE\\CACHE\\MEMCACHED</title>
<polygon fill="none" stroke="black" points="791,-1331 715,-1331 715,-1295 791,-1295 791,-1331"/>
<text text-anchor="middle" x="753" y="-1310.1" font-family="Courier,monospace" font-size="11.00">MEMCACHED</text>
</g>
<!-- \\JCORE\\CACHE\\CACHE_COMMON_API_INTERFACE -->
<g id="node48" class="node"><title>\\JCORE\\CACHE\\CACHE_COMMON_API_INTERFACE</title>
<polygon fill="none" stroke="black" points="355,-1385 163,-1385 163,-1349 355,-1349 355,-1385"/>
<text text-anchor="middle" x="259" y="-1364.1" font-family="Courier,monospace" font-size="11.00">CACHE_COMMON_API_INTERFACE</text>
</g>
<!-- \\JCORE\\CACHE\\MEMCACHED&#45;&gt;\\JCORE\\CACHE\\CACHE_COMMON_API_INTERFACE -->
<g id="edge52" class="edge"><title>\\JCORE\\CACHE\\MEMCACHED&#45;&gt;\\JCORE\\CACHE\\CACHE_COMMON_API_INTERFACE</title>
<path fill="none" stroke="black" stroke-dasharray="1,5" d="M714.237,-1317.24C639.906,-1325.36 475,-1343.39 365.425,-1355.37"/>
<polygon fill="none" stroke="black" points="364.89,-1351.9 355.329,-1356.47 365.65,-1358.86 364.89,-1351.9"/>
</g>
<!-- \\JCORE\\CACHE\\FILECACHE_API -->
<g id="node44" class="node"><title>\\JCORE\\CACHE\\FILECACHE_API</title>
<polygon fill="none" stroke="black" points="805,-1439 701,-1439 701,-1403 805,-1403 805,-1439"/>
<text text-anchor="middle" x="753" y="-1418.1" font-family="Courier,monospace" font-size="11.00">FILECACHE_API</text>
</g>
<!-- \\JCORE\\CACHE\\FILECACHE_API&#45;&gt;\\JCORE\\CACHE\\CACHE_COMMON_API_INTERFACE -->
<g id="edge54" class="edge"><title>\\JCORE\\CACHE\\FILECACHE_API&#45;&gt;\\JCORE\\CACHE\\CACHE_COMMON_API_INTERFACE</title>
<path fill="none" stroke="black" stroke-dasharray="1,5" d="M700.601,-1415.27C621.178,-1406.59 468.649,-1389.92 365.349,-1378.63"/>
<polygon fill="none" stroke="black" points="365.519,-1375.12 355.198,-1377.52 364.758,-1382.08 365.519,-1375.12"/>
</g>
<!-- \\JCORE\\CACHE\\CACHE_API2 -->
<g id="node45" class="node"><title>\\JCORE\\CACHE\\CACHE_API2</title>
<polygon fill="none" stroke="black" points="795,-1385 711,-1385 711,-1349 795,-1349 795,-1385"/>
<text text-anchor="middle" x="753" y="-1364.1" font-family="Courier,monospace" font-size="11.00">CACHE_API2</text>
</g>
<!-- \\JCORE\\CACHE\\CACHE_API2&#45;&gt;\\JCORE\\CACHE\\CACHE_COMMON_API_INTERFACE -->
<g id="edge62" class="edge"><title>\\JCORE\\CACHE\\CACHE_API2&#45;&gt;\\JCORE\\CACHE\\CACHE_COMMON_API_INTERFACE</title>
<path fill="none" stroke="black" stroke-dasharray="1,5" d="M710.882,-1367C635.047,-1367 473.399,-1367 365.443,-1367"/>
<polygon fill="none" stroke="black" points="365.169,-1363.5 355.169,-1367 365.168,-1370.5 365.169,-1363.5"/>
</g>
<!-- \\JCORE\\CACHE\\STATIC_API_INTERFACE -->
<g id="node46" class="node"><title>\\JCORE\\CACHE\\STATIC_API_INTERFACE</title>
<polygon fill="none" stroke="black" points="829,-1547 677,-1547 677,-1511 829,-1511 829,-1547"/>
<text text-anchor="middle" x="753" y="-1526.1" font-family="Courier,monospace" font-size="11.00">STATIC_API_INTERFACE</text>
</g>
<!-- \\JCORE\\JCORE_SINGLETON_INTERFACE -->
<g id="node70" class="node"><title>\\JCORE\\JCORE_SINGLETON_INTERFACE</title>
<polygon fill="none" stroke="black" points="351,-1622 167,-1622 167,-1586 351,-1586 351,-1622"/>
<text text-anchor="middle" x="259" y="-1601.1" font-family="Courier,monospace" font-size="11.00">JCORE_SINGLETON_INTERFACE</text>
</g>
<!-- \\JCORE\\CACHE\\STATIC_API_INTERFACE&#45;&gt;\\JCORE\\JCORE_SINGLETON_INTERFACE -->
<g id="edge72" class="edge"><title>\\JCORE\\CACHE\\STATIC_API_INTERFACE&#45;&gt;\\JCORE\\JCORE_SINGLETON_INTERFACE</title>
<path fill="none" stroke="black" d="M684.579,-1547.04C637.947,-1558.69 574.626,-1573.25 518,-1582 466.787,-1589.91 409.406,-1595.15 361.694,-1598.53"/>
<polygon fill="none" stroke="black" points="361.401,-1595.04 351.665,-1599.22 361.883,-1602.02 361.401,-1595.04"/>
</g>
<!-- \\JCORE\\LOAD\\CONFIG_MANAGER_INI -->
<g id="node50" class="node"><title>\\JCORE\\LOAD\\CONFIG_MANAGER_INI</title>
<polygon fill="none" stroke="black" points="1140,-1688 1002,-1688 1002,-1652 1140,-1652 1140,-1688"/>
<text text-anchor="middle" x="1071" y="-1667.1" font-family="Courier,monospace" font-size="11.00">CONFIG_MANAGER_INI</text>
</g>
<!-- \\JCORE\\LOAD\\ComposerAutoloaderInit -->
<g id="node51" class="node"><title>\\JCORE\\LOAD\\ComposerAutoloaderInit</title>
<polygon fill="none" stroke="black" points="1153,-1634 989,-1634 989,-1598 1153,-1598 1153,-1634"/>
<text text-anchor="middle" x="1071" y="-1613.1" font-family="Courier,monospace" font-size="11.00">ComposerAutoloaderInit</text>
</g>
<!-- \\JCORE\\LOAD\\CONFIG_MANAGER -->
<g id="node52" class="node"><title>\\JCORE\\LOAD\\CONFIG_MANAGER</title>
<polygon fill="none" stroke="black" points="1126,-1580 1016,-1580 1016,-1544 1126,-1544 1126,-1580"/>
<text text-anchor="middle" x="1071" y="-1559.1" font-family="Courier,monospace" font-size="11.00">CONFIG_MANAGER</text>
</g>
<!-- \\JCORE\\EXCEPTION\\networkException -->
<g id="node54" class="node"><title>\\JCORE\\EXCEPTION\\networkException</title>
<polygon fill="none" stroke="black" points="1133,-1497 1009,-1497 1009,-1461 1133,-1461 1133,-1497"/>
<text text-anchor="middle" x="1071" y="-1476.1" font-family="Courier,monospace" font-size="11.00">networkException</text>
</g>
<!-- \\Exception -->
<g id="node83" class="node"><title>\\Exception</title>
<ellipse fill="none" stroke="black" cx="753" cy="-131" rx="53.033" ry="19.0919"/>
<text text-anchor="middle" x="753" y="-127.9" font-family="Times Roman,serif" font-size="14.00" fill="gray">\Exception</text>
</g>
<!-- \\JCORE\\EXCEPTION\\networkException&#45;&gt;\\Exception -->
<g id="edge42" class="edge"><title>\\JCORE\\EXCEPTION\\networkException&#45;&gt;\\Exception</title>
<path fill="none" stroke="black" d="M1008.49,-1471.45C997.494,-1467.34 987.261,-1461.17 980,-1452 901.959,-1353.39 962.823,-438.715 916,-322 887.587,-251.177 821.819,-187.905 783.065,-154.972"/>
<polygon fill="none" stroke="black" points="785.144,-152.147 775.229,-148.413 780.651,-157.515 785.144,-152.147"/>
</g>
<!-- \\JCORE\\EXCEPTION\\ERROR -->
<g id="node55" class="node"><title>\\JCORE\\EXCEPTION\\ERROR</title>
<polygon fill="none" stroke="black" points="1098,-1443 1044,-1443 1044,-1407 1098,-1407 1098,-1443"/>
<text text-anchor="middle" x="1071" y="-1422.1" font-family="Courier,monospace" font-size="11.00">ERROR</text>
</g>
<!-- \\JCORE\\EXCEPTION\\DATA_Exception -->
<g id="node56" class="node"><title>\\JCORE\\EXCEPTION\\DATA_Exception</title>
<polygon fill="none" stroke="black" points="1126,-1389 1016,-1389 1016,-1353 1126,-1353 1126,-1389"/>
<text text-anchor="middle" x="1071" y="-1368.1" font-family="Courier,monospace" font-size="11.00">DATA_Exception</text>
</g>
<!-- \\JCORE\\EXCEPTION\\DATA_Exception&#45;&gt;\\Exception -->
<g id="edge44" class="edge"><title>\\JCORE\\EXCEPTION\\DATA_Exception&#45;&gt;\\Exception</title>
<path fill="none" stroke="black" d="M1015.48,-1363.86C1001.88,-1359.42 988.743,-1352.32 980,-1341 841.332,-1161.42 1001.13,-532.316 916,-322 887.37,-251.265 821.681,-187.961 783,-154.998"/>
<polygon fill="none" stroke="black" points="785.088,-152.182 775.179,-148.433 780.588,-157.543 785.088,-152.182"/>
</g>
<!-- \\JCORE\\AUTH\\AUTH_HARNESS -->
<g id="node58" class="node"><title>\\JCORE\\AUTH\\AUTH_HARNESS</title>
<polygon fill="none" stroke="black" points="1120,-1140 1022,-1140 1022,-1104 1120,-1104 1120,-1140"/>
<text text-anchor="middle" x="1071" y="-1119.1" font-family="Courier,monospace" font-size="11.00">AUTH_HARNESS</text>
</g>
<!-- \\JCORE\\AUTH\\IP_WHITELIST -->
<g id="node59" class="node"><title>\\JCORE\\AUTH\\IP_WHITELIST</title>
<polygon fill="none" stroke="black" points="1120,-1086 1022,-1086 1022,-1050 1120,-1050 1120,-1086"/>
<text text-anchor="middle" x="1071" y="-1065.1" font-family="Courier,monospace" font-size="11.00">IP_WHITELIST</text>
</g>
<!-- \\JCORE\\AUTH\\AUTH_INTERFACE -->
<g id="node60" class="node"><title>\\JCORE\\AUTH\\AUTH_INTERFACE</title>
<polygon fill="none" stroke="black" points="808,-1086 698,-1086 698,-1050 808,-1050 808,-1086"/>
<text text-anchor="middle" x="753" y="-1065.1" font-family="Courier,monospace" font-size="11.00">AUTH_INTERFACE</text>
</g>
<!-- \\JCORE\\AUTH\\IP_WHITELIST&#45;&gt;\\JCORE\\AUTH\\AUTH_INTERFACE -->
<g id="edge46" class="edge"><title>\\JCORE\\AUTH\\IP_WHITELIST&#45;&gt;\\JCORE\\AUTH\\AUTH_INTERFACE</title>
<path fill="none" stroke="black" stroke-dasharray="1,5" d="M1021.66,-1068C967.158,-1068 879.134,-1068 818.794,-1068"/>
<polygon fill="none" stroke="black" points="818.611,-1064.5 808.611,-1068 818.611,-1071.5 818.611,-1064.5"/>
</g>
<!-- \\JCORE\\TEMPLATER\\TEMPLATER -->
<g id="node62" class="node"><title>\\JCORE\\TEMPLATER\\TEMPLATER</title>
<polygon fill="none" stroke="black" points="1109,-1306 1033,-1306 1033,-1270 1109,-1270 1109,-1306"/>
<text text-anchor="middle" x="1071" y="-1285.1" font-family="Courier,monospace" font-size="11.00">TEMPLATER</text>
</g>
<!-- \\JCORE\\LOG\\LOGGER -->
<g id="node64" class="node"><title>\\JCORE\\LOG\\LOGGER</title>
<polygon fill="none" stroke="black" points="1099,-1223 1043,-1223 1043,-1187 1099,-1187 1099,-1223"/>
<text text-anchor="middle" x="1071" y="-1202.1" font-family="Courier,monospace" font-size="11.00">LOGGER</text>
</g>
<!-- \\JCORE\\SERVICE\\AUTH\\LOGIN_SERVICE -->
<g id="node67" class="node"><title>\\JCORE\\SERVICE\\AUTH\\LOGIN_SERVICE</title>
<polygon fill="none" stroke="black" points="1123,-930 1019,-930 1019,-894 1123,-894 1123,-930"/>
<text text-anchor="middle" x="1071" y="-909.1" font-family="Courier,monospace" font-size="11.00">LOGIN_SERVICE</text>
</g>
<!-- \\JCORE\\SERVICE\\AUTH\\LOGIN_SERVICE&#45;&gt;\\JCORE\\TRANSPORT\\SOA\\SOA_BASE -->
<g id="edge64" class="edge"><title>\\JCORE\\SERVICE\\AUTH\\LOGIN_SERVICE&#45;&gt;\\JCORE\\TRANSPORT\\SOA\\SOA_BASE</title>
<path fill="none" stroke="black" d="M1018.54,-896.461C1005.92,-892.715 992.476,-888.719 980,-885 920.13,-867.151 851.413,-846.55 805.411,-832.743"/>
<polygon fill="none" stroke="black" points="806.249,-829.34 795.664,-829.817 804.236,-836.044 806.249,-829.34"/>
</g>
<!-- \\JCORE\\SERVICE\\AUTH\\LOGIN_SERVICE&#45;&gt;\\JCORE\\AUTH\\AUTH_INTERFACE -->
<g id="edge66" class="edge"><title>\\JCORE\\SERVICE\\AUTH\\LOGIN_SERVICE&#45;&gt;\\JCORE\\AUTH\\AUTH_INTERFACE</title>
<path fill="none" stroke="black" stroke-dasharray="1,5" d="M1045,-930.081C1014.9,-950.5 963.37,-983.885 916,-1007 884.759,-1022.24 848.677,-1036.11 818.415,-1046.75"/>
<polygon fill="none" stroke="black" points="817.103,-1043.5 808.807,-1050.09 819.402,-1050.11 817.103,-1043.5"/>
</g>
<!-- \\JCORE\\SERVICE\\AUTH\\PAGE_FILTER -->
<g id="node68" class="node"><title>\\JCORE\\SERVICE\\AUTH\\PAGE_FILTER</title>
<polygon fill="none" stroke="black" points="1116,-876 1026,-876 1026,-840 1116,-840 1116,-876"/>
<text text-anchor="middle" x="1071" y="-855.1" font-family="Courier,monospace" font-size="11.00">PAGE_FILTER</text>
</g>
<!-- \\JCORE\\SERVICE\\AUTH\\PAGE_FILTER&#45;&gt;\\JCORE\\TRANSPORT\\SOA\\SOA_BASE -->
<g id="edge68" class="edge"><title>\\JCORE\\SERVICE\\AUTH\\PAGE_FILTER&#45;&gt;\\JCORE\\TRANSPORT\\SOA\\SOA_BASE</title>
<path fill="none" stroke="black" d="M1025.44,-852.126C967.4,-844.643 867.284,-831.735 805.924,-823.824"/>
<polygon fill="none" stroke="black" points="806.045,-820.31 795.679,-822.503 805.15,-827.253 806.045,-820.31"/>
</g>
<!-- \\JCORE\\SERVICE\\AUTH\\PAGE_FILTER&#45;&gt;\\JCORE\\AUTH\\AUTH_INTERFACE -->
<g id="edge70" class="edge"><title>\\JCORE\\SERVICE\\AUTH\\PAGE_FILTER&#45;&gt;\\JCORE\\AUTH\\AUTH_INTERFACE</title>
<path fill="none" stroke="black" stroke-dasharray="1,5" d="M1025.46,-864.084C1009.73,-867.998 992.857,-874.43 980,-885 932.701,-923.883 961.917,-966.493 916,-1007 888.689,-1031.09 850.963,-1046.02 818.682,-1055.07"/>
<polygon fill="none" stroke="black" points="817.615,-1051.74 808.856,-1057.7 819.421,-1058.5 817.615,-1051.74"/>
</g>
<!-- \\JCORE\\JCORE_SINGLETON -->
<g id="node69" class="node"><title>\\JCORE\\JCORE_SINGLETON</title>
<polygon fill="none" stroke="black" points="1130,-611 1012,-611 1012,-575 1130,-575 1130,-611"/>
<text text-anchor="start" x="1037" y="-598.433" font-family="Courier,monospace" font-size="11.00">«abstract»</text>
<text text-anchor="start" x="1020" y="-585.233" font-family="Courier,monospace" font-size="11.00">JCORE_SINGLETON</text>
</g>
<!-- \\XCache -->
<g id="node71" class="node"><title>\\XCache</title>
<polygon fill="none" stroke="black" points="1099,-310 1043,-310 1043,-274 1099,-274 1099,-310"/>
<text text-anchor="middle" x="1071" y="-289.1" font-family="Courier,monospace" font-size="11.00">XCache</text>
</g>
<!-- \\XCACHE -->
<g id="node72" class="node"><title>\\XCACHE</title>
<polygon fill="none" stroke="black" points="1099,-256 1043,-256 1043,-220 1099,-220 1099,-256"/>
<text text-anchor="middle" x="1071" y="-235.1" font-family="Courier,monospace" font-size="11.00">XCACHE</text>
</g>
<!-- \\CACHE_STATIC_API_INTERFACE -->
<g id="node92" class="node"><title>\\CACHE_STATIC_API_INTERFACE</title>
<ellipse fill="none" stroke="black" cx="753" cy="-75" rx="162.134" ry="19.0919"/>
<text text-anchor="middle" x="753" y="-71.9" font-family="Times Roman,serif" font-size="14.00" fill="gray">\CACHE_STATIC_API_INTERFACE</text>
</g>
<!-- \\XCACHE&#45;&gt;\\CACHE_STATIC_API_INTERFACE -->
<g id="edge56" class="edge"><title>\\XCACHE&#45;&gt;\\CACHE_STATIC_API_INTERFACE</title>
<path fill="none" stroke="black" stroke-dasharray="1,5" d="M1042.25,-234.99C1022.98,-231.735 997.936,-224.982 980,-211 935.996,-176.697 961.956,-134.641 916,-103 908.697,-97.9719 900.785,-93.7495 892.516,-90.2114"/>
<polygon fill="none" stroke="black" points="893.63,-86.8888 883.042,-86.5012 891.077,-93.4068 893.63,-86.8888"/>
</g>
<!-- \\XCACHE_static -->
<g id="node73" class="node"><title>\\XCACHE_static</title>
<polygon fill="none" stroke="black" points="1123,-202 1019,-202 1019,-166 1123,-166 1123,-202"/>
<text text-anchor="middle" x="1071" y="-181.1" font-family="Courier,monospace" font-size="11.00">XCACHE_static</text>
</g>
<!-- \\XCACHE_static&#45;&gt;\\CACHE_STATIC_API_INTERFACE -->
<g id="edge60" class="edge"><title>\\XCACHE_static&#45;&gt;\\CACHE_STATIC_API_INTERFACE</title>
<path fill="none" stroke="black" stroke-dasharray="1,5" d="M1043.06,-165.969C1012.91,-147.348 962.887,-118.842 916,-103 902.297,-98.37 887.675,-94.478 873.027,-91.2128"/>
<polygon fill="none" stroke="black" points="873.402,-87.7143 862.892,-89.051 871.942,-94.5602 873.402,-87.7143"/>
</g>
<!-- \\JCORE_SINGLETON -->
<g id="node94" class="node"><title>\\JCORE_SINGLETON</title>
<ellipse fill="none" stroke="black" cx="753" cy="-19" rx="101.823" ry="19.0919"/>
<text text-anchor="middle" x="753" y="-15.9" font-family="Times Roman,serif" font-size="14.00" fill="gray">\JCORE_SINGLETON</text>
</g>
<!-- \\XCACHE_static&#45;&gt;\\JCORE_SINGLETON -->
<g id="edge58" class="edge"><title>\\XCACHE_static&#45;&gt;\\JCORE_SINGLETON</title>
<path fill="none" stroke="black" d="M1056.49,-165.834C1031.35,-135.75 976.562,-76.0292 916,-47 897.865,-38.3075 877.453,-32.2755 857.366,-28.0989"/>
<polygon fill="none" stroke="black" points="858.026,-24.6618 847.543,-26.1941 856.694,-31.5338 858.026,-24.6618"/>
</g>
</g>
</svg>
