<?xml version="1.0" encoding="UTF-8" standalone="no"?>
<!DOCTYPE svg PUBLIC "-//W3C//DTD SVG 1.1//EN"
 "http://www.w3.org/Graphics/SVG/1.1/DTD/svg11.dtd">
<!-- Generated by graphviz version 2.26.0 (20091210.2329)
 -->
<!-- Title: G Pages: 1 -->
<svg width="1020pt" height="2354pt"
 viewBox="0.00 0.00 1020.00 2354.00" xmlns="http://www.w3.org/2000/svg" xmlns:xlink="http://www.w3.org/1999/xlink">
<g id="graph1" class="graph" transform="scale(1 1) rotate(0) translate(4 2350)">
<title>G</title>
<polygon fill="white" stroke="white" points="-4,5 -4,-2350 1017,-2350 1017,5 -4,5"/>
<g id="graph2" class="cluster"><title>cluster_Global</title>
<polyline fill="none" stroke="gray" points="151,-46 992,-46 "/>
<path fill="none" stroke="gray" d="M992,-46C998,-46 1004,-52 1004,-58"/>
<polyline fill="none" stroke="gray" points="1004,-58 1004,-2326 "/>
<path fill="none" stroke="gray" d="M1004,-2326C1004,-2332 998,-2338 992,-2338"/>
<polyline fill="none" stroke="gray" points="992,-2338 151,-2338 "/>
<path fill="none" stroke="gray" d="M151,-2338C145,-2338 139,-2332 139,-2326"/>
<polyline fill="none" stroke="gray" points="139,-2326 139,-58 "/>
<path fill="none" stroke="gray" d="M139,-58C139,-52 145,-46 151,-46"/>
<text text-anchor="middle" x="571.5" y="-2324.1" font-family="Times Roman,serif" font-size="11.00" fill="gray">Global</text>
</g>
<g id="graph3" class="cluster"><title>cluster_\JCORE</title>
<polyline fill="none" stroke="gray" points="159,-54 984,-54 "/>
<path fill="none" stroke="gray" d="M984,-54C990,-54 996,-60 996,-66"/>
<polyline fill="none" stroke="gray" points="996,-66 996,-2295 "/>
<path fill="none" stroke="gray" d="M996,-2295C996,-2301 990,-2307 984,-2307"/>
<polyline fill="none" stroke="gray" points="984,-2307 159,-2307 "/>
<path fill="none" stroke="gray" d="M159,-2307C153,-2307 147,-2301 147,-2295"/>
<polyline fill="none" stroke="gray" points="147,-2295 147,-66 "/>
<path fill="none" stroke="gray" d="M147,-66C147,-60 153,-54 159,-54"/>
<text text-anchor="middle" x="571.5" y="-2293.1" font-family="Times Roman,serif" font-size="11.00" fill="gray">JCORE</text>
</g>
<g id="graph4" class="cluster"><title>cluster_\JCORE\TRANSPORT</title>
<polyline fill="none" stroke="gray" points="190,-116 738,-116 "/>
<path fill="none" stroke="gray" d="M738,-116C744,-116 750,-122 750,-128"/>
<polyline fill="none" stroke="gray" points="750,-128 750,-812 "/>
<path fill="none" stroke="gray" d="M750,-812C750,-818 744,-824 738,-824"/>
<polyline fill="none" stroke="gray" points="738,-824 190,-824 "/>
<path fill="none" stroke="gray" d="M190,-824C184,-824 178,-818 178,-812"/>
<polyline fill="none" stroke="gray" points="178,-812 178,-128 "/>
<path fill="none" stroke="gray" d="M178,-128C178,-122 184,-116 190,-116"/>
<text text-anchor="middle" x="464" y="-810.1" font-family="Times Roman,serif" font-size="11.00" fill="gray">TRANSPORT</text>
</g>
<g id="graph5" class="cluster"><title>cluster_\JCORE\TRANSPORT\REST</title>
<polyline fill="none" stroke="gray" points="627,-718 705,-718 "/>
<path fill="none" stroke="gray" d="M705,-718C711,-718 717,-724 717,-730"/>
<polyline fill="none" stroke="gray" points="717,-730 717,-781 "/>
<path fill="none" stroke="gray" d="M717,-781C717,-787 711,-793 705,-793"/>
<polyline fill="none" stroke="gray" points="705,-793 627,-793 "/>
<path fill="none" stroke="gray" d="M627,-793C621,-793 615,-787 615,-781"/>
<polyline fill="none" stroke="gray" points="615,-781 615,-730 "/>
<path fill="none" stroke="gray" d="M615,-730C615,-724 621,-718 627,-718"/>
<text text-anchor="middle" x="666" y="-779.1" font-family="Times Roman,serif" font-size="11.00" fill="gray">REST</text>
</g>
<g id="graph6" class="cluster"><title>cluster_\JCORE\TRANSPORT\JSON</title>
<polyline fill="none" stroke="gray" points="611,-581 721,-581 "/>
<path fill="none" stroke="gray" d="M721,-581C727,-581 733,-587 733,-593"/>
<polyline fill="none" stroke="gray" points="733,-593 733,-698 "/>
<path fill="none" stroke="gray" d="M733,-698C733,-704 727,-710 721,-710"/>
<polyline fill="none" stroke="gray" points="721,-710 611,-710 "/>
<path fill="none" stroke="gray" d="M611,-710C605,-710 599,-704 599,-698"/>
<polyline fill="none" stroke="gray" points="599,-698 599,-593 "/>
<path fill="none" stroke="gray" d="M599,-593C599,-587 605,-581 611,-581"/>
<text text-anchor="middle" x="666" y="-696.1" font-family="Times Roman,serif" font-size="11.00" fill="gray">JSON</text>
</g>
<g id="graph7" class="cluster"><title>cluster_\JCORE\TRANSPORT\HTTP</title>
<polyline fill="none" stroke="gray" points="631,-444 701,-444 "/>
<path fill="none" stroke="gray" d="M701,-444C707,-444 713,-450 713,-456"/>
<polyline fill="none" stroke="gray" points="713,-456 713,-561 "/>
<path fill="none" stroke="gray" d="M713,-561C713,-567 707,-573 701,-573"/>
<polyline fill="none" stroke="gray" points="701,-573 631,-573 "/>
<path fill="none" stroke="gray" d="M631,-573C625,-573 619,-567 619,-561"/>
<polyline fill="none" stroke="gray" points="619,-561 619,-456 "/>
<path fill="none" stroke="gray" d="M619,-456C619,-450 625,-444 631,-444"/>
<text text-anchor="middle" x="666" y="-559.1" font-family="Times Roman,serif" font-size="11.00" fill="gray">HTTP</text>
</g>
<g id="graph8" class="cluster"><title>cluster_\JCORE\TRANSPORT\SOA</title>
<polyline fill="none" stroke="gray" points="604,-307 728,-307 "/>
<path fill="none" stroke="gray" d="M728,-307C734,-307 740,-313 740,-319"/>
<polyline fill="none" stroke="gray" points="740,-319 740,-424 "/>
<path fill="none" stroke="gray" d="M740,-424C740,-430 734,-436 728,-436"/>
<polyline fill="none" stroke="gray" points="728,-436 604,-436 "/>
<path fill="none" stroke="gray" d="M604,-436C598,-436 592,-430 592,-424"/>
<polyline fill="none" stroke="gray" points="592,-424 592,-319 "/>
<path fill="none" stroke="gray" d="M592,-319C592,-313 598,-307 604,-307"/>
<text text-anchor="middle" x="666" y="-422.1" font-family="Times Roman,serif" font-size="11.00" fill="gray">SOA</text>
</g>
<g id="graph9" class="cluster"><title>cluster_\JCORE\TRANSPORT\XML</title>
<polyline fill="none" stroke="gray" points="643,-224 689,-224 "/>
<path fill="none" stroke="gray" d="M689,-224C695,-224 701,-230 701,-236"/>
<polyline fill="none" stroke="gray" points="701,-236 701,-287 "/>
<path fill="none" stroke="gray" d="M701,-287C701,-293 695,-299 689,-299"/>
<polyline fill="none" stroke="gray" points="689,-299 643,-299 "/>
<path fill="none" stroke="gray" d="M643,-299C637,-299 631,-293 631,-287"/>
<polyline fill="none" stroke="gray" points="631,-287 631,-236 "/>
<path fill="none" stroke="gray" d="M631,-236C631,-230 637,-224 643,-224"/>
<text text-anchor="middle" x="666" y="-285.1" font-family="Times Roman,serif" font-size="11.00" fill="gray">XML</text>
</g>
<g id="graph10" class="cluster"><title>cluster_\JCORE\CACHE</title>
<polyline fill="none" stroke="gray" points="167,-1877 738,-1877 "/>
<path fill="none" stroke="gray" d="M738,-1877C744,-1877 750,-1883 750,-1889"/>
<polyline fill="none" stroke="gray" points="750,-1889 750,-2264 "/>
<path fill="none" stroke="gray" d="M750,-2264C750,-2270 744,-2276 738,-2276"/>
<polyline fill="none" stroke="gray" points="738,-2276 167,-2276 "/>
<path fill="none" stroke="gray" d="M167,-2276C161,-2276 155,-2270 155,-2264"/>
<polyline fill="none" stroke="gray" points="155,-2264 155,-1889 "/>
<path fill="none" stroke="gray" d="M155,-1889C155,-1883 161,-1877 167,-1877"/>
<text text-anchor="middle" x="452.5" y="-2262.1" font-family="Times Roman,serif" font-size="11.00" fill="gray">CACHE</text>
</g>
<g id="graph11" class="cluster"><title>cluster_\JCORE\AUTH</title>
<polyline fill="none" stroke="gray" points="614,-832 942,-832 "/>
<path fill="none" stroke="gray" d="M942,-832C948,-832 954,-838 954,-844"/>
<polyline fill="none" stroke="gray" points="954,-844 954,-949 "/>
<path fill="none" stroke="gray" d="M954,-949C954,-955 948,-961 942,-961"/>
<polyline fill="none" stroke="gray" points="942,-961 614,-961 "/>
<path fill="none" stroke="gray" d="M614,-961C608,-961 602,-955 602,-949"/>
<polyline fill="none" stroke="gray" points="602,-949 602,-844 "/>
<path fill="none" stroke="gray" d="M602,-844C602,-838 608,-832 614,-832"/>
<text text-anchor="middle" x="778" y="-947.1" font-family="Times Roman,serif" font-size="11.00" fill="gray">AUTH</text>
</g>
<g id="graph12" class="cluster"><title>cluster_\JCORE\DATA</title>
<polyline fill="none" stroke="gray" points="593,-1396 972,-1396 "/>
<path fill="none" stroke="gray" d="M972,-1396C978,-1396 984,-1402 984,-1408"/>
<polyline fill="none" stroke="gray" points="984,-1408 984,-1857 "/>
<path fill="none" stroke="gray" d="M984,-1857C984,-1863 978,-1869 972,-1869"/>
<polyline fill="none" stroke="gray" points="972,-1869 593,-1869 "/>
<path fill="none" stroke="gray" d="M593,-1869C587,-1869 581,-1863 581,-1857"/>
<polyline fill="none" stroke="gray" points="581,-1857 581,-1408 "/>
<path fill="none" stroke="gray" d="M581,-1408C581,-1402 587,-1396 593,-1396"/>
<text text-anchor="middle" x="782.5" y="-1855.1" font-family="Times Roman,serif" font-size="11.00" fill="gray">DATA</text>
</g>
<g id="graph13" class="cluster"><title>cluster_\JCORE\DATA\API</title>
<polyline fill="none" stroke="gray" points="601,-1404 964,-1404 "/>
<path fill="none" stroke="gray" d="M964,-1404C970,-1404 976,-1410 976,-1416"/>
<polyline fill="none" stroke="gray" points="976,-1416 976,-1826 "/>
<path fill="none" stroke="gray" d="M976,-1826C976,-1832 970,-1838 964,-1838"/>
<polyline fill="none" stroke="gray" points="964,-1838 601,-1838 "/>
<path fill="none" stroke="gray" d="M601,-1838C595,-1838 589,-1832 589,-1826"/>
<polyline fill="none" stroke="gray" points="589,-1826 589,-1416 "/>
<path fill="none" stroke="gray" d="M589,-1416C589,-1410 595,-1404 601,-1404"/>
<text text-anchor="middle" x="782.5" y="-1824.1" font-family="Times Roman,serif" font-size="11.00" fill="gray">API</text>
</g>
<g id="graph14" class="cluster"><title>cluster_\JCORE\DATA\API\MySQL</title>
<polyline fill="none" stroke="gray" points="838,-1595 956,-1595 "/>
<path fill="none" stroke="gray" d="M956,-1595C962,-1595 968,-1601 968,-1607"/>
<polyline fill="none" stroke="gray" points="968,-1607 968,-1712 "/>
<path fill="none" stroke="gray" d="M968,-1712C968,-1718 962,-1724 956,-1724"/>
<polyline fill="none" stroke="gray" points="956,-1724 838,-1724 "/>
<path fill="none" stroke="gray" d="M838,-1724C832,-1724 826,-1718 826,-1712"/>
<polyline fill="none" stroke="gray" points="826,-1712 826,-1607 "/>
<path fill="none" stroke="gray" d="M826,-1607C826,-1601 832,-1595 838,-1595"/>
<text text-anchor="middle" x="897" y="-1710.1" font-family="Times Roman,serif" font-size="11.00" fill="gray">MySQL</text>
</g>
<g id="graph15" class="cluster"><title>cluster_\JCORE\DATA\API\REDIS</title>
<polyline fill="none" stroke="gray" points="842,-1512 952,-1512 "/>
<path fill="none" stroke="gray" d="M952,-1512C958,-1512 964,-1518 964,-1524"/>
<polyline fill="none" stroke="gray" points="964,-1524 964,-1575 "/>
<path fill="none" stroke="gray" d="M964,-1575C964,-1581 958,-1587 952,-1587"/>
<polyline fill="none" stroke="gray" points="952,-1587 842,-1587 "/>
<path fill="none" stroke="gray" d="M842,-1587C836,-1587 830,-1581 830,-1575"/>
<polyline fill="none" stroke="gray" points="830,-1575 830,-1524 "/>
<path fill="none" stroke="gray" d="M830,-1524C830,-1518 836,-1512 842,-1512"/>
<text text-anchor="middle" x="897" y="-1573.1" font-family="Times Roman,serif" font-size="11.00" fill="gray">REDIS</text>
</g>
<g id="graph16" class="cluster"><title>cluster_\JCORE\DATA\API\FILE</title>
<polyline fill="none" stroke="gray" points="849,-1732 945,-1732 "/>
<path fill="none" stroke="gray" d="M945,-1732C951,-1732 957,-1738 957,-1744"/>
<polyline fill="none" stroke="gray" points="957,-1744 957,-1795 "/>
<path fill="none" stroke="gray" d="M957,-1795C957,-1801 951,-1807 945,-1807"/>
<polyline fill="none" stroke="gray" points="945,-1807 849,-1807 "/>
<path fill="none" stroke="gray" d="M849,-1807C843,-1807 837,-1801 837,-1795"/>
<polyline fill="none" stroke="gray" points="837,-1795 837,-1744 "/>
<path fill="none" stroke="gray" d="M837,-1744C837,-1738 843,-1732 849,-1732"/>
<text text-anchor="middle" x="897" y="-1793.1" font-family="Times Roman,serif" font-size="11.00" fill="gray">FILE</text>
</g>
<g id="graph17" class="cluster"><title>cluster_\JCORE\DAO</title>
<polyline fill="none" stroke="gray" points="857,-1174 937,-1174 "/>
<path fill="none" stroke="gray" d="M937,-1174C943,-1174 949,-1180 949,-1186"/>
<polyline fill="none" stroke="gray" points="949,-1186 949,-1376 "/>
<path fill="none" stroke="gray" d="M949,-1376C949,-1382 943,-1388 937,-1388"/>
<polyline fill="none" stroke="gray" points="937,-1388 857,-1388 "/>
<path fill="none" stroke="gray" d="M857,-1388C851,-1388 845,-1382 845,-1376"/>
<polyline fill="none" stroke="gray" points="845,-1376 845,-1186 "/>
<path fill="none" stroke="gray" d="M845,-1186C845,-1180 851,-1174 857,-1174"/>
<text text-anchor="middle" x="897" y="-1374.1" font-family="Times Roman,serif" font-size="11.00" fill="gray">DAO</text>
</g>
<g id="graph18" class="cluster"><title>cluster_\JCORE\DAO\TREE</title>
<polyline fill="none" stroke="gray" points="865,-1282 929,-1282 "/>
<path fill="none" stroke="gray" d="M929,-1282C935,-1282 941,-1288 941,-1294"/>
<polyline fill="none" stroke="gray" points="941,-1294 941,-1345 "/>
<path fill="none" stroke="gray" d="M941,-1345C941,-1351 935,-1357 929,-1357"/>
<polyline fill="none" stroke="gray" points="929,-1357 865,-1357 "/>
<path fill="none" stroke="gray" d="M865,-1357C859,-1357 853,-1351 853,-1345"/>
<polyline fill="none" stroke="gray" points="853,-1345 853,-1294 "/>
<path fill="none" stroke="gray" d="M853,-1294C853,-1288 859,-1282 865,-1282"/>
<text text-anchor="middle" x="897" y="-1343.1" font-family="Times Roman,serif" font-size="11.00" fill="gray">TREE</text>
</g>
<g id="graph19" class="cluster"><title>cluster_\JCORE\L10N</title>
<polyline fill="none" stroke="gray" points="845,-1091 949,-1091 "/>
<path fill="none" stroke="gray" d="M949,-1091C955,-1091 961,-1097 961,-1103"/>
<polyline fill="none" stroke="gray" points="961,-1103 961,-1154 "/>
<path fill="none" stroke="gray" d="M961,-1154C961,-1160 955,-1166 949,-1166"/>
<polyline fill="none" stroke="gray" points="949,-1166 845,-1166 "/>
<path fill="none" stroke="gray" d="M845,-1166C839,-1166 833,-1160 833,-1154"/>
<polyline fill="none" stroke="gray" points="833,-1154 833,-1103 "/>
<path fill="none" stroke="gray" d="M833,-1103C833,-1097 839,-1091 845,-1091"/>
<text text-anchor="middle" x="897" y="-1152.1" font-family="Times Roman,serif" font-size="11.00" fill="gray">L10N</text>
</g>
<g id="graph20" class="cluster"><title>cluster_\JCORE\EXAMPLE</title>
<polyline fill="none" stroke="gray" points="864,-969 930,-969 "/>
<path fill="none" stroke="gray" d="M930,-969C936,-969 942,-975 942,-981"/>
<polyline fill="none" stroke="gray" points="942,-981 942,-1071 "/>
<path fill="none" stroke="gray" d="M942,-1071C942,-1077 936,-1083 930,-1083"/>
<polyline fill="none" stroke="gray" points="930,-1083 864,-1083 "/>
<path fill="none" stroke="gray" d="M864,-1083C858,-1083 852,-1077 852,-1071"/>
<polyline fill="none" stroke="gray" points="852,-1071 852,-981 "/>
<path fill="none" stroke="gray" d="M852,-981C852,-975 858,-969 864,-969"/>
<text text-anchor="middle" x="897" y="-1069.1" font-family="Times Roman,serif" font-size="11.00" fill="gray">EXAMPLE</text>
</g>
<g id="graph21" class="cluster"><title>cluster_\JCORE\EXAMPLE\EXT_REF</title>
<polyline fill="none" stroke="gray" points="872,-977 922,-977 "/>
<path fill="none" stroke="gray" d="M922,-977C928,-977 934,-983 934,-989"/>
<polyline fill="none" stroke="gray" points="934,-989 934,-1040 "/>
<path fill="none" stroke="gray" d="M934,-1040C934,-1046 928,-1052 922,-1052"/>
<polyline fill="none" stroke="gray" points="922,-1052 872,-1052 "/>
<path fill="none" stroke="gray" d="M872,-1052C866,-1052 860,-1046 860,-1040"/>
<polyline fill="none" stroke="gray" points="860,-1040 860,-989 "/>
<path fill="none" stroke="gray" d="M860,-989C860,-983 866,-977 872,-977"/>
<text text-anchor="middle" x="897" y="-1038.1" font-family="Times Roman,serif" font-size="11.00" fill="gray">EXT_REF</text>
</g>
<g id="graph22" class="cluster"><title>cluster_\JCORE\EXCEPTION</title>
<polyline fill="none" stroke="gray" points="838,-465 956,-465 "/>
<path fill="none" stroke="gray" d="M956,-465C962,-465 968,-471 968,-477"/>
<polyline fill="none" stroke="gray" points="968,-477 968,-636 "/>
<path fill="none" stroke="gray" d="M968,-636C968,-642 962,-648 956,-648"/>
<polyline fill="none" stroke="gray" points="956,-648 838,-648 "/>
<path fill="none" stroke="gray" d="M838,-648C832,-648 826,-642 826,-636"/>
<polyline fill="none" stroke="gray" points="826,-636 826,-477 "/>
<path fill="none" stroke="gray" d="M826,-477C826,-471 832,-465 838,-465"/>
<text text-anchor="middle" x="897" y="-634.1" font-family="Times Roman,serif" font-size="11.00" fill="gray">EXCEPTION</text>
</g>
<g id="graph23" class="cluster"><title>cluster_\JCORE\SERVICE</title>
<polyline fill="none" stroke="gray" points="841,-656 953,-656 "/>
<path fill="none" stroke="gray" d="M953,-656C959,-656 965,-662 965,-668"/>
<polyline fill="none" stroke="gray" points="965,-668 965,-812 "/>
<path fill="none" stroke="gray" d="M965,-812C965,-818 959,-824 953,-824"/>
<polyline fill="none" stroke="gray" points="953,-824 841,-824 "/>
<path fill="none" stroke="gray" d="M841,-824C835,-824 829,-818 829,-812"/>
<polyline fill="none" stroke="gray" points="829,-812 829,-668 "/>
<path fill="none" stroke="gray" d="M829,-668C829,-662 835,-656 841,-656"/>
<text text-anchor="middle" x="897" y="-810.1" font-family="Times Roman,serif" font-size="11.00" fill="gray">SERVICE</text>
</g>
<g id="graph24" class="cluster"><title>cluster_\JCORE\SERVICE\AUTH</title>
<polyline fill="none" stroke="gray" points="849,-664 945,-664 "/>
<path fill="none" stroke="gray" d="M945,-664C951,-664 957,-670 957,-676"/>
<polyline fill="none" stroke="gray" points="957,-676 957,-781 "/>
<path fill="none" stroke="gray" d="M957,-781C957,-787 951,-793 945,-793"/>
<polyline fill="none" stroke="gray" points="945,-793 849,-793 "/>
<path fill="none" stroke="gray" d="M849,-793C843,-793 837,-787 837,-781"/>
<polyline fill="none" stroke="gray" points="837,-781 837,-676 "/>
<path fill="none" stroke="gray" d="M837,-676C837,-670 843,-664 849,-664"/>
<text text-anchor="middle" x="897" y="-779.1" font-family="Times Roman,serif" font-size="11.00" fill="gray">AUTH</text>
</g>
<g id="graph25" class="cluster"><title>cluster_\JCORE\LOG</title>
<polyline fill="none" stroke="gray" points="872,-382 922,-382 "/>
<path fill="none" stroke="gray" d="M922,-382C928,-382 934,-388 934,-394"/>
<polyline fill="none" stroke="gray" points="934,-394 934,-445 "/>
<path fill="none" stroke="gray" d="M934,-445C934,-451 928,-457 922,-457"/>
<polyline fill="none" stroke="gray" points="922,-457 872,-457 "/>
<path fill="none" stroke="gray" d="M872,-457C866,-457 860,-451 860,-445"/>
<polyline fill="none" stroke="gray" points="860,-445 860,-394 "/>
<path fill="none" stroke="gray" d="M860,-394C860,-388 866,-382 872,-382"/>
<text text-anchor="middle" x="897" y="-443.1" font-family="Times Roman,serif" font-size="11.00" fill="gray">LOG</text>
</g>
<g id="graph26" class="cluster"><title>cluster_\JCORE\TEMPLATER</title>
<polyline fill="none" stroke="gray" points="862,-299 932,-299 "/>
<path fill="none" stroke="gray" d="M932,-299C938,-299 944,-305 944,-311"/>
<polyline fill="none" stroke="gray" points="944,-311 944,-362 "/>
<path fill="none" stroke="gray" d="M944,-362C944,-368 938,-374 932,-374"/>
<polyline fill="none" stroke="gray" points="932,-374 862,-374 "/>
<path fill="none" stroke="gray" d="M862,-374C856,-374 850,-368 850,-362"/>
<polyline fill="none" stroke="gray" points="850,-362 850,-311 "/>
<path fill="none" stroke="gray" d="M850,-311C850,-305 856,-299 862,-299"/>
<text text-anchor="middle" x="897" y="-360.1" font-family="Times Roman,serif" font-size="11.00" fill="gray">TEMPLATER</text>
</g>
<g id="graph27" class="cluster"><title>cluster_\JCORE\LOAD</title>
<polyline fill="none" stroke="gray" points="818,-108 976,-108 "/>
<path fill="none" stroke="gray" d="M976,-108C982,-108 988,-114 988,-120"/>
<polyline fill="none" stroke="gray" points="988,-120 988,-279 "/>
<path fill="none" stroke="gray" d="M988,-279C988,-285 982,-291 976,-291"/>
<polyline fill="none" stroke="gray" points="976,-291 818,-291 "/>
<path fill="none" stroke="gray" d="M818,-291C812,-291 806,-285 806,-279"/>
<polyline fill="none" stroke="gray" points="806,-279 806,-120 "/>
<path fill="none" stroke="gray" d="M806,-120C806,-114 812,-108 818,-108"/>
<text text-anchor="middle" x="897" y="-277.1" font-family="Times Roman,serif" font-size="11.00" fill="gray">LOAD</text>
</g>
<!-- \\JCORE\\TRANSPORT\\REST\\REST_API -->
<g id="node5" class="node"><title>\\JCORE\\TRANSPORT\\REST\\REST_API</title>
<polygon fill="none" stroke="black" points="708,-762 624,-762 624,-726 708,-726 708,-762"/>
<text text-anchor="start" x="632" y="-749.433" font-family="Courier,monospace" font-size="11.00">«abstract»</text>
<text text-anchor="start" x="638.5" y="-736.233" font-family="Courier,monospace" font-size="11.00">REST_API</text>
</g>
<!-- \\JCORE\\TRANSPORT\\TRANSPORT_INTERFACE -->
<g id="node19" class="node"><title>\\JCORE\\TRANSPORT\\TRANSPORT_INTERFACE</title>
<polygon fill="none" stroke="black" points="331,-625 187,-625 187,-589 331,-589 331,-625"/>
<text text-anchor="middle" x="259" y="-604.1" font-family="Courier,monospace" font-size="11.00">TRANSPORT_INTERFACE</text>
</g>
<!-- \\JCORE\\TRANSPORT\\REST\\REST_API&#45;&gt;\\JCORE\\TRANSPORT\\TRANSPORT_INTERFACE -->
<g id="edge30" class="edge"><title>\\JCORE\\TRANSPORT\\REST\\REST_API&#45;&gt;\\JCORE\\TRANSPORT\\TRANSPORT_INTERFACE</title>
<path fill="none" stroke="black" stroke-dasharray="1,5" d="M623.365,-734.375C608.998,-729.776 593.462,-723.204 581,-714 543.175,-686.064 559.065,-651.908 518,-629 464.686,-599.259 395.393,-594.807 341.896,-597.222"/>
<polygon fill="none" stroke="black" points="341.555,-593.735 331.758,-597.77 341.933,-600.725 341.555,-593.735"/>
</g>
<!-- \\JCORE\\TRANSPORT\\JSON\\JSON -->
<g id="node7" class="node"><title>\\JCORE\\TRANSPORT\\JSON\\JSON</title>
<polygon fill="none" stroke="black" points="693,-679 639,-679 639,-643 693,-643 693,-679"/>
<text text-anchor="middle" x="666" y="-658.1" font-family="Courier,monospace" font-size="11.00">JSON</text>
</g>
<!-- \\JCORE\\TRANSPORT\\JSON\\JSONRPC_1_0_API -->
<g id="node8" class="node"><title>\\JCORE\\TRANSPORT\\JSON\\JSONRPC_1_0_API</title>
<polygon fill="none" stroke="black" points="725,-625 607,-625 607,-589 725,-589 725,-625"/>
<text text-anchor="middle" x="666" y="-604.1" font-family="Courier,monospace" font-size="11.00">JSONRPC_1_0_API</text>
</g>
<!-- \\JCORE\\TRANSPORT\\JSON\\JSONRPC_1_0_API&#45;&gt;\\JCORE\\TRANSPORT\\TRANSPORT_INTERFACE -->
<g id="edge36" class="edge"><title>\\JCORE\\TRANSPORT\\JSON\\JSONRPC_1_0_API&#45;&gt;\\JCORE\\TRANSPORT\\TRANSPORT_INTERFACE</title>
<path fill="none" stroke="black" stroke-dasharray="1,5" d="M606.819,-607C537.084,-607 420.768,-607 342.037,-607"/>
<polygon fill="none" stroke="black" points="341.667,-603.5 331.667,-607 341.667,-610.5 341.667,-603.5"/>
</g>
<!-- \\JCORE\\TRANSPORT\\HTTP\\HTTP_API -->
<g id="node10" class="node"><title>\\JCORE\\TRANSPORT\\HTTP\\HTTP_API</title>
<polygon fill="none" stroke="black" points="701,-542 631,-542 631,-506 701,-506 701,-542"/>
<text text-anchor="middle" x="666" y="-521.1" font-family="Courier,monospace" font-size="11.00">HTTP_API</text>
</g>
<!-- \\JCORE\\TRANSPORT\\HTTP\\HTTP_API&#45;&gt;\\JCORE\\TRANSPORT\\TRANSPORT_INTERFACE -->
<g id="edge46" class="edge"><title>\\JCORE\\TRANSPORT\\HTTP\\HTTP_API&#45;&gt;\\JCORE\\TRANSPORT\\TRANSPORT_INTERFACE</title>
<path fill="none" stroke="black" stroke-dasharray="1,5" d="M630.843,-542.092C601.485,-556.308 558.108,-575.276 518,-585 460.13,-599.03 393.106,-604.441 341.739,-606.392"/>
<polygon fill="none" stroke="black" points="341.556,-602.896 331.682,-606.737 341.797,-609.892 341.556,-602.896"/>
</g>
<!-- \\JCORE\\TRANSPORT\\HTTP\\HTTP_UTIL -->
<g id="node11" class="node"><title>\\JCORE\\TRANSPORT\\HTTP\\HTTP_UTIL</title>
<polygon fill="none" stroke="black" points="704,-488 628,-488 628,-452 704,-452 704,-488"/>
<text text-anchor="middle" x="666" y="-467.1" font-family="Courier,monospace" font-size="11.00">HTTP_UTIL</text>
</g>
<!-- \\JCORE\\TRANSPORT\\SOA\\SERVICE_VALIDATOR -->
<g id="node13" class="node"><title>\\JCORE\\TRANSPORT\\SOA\\SERVICE_VALIDATOR</title>
<polygon fill="none" stroke="black" points="731,-405 601,-405 601,-369 731,-369 731,-405"/>
<text text-anchor="middle" x="666" y="-384.1" font-family="Courier,monospace" font-size="11.00">SERVICE_VALIDATOR</text>
</g>
<!-- \\JCORE\\TRANSPORT\\SOA\\SOA_BASE -->
<g id="node14" class="node"><title>\\JCORE\\TRANSPORT\\SOA\\SOA_BASE</title>
<polygon fill="none" stroke="black" points="708,-351 624,-351 624,-315 708,-315 708,-351"/>
<text text-anchor="start" x="632" y="-338.433" font-family="Courier,monospace" font-size="11.00">«abstract»</text>
<text text-anchor="start" x="638.5" y="-325.233" font-family="Courier,monospace" font-size="11.00">SOA_BASE</text>
</g>
<!-- \\JCORE\\TRANSPORT\\XML\\SOAP -->
<g id="node16" class="node"><title>\\JCORE\\TRANSPORT\\XML\\SOAP</title>
<polygon fill="none" stroke="black" points="693,-268 639,-268 639,-232 693,-232 693,-268"/>
<text text-anchor="middle" x="666" y="-247.1" font-family="Courier,monospace" font-size="11.00">SOAP</text>
</g>
<!-- \\JCORE\\TRANSPORT\\XML\\SOAP&#45;&gt;\\JCORE\\TRANSPORT\\TRANSPORT_INTERFACE -->
<g id="edge52" class="edge"><title>\\JCORE\\TRANSPORT\\XML\\SOAP&#45;&gt;\\JCORE\\TRANSPORT\\TRANSPORT_INTERFACE</title>
<path fill="none" stroke="black" stroke-dasharray="1,5" d="M638.939,-260.183C619.869,-268.749 595.279,-282.852 581,-303 506.745,-407.779 614.729,-500.526 518,-585 470.544,-626.444 397.814,-629.226 341.494,-623.19"/>
<polygon fill="none" stroke="black" points="341.877,-619.711 331.536,-622.014 341.056,-626.663 341.877,-619.711"/>
</g>
<!-- \\JCORE\\TRANSPORT\\SERIALIZATION -->
<g id="node17" class="node"><title>\\JCORE\\TRANSPORT\\SERIALIZATION</title>
<polygon fill="none" stroke="black" points="718,-214 614,-214 614,-178 718,-178 718,-214"/>
<text text-anchor="middle" x="666" y="-193.1" font-family="Courier,monospace" font-size="11.00">SERIALIZATION</text>
</g>
<!-- \\JCORE\\TRANSPORT\\SERIALIZATION_STATIC -->
<g id="node18" class="node"><title>\\JCORE\\TRANSPORT\\SERIALIZATION_STATIC</title>
<polygon fill="none" stroke="black" points="742,-160 590,-160 590,-124 742,-124 742,-160"/>
<text text-anchor="middle" x="666" y="-139.1" font-family="Courier,monospace" font-size="11.00">SERIALIZATION_STATIC</text>
</g>
<!-- \\JCORE\\CACHE\\URL_API -->
<g id="node21" class="node"><title>\\JCORE\\CACHE\\URL_API</title>
<polygon fill="none" stroke="black" points="698,-1975 634,-1975 634,-1939 698,-1939 698,-1975"/>
<text text-anchor="middle" x="666" y="-1954.1" font-family="Courier,monospace" font-size="11.00">URL_API</text>
</g>
<!-- \\JCORE\\CACHE\\URL_API&#45;&gt;\\JCORE\\TRANSPORT\\TRANSPORT_INTERFACE -->
<g id="edge28" class="edge"><title>\\JCORE\\CACHE\\URL_API&#45;&gt;\\JCORE\\TRANSPORT\\TRANSPORT_INTERFACE</title>
<path fill="none" stroke="black" stroke-dasharray="1,5" d="M633.841,-1955.47C615.337,-1952.77 593.369,-1946.08 581,-1930 492.747,-1815.3 618.459,-733.179 518,-629 473.748,-583.11 399.466,-581.167 341.772,-588.644"/>
<polygon fill="none" stroke="black" points="340.982,-585.22 331.569,-590.085 341.961,-592.152 340.982,-585.22"/>
</g>
<!-- \\JCORE\\CACHE\\FILECACHE_API -->
<g id="node22" class="node"><title>\\JCORE\\CACHE\\FILECACHE_API</title>
<polygon fill="none" stroke="black" points="718,-2137 614,-2137 614,-2101 718,-2101 718,-2137"/>
<text text-anchor="middle" x="666" y="-2116.1" font-family="Courier,monospace" font-size="11.00">FILECACHE_API</text>
</g>
<!-- \\JCORE\\CACHE\\CACHE_COMMON_API_INTERFACE -->
<g id="node27" class="node"><title>\\JCORE\\CACHE\\CACHE_COMMON_API_INTERFACE</title>
<polygon fill="none" stroke="black" points="355,-2191 163,-2191 163,-2155 355,-2155 355,-2191"/>
<text text-anchor="middle" x="259" y="-2170.1" font-family="Courier,monospace" font-size="11.00">CACHE_COMMON_API_INTERFACE</text>
</g>
<!-- \\JCORE\\CACHE\\FILECACHE_API&#45;&gt;\\JCORE\\CACHE\\CACHE_COMMON_API_INTERFACE -->
<g id="edge34" class="edge"><title>\\JCORE\\CACHE\\FILECACHE_API&#45;&gt;\\JCORE\\CACHE\\CACHE_COMMON_API_INTERFACE</title>
<path fill="none" stroke="black" stroke-dasharray="1,5" d="M613.625,-2125.95C551.138,-2134.24 445.097,-2148.31 365.213,-2158.91"/>
<polygon fill="none" stroke="black" points="364.565,-2155.46 355.112,-2160.25 365.485,-2162.4 364.565,-2155.46"/>
</g>
<!-- \\JCORE\\CACHE\\MEMCACHED -->
<g id="node23" class="node"><title>\\JCORE\\CACHE\\MEMCACHED</title>
<polygon fill="none" stroke="black" points="704,-2245 628,-2245 628,-2209 704,-2209 704,-2245"/>
<text text-anchor="middle" x="666" y="-2224.1" font-family="Courier,monospace" font-size="11.00">MEMCACHED</text>
</g>
<!-- \\JCORE\\CACHE\\MEMCACHED&#45;&gt;\\JCORE\\CACHE\\CACHE_COMMON_API_INTERFACE -->
<g id="edge40" class="edge"><title>\\JCORE\\CACHE\\MEMCACHED&#45;&gt;\\JCORE\\CACHE\\CACHE_COMMON_API_INTERFACE</title>
<path fill="none" stroke="black" stroke-dasharray="1,5" d="M627.343,-2221.87C567.792,-2213.97 451.496,-2198.54 365.439,-2187.12"/>
<polygon fill="none" stroke="black" points="365.738,-2183.63 355.365,-2185.79 364.817,-2190.57 365.738,-2183.63"/>
</g>
<!-- \\JCORE\\CACHE\\REDIS -->
<g id="node24" class="node"><title>\\JCORE\\CACHE\\REDIS</title>
<polygon fill="none" stroke="black" points="693,-1921 639,-1921 639,-1885 693,-1885 693,-1921"/>
<text text-anchor="middle" x="666" y="-1900.1" font-family="Courier,monospace" font-size="11.00">REDIS</text>
</g>
<!-- \\JCORE\\CACHE\\JCORE\\CACHE\\STATIC_API_INTERFACE -->
<g id="node84" class="node"><title>\\JCORE\\CACHE\\JCORE\\CACHE\\STATIC_API_INTERFACE</title>
<ellipse fill="none" stroke="black" cx="259" cy="-19" rx="258.801" ry="19.0919"/>
<text text-anchor="middle" x="259" y="-15.9" font-family="Times Roman,serif" font-size="14.00" fill="gray">\JCORE\CACHE\JCORE\CACHE\STATIC_API_INTERFACE</text>
</g>
<!-- \\JCORE\\CACHE\\REDIS&#45;&gt;\\JCORE\\CACHE\\JCORE\\CACHE\\STATIC_API_INTERFACE -->
<g id="edge44" class="edge"><title>\\JCORE\\CACHE\\REDIS&#45;&gt;\\JCORE\\CACHE\\JCORE\\CACHE\\STATIC_API_INTERFACE</title>
<path fill="none" stroke="black" stroke-dasharray="1,5" d="M638.939,-1891.63C619.066,-1881.7 593.45,-1865.21 581,-1842 490.075,-1672.5 631.513,-267.284 518,-112 490.222,-74.0006 445.465,-51.4752 400.912,-38.1415"/>
<polygon fill="none" stroke="black" points="401.69,-34.7242 391.114,-35.3523 399.774,-41.4567 401.69,-34.7242"/>
</g>
<!-- \\JCORE\\CACHE\\CACHE_API2 -->
<g id="node25" class="node"><title>\\JCORE\\CACHE\\CACHE_API2</title>
<polygon fill="none" stroke="black" points="708,-2191 624,-2191 624,-2155 708,-2155 708,-2191"/>
<text text-anchor="middle" x="666" y="-2170.1" font-family="Courier,monospace" font-size="11.00">CACHE_API2</text>
</g>
<!-- \\JCORE\\CACHE\\CACHE_API2&#45;&gt;\\JCORE\\CACHE\\CACHE_COMMON_API_INTERFACE -->
<g id="edge54" class="edge"><title>\\JCORE\\CACHE\\CACHE_API2&#45;&gt;\\JCORE\\CACHE\\CACHE_COMMON_API_INTERFACE</title>
<path fill="none" stroke="black" stroke-dasharray="1,5" d="M623.977,-2173C563.475,-2173 449.826,-2173 365.355,-2173"/>
<polygon fill="none" stroke="black" points="365.204,-2169.5 355.204,-2173 365.204,-2176.5 365.204,-2169.5"/>
</g>
<!-- \\JCORE\\CACHE\\SESSION -->
<g id="node26" class="node"><title>\\JCORE\\CACHE\\SESSION</title>
<polygon fill="none" stroke="black" points="698,-2083 634,-2083 634,-2047 698,-2047 698,-2083"/>
<text text-anchor="middle" x="666" y="-2062.1" font-family="Courier,monospace" font-size="11.00">SESSION</text>
</g>
<!-- \\JCORE\\CACHE\\PHP_SESSION -->
<g id="node28" class="node"><title>\\JCORE\\CACHE\\PHP_SESSION</title>
<polygon fill="none" stroke="black" points="304,-2083 214,-2083 214,-2047 304,-2047 304,-2083"/>
<text text-anchor="middle" x="259" y="-2062.1" font-family="Courier,monospace" font-size="11.00">PHP_SESSION</text>
</g>
<!-- \\JCORE\\CACHE\\SESSION&#45;&gt;\\JCORE\\CACHE\\PHP_SESSION -->
<g id="edge58" class="edge"><title>\\JCORE\\CACHE\\SESSION&#45;&gt;\\JCORE\\CACHE\\PHP_SESSION</title>
<path fill="none" stroke="black" stroke-dasharray="1,5" d="M633.723,-2065C564.526,-2065 401.187,-2065 314.804,-2065"/>
<polygon fill="none" stroke="black" points="314.662,-2061.5 304.662,-2065 314.662,-2068.5 314.662,-2061.5"/>
</g>
<!-- \\JCORE\\CACHE\\STATIC_API_INTERFACE -->
<g id="node29" class="node"><title>\\JCORE\\CACHE\\STATIC_API_INTERFACE</title>
<polygon fill="none" stroke="black" points="742,-2029 590,-2029 590,-1993 742,-1993 742,-2029"/>
<text text-anchor="middle" x="666" y="-2008.1" font-family="Courier,monospace" font-size="11.00">STATIC_API_INTERFACE</text>
</g>
<!-- \\JCORE\\JCORE_SINGLETON_INTERFACE -->
<g id="node73" class="node"><title>\\JCORE\\JCORE_SINGLETON_INTERFACE</title>
<polygon fill="none" stroke="black" points="351,-1869 167,-1869 167,-1833 351,-1833 351,-1869"/>
<text text-anchor="middle" x="259" y="-1848.1" font-family="Courier,monospace" font-size="11.00">JCORE_SINGLETON_INTERFACE</text>
</g>
<!-- \\JCORE\\CACHE\\STATIC_API_INTERFACE&#45;&gt;\\JCORE\\JCORE_SINGLETON_INTERFACE -->
<g id="edge68" class="edge"><title>\\JCORE\\CACHE\\STATIC_API_INTERFACE&#45;&gt;\\JCORE\\JCORE_SINGLETON_INTERFACE</title>
<path fill="none" stroke="black" d="M594.327,-1992.78C589.593,-1990.22 585.09,-1987.31 581,-1984 536.93,-1948.28 565.768,-1903.59 518,-1873 472.31,-1843.74 412.406,-1837.11 361.719,-1838.31"/>
<polygon fill="none" stroke="black" points="361.586,-1834.81 351.711,-1838.65 361.824,-1841.81 361.586,-1834.81"/>
</g>
<!-- \\JCORE\\AUTH\\AUTH_HARNESS -->
<g id="node31" class="node"><title>\\JCORE\\AUTH\\AUTH_HARNESS</title>
<polygon fill="none" stroke="black" points="946,-930 848,-930 848,-894 946,-894 946,-930"/>
<text text-anchor="middle" x="897" y="-909.1" font-family="Courier,monospace" font-size="11.00">AUTH_HARNESS</text>
</g>
<!-- \\JCORE\\AUTH\\IP_WHITELIST -->
<g id="node32" class="node"><title>\\JCORE\\AUTH\\IP_WHITELIST</title>
<polygon fill="none" stroke="black" points="946,-876 848,-876 848,-840 946,-840 946,-876"/>
<text text-anchor="middle" x="897" y="-855.1" font-family="Courier,monospace" font-size="11.00">IP_WHITELIST</text>
</g>
<!-- \\JCORE\\AUTH\\AUTH_INTERFACE -->
<g id="node33" class="node"><title>\\JCORE\\AUTH\\AUTH_INTERFACE</title>
<polygon fill="none" stroke="black" points="721,-876 611,-876 611,-840 721,-840 721,-876"/>
<text text-anchor="middle" x="666" y="-855.1" font-family="Courier,monospace" font-size="11.00">AUTH_INTERFACE</text>
</g>
<!-- \\JCORE\\AUTH\\IP_WHITELIST&#45;&gt;\\JCORE\\AUTH\\AUTH_INTERFACE -->
<g id="edge66" class="edge"><title>\\JCORE\\AUTH\\IP_WHITELIST&#45;&gt;\\JCORE\\AUTH\\AUTH_INTERFACE</title>
<path fill="none" stroke="black" stroke-dasharray="1,5" d="M847.728,-858C813.936,-858 768.721,-858 731.846,-858"/>
<polygon fill="none" stroke="black" points="731.683,-854.5 721.683,-858 731.683,-861.5 731.683,-854.5"/>
</g>
<!-- \\JCORE\\DATA\\API\\MySQL\\MySQL_connector -->
<g id="node37" class="node"><title>\\JCORE\\DATA\\API\\MySQL\\MySQL_connector</title>
<polygon fill="none" stroke="black" points="956,-1693 838,-1693 838,-1657 956,-1657 956,-1693"/>
<text text-anchor="middle" x="897" y="-1672.1" font-family="Courier,monospace" font-size="11.00">MySQL_connector</text>
</g>
<!-- \\JCORE\\DATA\\API\\DATA_API_INTERFACE -->
<g id="node45" class="node"><title>\\JCORE\\DATA\\API\\DATA_API_INTERFACE</title>
<polygon fill="none" stroke="black" points="735,-1693 597,-1693 597,-1657 735,-1657 735,-1693"/>
<text text-anchor="middle" x="666" y="-1672.1" font-family="Courier,monospace" font-size="11.00">DATA_API_INTERFACE</text>
</g>
<!-- \\JCORE\\DATA\\API\\MySQL\\MySQL_connector&#45;&gt;\\JCORE\\DATA\\API\\DATA_API_INTERFACE -->
<g id="edge32" class="edge"><title>\\JCORE\\DATA\\API\\MySQL\\MySQL_connector&#45;&gt;\\JCORE\\DATA\\API\\DATA_API_INTERFACE</title>
<path fill="none" stroke="black" stroke-dasharray="1,5" d="M837.812,-1675C809.708,-1675 775.716,-1675 745.41,-1675"/>
<polygon fill="none" stroke="black" points="745.287,-1671.5 735.287,-1675 745.287,-1678.5 745.287,-1671.5"/>
</g>
<!-- \\JCORE\\DATA\\API\\MySQL\\MySQL_TABLE_META -->
<g id="node38" class="node"><title>\\JCORE\\DATA\\API\\MySQL\\MySQL_TABLE_META</title>
<polygon fill="none" stroke="black" points="959,-1639 835,-1639 835,-1603 959,-1603 959,-1639"/>
<text text-anchor="middle" x="897" y="-1618.1" font-family="Courier,monospace" font-size="11.00">MySQL_TABLE_META</text>
</g>
<!-- \\JCORE\\DATA\\API\\REDIS\\REDIS_connector -->
<g id="node40" class="node"><title>\\JCORE\\DATA\\API\\REDIS\\REDIS_connector</title>
<polygon fill="none" stroke="black" points="956,-1556 838,-1556 838,-1520 956,-1520 956,-1556"/>
<text text-anchor="middle" x="897" y="-1535.1" font-family="Courier,monospace" font-size="11.00">REDIS_connector</text>
</g>
<!-- \\JCORE\\DATA\\API\\REDIS\\REDIS_connector&#45;&gt;\\JCORE\\DATA\\API\\DATA_API_INTERFACE -->
<g id="edge38" class="edge"><title>\\JCORE\\DATA\\API\\REDIS\\REDIS_connector&#45;&gt;\\JCORE\\DATA\\API\\DATA_API_INTERFACE</title>
<path fill="none" stroke="black" stroke-dasharray="1,5" d="M865.775,-1556.05C848.185,-1566.25 825.83,-1579.28 806,-1591 771.653,-1611.31 732.749,-1634.68 704.685,-1651.6"/>
<polygon fill="none" stroke="black" points="702.727,-1648.7 695.973,-1656.86 706.343,-1654.69 702.727,-1648.7"/>
</g>
<!-- \\JCORE\\DATA\\API\\FILE\\CSV_connector -->
<g id="node42" class="node"><title>\\JCORE\\DATA\\API\\FILE\\CSV_connector</title>
<polygon fill="none" stroke="black" points="949,-1776 845,-1776 845,-1740 949,-1740 949,-1776"/>
<text text-anchor="middle" x="897" y="-1755.1" font-family="Courier,monospace" font-size="11.00">CSV_connector</text>
</g>
<!-- \\JCORE\\DATA\\API\\FILE\\CSV_connector&#45;&gt;\\JCORE\\DATA\\API\\DATA_API_INTERFACE -->
<g id="edge64" class="edge"><title>\\JCORE\\DATA\\API\\FILE\\CSV_connector&#45;&gt;\\JCORE\\DATA\\API\\DATA_API_INTERFACE</title>
<path fill="none" stroke="black" stroke-dasharray="1,5" d="M844.895,-1741.25C832.137,-1737.04 818.545,-1732.44 806,-1728 778.084,-1718.12 747.284,-1706.54 721.697,-1696.72"/>
<polygon fill="none" stroke="black" points="722.752,-1693.38 712.162,-1693.05 720.239,-1699.91 722.752,-1693.38"/>
</g>
<!-- \\JCORE\\DATA\\API\\DATA_API -->
<g id="node43" class="node"><title>\\JCORE\\DATA\\API\\DATA_API</title>
<polygon fill="none" stroke="black" points="932,-1502 862,-1502 862,-1466 932,-1466 932,-1502"/>
<text text-anchor="middle" x="897" y="-1481.1" font-family="Courier,monospace" font-size="11.00">DATA_API</text>
</g>
<!-- \\JCORE\\DATA\\API\\DATA_UTIL_API -->
<g id="node44" class="node"><title>\\JCORE\\DATA\\API\\DATA_UTIL_API</title>
<polygon fill="none" stroke="black" points="949,-1448 845,-1448 845,-1412 949,-1412 949,-1448"/>
<text text-anchor="middle" x="897" y="-1427.1" font-family="Courier,monospace" font-size="11.00">DATA_UTIL_API</text>
</g>
<!-- \\JCORE\\DAO\\TREE\\DAO_TREE -->
<g id="node48" class="node"><title>\\JCORE\\DAO\\TREE\\DAO_TREE</title>
<polygon fill="none" stroke="black" points="932,-1326 862,-1326 862,-1290 932,-1290 932,-1326"/>
<text text-anchor="middle" x="897" y="-1305.1" font-family="Courier,monospace" font-size="11.00">DAO_TREE</text>
</g>
<!-- \\JCORE\\DAO\\DAO -->
<g id="node49" class="node"><title>\\JCORE\\DAO\\DAO</title>
<polygon fill="none" stroke="black" points="924,-1272 870,-1272 870,-1236 924,-1236 924,-1272"/>
<text text-anchor="middle" x="897" y="-1251.1" font-family="Courier,monospace" font-size="11.00">DAO</text>
</g>
<!-- \\JCORE\\DAO\\SESSION -->
<g id="node50" class="node"><title>\\JCORE\\DAO\\SESSION</title>
<polygon fill="none" stroke="black" points="929,-1218 865,-1218 865,-1182 929,-1182 929,-1218"/>
<text text-anchor="middle" x="897" y="-1197.1" font-family="Courier,monospace" font-size="11.00">SESSION</text>
</g>
<!-- \\JCORE\\L10N\\PO_TRANSLATION -->
<g id="node52" class="node"><title>\\JCORE\\L10N\\PO_TRANSLATION</title>
<polygon fill="none" stroke="black" points="952,-1135 842,-1135 842,-1099 952,-1099 952,-1135"/>
<text text-anchor="middle" x="897" y="-1114.1" font-family="Courier,monospace" font-size="11.00">PO_TRANSLATION</text>
</g>
<!-- \\JCORE\\EXAMPLE\\EXT_REF\\XCache -->
<g id="node55" class="node"><title>\\JCORE\\EXAMPLE\\EXT_REF\\XCache</title>
<polygon fill="none" stroke="black" points="925,-1021 869,-1021 869,-985 925,-985 925,-1021"/>
<text text-anchor="middle" x="897" y="-1000.1" font-family="Courier,monospace" font-size="11.00">XCache</text>
</g>
<!-- \\JCORE\\EXCEPTION\\DATA_Exception -->
<g id="node57" class="node"><title>\\JCORE\\EXCEPTION\\DATA_Exception</title>
<polygon fill="none" stroke="black" points="952,-617 842,-617 842,-581 952,-581 952,-617"/>
<text text-anchor="middle" x="897" y="-596.1" font-family="Courier,monospace" font-size="11.00">DATA_Exception</text>
</g>
<!-- \\Exception -->
<g id="node82" class="node"><title>\\Exception</title>
<ellipse fill="none" stroke="black" cx="666" cy="-19" rx="53.033" ry="19.0919"/>
<text text-anchor="middle" x="666" y="-15.9" font-family="Times Roman,serif" font-size="14.00" fill="gray">\Exception</text>
</g>
<!-- \\JCORE\\EXCEPTION\\DATA_Exception&#45;&gt;\\Exception -->
<g id="edge42" class="edge"><title>\\JCORE\\EXCEPTION\\DATA_Exception&#45;&gt;\\Exception</title>
<path fill="none" stroke="black" d="M841.065,-593.13C827.806,-589.113 814.936,-582.572 806,-572 673.045,-414.711 835.457,-299.388 750,-112 737.622,-84.8585 714.408,-60.113 695.515,-42.9826"/>
<polygon fill="none" stroke="black" points="697.807,-40.3376 687.992,-36.3493 693.178,-45.5881 697.807,-40.3376"/>
</g>
<!-- \\JCORE\\EXCEPTION\\networkException -->
<g id="node58" class="node"><title>\\JCORE\\EXCEPTION\\networkException</title>
<polygon fill="none" stroke="black" points="959,-563 835,-563 835,-527 959,-527 959,-563"/>
<text text-anchor="middle" x="897" y="-542.1" font-family="Courier,monospace" font-size="11.00">networkException</text>
</g>
<!-- \\JCORE\\EXCEPTION\\networkException&#45;&gt;\\Exception -->
<g id="edge56" class="edge"><title>\\JCORE\\EXCEPTION\\networkException&#45;&gt;\\Exception</title>
<path fill="none" stroke="black" d="M834.13,-536.634C823.436,-532.562 813.409,-526.625 806,-518 687.306,-379.829 826.898,-277.125 750,-112 737.407,-84.9579 714.207,-60.2054 695.375,-43.0469"/>
<polygon fill="none" stroke="black" points="697.684,-40.4162 687.879,-36.4011 693.04,-45.6541 697.684,-40.4162"/>
</g>
<!-- \\JCORE\\EXCEPTION\\ERROR -->
<g id="node59" class="node"><title>\\JCORE\\EXCEPTION\\ERROR</title>
<polygon fill="none" stroke="black" points="924,-509 870,-509 870,-473 924,-473 924,-509"/>
<text text-anchor="middle" x="897" y="-488.1" font-family="Courier,monospace" font-size="11.00">ERROR</text>
</g>
<!-- \\JCORE\\SERVICE\\AUTH\\LOGIN_SERVICE -->
<g id="node62" class="node"><title>\\JCORE\\SERVICE\\AUTH\\LOGIN_SERVICE</title>
<polygon fill="none" stroke="black" points="949,-762 845,-762 845,-726 949,-726 949,-762"/>
<text text-anchor="middle" x="897" y="-741.1" font-family="Courier,monospace" font-size="11.00">LOGIN_SERVICE</text>
</g>
<!-- \\JCORE\\SERVICE\\AUTH\\LOGIN_SERVICE&#45;&gt;\\JCORE\\TRANSPORT\\SOA\\SOA_BASE -->
<g id="edge48" class="edge"><title>\\JCORE\\SERVICE\\AUTH\\LOGIN_SERVICE&#45;&gt;\\JCORE\\TRANSPORT\\SOA\\SOA_BASE</title>
<path fill="none" stroke="black" d="M844.63,-738.873C830.23,-734.958 815.877,-728.284 806,-717 700.221,-596.147 854.408,-482.039 750,-360 741.909,-350.543 730.492,-344.369 718.676,-340.347"/>
<polygon fill="none" stroke="black" points="719.301,-336.883 708.721,-337.45 717.345,-343.605 719.301,-336.883"/>
</g>
<!-- \\JCORE\\SERVICE\\AUTH\\LOGIN_SERVICE&#45;&gt;\\JCORE\\AUTH\\AUTH_INTERFACE -->
<g id="edge50" class="edge"><title>\\JCORE\\SERVICE\\AUTH\\LOGIN_SERVICE&#45;&gt;\\JCORE\\AUTH\\AUTH_INTERFACE</title>
<path fill="none" stroke="black" stroke-dasharray="1,5" d="M860.397,-762.064C820.219,-781.892 755.64,-813.762 712.051,-835.273"/>
<polygon fill="none" stroke="black" points="710.232,-832.268 702.813,-839.832 713.33,-838.546 710.232,-832.268"/>
</g>
<!-- \\JCORE\\SERVICE\\AUTH\\PAGE_FILTER -->
<g id="node63" class="node"><title>\\JCORE\\SERVICE\\AUTH\\PAGE_FILTER</title>
<polygon fill="none" stroke="black" points="942,-708 852,-708 852,-672 942,-672 942,-708"/>
<text text-anchor="middle" x="897" y="-687.1" font-family="Courier,monospace" font-size="11.00">PAGE_FILTER</text>
</g>
<!-- \\JCORE\\SERVICE\\AUTH\\PAGE_FILTER&#45;&gt;\\JCORE\\TRANSPORT\\SOA\\SOA_BASE -->
<g id="edge60" class="edge"><title>\\JCORE\\SERVICE\\AUTH\\PAGE_FILTER&#45;&gt;\\JCORE\\TRANSPORT\\SOA\\SOA_BASE</title>
<path fill="none" stroke="black" d="M851.201,-680.496C834.682,-674.851 817.337,-665.952 806,-652 722.668,-549.445 837.593,-458.94 750,-360 741.75,-350.681 730.275,-344.558 718.454,-340.54"/>
<polygon fill="none" stroke="black" points="719.086,-337.079 708.506,-337.637 717.125,-343.799 719.086,-337.079"/>
</g>
<!-- \\JCORE\\SERVICE\\AUTH\\PAGE_FILTER&#45;&gt;\\JCORE\\AUTH\\AUTH_INTERFACE -->
<g id="edge62" class="edge"><title>\\JCORE\\SERVICE\\AUTH\\PAGE_FILTER&#45;&gt;\\JCORE\\AUTH\\AUTH_INTERFACE</title>
<path fill="none" stroke="black" stroke-dasharray="1,5" d="M851.238,-697.25C835.846,-701.266 819.238,-707.464 806,-717 770.784,-742.367 780.422,-766.046 750,-797 736.483,-810.754 719.59,-823.667 704.506,-834.04"/>
<polygon fill="none" stroke="black" points="702.221,-831.358 695.872,-839.84 706.125,-837.168 702.221,-831.358"/>
</g>
<!-- \\JCORE\\LOG\\LOGGER -->
<g id="node65" class="node"><title>\\JCORE\\LOG\\LOGGER</title>
<polygon fill="none" stroke="black" points="925,-426 869,-426 869,-390 925,-390 925,-426"/>
<text text-anchor="middle" x="897" y="-405.1" font-family="Courier,monospace" font-size="11.00">LOGGER</text>
</g>
<!-- \\JCORE\\TEMPLATER\\TEMPLATER -->
<g id="node67" class="node"><title>\\JCORE\\TEMPLATER\\TEMPLATER</title>
<polygon fill="none" stroke="black" points="935,-343 859,-343 859,-307 935,-307 935,-343"/>
<text text-anchor="middle" x="897" y="-322.1" font-family="Courier,monospace" font-size="11.00">TEMPLATER</text>
</g>
<!-- \\JCORE\\LOAD\\ComposerAutoloaderInit -->
<g id="node69" class="node"><title>\\JCORE\\LOAD\\ComposerAutoloaderInit</title>
<polygon fill="none" stroke="black" points="979,-260 815,-260 815,-224 979,-224 979,-260"/>
<text text-anchor="middle" x="897" y="-239.1" font-family="Courier,monospace" font-size="11.00">ComposerAutoloaderInit</text>
</g>
<!-- \\JCORE\\LOAD\\CONFIG_MANAGER -->
<g id="node70" class="node"><title>\\JCORE\\LOAD\\CONFIG_MANAGER</title>
<polygon fill="none" stroke="black" points="952,-206 842,-206 842,-170 952,-170 952,-206"/>
<text text-anchor="middle" x="897" y="-185.1" font-family="Courier,monospace" font-size="11.00">CONFIG_MANAGER</text>
</g>
<!-- \\JCORE\\LOAD\\CONFIG_MANAGER_INI -->
<g id="node71" class="node"><title>\\JCORE\\LOAD\\CONFIG_MANAGER_INI</title>
<polygon fill="none" stroke="black" points="966,-152 828,-152 828,-116 966,-116 966,-152"/>
<text text-anchor="middle" x="897" y="-131.1" font-family="Courier,monospace" font-size="11.00">CONFIG_MANAGER_INI</text>
</g>
<!-- \\JCORE\\JCORE_SINGLETON -->
<g id="node72" class="node"><title>\\JCORE\\JCORE_SINGLETON</title>
<polygon fill="none" stroke="black" points="956,-98 838,-98 838,-62 956,-62 956,-98"/>
<text text-anchor="start" x="863" y="-85.4333" font-family="Courier,monospace" font-size="11.00">«abstract»</text>
<text text-anchor="start" x="846" y="-72.2333" font-family="Courier,monospace" font-size="11.00">JCORE_SINGLETON</text>
</g>
</g>
</svg>
