<?xml version="1.0" encoding="UTF-8" standalone="no"?>
<!DOCTYPE svg PUBLIC "-//W3C//DTD SVG 1.1//EN"
 "http://www.w3.org/Graphics/SVG/1.1/DTD/svg11.dtd">
<!-- Generated by graphviz version 2.26.0 (20091210.2329)
 -->
<!-- Title: G Pages: 1 -->
<svg width="752pt" height="2921pt"
 viewBox="0.00 0.00 752.00 2921.00" xmlns="http://www.w3.org/2000/svg" xmlns:xlink="http://www.w3.org/1999/xlink">
<g id="graph1" class="graph" transform="scale(1 1) rotate(0) translate(4 2917)">
<title>G</title>
<polygon fill="white" stroke="white" points="-4,5 -4,-2917 749,-2917 749,5 -4,5"/>
<g id="graph2" class="cluster"><title>cluster_Global</title>
<polyline fill="none" stroke="gray" points="20,-46 724,-46 "/>
<path fill="none" stroke="gray" d="M724,-46C730,-46 736,-52 736,-58"/>
<polyline fill="none" stroke="gray" points="736,-58 736,-2893 "/>
<path fill="none" stroke="gray" d="M736,-2893C736,-2899 730,-2905 724,-2905"/>
<polyline fill="none" stroke="gray" points="724,-2905 20,-2905 "/>
<path fill="none" stroke="gray" d="M20,-2905C14,-2905 8,-2899 8,-2893"/>
<polyline fill="none" stroke="gray" points="8,-2893 8,-58 "/>
<path fill="none" stroke="gray" d="M8,-58C8,-52 14,-46 20,-46"/>
<text text-anchor="middle" x="372" y="-2891.1" font-family="Times Roman,serif" font-size="11.00" fill="gray">Global</text>
</g>
<g id="graph3" class="cluster"><title>cluster_\JCORE</title>
<polyline fill="none" stroke="gray" points="28,-54 716,-54 "/>
<path fill="none" stroke="gray" d="M716,-54C722,-54 728,-60 728,-66"/>
<polyline fill="none" stroke="gray" points="728,-66 728,-2862 "/>
<path fill="none" stroke="gray" d="M728,-2862C728,-2868 722,-2874 716,-2874"/>
<polyline fill="none" stroke="gray" points="716,-2874 28,-2874 "/>
<path fill="none" stroke="gray" d="M28,-2874C22,-2874 16,-2868 16,-2862"/>
<polyline fill="none" stroke="gray" points="16,-2862 16,-66 "/>
<path fill="none" stroke="gray" d="M16,-66C16,-60 22,-54 28,-54"/>
<text text-anchor="middle" x="372" y="-2860.1" font-family="Times Roman,serif" font-size="11.00" fill="gray">JCORE</text>
</g>
<g id="graph4" class="cluster"><title>cluster_\JCORE\CACHE</title>
<polyline fill="none" stroke="gray" points="286,-2278 677,-2278 "/>
<path fill="none" stroke="gray" d="M677,-2278C683,-2278 689,-2284 689,-2290"/>
<polyline fill="none" stroke="gray" points="689,-2290 689,-2787 "/>
<path fill="none" stroke="gray" d="M689,-2787C689,-2793 683,-2799 677,-2799"/>
<polyline fill="none" stroke="gray" points="677,-2799 286,-2799 "/>
<path fill="none" stroke="gray" d="M286,-2799C280,-2799 274,-2793 274,-2787"/>
<polyline fill="none" stroke="gray" points="274,-2787 274,-2290 "/>
<path fill="none" stroke="gray" d="M274,-2290C274,-2284 280,-2278 286,-2278"/>
<text text-anchor="middle" x="481.5" y="-2785.1" font-family="Times Roman,serif" font-size="11.00" fill="gray">CACHE</text>
</g>
<g id="graph5" class="cluster"><title>cluster_\JCORE\CACHE\EXAMPLE</title>
<polyline fill="none" stroke="gray" points="596,-2654 662,-2654 "/>
<path fill="none" stroke="gray" d="M662,-2654C668,-2654 674,-2660 674,-2666"/>
<polyline fill="none" stroke="gray" points="674,-2666 674,-2756 "/>
<path fill="none" stroke="gray" d="M674,-2756C674,-2762 668,-2768 662,-2768"/>
<polyline fill="none" stroke="gray" points="662,-2768 596,-2768 "/>
<path fill="none" stroke="gray" d="M596,-2768C590,-2768 584,-2762 584,-2756"/>
<polyline fill="none" stroke="gray" points="584,-2756 584,-2666 "/>
<path fill="none" stroke="gray" d="M584,-2666C584,-2660 590,-2654 596,-2654"/>
<text text-anchor="middle" x="629" y="-2754.1" font-family="Times Roman,serif" font-size="11.00" fill="gray">EXAMPLE</text>
</g>
<g id="graph6" class="cluster"><title>cluster_\JCORE\CACHE\EXAMPLE\EXT_REF</title>
<polyline fill="none" stroke="gray" points="604,-2662 654,-2662 "/>
<path fill="none" stroke="gray" d="M654,-2662C660,-2662 666,-2668 666,-2674"/>
<polyline fill="none" stroke="gray" points="666,-2674 666,-2725 "/>
<path fill="none" stroke="gray" d="M666,-2725C666,-2731 660,-2737 654,-2737"/>
<polyline fill="none" stroke="gray" points="654,-2737 604,-2737 "/>
<path fill="none" stroke="gray" d="M604,-2737C598,-2737 592,-2731 592,-2725"/>
<polyline fill="none" stroke="gray" points="592,-2725 592,-2674 "/>
<path fill="none" stroke="gray" d="M592,-2674C592,-2668 598,-2662 604,-2662"/>
<text text-anchor="middle" x="629" y="-2723.1" font-family="Times Roman,serif" font-size="11.00" fill="gray">EXT_REF</text>
</g>
<g id="graph7" class="cluster"><title>cluster_\JCORE\DAO</title>
<polyline fill="none" stroke="gray" points="589,-2056 669,-2056 "/>
<path fill="none" stroke="gray" d="M669,-2056C675,-2056 681,-2062 681,-2068"/>
<polyline fill="none" stroke="gray" points="681,-2068 681,-2258 "/>
<path fill="none" stroke="gray" d="M681,-2258C681,-2264 675,-2270 669,-2270"/>
<polyline fill="none" stroke="gray" points="669,-2270 589,-2270 "/>
<path fill="none" stroke="gray" d="M589,-2270C583,-2270 577,-2264 577,-2258"/>
<polyline fill="none" stroke="gray" points="577,-2258 577,-2068 "/>
<path fill="none" stroke="gray" d="M577,-2068C577,-2062 583,-2056 589,-2056"/>
<text text-anchor="middle" x="629" y="-2256.1" font-family="Times Roman,serif" font-size="11.00" fill="gray">DAO</text>
</g>
<g id="graph8" class="cluster"><title>cluster_\JCORE\DAO\TREE</title>
<polyline fill="none" stroke="gray" points="597,-2164 661,-2164 "/>
<path fill="none" stroke="gray" d="M661,-2164C667,-2164 673,-2170 673,-2176"/>
<polyline fill="none" stroke="gray" points="673,-2176 673,-2227 "/>
<path fill="none" stroke="gray" d="M673,-2227C673,-2233 667,-2239 661,-2239"/>
<polyline fill="none" stroke="gray" points="661,-2239 597,-2239 "/>
<path fill="none" stroke="gray" d="M597,-2239C591,-2239 585,-2233 585,-2227"/>
<polyline fill="none" stroke="gray" points="585,-2227 585,-2176 "/>
<path fill="none" stroke="gray" d="M585,-2176C585,-2170 591,-2164 597,-2164"/>
<text text-anchor="middle" x="629" y="-2225.1" font-family="Times Roman,serif" font-size="11.00" fill="gray">TREE</text>
</g>
<g id="graph9" class="cluster"><title>cluster_\JCORE\TRANSPORT</title>
<polyline fill="none" stroke="gray" points="309,-1257 701,-1257 "/>
<path fill="none" stroke="gray" d="M701,-1257C707,-1257 713,-1263 713,-1269"/>
<polyline fill="none" stroke="gray" points="713,-1269 713,-2036 "/>
<path fill="none" stroke="gray" d="M713,-2036C713,-2042 707,-2048 701,-2048"/>
<polyline fill="none" stroke="gray" points="701,-2048 309,-2048 "/>
<path fill="none" stroke="gray" d="M309,-2048C303,-2048 297,-2042 297,-2036"/>
<polyline fill="none" stroke="gray" points="297,-2036 297,-1269 "/>
<path fill="none" stroke="gray" d="M297,-1269C297,-1263 303,-1257 309,-1257"/>
<text text-anchor="middle" x="505" y="-2034.1" font-family="Times Roman,serif" font-size="11.00" fill="gray">TRANSPORT</text>
</g>
<g id="graph10" class="cluster"><title>cluster_\JCORE\TRANSPORT\XML</title>
<polyline fill="none" stroke="gray" points="606,-1942 652,-1942 "/>
<path fill="none" stroke="gray" d="M652,-1942C658,-1942 664,-1948 664,-1954"/>
<polyline fill="none" stroke="gray" points="664,-1954 664,-2005 "/>
<path fill="none" stroke="gray" d="M664,-2005C664,-2011 658,-2017 652,-2017"/>
<polyline fill="none" stroke="gray" points="652,-2017 606,-2017 "/>
<path fill="none" stroke="gray" d="M606,-2017C600,-2017 594,-2011 594,-2005"/>
<polyline fill="none" stroke="gray" points="594,-2005 594,-1954 "/>
<path fill="none" stroke="gray" d="M594,-1954C594,-1948 600,-1942 606,-1942"/>
<text text-anchor="middle" x="629" y="-2003.1" font-family="Times Roman,serif" font-size="11.00" fill="gray">XML</text>
</g>
<g id="graph11" class="cluster"><title>cluster_\JCORE\TRANSPORT\URL</title>
<polyline fill="none" stroke="gray" points="601,-1859 657,-1859 "/>
<path fill="none" stroke="gray" d="M657,-1859C663,-1859 669,-1865 669,-1871"/>
<polyline fill="none" stroke="gray" points="669,-1871 669,-1922 "/>
<path fill="none" stroke="gray" d="M669,-1922C669,-1928 663,-1934 657,-1934"/>
<polyline fill="none" stroke="gray" points="657,-1934 601,-1934 "/>
<path fill="none" stroke="gray" d="M601,-1934C595,-1934 589,-1928 589,-1922"/>
<polyline fill="none" stroke="gray" points="589,-1922 589,-1871 "/>
<path fill="none" stroke="gray" d="M589,-1871C589,-1865 595,-1859 601,-1859"/>
<text text-anchor="middle" x="629" y="-1920.1" font-family="Times Roman,serif" font-size="11.00" fill="gray">URL</text>
</g>
<g id="graph12" class="cluster"><title>cluster_\JCORE\TRANSPORT\REST</title>
<polyline fill="none" stroke="gray" points="590,-1776 668,-1776 "/>
<path fill="none" stroke="gray" d="M668,-1776C674,-1776 680,-1782 680,-1788"/>
<polyline fill="none" stroke="gray" points="680,-1788 680,-1839 "/>
<path fill="none" stroke="gray" d="M680,-1839C680,-1845 674,-1851 668,-1851"/>
<polyline fill="none" stroke="gray" points="668,-1851 590,-1851 "/>
<path fill="none" stroke="gray" d="M590,-1851C584,-1851 578,-1845 578,-1839"/>
<polyline fill="none" stroke="gray" points="578,-1839 578,-1788 "/>
<path fill="none" stroke="gray" d="M578,-1788C578,-1782 584,-1776 590,-1776"/>
<text text-anchor="middle" x="629" y="-1837.1" font-family="Times Roman,serif" font-size="11.00" fill="gray">REST</text>
</g>
<g id="graph13" class="cluster"><title>cluster_\JCORE\TRANSPORT\SOA</title>
<polyline fill="none" stroke="gray" points="567,-1639 691,-1639 "/>
<path fill="none" stroke="gray" d="M691,-1639C697,-1639 703,-1645 703,-1651"/>
<polyline fill="none" stroke="gray" points="703,-1651 703,-1756 "/>
<path fill="none" stroke="gray" d="M703,-1756C703,-1762 697,-1768 691,-1768"/>
<polyline fill="none" stroke="gray" points="691,-1768 567,-1768 "/>
<path fill="none" stroke="gray" d="M567,-1768C561,-1768 555,-1762 555,-1756"/>
<polyline fill="none" stroke="gray" points="555,-1756 555,-1651 "/>
<path fill="none" stroke="gray" d="M555,-1651C555,-1645 561,-1639 567,-1639"/>
<text text-anchor="middle" x="629" y="-1754.1" font-family="Times Roman,serif" font-size="11.00" fill="gray">SOA</text>
</g>
<g id="graph14" class="cluster"><title>cluster_\JCORE\TRANSPORT\HTTP</title>
<polyline fill="none" stroke="gray" points="594,-1502 664,-1502 "/>
<path fill="none" stroke="gray" d="M664,-1502C670,-1502 676,-1508 676,-1514"/>
<polyline fill="none" stroke="gray" points="676,-1514 676,-1619 "/>
<path fill="none" stroke="gray" d="M676,-1619C676,-1625 670,-1631 664,-1631"/>
<polyline fill="none" stroke="gray" points="664,-1631 594,-1631 "/>
<path fill="none" stroke="gray" d="M594,-1631C588,-1631 582,-1625 582,-1619"/>
<polyline fill="none" stroke="gray" points="582,-1619 582,-1514 "/>
<path fill="none" stroke="gray" d="M582,-1514C582,-1508 588,-1502 594,-1502"/>
<text text-anchor="middle" x="629" y="-1617.1" font-family="Times Roman,serif" font-size="11.00" fill="gray">HTTP</text>
</g>
<g id="graph15" class="cluster"><title>cluster_\JCORE\TRANSPORT\JSON</title>
<polyline fill="none" stroke="gray" points="574,-1365 684,-1365 "/>
<path fill="none" stroke="gray" d="M684,-1365C690,-1365 696,-1371 696,-1377"/>
<polyline fill="none" stroke="gray" points="696,-1377 696,-1482 "/>
<path fill="none" stroke="gray" d="M696,-1482C696,-1488 690,-1494 684,-1494"/>
<polyline fill="none" stroke="gray" points="684,-1494 574,-1494 "/>
<path fill="none" stroke="gray" d="M574,-1494C568,-1494 562,-1488 562,-1482"/>
<polyline fill="none" stroke="gray" points="562,-1482 562,-1377 "/>
<path fill="none" stroke="gray" d="M562,-1377C562,-1371 568,-1365 574,-1365"/>
<text text-anchor="middle" x="629" y="-1480.1" font-family="Times Roman,serif" font-size="11.00" fill="gray">JSON</text>
</g>
<g id="graph16" class="cluster"><title>cluster_\JCORE\DATA</title>
<polyline fill="none" stroke="gray" points="305,-776 704,-776 "/>
<path fill="none" stroke="gray" d="M704,-776C710,-776 716,-782 716,-788"/>
<polyline fill="none" stroke="gray" points="716,-788 716,-1237 "/>
<path fill="none" stroke="gray" d="M716,-1237C716,-1243 710,-1249 704,-1249"/>
<polyline fill="none" stroke="gray" points="704,-1249 305,-1249 "/>
<path fill="none" stroke="gray" d="M305,-1249C299,-1249 293,-1243 293,-1237"/>
<polyline fill="none" stroke="gray" points="293,-1237 293,-788 "/>
<path fill="none" stroke="gray" d="M293,-788C293,-782 299,-776 305,-776"/>
<text text-anchor="middle" x="504.5" y="-1235.1" font-family="Times Roman,serif" font-size="11.00" fill="gray">DATA</text>
</g>
<g id="graph17" class="cluster"><title>cluster_\JCORE\DATA\API</title>
<polyline fill="none" stroke="gray" points="313,-784 696,-784 "/>
<path fill="none" stroke="gray" d="M696,-784C702,-784 708,-790 708,-796"/>
<polyline fill="none" stroke="gray" points="708,-796 708,-1206 "/>
<path fill="none" stroke="gray" d="M708,-1206C708,-1212 702,-1218 696,-1218"/>
<polyline fill="none" stroke="gray" points="696,-1218 313,-1218 "/>
<path fill="none" stroke="gray" d="M313,-1218C307,-1218 301,-1212 301,-1206"/>
<polyline fill="none" stroke="gray" points="301,-1206 301,-796 "/>
<path fill="none" stroke="gray" d="M301,-796C301,-790 307,-784 313,-784"/>
<text text-anchor="middle" x="504.5" y="-1204.1" font-family="Times Roman,serif" font-size="11.00" fill="gray">API</text>
</g>
<g id="graph18" class="cluster"><title>cluster_\JCORE\DATA\API\REDIS</title>
<polyline fill="none" stroke="gray" points="574,-1029 684,-1029 "/>
<path fill="none" stroke="gray" d="M684,-1029C690,-1029 696,-1035 696,-1041"/>
<polyline fill="none" stroke="gray" points="696,-1041 696,-1092 "/>
<path fill="none" stroke="gray" d="M696,-1092C696,-1098 690,-1104 684,-1104"/>
<polyline fill="none" stroke="gray" points="684,-1104 574,-1104 "/>
<path fill="none" stroke="gray" d="M574,-1104C568,-1104 562,-1098 562,-1092"/>
<polyline fill="none" stroke="gray" points="562,-1092 562,-1041 "/>
<path fill="none" stroke="gray" d="M562,-1041C562,-1035 568,-1029 574,-1029"/>
<text text-anchor="middle" x="629" y="-1090.1" font-family="Times Roman,serif" font-size="11.00" fill="gray">REDIS</text>
</g>
<g id="graph19" class="cluster"><title>cluster_\JCORE\DATA\API\MySQL</title>
<polyline fill="none" stroke="gray" points="570,-892 688,-892 "/>
<path fill="none" stroke="gray" d="M688,-892C694,-892 700,-898 700,-904"/>
<polyline fill="none" stroke="gray" points="700,-904 700,-1009 "/>
<path fill="none" stroke="gray" d="M700,-1009C700,-1015 694,-1021 688,-1021"/>
<polyline fill="none" stroke="gray" points="688,-1021 570,-1021 "/>
<path fill="none" stroke="gray" d="M570,-1021C564,-1021 558,-1015 558,-1009"/>
<polyline fill="none" stroke="gray" points="558,-1009 558,-904 "/>
<path fill="none" stroke="gray" d="M558,-904C558,-898 564,-892 570,-892"/>
<text text-anchor="middle" x="629" y="-1007.1" font-family="Times Roman,serif" font-size="11.00" fill="gray">MySQL</text>
</g>
<g id="graph20" class="cluster"><title>cluster_\JCORE\DATA\API\FILE</title>
<polyline fill="none" stroke="gray" points="581,-1112 677,-1112 "/>
<path fill="none" stroke="gray" d="M677,-1112C683,-1112 689,-1118 689,-1124"/>
<polyline fill="none" stroke="gray" points="689,-1124 689,-1175 "/>
<path fill="none" stroke="gray" d="M689,-1175C689,-1181 683,-1187 677,-1187"/>
<polyline fill="none" stroke="gray" points="677,-1187 581,-1187 "/>
<path fill="none" stroke="gray" d="M581,-1187C575,-1187 569,-1181 569,-1175"/>
<polyline fill="none" stroke="gray" points="569,-1175 569,-1124 "/>
<path fill="none" stroke="gray" d="M569,-1124C569,-1118 575,-1112 581,-1112"/>
<text text-anchor="middle" x="629" y="-1173.1" font-family="Times Roman,serif" font-size="11.00" fill="gray">FILE</text>
</g>
<g id="graph21" class="cluster"><title>cluster_\JCORE\EXCEPTION</title>
<polyline fill="none" stroke="gray" points="570,-585 688,-585 "/>
<path fill="none" stroke="gray" d="M688,-585C694,-585 700,-591 700,-597"/>
<polyline fill="none" stroke="gray" points="700,-597 700,-756 "/>
<path fill="none" stroke="gray" d="M700,-756C700,-762 694,-768 688,-768"/>
<polyline fill="none" stroke="gray" points="688,-768 570,-768 "/>
<path fill="none" stroke="gray" d="M570,-768C564,-768 558,-762 558,-756"/>
<polyline fill="none" stroke="gray" points="558,-756 558,-597 "/>
<path fill="none" stroke="gray" d="M558,-597C558,-591 564,-585 570,-585"/>
<text text-anchor="middle" x="629" y="-754.1" font-family="Times Roman,serif" font-size="11.00" fill="gray">EXCEPTION</text>
</g>
<g id="graph22" class="cluster"><title>cluster_\JCORE\TEMPLATER</title>
<polyline fill="none" stroke="gray" points="594,-502 664,-502 "/>
<path fill="none" stroke="gray" d="M664,-502C670,-502 676,-508 676,-514"/>
<polyline fill="none" stroke="gray" points="676,-514 676,-565 "/>
<path fill="none" stroke="gray" d="M676,-565C676,-571 670,-577 664,-577"/>
<polyline fill="none" stroke="gray" points="664,-577 594,-577 "/>
<path fill="none" stroke="gray" d="M594,-577C588,-577 582,-571 582,-565"/>
<polyline fill="none" stroke="gray" points="582,-565 582,-514 "/>
<path fill="none" stroke="gray" d="M582,-514C582,-508 588,-502 594,-502"/>
<text text-anchor="middle" x="629" y="-563.1" font-family="Times Roman,serif" font-size="11.00" fill="gray">TEMPLATER</text>
</g>
<g id="graph23" class="cluster"><title>cluster_\JCORE\L10N</title>
<polyline fill="none" stroke="gray" points="577,-419 681,-419 "/>
<path fill="none" stroke="gray" d="M681,-419C687,-419 693,-425 693,-431"/>
<polyline fill="none" stroke="gray" points="693,-431 693,-482 "/>
<path fill="none" stroke="gray" d="M693,-482C693,-488 687,-494 681,-494"/>
<polyline fill="none" stroke="gray" points="681,-494 577,-494 "/>
<path fill="none" stroke="gray" d="M577,-494C571,-494 565,-488 565,-482"/>
<polyline fill="none" stroke="gray" points="565,-482 565,-431 "/>
<path fill="none" stroke="gray" d="M565,-431C565,-425 571,-419 577,-419"/>
<text text-anchor="middle" x="629" y="-480.1" font-family="Times Roman,serif" font-size="11.00" fill="gray">L10N</text>
</g>
<g id="graph24" class="cluster"><title>cluster_\JCORE\LOAD</title>
<polyline fill="none" stroke="gray" points="550,-282 708,-282 "/>
<path fill="none" stroke="gray" d="M708,-282C714,-282 720,-288 720,-294"/>
<polyline fill="none" stroke="gray" points="720,-294 720,-399 "/>
<path fill="none" stroke="gray" d="M720,-399C720,-405 714,-411 708,-411"/>
<polyline fill="none" stroke="gray" points="708,-411 550,-411 "/>
<path fill="none" stroke="gray" d="M550,-411C544,-411 538,-405 538,-399"/>
<polyline fill="none" stroke="gray" points="538,-399 538,-294 "/>
<path fill="none" stroke="gray" d="M538,-294C538,-288 544,-282 550,-282"/>
<text text-anchor="middle" x="629" y="-397.1" font-family="Times Roman,serif" font-size="11.00" fill="gray">LOAD</text>
</g>
<g id="graph25" class="cluster"><title>cluster_\JCORE\AUTH</title>
<polyline fill="none" stroke="gray" points="326,-145 674,-145 "/>
<path fill="none" stroke="gray" d="M674,-145C680,-145 686,-151 686,-157"/>
<polyline fill="none" stroke="gray" points="686,-157 686,-262 "/>
<path fill="none" stroke="gray" d="M686,-262C686,-268 680,-274 674,-274"/>
<polyline fill="none" stroke="gray" points="674,-274 326,-274 "/>
<path fill="none" stroke="gray" d="M326,-274C320,-274 314,-268 314,-262"/>
<polyline fill="none" stroke="gray" points="314,-262 314,-157 "/>
<path fill="none" stroke="gray" d="M314,-157C314,-151 320,-145 326,-145"/>
<text text-anchor="middle" x="500" y="-260.1" font-family="Times Roman,serif" font-size="11.00" fill="gray">AUTH</text>
</g>
<g id="graph26" class="cluster"><title>cluster_\JCORE\LOG</title>
<polyline fill="none" stroke="gray" points="604,-62 654,-62 "/>
<path fill="none" stroke="gray" d="M654,-62C660,-62 666,-68 666,-74"/>
<polyline fill="none" stroke="gray" points="666,-74 666,-125 "/>
<path fill="none" stroke="gray" d="M666,-125C666,-131 660,-137 654,-137"/>
<polyline fill="none" stroke="gray" points="654,-137 604,-137 "/>
<path fill="none" stroke="gray" d="M604,-137C598,-137 592,-131 592,-125"/>
<polyline fill="none" stroke="gray" points="592,-125 592,-74 "/>
<path fill="none" stroke="gray" d="M592,-74C592,-68 598,-62 604,-62"/>
<text text-anchor="middle" x="629" y="-123.1" font-family="Times Roman,serif" font-size="11.00" fill="gray">LOG</text>
</g>
<!-- \\JCORE\\CACHE\\EXAMPLE\\EXT_REF\\XCache -->
<g id="node6" class="node"><title>\\JCORE\\CACHE\\EXAMPLE\\EXT_REF\\XCache</title>
<polygon fill="none" stroke="black" points="657,-2706 601,-2706 601,-2670 657,-2670 657,-2706"/>
<text text-anchor="middle" x="629" y="-2685.1" font-family="Courier,monospace" font-size="11.00">XCache</text>
</g>
<!-- \\JCORE\\CACHE\\XCACHE_static -->
<g id="node7" class="node"><title>\\JCORE\\CACHE\\XCACHE_static</title>
<polygon fill="none" stroke="black" points="681,-2646 577,-2646 577,-2610 681,-2610 681,-2646"/>
<text text-anchor="middle" x="629" y="-2625.1" font-family="Courier,monospace" font-size="11.00">XCACHE_static</text>
</g>
<!-- \\JCORE\\CACHE\\STATIC_API_INTERFACE -->
<g id="node14" class="node"><title>\\JCORE\\CACHE\\STATIC_API_INTERFACE</title>
<polygon fill="none" stroke="black" points="454,-2430 302,-2430 302,-2394 454,-2394 454,-2430"/>
<text text-anchor="middle" x="378" y="-2409.1" font-family="Courier,monospace" font-size="11.00">STATIC_API_INTERFACE</text>
</g>
<!-- \\JCORE\\CACHE\\XCACHE_static&#45;&gt;\\JCORE\\CACHE\\STATIC_API_INTERFACE -->
<g id="edge29" class="edge"><title>\\JCORE\\CACHE\\XCACHE_static&#45;&gt;\\JCORE\\CACHE\\STATIC_API_INTERFACE</title>
<path fill="none" stroke="black" stroke-dasharray="1,5" d="M576.696,-2619.62C563.115,-2615.62 549.177,-2609.71 538,-2601 493.996,-2566.7 510.049,-2535.59 474,-2493 455.878,-2471.59 431.731,-2451.25 412.189,-2436.3"/>
<polygon fill="none" stroke="black" points="414.223,-2433.45 404.127,-2430.24 410.017,-2439.05 414.223,-2433.45"/>
</g>
<!-- \\JCORE\\JCORE_SINGLETON -->
<g id="node70" class="node"><title>\\JCORE\\JCORE_SINGLETON</title>
<polygon fill="none" stroke="black" points="437,-2843 319,-2843 319,-2807 437,-2807 437,-2843"/>
<text text-anchor="start" x="344" y="-2830.43" font-family="Courier,monospace" font-size="11.00">«abstract»</text>
<text text-anchor="start" x="327" y="-2817.23" font-family="Courier,monospace" font-size="11.00">JCORE_SINGLETON</text>
</g>
<!-- \\JCORE\\CACHE\\XCACHE_static&#45;&gt;\\JCORE\\JCORE_SINGLETON -->
<g id="edge27" class="edge"><title>\\JCORE\\CACHE\\XCACHE_static&#45;&gt;\\JCORE\\JCORE_SINGLETON</title>
<path fill="none" stroke="black" d="M576.874,-2637.09C562.983,-2641.55 548.842,-2648.16 538,-2658 485.828,-2705.33 528.319,-2758.15 474,-2803 466.237,-2809.41 456.968,-2814.03 447.295,-2817.36"/>
<polygon fill="none" stroke="black" points="446.115,-2814.06 437.528,-2820.26 448.111,-2820.77 446.115,-2814.06"/>
</g>
<!-- \\JCORE\\CACHE\\MEMCACHED -->
<g id="node8" class="node"><title>\\JCORE\\CACHE\\MEMCACHED</title>
<polygon fill="none" stroke="black" points="667,-2592 591,-2592 591,-2556 667,-2556 667,-2592"/>
<text text-anchor="middle" x="629" y="-2571.1" font-family="Courier,monospace" font-size="11.00">MEMCACHED</text>
</g>
<!-- \\JCORE\\CACHE\\CACHE_COMMON_API_INTERFACE -->
<g id="node16" class="node"><title>\\JCORE\\CACHE\\CACHE_COMMON_API_INTERFACE</title>
<polygon fill="none" stroke="black" points="474,-2538 282,-2538 282,-2502 474,-2502 474,-2538"/>
<text text-anchor="middle" x="378" y="-2517.1" font-family="Courier,monospace" font-size="11.00">CACHE_COMMON_API_INTERFACE</text>
</g>
<!-- \\JCORE\\CACHE\\MEMCACHED&#45;&gt;\\JCORE\\CACHE\\CACHE_COMMON_API_INTERFACE -->
<g id="edge31" class="edge"><title>\\JCORE\\CACHE\\MEMCACHED&#45;&gt;\\JCORE\\CACHE\\CACHE_COMMON_API_INTERFACE</title>
<path fill="none" stroke="black" stroke-dasharray="1,5" d="M590.331,-2565.68C558.695,-2558.87 512.62,-2548.96 471.469,-2540.11"/>
<polygon fill="none" stroke="black" points="472.189,-2536.68 461.677,-2538 470.717,-2543.53 472.189,-2536.68"/>
</g>
<!-- \\JCORE\\CACHE\\CACHE_API2 -->
<g id="node9" class="node"><title>\\JCORE\\CACHE\\CACHE_API2</title>
<polygon fill="none" stroke="black" points="671,-2538 587,-2538 587,-2502 671,-2502 671,-2538"/>
<text text-anchor="middle" x="629" y="-2517.1" font-family="Courier,monospace" font-size="11.00">CACHE_API2</text>
</g>
<!-- \\JCORE\\CACHE\\CACHE_API2&#45;&gt;\\JCORE\\CACHE\\CACHE_COMMON_API_INTERFACE -->
<g id="edge35" class="edge"><title>\\JCORE\\CACHE\\CACHE_API2&#45;&gt;\\JCORE\\CACHE\\CACHE_COMMON_API_INTERFACE</title>
<path fill="none" stroke="black" stroke-dasharray="1,5" d="M586.988,-2520C558.86,-2520 520.492,-2520 484.305,-2520"/>
<polygon fill="none" stroke="black" points="484.166,-2516.5 474.166,-2520 484.166,-2523.5 484.166,-2516.5"/>
</g>
<!-- \\JCORE\\CACHE\\XCACHE -->
<g id="node10" class="node"><title>\\JCORE\\CACHE\\XCACHE</title>
<polygon fill="none" stroke="black" points="657,-2430 601,-2430 601,-2394 657,-2394 657,-2430"/>
<text text-anchor="middle" x="629" y="-2409.1" font-family="Courier,monospace" font-size="11.00">XCACHE</text>
</g>
<!-- \\JCORE\\CACHE\\XCACHE&#45;&gt;\\JCORE\\CACHE\\STATIC_API_INTERFACE -->
<g id="edge43" class="edge"><title>\\JCORE\\CACHE\\XCACHE&#45;&gt;\\JCORE\\CACHE\\STATIC_API_INTERFACE</title>
<path fill="none" stroke="black" stroke-dasharray="1,5" d="M600.207,-2412C567.276,-2412 511.805,-2412 464.527,-2412"/>
<polygon fill="none" stroke="black" points="464.264,-2408.5 454.264,-2412 464.264,-2415.5 464.264,-2408.5"/>
</g>
<!-- \\JCORE\\CACHE\\SESSION -->
<g id="node11" class="node"><title>\\JCORE\\CACHE\\SESSION</title>
<polygon fill="none" stroke="black" points="661,-2322 597,-2322 597,-2286 661,-2286 661,-2322"/>
<text text-anchor="middle" x="629" y="-2301.1" font-family="Courier,monospace" font-size="11.00">SESSION</text>
</g>
<!-- \\JCORE\\CACHE\\PHP_SESSION -->
<g id="node15" class="node"><title>\\JCORE\\CACHE\\PHP_SESSION</title>
<polygon fill="none" stroke="black" points="423,-2322 333,-2322 333,-2286 423,-2286 423,-2322"/>
<text text-anchor="middle" x="378" y="-2301.1" font-family="Courier,monospace" font-size="11.00">PHP_SESSION</text>
</g>
<!-- \\JCORE\\CACHE\\SESSION&#45;&gt;\\JCORE\\CACHE\\PHP_SESSION -->
<g id="edge47" class="edge"><title>\\JCORE\\CACHE\\SESSION&#45;&gt;\\JCORE\\CACHE\\PHP_SESSION</title>
<path fill="none" stroke="black" stroke-dasharray="1,5" d="M596.956,-2304C555.906,-2304 484.082,-2304 433.929,-2304"/>
<polygon fill="none" stroke="black" points="433.889,-2300.5 423.889,-2304 433.889,-2307.5 433.889,-2300.5"/>
</g>
<!-- \\JCORE\\CACHE\\REDIS -->
<g id="node12" class="node"><title>\\JCORE\\CACHE\\REDIS</title>
<polygon fill="none" stroke="black" points="656,-2376 602,-2376 602,-2340 656,-2340 656,-2376"/>
<text text-anchor="middle" x="629" y="-2355.1" font-family="Courier,monospace" font-size="11.00">REDIS</text>
</g>
<!-- \\JCORE\\CACHE\\REDIS&#45;&gt;\\JCORE\\CACHE\\STATIC_API_INTERFACE -->
<g id="edge51" class="edge"><title>\\JCORE\\CACHE\\REDIS&#45;&gt;\\JCORE\\CACHE\\STATIC_API_INTERFACE</title>
<path fill="none" stroke="black" stroke-dasharray="1,5" d="M601.661,-2363.88C568.794,-2370.95 512.046,-2383.16 463.938,-2393.51"/>
<polygon fill="none" stroke="black" points="463.169,-2390.1 454.129,-2395.62 464.641,-2396.94 463.169,-2390.1"/>
</g>
<!-- \\JCORE\\CACHE\\FILECACHE_API -->
<g id="node13" class="node"><title>\\JCORE\\CACHE\\FILECACHE_API</title>
<polygon fill="none" stroke="black" points="681,-2484 577,-2484 577,-2448 681,-2448 681,-2484"/>
<text text-anchor="middle" x="629" y="-2463.1" font-family="Courier,monospace" font-size="11.00">FILECACHE_API</text>
</g>
<!-- \\JCORE\\CACHE\\FILECACHE_API&#45;&gt;\\JCORE\\CACHE\\CACHE_COMMON_API_INTERFACE -->
<g id="edge57" class="edge"><title>\\JCORE\\CACHE\\FILECACHE_API&#45;&gt;\\JCORE\\CACHE\\CACHE_COMMON_API_INTERFACE</title>
<path fill="none" stroke="black" stroke-dasharray="1,5" d="M576.993,-2477.19C546.673,-2483.71 507.518,-2492.14 471.971,-2499.78"/>
<polygon fill="none" stroke="black" points="471.091,-2496.39 462.051,-2501.92 472.564,-2503.24 471.091,-2496.39"/>
</g>
<!-- \\JCORE\\JCORE_SINGLETON_INTERFACE -->
<g id="node71" class="node"><title>\\JCORE\\JCORE_SINGLETON_INTERFACE</title>
<polygon fill="none" stroke="black" points="209,-2430 25,-2430 25,-2394 209,-2394 209,-2430"/>
<text text-anchor="middle" x="117" y="-2409.1" font-family="Courier,monospace" font-size="11.00">JCORE_SINGLETON_INTERFACE</text>
</g>
<!-- \\JCORE\\CACHE\\STATIC_API_INTERFACE&#45;&gt;\\JCORE\\JCORE_SINGLETON_INTERFACE -->
<g id="edge65" class="edge"><title>\\JCORE\\CACHE\\STATIC_API_INTERFACE&#45;&gt;\\JCORE\\JCORE_SINGLETON_INTERFACE</title>
<path fill="none" stroke="black" d="M301.806,-2412C276.323,-2412 247.478,-2412 220.282,-2412"/>
<polygon fill="none" stroke="black" points="219.951,-2408.5 209.951,-2412 219.951,-2415.5 219.951,-2408.5"/>
</g>
<!-- \\JCORE\\DAO\\TREE\\DAO_TREE -->
<g id="node19" class="node"><title>\\JCORE\\DAO\\TREE\\DAO_TREE</title>
<polygon fill="none" stroke="black" points="664,-2208 594,-2208 594,-2172 664,-2172 664,-2208"/>
<text text-anchor="middle" x="629" y="-2187.1" font-family="Courier,monospace" font-size="11.00">DAO_TREE</text>
</g>
<!-- \\JCORE\\DAO\\DAO -->
<g id="node20" class="node"><title>\\JCORE\\DAO\\DAO</title>
<polygon fill="none" stroke="black" points="656,-2154 602,-2154 602,-2118 656,-2118 656,-2154"/>
<text text-anchor="middle" x="629" y="-2133.1" font-family="Courier,monospace" font-size="11.00">DAO</text>
</g>
<!-- \\JCORE\\DAO\\SESSION -->
<g id="node21" class="node"><title>\\JCORE\\DAO\\SESSION</title>
<polygon fill="none" stroke="black" points="661,-2100 597,-2100 597,-2064 661,-2064 661,-2100"/>
<text text-anchor="middle" x="629" y="-2079.1" font-family="Courier,monospace" font-size="11.00">SESSION</text>
</g>
<!-- \\JCORE\\TRANSPORT\\XML\\SOAP -->
<g id="node24" class="node"><title>\\JCORE\\TRANSPORT\\XML\\SOAP</title>
<polygon fill="none" stroke="black" points="656,-1986 602,-1986 602,-1950 656,-1950 656,-1986"/>
<text text-anchor="middle" x="629" y="-1965.1" font-family="Courier,monospace" font-size="11.00">SOAP</text>
</g>
<!-- \\JCORE\\TRANSPORT\\TRANSPORT_INTERFACE -->
<g id="node40" class="node"><title>\\JCORE\\TRANSPORT\\TRANSPORT_INTERFACE</title>
<polygon fill="none" stroke="black" points="450,-1820 306,-1820 306,-1784 450,-1784 450,-1820"/>
<text text-anchor="middle" x="378" y="-1799.1" font-family="Courier,monospace" font-size="11.00">TRANSPORT_INTERFACE</text>
</g>
<!-- \\JCORE\\TRANSPORT\\XML\\SOAP&#45;&gt;\\JCORE\\TRANSPORT\\TRANSPORT_INTERFACE -->
<g id="edge33" class="edge"><title>\\JCORE\\TRANSPORT\\XML\\SOAP&#45;&gt;\\JCORE\\TRANSPORT\\TRANSPORT_INTERFACE</title>
<path fill="none" stroke="black" stroke-dasharray="1,5" d="M601.986,-1962.02C583.259,-1957.19 558.164,-1949.32 538,-1938 484.074,-1907.73 431.365,-1857.87 401.935,-1827.66"/>
<polygon fill="none" stroke="black" points="404.427,-1825.2 394.968,-1820.43 399.386,-1830.06 404.427,-1825.2"/>
</g>
<!-- \\JCORE\\TRANSPORT\\URL\\URL_API -->
<g id="node26" class="node"><title>\\JCORE\\TRANSPORT\\URL\\URL_API</title>
<polygon fill="none" stroke="black" points="661,-1903 597,-1903 597,-1867 661,-1867 661,-1903"/>
<text text-anchor="middle" x="629" y="-1882.1" font-family="Courier,monospace" font-size="11.00">URL_API</text>
</g>
<!-- \\JCORE\\TRANSPORT\\URL\\URL_API&#45;&gt;\\JCORE\\TRANSPORT\\TRANSPORT_INTERFACE -->
<g id="edge45" class="edge"><title>\\JCORE\\TRANSPORT\\URL\\URL_API&#45;&gt;\\JCORE\\TRANSPORT\\TRANSPORT_INTERFACE</title>
<path fill="none" stroke="black" stroke-dasharray="1,5" d="M596.99,-1874.46C579.548,-1868.71 557.586,-1861.47 538,-1855 506.422,-1844.56 471.348,-1832.95 442.105,-1823.26"/>
<polygon fill="none" stroke="black" points="443.018,-1819.87 432.424,-1820.05 440.815,-1826.52 443.018,-1819.87"/>
</g>
<!-- \\JCORE\\TRANSPORT\\REST\\REST_API -->
<g id="node28" class="node"><title>\\JCORE\\TRANSPORT\\REST\\REST_API</title>
<polygon fill="none" stroke="black" points="671,-1820 587,-1820 587,-1784 671,-1784 671,-1820"/>
<text text-anchor="start" x="595" y="-1807.43" font-family="Courier,monospace" font-size="11.00">«abstract»</text>
<text text-anchor="start" x="601.5" y="-1794.23" font-family="Courier,monospace" font-size="11.00">REST_API</text>
</g>
<!-- \\JCORE\\TRANSPORT\\REST\\REST_API&#45;&gt;\\JCORE\\TRANSPORT\\TRANSPORT_INTERFACE -->
<g id="edge49" class="edge"><title>\\JCORE\\TRANSPORT\\REST\\REST_API&#45;&gt;\\JCORE\\TRANSPORT\\TRANSPORT_INTERFACE</title>
<path fill="none" stroke="black" stroke-dasharray="1,5" d="M586.421,-1802C552.18,-1802 503.032,-1802 461.062,-1802"/>
<polygon fill="none" stroke="black" points="460.839,-1798.5 450.839,-1802 460.839,-1805.5 460.839,-1798.5"/>
</g>
<!-- \\JCORE\\TRANSPORT\\SOA\\SERVICE_VALIDATOR -->
<g id="node30" class="node"><title>\\JCORE\\TRANSPORT\\SOA\\SERVICE_VALIDATOR</title>
<polygon fill="none" stroke="black" points="694,-1737 564,-1737 564,-1701 694,-1701 694,-1737"/>
<text text-anchor="middle" x="629" y="-1716.1" font-family="Courier,monospace" font-size="11.00">SERVICE_VALIDATOR</text>
</g>
<!-- \\JCORE\\TRANSPORT\\SOA\\SOA_BASE -->
<g id="node31" class="node"><title>\\JCORE\\TRANSPORT\\SOA\\SOA_BASE</title>
<polygon fill="none" stroke="black" points="671,-1683 587,-1683 587,-1647 671,-1647 671,-1683"/>
<text text-anchor="start" x="595" y="-1670.43" font-family="Courier,monospace" font-size="11.00">«abstract»</text>
<text text-anchor="start" x="601.5" y="-1657.23" font-family="Courier,monospace" font-size="11.00">SOA_BASE</text>
</g>
<!-- \\JCORE\\TRANSPORT\\HTTP\\HTTP_UTIL -->
<g id="node33" class="node"><title>\\JCORE\\TRANSPORT\\HTTP\\HTTP_UTIL</title>
<polygon fill="none" stroke="black" points="667,-1600 591,-1600 591,-1564 667,-1564 667,-1600"/>
<text text-anchor="middle" x="629" y="-1579.1" font-family="Courier,monospace" font-size="11.00">HTTP_UTIL</text>
</g>
<!-- \\JCORE\\TRANSPORT\\HTTP\\HTTP_API -->
<g id="node34" class="node"><title>\\JCORE\\TRANSPORT\\HTTP\\HTTP_API</title>
<polygon fill="none" stroke="black" points="664,-1546 594,-1546 594,-1510 664,-1510 664,-1546"/>
<text text-anchor="middle" x="629" y="-1525.1" font-family="Courier,monospace" font-size="11.00">HTTP_API</text>
</g>
<!-- \\JCORE\\TRANSPORT\\HTTP\\HTTP_API&#45;&gt;\\JCORE\\TRANSPORT\\TRANSPORT_INTERFACE -->
<g id="edge63" class="edge"><title>\\JCORE\\TRANSPORT\\HTTP\\HTTP_API&#45;&gt;\\JCORE\\TRANSPORT\\TRANSPORT_INTERFACE</title>
<path fill="none" stroke="black" stroke-dasharray="1,5" d="M593.093,-1532.64C575.17,-1536.37 553.967,-1543.06 538,-1555 459.369,-1613.81 408.624,-1723.53 388.211,-1774.57"/>
<polygon fill="none" stroke="black" points="384.92,-1773.38 384.534,-1783.97 391.438,-1775.93 384.92,-1773.38"/>
</g>
<!-- \\JCORE\\TRANSPORT\\JSON\\JSONRPC_1_0_API -->
<g id="node36" class="node"><title>\\JCORE\\TRANSPORT\\JSON\\JSONRPC_1_0_API</title>
<polygon fill="none" stroke="black" points="688,-1463 570,-1463 570,-1427 688,-1427 688,-1463"/>
<text text-anchor="middle" x="629" y="-1442.1" font-family="Courier,monospace" font-size="11.00">JSONRPC_1_0_API</text>
</g>
<!-- \\JCORE\\TRANSPORT\\JSON\\JSONRPC_1_0_API&#45;&gt;\\JCORE\\TRANSPORT\\TRANSPORT_INTERFACE -->
<g id="edge61" class="edge"><title>\\JCORE\\TRANSPORT\\JSON\\JSONRPC_1_0_API&#45;&gt;\\JCORE\\TRANSPORT\\TRANSPORT_INTERFACE</title>
<path fill="none" stroke="black" stroke-dasharray="1,5" d="M587.08,-1463.12C570.33,-1471.87 551.786,-1483.61 538,-1498 456.849,-1582.71 405.947,-1716.71 386.717,-1774.25"/>
<polygon fill="none" stroke="black" points="383.389,-1773.17 383.596,-1783.76 390.04,-1775.35 383.389,-1773.17"/>
</g>
<!-- \\JCORE\\TRANSPORT\\JSON\\JSON -->
<g id="node37" class="node"><title>\\JCORE\\TRANSPORT\\JSON\\JSON</title>
<polygon fill="none" stroke="black" points="656,-1409 602,-1409 602,-1373 656,-1373 656,-1409"/>
<text text-anchor="middle" x="629" y="-1388.1" font-family="Courier,monospace" font-size="11.00">JSON</text>
</g>
<!-- \\JCORE\\TRANSPORT\\SERIALIZATION -->
<g id="node38" class="node"><title>\\JCORE\\TRANSPORT\\SERIALIZATION</title>
<polygon fill="none" stroke="black" points="681,-1355 577,-1355 577,-1319 681,-1319 681,-1355"/>
<text text-anchor="middle" x="629" y="-1334.1" font-family="Courier,monospace" font-size="11.00">SERIALIZATION</text>
</g>
<!-- \\JCORE\\TRANSPORT\\SERIALIZATION_STATIC -->
<g id="node39" class="node"><title>\\JCORE\\TRANSPORT\\SERIALIZATION_STATIC</title>
<polygon fill="none" stroke="black" points="705,-1301 553,-1301 553,-1265 705,-1265 705,-1301"/>
<text text-anchor="middle" x="629" y="-1280.1" font-family="Courier,monospace" font-size="11.00">SERIALIZATION_STATIC</text>
</g>
<!-- \\JCORE\\DATA\\API\\REDIS\\REDIS_connector -->
<g id="node44" class="node"><title>\\JCORE\\DATA\\API\\REDIS\\REDIS_connector</title>
<polygon fill="none" stroke="black" points="688,-1073 570,-1073 570,-1037 688,-1037 688,-1073"/>
<text text-anchor="middle" x="629" y="-1052.1" font-family="Courier,monospace" font-size="11.00">REDIS_connector</text>
</g>
<!-- \\JCORE\\DATA\\API\\DATA_API_INTERFACE -->
<g id="node52" class="node"><title>\\JCORE\\DATA\\API\\DATA_API_INTERFACE</title>
<polygon fill="none" stroke="black" points="447,-1073 309,-1073 309,-1037 447,-1037 447,-1073"/>
<text text-anchor="middle" x="378" y="-1052.1" font-family="Courier,monospace" font-size="11.00">DATA_API_INTERFACE</text>
</g>
<!-- \\JCORE\\DATA\\API\\REDIS\\REDIS_connector&#45;&gt;\\JCORE\\DATA\\API\\DATA_API_INTERFACE -->
<g id="edge37" class="edge"><title>\\JCORE\\DATA\\API\\REDIS\\REDIS_connector&#45;&gt;\\JCORE\\DATA\\API\\DATA_API_INTERFACE</title>
<path fill="none" stroke="black" stroke-dasharray="1,5" d="M569.834,-1055C536.317,-1055 493.941,-1055 457.547,-1055"/>
<polygon fill="none" stroke="black" points="457.453,-1051.5 447.453,-1055 457.453,-1058.5 457.453,-1051.5"/>
</g>
<!-- \\JCORE\\DATA\\API\\MySQL\\MySQL_connector -->
<g id="node46" class="node"><title>\\JCORE\\DATA\\API\\MySQL\\MySQL_connector</title>
<polygon fill="none" stroke="black" points="688,-990 570,-990 570,-954 688,-954 688,-990"/>
<text text-anchor="middle" x="629" y="-969.1" font-family="Courier,monospace" font-size="11.00">MySQL_connector</text>
</g>
<!-- \\JCORE\\DATA\\API\\MySQL\\MySQL_connector&#45;&gt;\\JCORE\\DATA\\API\\DATA_API_INTERFACE -->
<g id="edge41" class="edge"><title>\\JCORE\\DATA\\API\\MySQL\\MySQL_connector&#45;&gt;\\JCORE\\DATA\\API\\DATA_API_INTERFACE</title>
<path fill="none" stroke="black" stroke-dasharray="1,5" d="M574.537,-990.01C535.694,-1002.85 483.314,-1020.18 442.397,-1033.71"/>
<polygon fill="none" stroke="black" points="441.185,-1030.42 432.79,-1036.88 443.383,-1037.07 441.185,-1030.42"/>
</g>
<!-- \\JCORE\\DATA\\API\\MySQL\\MySQL_TABLE_META -->
<g id="node47" class="node"><title>\\JCORE\\DATA\\API\\MySQL\\MySQL_TABLE_META</title>
<polygon fill="none" stroke="black" points="691,-936 567,-936 567,-900 691,-900 691,-936"/>
<text text-anchor="middle" x="629" y="-915.1" font-family="Courier,monospace" font-size="11.00">MySQL_TABLE_META</text>
</g>
<!-- \\JCORE\\DATA\\API\\FILE\\CSV_connector -->
<g id="node49" class="node"><title>\\JCORE\\DATA\\API\\FILE\\CSV_connector</title>
<polygon fill="none" stroke="black" points="681,-1156 577,-1156 577,-1120 681,-1120 681,-1156"/>
<text text-anchor="middle" x="629" y="-1135.1" font-family="Courier,monospace" font-size="11.00">CSV_connector</text>
</g>
<!-- \\JCORE\\DATA\\API\\FILE\\CSV_connector&#45;&gt;\\JCORE\\DATA\\API\\DATA_API_INTERFACE -->
<g id="edge53" class="edge"><title>\\JCORE\\DATA\\API\\FILE\\CSV_connector&#45;&gt;\\JCORE\\DATA\\API\\DATA_API_INTERFACE</title>
<path fill="none" stroke="black" stroke-dasharray="1,5" d="M576.544,-1120.72C563.921,-1116.56 550.478,-1112.12 538,-1108 506.422,-1097.56 471.348,-1085.95 442.105,-1076.26"/>
<polygon fill="none" stroke="black" points="443.018,-1072.87 432.424,-1073.05 440.815,-1079.52 443.018,-1072.87"/>
</g>
<!-- \\JCORE\\DATA\\API\\DATA_API -->
<g id="node50" class="node"><title>\\JCORE\\DATA\\API\\DATA_API</title>
<polygon fill="none" stroke="black" points="664,-882 594,-882 594,-846 664,-846 664,-882"/>
<text text-anchor="middle" x="629" y="-861.1" font-family="Courier,monospace" font-size="11.00">DATA_API</text>
</g>
<!-- \\JCORE\\DATA\\API\\DATA_UTIL_API -->
<g id="node51" class="node"><title>\\JCORE\\DATA\\API\\DATA_UTIL_API</title>
<polygon fill="none" stroke="black" points="681,-828 577,-828 577,-792 681,-792 681,-828"/>
<text text-anchor="middle" x="629" y="-807.1" font-family="Courier,monospace" font-size="11.00">DATA_UTIL_API</text>
</g>
<!-- \\JCORE\\EXCEPTION\\DATA_Exception -->
<g id="node54" class="node"><title>\\JCORE\\EXCEPTION\\DATA_Exception</title>
<polygon fill="none" stroke="black" points="684,-737 574,-737 574,-701 684,-701 684,-737"/>
<text text-anchor="middle" x="629" y="-716.1" font-family="Courier,monospace" font-size="11.00">DATA_Exception</text>
</g>
<!-- \\Exception -->
<g id="node79" class="node"><title>\\Exception</title>
<ellipse fill="none" stroke="black" cx="378" cy="-19" rx="53.033" ry="19.0919"/>
<text text-anchor="middle" x="378" y="-15.9" font-family="Times Roman,serif" font-size="14.00" fill="gray">\Exception</text>
</g>
<!-- \\JCORE\\EXCEPTION\\DATA_Exception&#45;&gt;\\Exception -->
<g id="edge39" class="edge"><title>\\JCORE\\EXCEPTION\\DATA_Exception&#45;&gt;\\Exception</title>
<path fill="none" stroke="black" d="M573.499,-713.306C560.073,-709.301 547.013,-702.722 538,-692 458.683,-597.64 520.998,-254.957 474,-141 458.305,-102.945 427.167,-66.8721 404.599,-43.9622"/>
<polygon fill="none" stroke="black" points="406.868,-41.2825 397.309,-36.7136 401.932,-46.2464 406.868,-41.2825"/>
</g>
<!-- \\JCORE\\EXCEPTION\\networkException -->
<g id="node55" class="node"><title>\\JCORE\\EXCEPTION\\networkException</title>
<polygon fill="none" stroke="black" points="691,-683 567,-683 567,-647 691,-647 691,-683"/>
<text text-anchor="middle" x="629" y="-662.1" font-family="Courier,monospace" font-size="11.00">networkException</text>
</g>
<!-- \\JCORE\\EXCEPTION\\networkException&#45;&gt;\\Exception -->
<g id="edge55" class="edge"><title>\\JCORE\\EXCEPTION\\networkException&#45;&gt;\\Exception</title>
<path fill="none" stroke="black" d="M566.067,-656.687C555.379,-652.611 545.371,-646.658 538,-638 393.638,-468.411 560.191,-346.359 474,-141 458.069,-103.043 426.976,-66.9514 404.483,-44.0102"/>
<polygon fill="none" stroke="black" points="406.767,-41.344 397.22,-36.7506 401.819,-46.2952 406.767,-41.344"/>
</g>
<!-- \\JCORE\\EXCEPTION\\ERROR -->
<g id="node56" class="node"><title>\\JCORE\\EXCEPTION\\ERROR</title>
<polygon fill="none" stroke="black" points="656,-629 602,-629 602,-593 656,-593 656,-629"/>
<text text-anchor="middle" x="629" y="-608.1" font-family="Courier,monospace" font-size="11.00">ERROR</text>
</g>
<!-- \\JCORE\\TEMPLATER\\TEMPLATER -->
<g id="node58" class="node"><title>\\JCORE\\TEMPLATER\\TEMPLATER</title>
<polygon fill="none" stroke="black" points="667,-546 591,-546 591,-510 667,-510 667,-546"/>
<text text-anchor="middle" x="629" y="-525.1" font-family="Courier,monospace" font-size="11.00">TEMPLATER</text>
</g>
<!-- \\JCORE\\L10N\\PO_TRANSLATION -->
<g id="node60" class="node"><title>\\JCORE\\L10N\\PO_TRANSLATION</title>
<polygon fill="none" stroke="black" points="684,-463 574,-463 574,-427 684,-427 684,-463"/>
<text text-anchor="middle" x="629" y="-442.1" font-family="Courier,monospace" font-size="11.00">PO_TRANSLATION</text>
</g>
<!-- \\JCORE\\LOAD\\ComposerAutoloaderInit -->
<g id="node62" class="node"><title>\\JCORE\\LOAD\\ComposerAutoloaderInit</title>
<polygon fill="none" stroke="black" points="711,-380 547,-380 547,-344 711,-344 711,-380"/>
<text text-anchor="middle" x="629" y="-359.1" font-family="Courier,monospace" font-size="11.00">ComposerAutoloaderInit</text>
</g>
<!-- \\JCORE\\LOAD\\CONFIG_MANAGER -->
<g id="node63" class="node"><title>\\JCORE\\LOAD\\CONFIG_MANAGER</title>
<polygon fill="none" stroke="black" points="684,-326 574,-326 574,-290 684,-290 684,-326"/>
<text text-anchor="middle" x="629" y="-305.1" font-family="Courier,monospace" font-size="11.00">CONFIG_MANAGER</text>
</g>
<!-- \\JCORE\\AUTH\\AUTH_HARNESS -->
<g id="node65" class="node"><title>\\JCORE\\AUTH\\AUTH_HARNESS</title>
<polygon fill="none" stroke="black" points="678,-243 580,-243 580,-207 678,-207 678,-243"/>
<text text-anchor="middle" x="629" y="-222.1" font-family="Courier,monospace" font-size="11.00">AUTH_HARNESS</text>
</g>
<!-- \\JCORE\\AUTH\\IP_WHITELIST -->
<g id="node66" class="node"><title>\\JCORE\\AUTH\\IP_WHITELIST</title>
<polygon fill="none" stroke="black" points="678,-189 580,-189 580,-153 678,-153 678,-189"/>
<text text-anchor="middle" x="629" y="-168.1" font-family="Courier,monospace" font-size="11.00">IP_WHITELIST</text>
</g>
<!-- \\JCORE\\AUTH\\AUTH_INTERFACE -->
<g id="node67" class="node"><title>\\JCORE\\AUTH\\AUTH_INTERFACE</title>
<polygon fill="none" stroke="black" points="433,-189 323,-189 323,-153 433,-153 433,-189"/>
<text text-anchor="middle" x="378" y="-168.1" font-family="Courier,monospace" font-size="11.00">AUTH_INTERFACE</text>
</g>
<!-- \\JCORE\\AUTH\\IP_WHITELIST&#45;&gt;\\JCORE\\AUTH\\AUTH_INTERFACE -->
<g id="edge59" class="edge"><title>\\JCORE\\AUTH\\IP_WHITELIST&#45;&gt;\\JCORE\\AUTH\\AUTH_INTERFACE</title>
<path fill="none" stroke="black" stroke-dasharray="1,5" d="M579.71,-171C540.933,-171 486.534,-171 443.999,-171"/>
<polygon fill="none" stroke="black" points="443.735,-167.5 433.735,-171 443.735,-174.5 443.735,-167.5"/>
</g>
<!-- \\JCORE\\LOG\\LOGGER -->
<g id="node69" class="node"><title>\\JCORE\\LOG\\LOGGER</title>
<polygon fill="none" stroke="black" points="657,-106 601,-106 601,-70 657,-70 657,-106"/>
<text text-anchor="middle" x="629" y="-85.1" font-family="Courier,monospace" font-size="11.00">LOGGER</text>
</g>
</g>
</svg>
