<?xml version="1.0" encoding="UTF-8" standalone="no"?>
<!DOCTYPE svg PUBLIC "-//W3C//DTD SVG 1.1//EN"
 "http://www.w3.org/Graphics/SVG/1.1/DTD/svg11.dtd">
<!-- Generated by graphviz version 2.26.0 (20091210.2329)
 -->
<!-- Title: G Pages: 1 -->
<svg width="816pt" height="3309pt"
 viewBox="0.00 0.00 816.00 3309.00" xmlns="http://www.w3.org/2000/svg" xmlns:xlink="http://www.w3.org/1999/xlink">
<g id="graph1" class="graph" transform="scale(1 1) rotate(0) translate(4 3305)">
<title>G</title>
<polygon fill="white" stroke="white" points="-4,5 -4,-3305 813,-3305 813,5 -4,5"/>
<g id="graph2" class="cluster"><title>cluster_Global</title>
<polyline fill="none" stroke="gray" points="151,-270 788,-270 "/>
<path fill="none" stroke="gray" d="M788,-270C794,-270 800,-276 800,-282"/>
<polyline fill="none" stroke="gray" points="800,-282 800,-3281 "/>
<path fill="none" stroke="gray" d="M800,-3281C800,-3287 794,-3293 788,-3293"/>
<polyline fill="none" stroke="gray" points="788,-3293 151,-3293 "/>
<path fill="none" stroke="gray" d="M151,-3293C145,-3293 139,-3287 139,-3281"/>
<polyline fill="none" stroke="gray" points="139,-3281 139,-282 "/>
<path fill="none" stroke="gray" d="M139,-282C139,-276 145,-270 151,-270"/>
<text text-anchor="middle" x="469.5" y="-3279.1" font-family="Times Roman,serif" font-size="11.00" fill="gray">Global</text>
</g>
<g id="graph3" class="cluster"><title>cluster_\JCORE</title>
<polyline fill="none" stroke="gray" points="159,-278 780,-278 "/>
<path fill="none" stroke="gray" d="M780,-278C786,-278 792,-284 792,-290"/>
<polyline fill="none" stroke="gray" points="792,-290 792,-3250 "/>
<path fill="none" stroke="gray" d="M792,-3250C792,-3256 786,-3262 780,-3262"/>
<polyline fill="none" stroke="gray" points="780,-3262 159,-3262 "/>
<path fill="none" stroke="gray" d="M159,-3262C153,-3262 147,-3256 147,-3250"/>
<polyline fill="none" stroke="gray" points="147,-3250 147,-290 "/>
<path fill="none" stroke="gray" d="M147,-290C147,-284 153,-278 159,-278"/>
<text text-anchor="middle" x="469.5" y="-3248.1" font-family="Times Roman,serif" font-size="11.00" fill="gray">JCORE</text>
</g>
<g id="graph4" class="cluster"><title>cluster_\JCORE\EXAMPLE</title>
<polyline fill="none" stroke="gray" points="650,-3117 716,-3117 "/>
<path fill="none" stroke="gray" d="M716,-3117C722,-3117 728,-3123 728,-3129"/>
<polyline fill="none" stroke="gray" points="728,-3129 728,-3219 "/>
<path fill="none" stroke="gray" d="M728,-3219C728,-3225 722,-3231 716,-3231"/>
<polyline fill="none" stroke="gray" points="716,-3231 650,-3231 "/>
<path fill="none" stroke="gray" d="M650,-3231C644,-3231 638,-3225 638,-3219"/>
<polyline fill="none" stroke="gray" points="638,-3219 638,-3129 "/>
<path fill="none" stroke="gray" d="M638,-3129C638,-3123 644,-3117 650,-3117"/>
<text text-anchor="middle" x="683" y="-3217.1" font-family="Times Roman,serif" font-size="11.00" fill="gray">EXAMPLE</text>
</g>
<g id="graph5" class="cluster"><title>cluster_\JCORE\EXAMPLE\EXT_REF</title>
<polyline fill="none" stroke="gray" points="658,-3125 708,-3125 "/>
<path fill="none" stroke="gray" d="M708,-3125C714,-3125 720,-3131 720,-3137"/>
<polyline fill="none" stroke="gray" points="720,-3137 720,-3188 "/>
<path fill="none" stroke="gray" d="M720,-3188C720,-3194 714,-3200 708,-3200"/>
<polyline fill="none" stroke="gray" points="708,-3200 658,-3200 "/>
<path fill="none" stroke="gray" d="M658,-3200C652,-3200 646,-3194 646,-3188"/>
<polyline fill="none" stroke="gray" points="646,-3188 646,-3137 "/>
<path fill="none" stroke="gray" d="M646,-3137C646,-3131 652,-3125 658,-3125"/>
<text text-anchor="middle" x="683" y="-3186.1" font-family="Times Roman,serif" font-size="11.00" fill="gray">EXT_REF</text>
</g>
<g id="graph6" class="cluster"><title>cluster_\JCORE\CACHE</title>
<polyline fill="none" stroke="gray" points="167,-2602 755,-2602 "/>
<path fill="none" stroke="gray" d="M755,-2602C761,-2602 767,-2608 767,-2614"/>
<polyline fill="none" stroke="gray" points="767,-2614 767,-3097 "/>
<path fill="none" stroke="gray" d="M767,-3097C767,-3103 761,-3109 755,-3109"/>
<polyline fill="none" stroke="gray" points="755,-3109 167,-3109 "/>
<path fill="none" stroke="gray" d="M167,-3109C161,-3109 155,-3103 155,-3097"/>
<polyline fill="none" stroke="gray" points="155,-3097 155,-2614 "/>
<path fill="none" stroke="gray" d="M155,-2614C155,-2608 161,-2602 167,-2602"/>
<text text-anchor="middle" x="461" y="-3095.1" font-family="Times Roman,serif" font-size="11.00" fill="gray">CACHE</text>
</g>
<g id="graph7" class="cluster"><title>cluster_\JCORE\DAO</title>
<polyline fill="none" stroke="gray" points="643,-2380 723,-2380 "/>
<path fill="none" stroke="gray" d="M723,-2380C729,-2380 735,-2386 735,-2392"/>
<polyline fill="none" stroke="gray" points="735,-2392 735,-2582 "/>
<path fill="none" stroke="gray" d="M735,-2582C735,-2588 729,-2594 723,-2594"/>
<polyline fill="none" stroke="gray" points="723,-2594 643,-2594 "/>
<path fill="none" stroke="gray" d="M643,-2594C637,-2594 631,-2588 631,-2582"/>
<polyline fill="none" stroke="gray" points="631,-2582 631,-2392 "/>
<path fill="none" stroke="gray" d="M631,-2392C631,-2386 637,-2380 643,-2380"/>
<text text-anchor="middle" x="683" y="-2580.1" font-family="Times Roman,serif" font-size="11.00" fill="gray">DAO</text>
</g>
<g id="graph8" class="cluster"><title>cluster_\JCORE\DAO\TREE</title>
<polyline fill="none" stroke="gray" points="651,-2488 715,-2488 "/>
<path fill="none" stroke="gray" d="M715,-2488C721,-2488 727,-2494 727,-2500"/>
<polyline fill="none" stroke="gray" points="727,-2500 727,-2551 "/>
<path fill="none" stroke="gray" d="M727,-2551C727,-2557 721,-2563 715,-2563"/>
<polyline fill="none" stroke="gray" points="715,-2563 651,-2563 "/>
<path fill="none" stroke="gray" d="M651,-2563C645,-2563 639,-2557 639,-2551"/>
<polyline fill="none" stroke="gray" points="639,-2551 639,-2500 "/>
<path fill="none" stroke="gray" d="M639,-2500C639,-2494 645,-2488 651,-2488"/>
<text text-anchor="middle" x="683" y="-2549.1" font-family="Times Roman,serif" font-size="11.00" fill="gray">TREE</text>
</g>
<g id="graph9" class="cluster"><title>cluster_\JCORE\TRANSPORT</title>
<polyline fill="none" stroke="gray" points="190,-1664 755,-1664 "/>
<path fill="none" stroke="gray" d="M755,-1664C761,-1664 767,-1670 767,-1676"/>
<polyline fill="none" stroke="gray" points="767,-1676 767,-2360 "/>
<path fill="none" stroke="gray" d="M767,-2360C767,-2366 761,-2372 755,-2372"/>
<polyline fill="none" stroke="gray" points="755,-2372 190,-2372 "/>
<path fill="none" stroke="gray" d="M190,-2372C184,-2372 178,-2366 178,-2360"/>
<polyline fill="none" stroke="gray" points="178,-2360 178,-1676 "/>
<path fill="none" stroke="gray" d="M178,-1676C178,-1670 184,-1664 190,-1664"/>
<text text-anchor="middle" x="472.5" y="-2358.1" font-family="Times Roman,serif" font-size="11.00" fill="gray">TRANSPORT</text>
</g>
<g id="graph10" class="cluster"><title>cluster_\JCORE\TRANSPORT\XML</title>
<polyline fill="none" stroke="gray" points="660,-2266 706,-2266 "/>
<path fill="none" stroke="gray" d="M706,-2266C712,-2266 718,-2272 718,-2278"/>
<polyline fill="none" stroke="gray" points="718,-2278 718,-2329 "/>
<path fill="none" stroke="gray" d="M718,-2329C718,-2335 712,-2341 706,-2341"/>
<polyline fill="none" stroke="gray" points="706,-2341 660,-2341 "/>
<path fill="none" stroke="gray" d="M660,-2341C654,-2341 648,-2335 648,-2329"/>
<polyline fill="none" stroke="gray" points="648,-2329 648,-2278 "/>
<path fill="none" stroke="gray" d="M648,-2278C648,-2272 654,-2266 660,-2266"/>
<text text-anchor="middle" x="683" y="-2327.1" font-family="Times Roman,serif" font-size="11.00" fill="gray">XML</text>
</g>
<g id="graph11" class="cluster"><title>cluster_\JCORE\TRANSPORT\REST</title>
<polyline fill="none" stroke="gray" points="644,-2183 722,-2183 "/>
<path fill="none" stroke="gray" d="M722,-2183C728,-2183 734,-2189 734,-2195"/>
<polyline fill="none" stroke="gray" points="734,-2195 734,-2246 "/>
<path fill="none" stroke="gray" d="M734,-2246C734,-2252 728,-2258 722,-2258"/>
<polyline fill="none" stroke="gray" points="722,-2258 644,-2258 "/>
<path fill="none" stroke="gray" d="M644,-2258C638,-2258 632,-2252 632,-2246"/>
<polyline fill="none" stroke="gray" points="632,-2246 632,-2195 "/>
<path fill="none" stroke="gray" d="M632,-2195C632,-2189 638,-2183 644,-2183"/>
<text text-anchor="middle" x="683" y="-2244.1" font-family="Times Roman,serif" font-size="11.00" fill="gray">REST</text>
</g>
<g id="graph12" class="cluster"><title>cluster_\JCORE\TRANSPORT\SOA</title>
<polyline fill="none" stroke="gray" points="621,-2046 745,-2046 "/>
<path fill="none" stroke="gray" d="M745,-2046C751,-2046 757,-2052 757,-2058"/>
<polyline fill="none" stroke="gray" points="757,-2058 757,-2163 "/>
<path fill="none" stroke="gray" d="M757,-2163C757,-2169 751,-2175 745,-2175"/>
<polyline fill="none" stroke="gray" points="745,-2175 621,-2175 "/>
<path fill="none" stroke="gray" d="M621,-2175C615,-2175 609,-2169 609,-2163"/>
<polyline fill="none" stroke="gray" points="609,-2163 609,-2058 "/>
<path fill="none" stroke="gray" d="M609,-2058C609,-2052 615,-2046 621,-2046"/>
<text text-anchor="middle" x="683" y="-2161.1" font-family="Times Roman,serif" font-size="11.00" fill="gray">SOA</text>
</g>
<g id="graph13" class="cluster"><title>cluster_\JCORE\TRANSPORT\HTTP</title>
<polyline fill="none" stroke="gray" points="648,-1909 718,-1909 "/>
<path fill="none" stroke="gray" d="M718,-1909C724,-1909 730,-1915 730,-1921"/>
<polyline fill="none" stroke="gray" points="730,-1921 730,-2026 "/>
<path fill="none" stroke="gray" d="M730,-2026C730,-2032 724,-2038 718,-2038"/>
<polyline fill="none" stroke="gray" points="718,-2038 648,-2038 "/>
<path fill="none" stroke="gray" d="M648,-2038C642,-2038 636,-2032 636,-2026"/>
<polyline fill="none" stroke="gray" points="636,-2026 636,-1921 "/>
<path fill="none" stroke="gray" d="M636,-1921C636,-1915 642,-1909 648,-1909"/>
<text text-anchor="middle" x="683" y="-2024.1" font-family="Times Roman,serif" font-size="11.00" fill="gray">HTTP</text>
</g>
<g id="graph14" class="cluster"><title>cluster_\JCORE\TRANSPORT\JSON</title>
<polyline fill="none" stroke="gray" points="628,-1772 738,-1772 "/>
<path fill="none" stroke="gray" d="M738,-1772C744,-1772 750,-1778 750,-1784"/>
<polyline fill="none" stroke="gray" points="750,-1784 750,-1889 "/>
<path fill="none" stroke="gray" d="M750,-1889C750,-1895 744,-1901 738,-1901"/>
<polyline fill="none" stroke="gray" points="738,-1901 628,-1901 "/>
<path fill="none" stroke="gray" d="M628,-1901C622,-1901 616,-1895 616,-1889"/>
<polyline fill="none" stroke="gray" points="616,-1889 616,-1784 "/>
<path fill="none" stroke="gray" d="M616,-1784C616,-1778 622,-1772 628,-1772"/>
<text text-anchor="middle" x="683" y="-1887.1" font-family="Times Roman,serif" font-size="11.00" fill="gray">JSON</text>
</g>
<g id="graph15" class="cluster"><title>cluster_\JCORE\DATA</title>
<polyline fill="none" stroke="gray" points="186,-1183 758,-1183 "/>
<path fill="none" stroke="gray" d="M758,-1183C764,-1183 770,-1189 770,-1195"/>
<polyline fill="none" stroke="gray" points="770,-1195 770,-1644 "/>
<path fill="none" stroke="gray" d="M770,-1644C770,-1650 764,-1656 758,-1656"/>
<polyline fill="none" stroke="gray" points="758,-1656 186,-1656 "/>
<path fill="none" stroke="gray" d="M186,-1656C180,-1656 174,-1650 174,-1644"/>
<polyline fill="none" stroke="gray" points="174,-1644 174,-1195 "/>
<path fill="none" stroke="gray" d="M174,-1195C174,-1189 180,-1183 186,-1183"/>
<text text-anchor="middle" x="472" y="-1642.1" font-family="Times Roman,serif" font-size="11.00" fill="gray">DATA</text>
</g>
<g id="graph16" class="cluster"><title>cluster_\JCORE\DATA\API</title>
<polyline fill="none" stroke="gray" points="194,-1191 750,-1191 "/>
<path fill="none" stroke="gray" d="M750,-1191C756,-1191 762,-1197 762,-1203"/>
<polyline fill="none" stroke="gray" points="762,-1203 762,-1613 "/>
<path fill="none" stroke="gray" d="M762,-1613C762,-1619 756,-1625 750,-1625"/>
<polyline fill="none" stroke="gray" points="750,-1625 194,-1625 "/>
<path fill="none" stroke="gray" d="M194,-1625C188,-1625 182,-1619 182,-1613"/>
<polyline fill="none" stroke="gray" points="182,-1613 182,-1203 "/>
<path fill="none" stroke="gray" d="M182,-1203C182,-1197 188,-1191 194,-1191"/>
<text text-anchor="middle" x="472" y="-1611.1" font-family="Times Roman,serif" font-size="11.00" fill="gray">API</text>
</g>
<g id="graph17" class="cluster"><title>cluster_\JCORE\DATA\API\REDIS</title>
<polyline fill="none" stroke="gray" points="628,-1436 738,-1436 "/>
<path fill="none" stroke="gray" d="M738,-1436C744,-1436 750,-1442 750,-1448"/>
<polyline fill="none" stroke="gray" points="750,-1448 750,-1499 "/>
<path fill="none" stroke="gray" d="M750,-1499C750,-1505 744,-1511 738,-1511"/>
<polyline fill="none" stroke="gray" points="738,-1511 628,-1511 "/>
<path fill="none" stroke="gray" d="M628,-1511C622,-1511 616,-1505 616,-1499"/>
<polyline fill="none" stroke="gray" points="616,-1499 616,-1448 "/>
<path fill="none" stroke="gray" d="M616,-1448C616,-1442 622,-1436 628,-1436"/>
<text text-anchor="middle" x="683" y="-1497.1" font-family="Times Roman,serif" font-size="11.00" fill="gray">REDIS</text>
</g>
<g id="graph18" class="cluster"><title>cluster_\JCORE\DATA\API\MySQL</title>
<polyline fill="none" stroke="gray" points="624,-1299 742,-1299 "/>
<path fill="none" stroke="gray" d="M742,-1299C748,-1299 754,-1305 754,-1311"/>
<polyline fill="none" stroke="gray" points="754,-1311 754,-1416 "/>
<path fill="none" stroke="gray" d="M754,-1416C754,-1422 748,-1428 742,-1428"/>
<polyline fill="none" stroke="gray" points="742,-1428 624,-1428 "/>
<path fill="none" stroke="gray" d="M624,-1428C618,-1428 612,-1422 612,-1416"/>
<polyline fill="none" stroke="gray" points="612,-1416 612,-1311 "/>
<path fill="none" stroke="gray" d="M612,-1311C612,-1305 618,-1299 624,-1299"/>
<text text-anchor="middle" x="683" y="-1414.1" font-family="Times Roman,serif" font-size="11.00" fill="gray">MySQL</text>
</g>
<g id="graph19" class="cluster"><title>cluster_\JCORE\DATA\API\FILE</title>
<polyline fill="none" stroke="gray" points="635,-1519 731,-1519 "/>
<path fill="none" stroke="gray" d="M731,-1519C737,-1519 743,-1525 743,-1531"/>
<polyline fill="none" stroke="gray" points="743,-1531 743,-1582 "/>
<path fill="none" stroke="gray" d="M743,-1582C743,-1588 737,-1594 731,-1594"/>
<polyline fill="none" stroke="gray" points="731,-1594 635,-1594 "/>
<path fill="none" stroke="gray" d="M635,-1594C629,-1594 623,-1588 623,-1582"/>
<polyline fill="none" stroke="gray" points="623,-1582 623,-1531 "/>
<path fill="none" stroke="gray" d="M623,-1531C623,-1525 629,-1519 635,-1519"/>
<text text-anchor="middle" x="683" y="-1580.1" font-family="Times Roman,serif" font-size="11.00" fill="gray">FILE</text>
</g>
<g id="graph20" class="cluster"><title>cluster_\JCORE\CORE</title>
<polyline fill="none" stroke="gray" points="594,-1100 772,-1100 "/>
<path fill="none" stroke="gray" d="M772,-1100C778,-1100 784,-1106 784,-1112"/>
<polyline fill="none" stroke="gray" points="784,-1112 784,-1163 "/>
<path fill="none" stroke="gray" d="M784,-1163C784,-1169 778,-1175 772,-1175"/>
<polyline fill="none" stroke="gray" points="772,-1175 594,-1175 "/>
<path fill="none" stroke="gray" d="M594,-1175C588,-1175 582,-1169 582,-1163"/>
<polyline fill="none" stroke="gray" points="582,-1163 582,-1112 "/>
<path fill="none" stroke="gray" d="M582,-1112C582,-1106 588,-1100 594,-1100"/>
<text text-anchor="middle" x="683" y="-1161.1" font-family="Times Roman,serif" font-size="11.00" fill="gray">CORE</text>
</g>
<g id="graph21" class="cluster"><title>cluster_\JCORE\EXCEPTION</title>
<polyline fill="none" stroke="gray" points="624,-909 742,-909 "/>
<path fill="none" stroke="gray" d="M742,-909C748,-909 754,-915 754,-921"/>
<polyline fill="none" stroke="gray" points="754,-921 754,-1080 "/>
<path fill="none" stroke="gray" d="M754,-1080C754,-1086 748,-1092 742,-1092"/>
<polyline fill="none" stroke="gray" points="742,-1092 624,-1092 "/>
<path fill="none" stroke="gray" d="M624,-1092C618,-1092 612,-1086 612,-1080"/>
<polyline fill="none" stroke="gray" points="612,-1080 612,-921 "/>
<path fill="none" stroke="gray" d="M612,-921C612,-915 618,-909 624,-909"/>
<text text-anchor="middle" x="683" y="-1078.1" font-family="Times Roman,serif" font-size="11.00" fill="gray">EXCEPTION</text>
</g>
<g id="graph22" class="cluster"><title>cluster_\JCORE\TEMPLATER</title>
<polyline fill="none" stroke="gray" points="648,-826 718,-826 "/>
<path fill="none" stroke="gray" d="M718,-826C724,-826 730,-832 730,-838"/>
<polyline fill="none" stroke="gray" points="730,-838 730,-889 "/>
<path fill="none" stroke="gray" d="M730,-889C730,-895 724,-901 718,-901"/>
<polyline fill="none" stroke="gray" points="718,-901 648,-901 "/>
<path fill="none" stroke="gray" d="M648,-901C642,-901 636,-895 636,-889"/>
<polyline fill="none" stroke="gray" points="636,-889 636,-838 "/>
<path fill="none" stroke="gray" d="M636,-838C636,-832 642,-826 648,-826"/>
<text text-anchor="middle" x="683" y="-887.1" font-family="Times Roman,serif" font-size="11.00" fill="gray">TEMPLATER</text>
</g>
<g id="graph23" class="cluster"><title>cluster_\JCORE\LOAD</title>
<polyline fill="none" stroke="gray" points="604,-635 762,-635 "/>
<path fill="none" stroke="gray" d="M762,-635C768,-635 774,-641 774,-647"/>
<polyline fill="none" stroke="gray" points="774,-647 774,-806 "/>
<path fill="none" stroke="gray" d="M774,-806C774,-812 768,-818 762,-818"/>
<polyline fill="none" stroke="gray" points="762,-818 604,-818 "/>
<path fill="none" stroke="gray" d="M604,-818C598,-818 592,-812 592,-806"/>
<polyline fill="none" stroke="gray" points="592,-806 592,-647 "/>
<path fill="none" stroke="gray" d="M592,-647C592,-641 598,-635 604,-635"/>
<text text-anchor="middle" x="683" y="-804.1" font-family="Times Roman,serif" font-size="11.00" fill="gray">LOAD</text>
</g>
<g id="graph24" class="cluster"><title>cluster_\JCORE\L10N</title>
<polyline fill="none" stroke="gray" points="631,-552 735,-552 "/>
<path fill="none" stroke="gray" d="M735,-552C741,-552 747,-558 747,-564"/>
<polyline fill="none" stroke="gray" points="747,-564 747,-615 "/>
<path fill="none" stroke="gray" d="M747,-615C747,-621 741,-627 735,-627"/>
<polyline fill="none" stroke="gray" points="735,-627 631,-627 "/>
<path fill="none" stroke="gray" d="M631,-627C625,-627 619,-621 619,-615"/>
<polyline fill="none" stroke="gray" points="619,-615 619,-564 "/>
<path fill="none" stroke="gray" d="M619,-564C619,-558 625,-552 631,-552"/>
<text text-anchor="middle" x="683" y="-613.1" font-family="Times Roman,serif" font-size="11.00" fill="gray">L10N</text>
</g>
<g id="graph25" class="cluster"><title>cluster_\JCORE\AUTH</title>
<polyline fill="none" stroke="gray" points="207,-415 728,-415 "/>
<path fill="none" stroke="gray" d="M728,-415C734,-415 740,-421 740,-427"/>
<polyline fill="none" stroke="gray" points="740,-427 740,-532 "/>
<path fill="none" stroke="gray" d="M740,-532C740,-538 734,-544 728,-544"/>
<polyline fill="none" stroke="gray" points="728,-544 207,-544 "/>
<path fill="none" stroke="gray" d="M207,-544C201,-544 195,-538 195,-532"/>
<polyline fill="none" stroke="gray" points="195,-532 195,-427 "/>
<path fill="none" stroke="gray" d="M195,-427C195,-421 201,-415 207,-415"/>
<text text-anchor="middle" x="467.5" y="-530.1" font-family="Times Roman,serif" font-size="11.00" fill="gray">AUTH</text>
</g>
<g id="graph26" class="cluster"><title>cluster_\JCORE\LOG</title>
<polyline fill="none" stroke="gray" points="658,-332 708,-332 "/>
<path fill="none" stroke="gray" d="M708,-332C714,-332 720,-338 720,-344"/>
<polyline fill="none" stroke="gray" points="720,-344 720,-395 "/>
<path fill="none" stroke="gray" d="M720,-395C720,-401 714,-407 708,-407"/>
<polyline fill="none" stroke="gray" points="708,-407 658,-407 "/>
<path fill="none" stroke="gray" d="M658,-407C652,-407 646,-401 646,-395"/>
<polyline fill="none" stroke="gray" points="646,-395 646,-344 "/>
<path fill="none" stroke="gray" d="M646,-344C646,-338 652,-332 658,-332"/>
<text text-anchor="middle" x="683" y="-393.1" font-family="Times Roman,serif" font-size="11.00" fill="gray">LOG</text>
</g>
<!-- \\JCORE\\EXAMPLE\\EXT_REF\\XCache -->
<g id="node5" class="node"><title>\\JCORE\\EXAMPLE\\EXT_REF\\XCache</title>
<polygon fill="none" stroke="black" points="711,-3169 655,-3169 655,-3133 711,-3133 711,-3169"/>
<text text-anchor="middle" x="683" y="-3148.1" font-family="Courier,monospace" font-size="11.00">XCache</text>
</g>
<!-- \\JCORE\\CACHE\\XCACHE_static -->
<g id="node7" class="node"><title>\\JCORE\\CACHE\\XCACHE_static</title>
<polygon fill="none" stroke="black" points="735,-2808 631,-2808 631,-2772 735,-2772 735,-2808"/>
<text text-anchor="middle" x="683" y="-2787.1" font-family="Courier,monospace" font-size="11.00">XCACHE_static</text>
</g>
<!-- \\JCORE\\CACHE\\JCORE_SINGLETON -->
<g id="node74" class="node"><title>\\JCORE\\CACHE\\JCORE_SINGLETON</title>
<ellipse fill="none" stroke="black" cx="259" cy="-243" rx="168.999" ry="19.0919"/>
<text text-anchor="middle" x="259" y="-239.9" font-family="Times Roman,serif" font-size="14.00" fill="gray">\JCORE\CACHE\JCORE_SINGLETON</text>
</g>
<!-- \\JCORE\\CACHE\\XCACHE_static&#45;&gt;\\JCORE\\CACHE\\JCORE_SINGLETON -->
<g id="edge27" class="edge"><title>\\JCORE\\CACHE\\XCACHE_static&#45;&gt;\\JCORE\\CACHE\\JCORE_SINGLETON</title>
<path fill="none" stroke="black" d="M630.836,-2788.42C612.561,-2785.05 593.698,-2777.81 582,-2763 419.986,-2557.82 645.918,-638.997 518,-411 476.094,-336.307 385.589,-289.404 323.484,-264.699"/>
<polygon fill="none" stroke="black" points="324.743,-261.434 314.155,-261.07 322.205,-267.957 324.743,-261.434"/>
</g>
<!-- \\JCORE\\CACHE\\CACHE_STATIC_API_INTERFACE -->
<g id="node76" class="node"><title>\\JCORE\\CACHE\\CACHE_STATIC_API_INTERFACE</title>
<ellipse fill="none" stroke="black" cx="259" cy="-187" rx="229.103" ry="19.0919"/>
<text text-anchor="middle" x="259" y="-183.9" font-family="Times Roman,serif" font-size="14.00" fill="gray">\JCORE\CACHE\CACHE_STATIC_API_INTERFACE</text>
</g>
<!-- \\JCORE\\CACHE\\XCACHE_static&#45;&gt;\\JCORE\\CACHE\\CACHE_STATIC_API_INTERFACE -->
<g id="edge29" class="edge"><title>\\JCORE\\CACHE\\XCACHE_static&#45;&gt;\\JCORE\\CACHE\\CACHE_STATIC_API_INTERFACE</title>
<path fill="none" stroke="black" stroke-dasharray="1,5" d="M630.819,-2788.43C612.542,-2785.06 593.683,-2777.83 582,-2763 494.363,-2651.78 613.908,-319.174 518,-215 479.429,-173.105 416.144,-165.648 361.787,-168.888"/>
<polygon fill="none" stroke="black" points="361.472,-165.401 351.75,-169.611 361.975,-172.383 361.472,-165.401"/>
</g>
<!-- \\JCORE\\CACHE\\MEMCACHED -->
<g id="node8" class="node"><title>\\JCORE\\CACHE\\MEMCACHED</title>
<polygon fill="none" stroke="black" points="721,-3078 645,-3078 645,-3042 721,-3042 721,-3078"/>
<text text-anchor="middle" x="683" y="-3057.1" font-family="Courier,monospace" font-size="11.00">MEMCACHED</text>
</g>
<!-- \\JCORE\\CACHE\\CACHE_COMMON_API_INTERFACE -->
<g id="node17" class="node"><title>\\JCORE\\CACHE\\CACHE_COMMON_API_INTERFACE</title>
<polygon fill="none" stroke="black" points="355,-3024 163,-3024 163,-2988 355,-2988 355,-3024"/>
<text text-anchor="middle" x="259" y="-3003.1" font-family="Courier,monospace" font-size="11.00">CACHE_COMMON_API_INTERFACE</text>
</g>
<!-- \\JCORE\\CACHE\\MEMCACHED&#45;&gt;\\JCORE\\CACHE\\CACHE_COMMON_API_INTERFACE -->
<g id="edge31" class="edge"><title>\\JCORE\\CACHE\\MEMCACHED&#45;&gt;\\JCORE\\CACHE\\CACHE_COMMON_API_INTERFACE</title>
<path fill="none" stroke="black" stroke-dasharray="1,5" d="M644.249,-3055.06C581.588,-3047.08 455.884,-3031.07 365.076,-3019.51"/>
<polygon fill="none" stroke="black" points="365.378,-3016.02 355.016,-3018.23 364.493,-3022.96 365.378,-3016.02"/>
</g>
<!-- \\JCORE\\CACHE\\CACHE_API2 -->
<g id="node9" class="node"><title>\\JCORE\\CACHE\\CACHE_API2</title>
<polygon fill="none" stroke="black" points="725,-3024 641,-3024 641,-2988 725,-2988 725,-3024"/>
<text text-anchor="middle" x="683" y="-3003.1" font-family="Courier,monospace" font-size="11.00">CACHE_API2</text>
</g>
<!-- \\JCORE\\CACHE\\CACHE_API2&#45;&gt;\\JCORE\\CACHE\\CACHE_COMMON_API_INTERFACE -->
<g id="edge35" class="edge"><title>\\JCORE\\CACHE\\CACHE_API2&#45;&gt;\\JCORE\\CACHE\\CACHE_COMMON_API_INTERFACE</title>
<path fill="none" stroke="black" stroke-dasharray="1,5" d="M640.795,-3006C577.162,-3006 454.628,-3006 365.492,-3006"/>
<polygon fill="none" stroke="black" points="365.341,-3002.5 355.341,-3006 365.341,-3009.5 365.341,-3002.5"/>
</g>
<!-- \\JCORE\\CACHE\\XCACHE -->
<g id="node10" class="node"><title>\\JCORE\\CACHE\\XCACHE</title>
<polygon fill="none" stroke="black" points="711,-2754 655,-2754 655,-2718 711,-2718 711,-2754"/>
<text text-anchor="middle" x="683" y="-2733.1" font-family="Courier,monospace" font-size="11.00">XCACHE</text>
</g>
<!-- \\JCORE\\CACHE\\XCACHE&#45;&gt;\\JCORE\\CACHE\\CACHE_STATIC_API_INTERFACE -->
<g id="edge43" class="edge"><title>\\JCORE\\CACHE\\XCACHE&#45;&gt;\\JCORE\\CACHE\\CACHE_STATIC_API_INTERFACE</title>
<path fill="none" stroke="black" stroke-dasharray="1,5" d="M654.061,-2736.94C630.634,-2735.98 598.856,-2730.38 582,-2709 496.19,-2600.16 611.905,-316.942 518,-215 479.417,-173.115 416.133,-165.659 361.779,-168.896"/>
<polygon fill="none" stroke="black" points="361.464,-165.409 351.741,-169.619 361.967,-172.391 361.464,-165.409"/>
</g>
<!-- \\JCORE\\CACHE\\URL_API -->
<g id="node11" class="node"><title>\\JCORE\\CACHE\\URL_API</title>
<polygon fill="none" stroke="black" points="715,-2862 651,-2862 651,-2826 715,-2826 715,-2862"/>
<text text-anchor="middle" x="683" y="-2841.1" font-family="Courier,monospace" font-size="11.00">URL_API</text>
</g>
<!-- \\JCORE\\TRANSPORT\\TRANSPORT_INTERFACE -->
<g id="node39" class="node"><title>\\JCORE\\TRANSPORT\\TRANSPORT_INTERFACE</title>
<polygon fill="none" stroke="black" points="331,-2227 187,-2227 187,-2191 331,-2191 331,-2227"/>
<text text-anchor="middle" x="259" y="-2206.1" font-family="Courier,monospace" font-size="11.00">TRANSPORT_INTERFACE</text>
</g>
<!-- \\JCORE\\CACHE\\URL_API&#45;&gt;\\JCORE\\TRANSPORT\\TRANSPORT_INTERFACE -->
<g id="edge45" class="edge"><title>\\JCORE\\CACHE\\URL_API&#45;&gt;\\JCORE\\TRANSPORT\\TRANSPORT_INTERFACE</title>
<path fill="none" stroke="black" stroke-dasharray="1,5" d="M650.776,-2843.33C628.677,-2841.17 600.174,-2834.76 582,-2817 509.473,-2746.13 560.812,-2689.92 518,-2598 449.297,-2450.49 329.269,-2295.34 280.509,-2235.07"/>
<polygon fill="none" stroke="black" points="283.139,-2232.76 274.114,-2227.21 277.708,-2237.17 283.139,-2232.76"/>
</g>
<!-- \\JCORE\\CACHE\\SESSION -->
<g id="node12" class="node"><title>\\JCORE\\CACHE\\SESSION</title>
<polygon fill="none" stroke="black" points="715,-2916 651,-2916 651,-2880 715,-2880 715,-2916"/>
<text text-anchor="middle" x="683" y="-2895.1" font-family="Courier,monospace" font-size="11.00">SESSION</text>
</g>
<!-- \\JCORE\\CACHE\\PHP_SESSION -->
<g id="node16" class="node"><title>\\JCORE\\CACHE\\PHP_SESSION</title>
<polygon fill="none" stroke="black" points="304,-2916 214,-2916 214,-2880 304,-2880 304,-2916"/>
<text text-anchor="middle" x="259" y="-2895.1" font-family="Courier,monospace" font-size="11.00">PHP_SESSION</text>
</g>
<!-- \\JCORE\\CACHE\\SESSION&#45;&gt;\\JCORE\\CACHE\\PHP_SESSION -->
<g id="edge47" class="edge"><title>\\JCORE\\CACHE\\SESSION&#45;&gt;\\JCORE\\CACHE\\PHP_SESSION</title>
<path fill="none" stroke="black" stroke-dasharray="1,5" d="M650.783,-2898C578.862,-2898 404.501,-2898 314.62,-2898"/>
<polygon fill="none" stroke="black" points="314.615,-2894.5 304.615,-2898 314.615,-2901.5 314.615,-2894.5"/>
</g>
<!-- \\JCORE\\CACHE\\REDIS -->
<g id="node13" class="node"><title>\\JCORE\\CACHE\\REDIS</title>
<polygon fill="none" stroke="black" points="710,-2700 656,-2700 656,-2664 710,-2664 710,-2700"/>
<text text-anchor="middle" x="683" y="-2679.1" font-family="Courier,monospace" font-size="11.00">REDIS</text>
</g>
<!-- \\JCORE\\CACHE\\JCORE\\CACHE\\STATIC_API_INTERFACE -->
<g id="node89" class="node"><title>\\JCORE\\CACHE\\JCORE\\CACHE\\STATIC_API_INTERFACE</title>
<ellipse fill="none" stroke="black" cx="259" cy="-131" rx="258.801" ry="19.0919"/>
<text text-anchor="middle" x="259" y="-127.9" font-family="Times Roman,serif" font-size="14.00" fill="gray">\JCORE\CACHE\JCORE\CACHE\STATIC_API_INTERFACE</text>
</g>
<!-- \\JCORE\\CACHE\\REDIS&#45;&gt;\\JCORE\\CACHE\\JCORE\\CACHE\\STATIC_API_INTERFACE -->
<g id="edge51" class="edge"><title>\\JCORE\\CACHE\\REDIS&#45;&gt;\\JCORE\\CACHE\\JCORE\\CACHE\\STATIC_API_INTERFACE</title>
<path fill="none" stroke="black" stroke-dasharray="1,5" d="M655.917,-2683.01C632.34,-2682.26 599.305,-2676.95 582,-2655 496.122,-2546.07 611.979,-261.025 518,-159 480.29,-118.061 418.98,-110.013 365.476,-112.693"/>
<polygon fill="none" stroke="black" points="364.997,-109.216 355.237,-113.339 365.438,-116.202 364.997,-109.216"/>
</g>
<!-- \\JCORE\\CACHE\\FILECACHE_API -->
<g id="node14" class="node"><title>\\JCORE\\CACHE\\FILECACHE_API</title>
<polygon fill="none" stroke="black" points="735,-2970 631,-2970 631,-2934 735,-2934 735,-2970"/>
<text text-anchor="middle" x="683" y="-2949.1" font-family="Courier,monospace" font-size="11.00">FILECACHE_API</text>
</g>
<!-- \\JCORE\\CACHE\\FILECACHE_API&#45;&gt;\\JCORE\\CACHE\\CACHE_COMMON_API_INTERFACE -->
<g id="edge57" class="edge"><title>\\JCORE\\CACHE\\FILECACHE_API&#45;&gt;\\JCORE\\CACHE\\CACHE_COMMON_API_INTERFACE</title>
<path fill="none" stroke="black" stroke-dasharray="1,5" d="M630.584,-2958.68C564.688,-2967.07 449.967,-2981.68 365.379,-2992.45"/>
<polygon fill="none" stroke="black" points="364.696,-2989.01 355.218,-2993.75 365.58,-2995.95 364.696,-2989.01"/>
</g>
<!-- \\JCORE\\CACHE\\STATIC_API_INTERFACE -->
<g id="node15" class="node"><title>\\JCORE\\CACHE\\STATIC_API_INTERFACE</title>
<polygon fill="none" stroke="black" points="759,-2646 607,-2646 607,-2610 759,-2610 759,-2646"/>
<text text-anchor="middle" x="683" y="-2625.1" font-family="Courier,monospace" font-size="11.00">STATIC_API_INTERFACE</text>
</g>
<!-- \\JCORE\\CACHE\\JCORE\\JCORE_SINGLETON_INTERFACE -->
<g id="node97" class="node"><title>\\JCORE\\CACHE\\JCORE\\JCORE_SINGLETON_INTERFACE</title>
<ellipse fill="none" stroke="black" cx="259" cy="-75" rx="258.094" ry="19.0919"/>
<text text-anchor="middle" x="259" y="-71.9" font-family="Times Roman,serif" font-size="14.00" fill="gray">\JCORE\CACHE\JCORE\JCORE_SINGLETON_INTERFACE</text>
</g>
<!-- \\JCORE\\CACHE\\STATIC_API_INTERFACE&#45;&gt;\\JCORE\\CACHE\\JCORE\\JCORE_SINGLETON_INTERFACE -->
<g id="edge65" class="edge"><title>\\JCORE\\CACHE\\STATIC_API_INTERFACE&#45;&gt;\\JCORE\\CACHE\\JCORE\\JCORE_SINGLETON_INTERFACE</title>
<path fill="none" stroke="black" d="M632.706,-2609.98C613.384,-2600.35 593.276,-2586.39 582,-2567 513.163,-2448.62 610.792,-203.702 518,-103 480.283,-62.0672 418.973,-54.0191 365.471,-56.6979"/>
<polygon fill="none" stroke="black" points="364.992,-53.2211 355.232,-57.3436 365.432,-60.2072 364.992,-53.2211"/>
</g>
<!-- \\JCORE\\DAO\\TREE\\DAO_TREE -->
<g id="node20" class="node"><title>\\JCORE\\DAO\\TREE\\DAO_TREE</title>
<polygon fill="none" stroke="black" points="718,-2532 648,-2532 648,-2496 718,-2496 718,-2532"/>
<text text-anchor="middle" x="683" y="-2511.1" font-family="Courier,monospace" font-size="11.00">DAO_TREE</text>
</g>
<!-- \\JCORE\\DAO\\DAO -->
<g id="node21" class="node"><title>\\JCORE\\DAO\\DAO</title>
<polygon fill="none" stroke="black" points="710,-2478 656,-2478 656,-2442 710,-2442 710,-2478"/>
<text text-anchor="middle" x="683" y="-2457.1" font-family="Courier,monospace" font-size="11.00">DAO</text>
</g>
<!-- \\JCORE\\DAO\\SESSION -->
<g id="node22" class="node"><title>\\JCORE\\DAO\\SESSION</title>
<polygon fill="none" stroke="black" points="715,-2424 651,-2424 651,-2388 715,-2388 715,-2424"/>
<text text-anchor="middle" x="683" y="-2403.1" font-family="Courier,monospace" font-size="11.00">SESSION</text>
</g>
<!-- \\JCORE\\TRANSPORT\\XML\\SOAP -->
<g id="node25" class="node"><title>\\JCORE\\TRANSPORT\\XML\\SOAP</title>
<polygon fill="none" stroke="black" points="710,-2310 656,-2310 656,-2274 710,-2274 710,-2310"/>
<text text-anchor="middle" x="683" y="-2289.1" font-family="Courier,monospace" font-size="11.00">SOAP</text>
</g>
<!-- \\JCORE\\TRANSPORT\\XML\\SOAP&#45;&gt;\\JCORE\\TRANSPORT\\TRANSPORT_INTERFACE -->
<g id="edge33" class="edge"><title>\\JCORE\\TRANSPORT\\XML\\SOAP&#45;&gt;\\JCORE\\TRANSPORT\\TRANSPORT_INTERFACE</title>
<path fill="none" stroke="black" stroke-dasharray="1,5" d="M655.832,-2286.68C593.606,-2274.5 438.674,-2244.17 341.838,-2225.22"/>
<polygon fill="none" stroke="black" points="342.268,-2221.73 331.782,-2223.25 340.923,-2228.6 342.268,-2221.73"/>
</g>
<!-- \\JCORE\\TRANSPORT\\REST\\REST_API -->
<g id="node27" class="node"><title>\\JCORE\\TRANSPORT\\REST\\REST_API</title>
<polygon fill="none" stroke="black" points="725,-2227 641,-2227 641,-2191 725,-2191 725,-2227"/>
<text text-anchor="start" x="649" y="-2214.43" font-family="Courier,monospace" font-size="11.00">«abstract»</text>
<text text-anchor="start" x="655.5" y="-2201.23" font-family="Courier,monospace" font-size="11.00">REST_API</text>
</g>
<!-- \\JCORE\\TRANSPORT\\REST\\REST_API&#45;&gt;\\JCORE\\TRANSPORT\\TRANSPORT_INTERFACE -->
<g id="edge49" class="edge"><title>\\JCORE\\TRANSPORT\\REST\\REST_API&#45;&gt;\\JCORE\\TRANSPORT\\TRANSPORT_INTERFACE</title>
<path fill="none" stroke="black" stroke-dasharray="1,5" d="M640.404,-2209C570.743,-2209 431.251,-2209 341.653,-2209"/>
<polygon fill="none" stroke="black" points="341.524,-2205.5 331.523,-2209 341.523,-2212.5 341.524,-2205.5"/>
</g>
<!-- \\JCORE\\TRANSPORT\\SOA\\SERVICE_VALIDATOR -->
<g id="node29" class="node"><title>\\JCORE\\TRANSPORT\\SOA\\SERVICE_VALIDATOR</title>
<polygon fill="none" stroke="black" points="748,-2144 618,-2144 618,-2108 748,-2108 748,-2144"/>
<text text-anchor="middle" x="683" y="-2123.1" font-family="Courier,monospace" font-size="11.00">SERVICE_VALIDATOR</text>
</g>
<!-- \\JCORE\\TRANSPORT\\SOA\\SOA_BASE -->
<g id="node30" class="node"><title>\\JCORE\\TRANSPORT\\SOA\\SOA_BASE</title>
<polygon fill="none" stroke="black" points="725,-2090 641,-2090 641,-2054 725,-2054 725,-2090"/>
<text text-anchor="start" x="649" y="-2077.43" font-family="Courier,monospace" font-size="11.00">«abstract»</text>
<text text-anchor="start" x="655.5" y="-2064.23" font-family="Courier,monospace" font-size="11.00">SOA_BASE</text>
</g>
<!-- \\JCORE\\TRANSPORT\\HTTP\\HTTP_UTIL -->
<g id="node32" class="node"><title>\\JCORE\\TRANSPORT\\HTTP\\HTTP_UTIL</title>
<polygon fill="none" stroke="black" points="721,-2007 645,-2007 645,-1971 721,-1971 721,-2007"/>
<text text-anchor="middle" x="683" y="-1986.1" font-family="Courier,monospace" font-size="11.00">HTTP_UTIL</text>
</g>
<!-- \\JCORE\\TRANSPORT\\HTTP\\HTTP_API -->
<g id="node33" class="node"><title>\\JCORE\\TRANSPORT\\HTTP\\HTTP_API</title>
<polygon fill="none" stroke="black" points="718,-1953 648,-1953 648,-1917 718,-1917 718,-1953"/>
<text text-anchor="middle" x="683" y="-1932.1" font-family="Courier,monospace" font-size="11.00">HTTP_API</text>
</g>
<!-- \\JCORE\\TRANSPORT\\HTTP\\HTTP_API&#45;&gt;\\JCORE\\TRANSPORT\\TRANSPORT_INTERFACE -->
<g id="edge63" class="edge"><title>\\JCORE\\TRANSPORT\\HTTP\\HTTP_API&#45;&gt;\\JCORE\\TRANSPORT\\TRANSPORT_INTERFACE</title>
<path fill="none" stroke="black" stroke-dasharray="1,5" d="M647.193,-1941.01C627.31,-1945.21 602.522,-1951.91 582,-1962 458.779,-2022.6 336.332,-2133.71 284.623,-2183.59"/>
<polygon fill="none" stroke="black" points="281.963,-2181.29 277.228,-2190.77 286.84,-2186.31 281.963,-2181.29"/>
</g>
<!-- \\JCORE\\TRANSPORT\\JSON\\JSONRPC_1_0_API -->
<g id="node35" class="node"><title>\\JCORE\\TRANSPORT\\JSON\\JSONRPC_1_0_API</title>
<polygon fill="none" stroke="black" points="742,-1870 624,-1870 624,-1834 742,-1834 742,-1870"/>
<text text-anchor="middle" x="683" y="-1849.1" font-family="Courier,monospace" font-size="11.00">JSONRPC_1_0_API</text>
</g>
<!-- \\JCORE\\TRANSPORT\\JSON\\JSONRPC_1_0_API&#45;&gt;\\JCORE\\TRANSPORT\\TRANSPORT_INTERFACE -->
<g id="edge61" class="edge"><title>\\JCORE\\TRANSPORT\\JSON\\JSONRPC_1_0_API&#45;&gt;\\JCORE\\TRANSPORT\\TRANSPORT_INTERFACE</title>
<path fill="none" stroke="black" stroke-dasharray="1,5" d="M642.694,-1870.02C623.586,-1879.33 600.868,-1891.55 582,-1905 457.676,-1993.6 332.2,-2127.29 281.915,-2183.1"/>
<polygon fill="none" stroke="black" points="279.122,-2180.97 275.051,-2190.75 284.333,-2185.64 279.122,-2180.97"/>
</g>
<!-- \\JCORE\\TRANSPORT\\JSON\\JSON -->
<g id="node36" class="node"><title>\\JCORE\\TRANSPORT\\JSON\\JSON</title>
<polygon fill="none" stroke="black" points="710,-1816 656,-1816 656,-1780 710,-1780 710,-1816"/>
<text text-anchor="middle" x="683" y="-1795.1" font-family="Courier,monospace" font-size="11.00">JSON</text>
</g>
<!-- \\JCORE\\TRANSPORT\\SERIALIZATION -->
<g id="node37" class="node"><title>\\JCORE\\TRANSPORT\\SERIALIZATION</title>
<polygon fill="none" stroke="black" points="735,-1762 631,-1762 631,-1726 735,-1726 735,-1762"/>
<text text-anchor="middle" x="683" y="-1741.1" font-family="Courier,monospace" font-size="11.00">SERIALIZATION</text>
</g>
<!-- \\JCORE\\TRANSPORT\\SERIALIZATION_STATIC -->
<g id="node38" class="node"><title>\\JCORE\\TRANSPORT\\SERIALIZATION_STATIC</title>
<polygon fill="none" stroke="black" points="759,-1708 607,-1708 607,-1672 759,-1672 759,-1708"/>
<text text-anchor="middle" x="683" y="-1687.1" font-family="Courier,monospace" font-size="11.00">SERIALIZATION_STATIC</text>
</g>
<!-- \\JCORE\\DATA\\API\\REDIS\\REDIS_connector -->
<g id="node43" class="node"><title>\\JCORE\\DATA\\API\\REDIS\\REDIS_connector</title>
<polygon fill="none" stroke="black" points="742,-1480 624,-1480 624,-1444 742,-1444 742,-1480"/>
<text text-anchor="middle" x="683" y="-1459.1" font-family="Courier,monospace" font-size="11.00">REDIS_connector</text>
</g>
<!-- \\JCORE\\DATA\\API\\DATA_API_INTERFACE -->
<g id="node51" class="node"><title>\\JCORE\\DATA\\API\\DATA_API_INTERFACE</title>
<polygon fill="none" stroke="black" points="328,-1480 190,-1480 190,-1444 328,-1444 328,-1480"/>
<text text-anchor="middle" x="259" y="-1459.1" font-family="Courier,monospace" font-size="11.00">DATA_API_INTERFACE</text>
</g>
<!-- \\JCORE\\DATA\\API\\REDIS\\REDIS_connector&#45;&gt;\\JCORE\\DATA\\API\\DATA_API_INTERFACE -->
<g id="edge37" class="edge"><title>\\JCORE\\DATA\\API\\REDIS\\REDIS_connector&#45;&gt;\\JCORE\\DATA\\API\\DATA_API_INTERFACE</title>
<path fill="none" stroke="black" stroke-dasharray="1,5" d="M623.598,-1462C549.101,-1462 421.125,-1462 338.315,-1462"/>
<polygon fill="none" stroke="black" points="338.196,-1458.5 328.196,-1462 338.196,-1465.5 338.196,-1458.5"/>
</g>
<!-- \\JCORE\\DATA\\API\\MySQL\\MySQL_connector -->
<g id="node45" class="node"><title>\\JCORE\\DATA\\API\\MySQL\\MySQL_connector</title>
<polygon fill="none" stroke="black" points="742,-1397 624,-1397 624,-1361 742,-1361 742,-1397"/>
<text text-anchor="middle" x="683" y="-1376.1" font-family="Courier,monospace" font-size="11.00">MySQL_connector</text>
</g>
<!-- \\JCORE\\DATA\\API\\MySQL\\MySQL_connector&#45;&gt;\\JCORE\\DATA\\API\\DATA_API_INTERFACE -->
<g id="edge41" class="edge"><title>\\JCORE\\DATA\\API\\MySQL\\MySQL_connector&#45;&gt;\\JCORE\\DATA\\API\\DATA_API_INTERFACE</title>
<path fill="none" stroke="black" stroke-dasharray="1,5" d="M623.598,-1390.63C549.026,-1405.23 420.864,-1430.31 338.063,-1446.52"/>
<polygon fill="none" stroke="black" points="337.338,-1443.1 328.196,-1448.45 338.683,-1449.97 337.338,-1443.1"/>
</g>
<!-- \\JCORE\\DATA\\API\\MySQL\\MySQL_TABLE_META -->
<g id="node46" class="node"><title>\\JCORE\\DATA\\API\\MySQL\\MySQL_TABLE_META</title>
<polygon fill="none" stroke="black" points="745,-1343 621,-1343 621,-1307 745,-1307 745,-1343"/>
<text text-anchor="middle" x="683" y="-1322.1" font-family="Courier,monospace" font-size="11.00">MySQL_TABLE_META</text>
</g>
<!-- \\JCORE\\DATA\\API\\FILE\\CSV_connector -->
<g id="node48" class="node"><title>\\JCORE\\DATA\\API\\FILE\\CSV_connector</title>
<polygon fill="none" stroke="black" points="735,-1563 631,-1563 631,-1527 735,-1527 735,-1563"/>
<text text-anchor="middle" x="683" y="-1542.1" font-family="Courier,monospace" font-size="11.00">CSV_connector</text>
</g>
<!-- \\JCORE\\DATA\\API\\FILE\\CSV_connector&#45;&gt;\\JCORE\\DATA\\API\\DATA_API_INTERFACE -->
<g id="edge53" class="edge"><title>\\JCORE\\DATA\\API\\FILE\\CSV_connector&#45;&gt;\\JCORE\\DATA\\API\\DATA_API_INTERFACE</title>
<path fill="none" stroke="black" stroke-dasharray="1,5" d="M630.584,-1534.74C557.268,-1520.39 423.513,-1494.2 338.064,-1477.48"/>
<polygon fill="none" stroke="black" points="338.634,-1474.02 328.148,-1475.54 337.289,-1480.89 338.634,-1474.02"/>
</g>
<!-- \\JCORE\\DATA\\API\\DATA_API -->
<g id="node49" class="node"><title>\\JCORE\\DATA\\API\\DATA_API</title>
<polygon fill="none" stroke="black" points="718,-1289 648,-1289 648,-1253 718,-1253 718,-1289"/>
<text text-anchor="middle" x="683" y="-1268.1" font-family="Courier,monospace" font-size="11.00">DATA_API</text>
</g>
<!-- \\JCORE\\DATA\\API\\DATA_UTIL_API -->
<g id="node50" class="node"><title>\\JCORE\\DATA\\API\\DATA_UTIL_API</title>
<polygon fill="none" stroke="black" points="735,-1235 631,-1235 631,-1199 735,-1199 735,-1235"/>
<text text-anchor="middle" x="683" y="-1214.1" font-family="Courier,monospace" font-size="11.00">DATA_UTIL_API</text>
</g>
<!-- \\JCORE\\CORE\\JCORE_SINGLETON_INTERFACE -->
<g id="node53" class="node"><title>\\JCORE\\CORE\\JCORE_SINGLETON_INTERFACE</title>
<polygon fill="none" stroke="black" points="775,-1144 591,-1144 591,-1108 775,-1108 775,-1144"/>
<text text-anchor="middle" x="683" y="-1123.1" font-family="Courier,monospace" font-size="11.00">JCORE_SINGLETON_INTERFACE</text>
</g>
<!-- \\JCORE\\EXCEPTION\\DATA_Exception -->
<g id="node55" class="node"><title>\\JCORE\\EXCEPTION\\DATA_Exception</title>
<polygon fill="none" stroke="black" points="738,-1061 628,-1061 628,-1025 738,-1025 738,-1061"/>
<text text-anchor="middle" x="683" y="-1040.1" font-family="Courier,monospace" font-size="11.00">DATA_Exception</text>
</g>
<!-- \\Exception -->
<g id="node82" class="node"><title>\\Exception</title>
<ellipse fill="none" stroke="black" cx="259" cy="-19" rx="53.033" ry="19.0919"/>
<text text-anchor="middle" x="259" y="-15.9" font-family="Times Roman,serif" font-size="14.00" fill="gray">\Exception</text>
</g>
<!-- \\JCORE\\EXCEPTION\\DATA_Exception&#45;&gt;\\Exception -->
<g id="edge39" class="edge"><title>\\JCORE\\EXCEPTION\\DATA_Exception&#45;&gt;\\Exception</title>
<path fill="none" stroke="black" d="M627.447,-1040.43C610.384,-1036.77 593.176,-1029.6 582,-1016 445.006,-849.257 667.378,-202.746 518,-47 466.062,7.15203 372.668,2.87631 313.362,-6.84084"/>
<polygon fill="none" stroke="black" points="312.677,-3.40736 303.426,-8.57166 313.878,-10.3035 312.677,-3.40736"/>
</g>
<!-- \\JCORE\\EXCEPTION\\networkException -->
<g id="node56" class="node"><title>\\JCORE\\EXCEPTION\\networkException</title>
<polygon fill="none" stroke="black" points="745,-1007 621,-1007 621,-971 745,-971 745,-1007"/>
<text text-anchor="middle" x="683" y="-986.1" font-family="Courier,monospace" font-size="11.00">networkException</text>
</g>
<!-- \\JCORE\\EXCEPTION\\networkException&#45;&gt;\\Exception -->
<g id="edge55" class="edge"><title>\\JCORE\\EXCEPTION\\networkException&#45;&gt;\\Exception</title>
<path fill="none" stroke="black" d="M620.362,-984.669C605.742,-980.629 591.644,-973.692 582,-962 452.301,-804.759 659.376,-193.832 518,-47 465.957,7.05117 372.594,2.80531 313.323,-6.87832"/>
<polygon fill="none" stroke="black" points="312.646,-3.44333 303.393,-8.60331 313.844,-10.34 312.646,-3.44333"/>
</g>
<!-- \\JCORE\\EXCEPTION\\ERROR -->
<g id="node57" class="node"><title>\\JCORE\\EXCEPTION\\ERROR</title>
<polygon fill="none" stroke="black" points="710,-953 656,-953 656,-917 710,-917 710,-953"/>
<text text-anchor="middle" x="683" y="-932.1" font-family="Courier,monospace" font-size="11.00">ERROR</text>
</g>
<!-- \\JCORE\\TEMPLATER\\TEMPLATER -->
<g id="node59" class="node"><title>\\JCORE\\TEMPLATER\\TEMPLATER</title>
<polygon fill="none" stroke="black" points="721,-870 645,-870 645,-834 721,-834 721,-870"/>
<text text-anchor="middle" x="683" y="-849.1" font-family="Courier,monospace" font-size="11.00">TEMPLATER</text>
</g>
<!-- \\JCORE\\LOAD\\CONFIG_MANAGER_INI -->
<g id="node61" class="node"><title>\\JCORE\\LOAD\\CONFIG_MANAGER_INI</title>
<polygon fill="none" stroke="black" points="752,-787 614,-787 614,-751 752,-751 752,-787"/>
<text text-anchor="middle" x="683" y="-766.1" font-family="Courier,monospace" font-size="11.00">CONFIG_MANAGER_INI</text>
</g>
<!-- \\JCORE\\LOAD\\ComposerAutoloaderInit -->
<g id="node62" class="node"><title>\\JCORE\\LOAD\\ComposerAutoloaderInit</title>
<polygon fill="none" stroke="black" points="765,-733 601,-733 601,-697 765,-697 765,-733"/>
<text text-anchor="middle" x="683" y="-712.1" font-family="Courier,monospace" font-size="11.00">ComposerAutoloaderInit</text>
</g>
<!-- \\JCORE\\LOAD\\CONFIG_MANAGER -->
<g id="node63" class="node"><title>\\JCORE\\LOAD\\CONFIG_MANAGER</title>
<polygon fill="none" stroke="black" points="738,-679 628,-679 628,-643 738,-643 738,-679"/>
<text text-anchor="middle" x="683" y="-658.1" font-family="Courier,monospace" font-size="11.00">CONFIG_MANAGER</text>
</g>
<!-- \\JCORE\\L10N\\PO_TRANSLATION -->
<g id="node65" class="node"><title>\\JCORE\\L10N\\PO_TRANSLATION</title>
<polygon fill="none" stroke="black" points="738,-596 628,-596 628,-560 738,-560 738,-596"/>
<text text-anchor="middle" x="683" y="-575.1" font-family="Courier,monospace" font-size="11.00">PO_TRANSLATION</text>
</g>
<!-- \\JCORE\\AUTH\\AUTH_HARNESS -->
<g id="node67" class="node"><title>\\JCORE\\AUTH\\AUTH_HARNESS</title>
<polygon fill="none" stroke="black" points="732,-513 634,-513 634,-477 732,-477 732,-513"/>
<text text-anchor="middle" x="683" y="-492.1" font-family="Courier,monospace" font-size="11.00">AUTH_HARNESS</text>
</g>
<!-- \\JCORE\\AUTH\\IP_WHITELIST -->
<g id="node68" class="node"><title>\\JCORE\\AUTH\\IP_WHITELIST</title>
<polygon fill="none" stroke="black" points="732,-459 634,-459 634,-423 732,-423 732,-459"/>
<text text-anchor="middle" x="683" y="-438.1" font-family="Courier,monospace" font-size="11.00">IP_WHITELIST</text>
</g>
<!-- \\JCORE\\AUTH\\AUTH_INTERFACE -->
<g id="node69" class="node"><title>\\JCORE\\AUTH\\AUTH_INTERFACE</title>
<polygon fill="none" stroke="black" points="314,-459 204,-459 204,-423 314,-423 314,-459"/>
<text text-anchor="middle" x="259" y="-438.1" font-family="Courier,monospace" font-size="11.00">AUTH_INTERFACE</text>
</g>
<!-- \\JCORE\\AUTH\\IP_WHITELIST&#45;&gt;\\JCORE\\AUTH\\AUTH_INTERFACE -->
<g id="edge59" class="edge"><title>\\JCORE\\AUTH\\IP_WHITELIST&#45;&gt;\\JCORE\\AUTH\\AUTH_INTERFACE</title>
<path fill="none" stroke="black" stroke-dasharray="1,5" d="M633.948,-441C557.595,-441 410.233,-441 324.751,-441"/>
<polygon fill="none" stroke="black" points="324.642,-437.5 314.642,-441 324.642,-444.5 324.642,-437.5"/>
</g>
<!-- \\JCORE\\LOG\\LOGGER -->
<g id="node71" class="node"><title>\\JCORE\\LOG\\LOGGER</title>
<polygon fill="none" stroke="black" points="711,-376 655,-376 655,-340 711,-340 711,-376"/>
<text text-anchor="middle" x="683" y="-355.1" font-family="Courier,monospace" font-size="11.00">LOGGER</text>
</g>
<!-- \\JCORE\\JCORE_SINGLETON -->
<g id="node72" class="node"><title>\\JCORE\\JCORE_SINGLETON</title>
<polygon fill="none" stroke="black" points="742,-322 624,-322 624,-286 742,-286 742,-322"/>
<text text-anchor="start" x="649" y="-309.433" font-family="Courier,monospace" font-size="11.00">«abstract»</text>
<text text-anchor="start" x="632" y="-296.233" font-family="Courier,monospace" font-size="11.00">JCORE_SINGLETON</text>
</g>
</g>
</svg>
